<?xml version="1.0" encoding="utf-8"?>
<!-- Generator: Adobe Illustrator 21.1.0, SVG Export Plug-In . SVG Version: 6.00 Build 0)  -->
<svg version="1.1" id="Layer_1" xmlns="http://www.w3.org/2000/svg" xmlns:xlink="http://www.w3.org/1999/xlink" x="0px" y="0px"
	 width="68px" height="68px" viewBox="0 0 68 68" style="enable-background:new 0 0 68 68;" xml:space="preserve">
<style type="text/css">
	.st0{clip-path:url(#SVGID_2_);fill:#FFFFFF;}
	.st1{fill:#FFFFFF;}
</style>
<g>
	<defs>
		<rect id="SVGID_1_" x="0.3" y="0.2" width="67.8" height="67.4"/>
	</defs>
	<clipPath id="SVGID_2_">
		<use xlink:href="#SVGID_1_"  style="overflow:visible;"/>
	</clipPath>
	<path class="st0" d="M38.2,52.9c0,3.2,2.6,5.8,5.8,5.8c3.2,0,5.8-2.6,5.8-5.8c0-1-0.3-2-0.8-2.8h0.1v-4.3h-2.9v4.3h0
		c0.4,0.5,0.6,1,0.6,1.7c0,1.5-1.2,2.8-2.8,2.8c-1.4,0-2.6-1.1-2.7-2.5h0v-4.2C39.5,48.8,38.2,50.7,38.2,52.9 M9.8,40.2h3.9V23.9
		H9.8V40.2z M50.7,35.4h-1.6v-1.3h0V32h1.6V35.4z M46.2,35.4H25.9V32h1.3v2.1h2.9V32h1.8v2.1h2.9V32h1.8v2.1h2.9V32h1.8v2.1h2.9V32
		h1.8V35.4z M23,29.6c0,1.3-1,2.3-2.3,2.3c-1.3,0-2.3-1-2.3-2.3c0-1.3,1-2.3,2.3-2.3C21.9,27.3,23,28.3,23,29.6 M58.7,36.4V25.3H54
		v-1.4h-3.3v5.2h-1.6v-4.3h-2.9v4.3h-1.8v-4.3h-2.9v4.3h-1.8v-4.3h-2.9v4.3h-1.8v-4.3h-2.9v4.3h-1.8v-4.3h-2.9v4.3h-1.3v-5.2h-2.2
		v-4h-6.4v4h-2v15.3h2h6.4h22.5v3.9h-1.1v-0.4h-1.7v3h1.7v-0.9h5.1v0.9H52v-3h-1.7v0.4h-1.1v-3.9H54v-2.8H58.7z"/>
</g>
<path class="st1" d="M66.1,34c0,17.6-14.4,31.9-32.1,31.9S1.9,51.6,1.9,34S16.2,2.1,34,2.1S66.1,16.4,66.1,34 M67.9,34
	C67.9,15.4,52.7,0.4,34,0.4S0.1,15.4,0.1,34S15.3,67.6,34,67.6S67.9,52.6,67.9,34"/>
</svg>
