<?xml version="1.0" encoding="utf-8"?>
<!-- Generator: Adobe Illustrator 21.1.0, SVG Export Plug-In . SVG Version: 6.00 Build 0)  -->
<svg version="1.1" id="Layer_1" xmlns="http://www.w3.org/2000/svg" xmlns:xlink="http://www.w3.org/1999/xlink" x="0px" y="0px"
	 width="92px" height="59px" viewBox="0 0 92 59" style="enable-background:new 0 0 92 59;" xml:space="preserve">
<style type="text/css">
	.st0{clip-path:url(#SVGID_2_);fill:#3D504E;}
</style>
<g>
	<defs>
		<rect id="SVGID_1_" x="16.3" y="0.1" width="59.4" height="58.7"/>
	</defs>
	<clipPath id="SVGID_2_">
		<use xlink:href="#SVGID_1_"  style="overflow:visible;"/>
	</clipPath>
	<path class="st0" d="M46.4,3.1L46.4,3.1C46.4,3.1,46.4,3,46.4,3.1L46.4,3.1z M72.8,29.5c0,4.6-1.4,9.5-3.5,13.3L50.4,27l-4.4,1.7
		V35l22.9,8.6c-4.7,7.7-13.2,12.6-22.9,12.6c-9.7,0-18-4.9-22.7-12.6L46,34.9v-6.1l-4-2.1l-19.2,16c-2.1-3.8-3.5-8.6-3.5-13.2
		C19.1,15,30.8,3.1,45.5,3.1l-4,24.5l4.3,2.4l4.7-2.8L46.4,3.1C60.9,3.4,72.8,15.1,72.8,29.5 M75.7,29.5C75.7,13.3,62.4,0.1,46,0.1
		c-16.4,0-29.7,13.1-29.7,29.4S29.6,58.9,46,58.9C62.4,58.9,75.7,45.7,75.7,29.5"/>
</g>
</svg>
