<?xml version="1.0" encoding="utf-8"?>
<!-- Generator: Adobe Illustrator 21.1.0, SVG Export Plug-In . SVG Version: 6.00 Build 0)  -->
<svg version="1.1" id="Layer_1" xmlns="http://www.w3.org/2000/svg" xmlns:xlink="http://www.w3.org/1999/xlink" x="0px" y="0px"
	 width="92px" height="59px" viewBox="0 0 92 59" style="enable-background:new 0 0 92 59;" xml:space="preserve">
<style type="text/css">
	.st0{clip-path:url(#SVGID_2_);fill:#3D504E;}
</style>
<g>
	<defs>
		<rect id="SVGID_1_" x="0.3" y="13.2" width="91.4" height="32.6"/>
	</defs>
	<clipPath id="SVGID_2_">
		<use xlink:href="#SVGID_1_"  style="overflow:visible;"/>
	</clipPath>
	<path class="st0" d="M83.5,26.1l-4,7.6c-0.2,0.4-0.7,0.5-1,0.5H58.8c-0.8,0-1.1,0.4-1.1,1.1l0,4.4c0,0.7-0.3,1.1-1.1,1.1H46.2
		l-10.4,0c-0.7,0-1.1-0.2-1.1-1.1l0-4.4c0-0.8-0.4-1.1-1.1-1.1H9.4c-0.6,0-1-0.4-1-0.9c0-0.1,0-0.3,0.1-0.4l4-7.6
		c0.2-0.3,0.4-0.5,1-0.5l20.1,0c0.7,0,1.1-0.3,1.1-1.1l0-4.4c0-0.8,0.3-1.1,1.1-1.1l20.7,0c0.7,0,1.1,0.3,1.1,1.1l0,4.4
		c0,0.8,0.4,1.1,1.1,1.1h23.8c0.8,0,1,0.5,1,0.9C83.6,25.8,83.6,26,83.5,26.1 M90.1,19.7l-26.1,0c-0.7,0-1.1-0.2-1.1-1.1l0-3.8
		c0-1.1-0.6-1.7-1.7-1.7l-29.9,0c-1.1,0-1.7,0.6-1.7,1.7l0,3.8c0,0.8-0.4,1.1-1.1,1.1l-17.1,0c-1.3,0-2.1,0.6-2.5,1.4l-8.3,16
		c-0.1,0.2-0.2,0.4-0.2,0.7c0,0.6,0.4,1.4,1.6,1.4l26.5,0c0.8,0,1.1,0.4,1.1,1.1l0,3.8c0,1.1,0.7,1.7,1.7,1.7l15,0l15,0
		c1,0,1.7-0.5,1.7-1.7l0-3.8c0-0.8,0.3-1.1,1.1-1.1l16.6,0c1.1,0,2-0.3,2.5-1.3l8.2-15.8c0.2-0.3,0.3-0.5,0.3-0.9
		C91.7,20.1,90.8,19.7,90.1,19.7"/>
	<path class="st0" d="M66,16.9h-0.5v-0.6H66c0.2,0,0.4,0,0.4,0.3C66.5,16.7,66.4,16.9,66,16.9 M66.7,16.6c0-0.4-0.3-0.5-0.7-0.5
		h-0.8v1.8h0.3v-0.8h0.4l0.5,0.8h0.3l-0.5-0.8C66.5,17.1,66.7,16.9,66.7,16.6"/>
	<path class="st0" d="M65.9,18.3L65.9,18.3c-0.8,0-1.4-0.6-1.4-1.4c0-0.7,0.6-1.3,1.4-1.3c0.8,0,1.4,0.6,1.4,1.3
		C67.3,17.7,66.7,18.3,65.9,18.3 M65.9,15.4c-0.9,0-1.7,0.7-1.7,1.6c0,0.9,0.7,1.6,1.7,1.6c0.9,0,1.6-0.7,1.6-1.6
		C67.5,16.1,66.8,15.4,65.9,15.4"/>
</g>
</svg>
