<?xml version="1.0" encoding="utf-8"?>
<!-- Generator: Adobe Illustrator 21.1.0, SVG Export Plug-In . SVG Version: 6.00 Build 0)  -->
<svg version="1.1" id="Layer_1" xmlns="http://www.w3.org/2000/svg" xmlns:xlink="http://www.w3.org/1999/xlink" x="0px" y="0px"
	 width="68px" height="68px" viewBox="0 0 68 68" style="enable-background:new 0 0 68 68;" xml:space="preserve">
<style type="text/css">
	.st0{clip-path:url(#SVGID_2_);fill:#3D504E;}
	.st1{fill:#3D504E;}
	.st2{clip-path:url(#SVGID_4_);fill:#3D504E;}
	.st3{clip-path:url(#SVGID_6_);fill:#3D504E;}
</style>
<g>
	<g>
		<defs>
			<rect id="SVGID_1_" x="0.1" y="1.4" width="67.8" height="65.3"/>
		</defs>
		<clipPath id="SVGID_2_">
			<use xlink:href="#SVGID_1_"  style="overflow:visible;"/>
		</clipPath>
		<path class="st0" d="M67.9,35.2C67.3,16.4,52.4,1.4,34,1.4S0.7,16.4,0.1,35.2h4C4.6,18.6,17.8,5.4,34,5.4s29.4,13.2,29.9,29.7
			H67.9z"/>
		<path class="st0" d="M2.1,36.6H0.4C1,49.4,8.9,60.3,20,65.3v-2C9.9,58.5,2.7,48.4,2.1,36.6 M20,61.3c-9-4.8-15.3-14-15.9-24.7H2.9
			C3.5,48,10.3,57.7,20,62.6V61.3z M65,36.6h-1.1C63.2,47.3,57,56.5,48,61.3v1.3C57.6,57.6,64.4,48,65,36.6 M67.6,36.6h-1.8
			C65.3,48.4,58.1,58.5,48,63.4v2C59.1,60.3,67,49.4,67.6,36.6"/>
		<path class="st0" d="M18.3,46.2c0,0.4-0.1,0.8-0.3,1c-0.3,0.3-0.7,0.4-1.2,0.4h-2.9v-3.7h2.9c0.5,0,1,0.1,1.2,0.4
			c0.2,0.2,0.3,0.5,0.3,1V46.2z M19.4,46.4v-1.2c0-0.7-0.2-1.3-0.6-1.6c-0.5-0.5-1.3-0.6-2.3-0.6h-3.7v5.7h3.7c1,0,1.8-0.1,2.3-0.6
			C19.2,47.6,19.4,47.1,19.4,46.4"/>
	</g>
	<polyline class="st1" points="12.7,32.7 55.3,32.7 55.3,25.9 12.7,25.9 	"/>
	<polyline class="st1" points="12.7,36.1 55.3,36.1 55.3,35 12.7,35 	"/>
	<polyline class="st1" points="12.7,39.5 55.3,39.5 55.3,37.2 12.7,37.2 	"/>
	<polygon class="st1" points="21.7,42.9 21.7,48.6 22.8,48.6 22.8,44.5 27.3,48.6 28.2,48.6 28.2,42.9 27.1,42.9 27.1,47 22.7,42.9 
			"/>
	<polygon class="st1" points="55.3,48.6 55.3,47.6 51.1,47.6 51.1,42.9 50,42.9 50,48.6 	"/>
	<polygon class="st1" points="32.9,48.6 33.7,48.6 36.8,42.9 35.6,42.9 33.3,47.2 31,42.9 29.8,42.9 	"/>
	<g>
		<defs>
			<rect id="SVGID_3_" x="0.1" y="1.4" width="67.8" height="65.3"/>
		</defs>
		<clipPath id="SVGID_4_">
			<use xlink:href="#SVGID_3_"  style="overflow:visible;"/>
		</clipPath>
		<path class="st2" d="M44,42.9c-1,0-1.8,0.1-2.3,0.6c-0.4,0.4-0.6,0.9-0.6,1.6v1.2c0,0.7,0.2,1.3,0.6,1.6c0.5,0.5,1.3,0.6,2.3,0.6
			h3.7v-3.3h-3.4v1h2.3v1.3h-2.9c-0.5,0-1-0.1-1.2-0.4c-0.2-0.2-0.3-0.5-0.3-1v-1c0-0.4,0.1-0.7,0.3-1c0.3-0.3,0.7-0.4,1.2-0.4h3.9
			v-1H44z"/>
	</g>
	<rect x="37.7" y="45.1" class="st1" width="1.3" height="1.3"/>
	<rect x="21.9" y="62.3" class="st1" width="0.6" height="4.3"/>
	<g>
		<defs>
			<rect id="SVGID_5_" x="0.1" y="1.4" width="67.8" height="65.3"/>
		</defs>
		<clipPath id="SVGID_6_">
			<use xlink:href="#SVGID_5_"  style="overflow:visible;"/>
		</clipPath>
		<path class="st3" d="M25.9,63.5c-0.1-0.6-0.5-0.9-1.1-0.9c-0.5,0-1,0.2-1,0.7c0,0.5,0.7,0.6,1.4,0.8c0.7,0.2,1.4,0.4,1.4,1.2
			c0,0.9-0.9,1.3-1.7,1.3c-1,0-1.8-0.5-1.8-1.5h0.5c0,0.7,0.6,1,1.2,1c0.5,0,1.1-0.2,1.1-0.8c0-0.6-0.7-0.7-1.4-0.8
			c-0.7-0.1-1.4-0.3-1.4-1.1c0-0.9,0.8-1.3,1.5-1.3c0.9,0,1.5,0.4,1.6,1.4H25.9z"/>
		<path class="st3" d="M29.1,66.2c1,0,1.5-0.9,1.5-1.8c0-0.9-0.4-1.8-1.5-1.8c-1,0-1.5,0.9-1.5,1.8C27.6,65.3,28.1,66.2,29.1,66.2
			 M29.1,62.2c1.4,0,2,1.1,2,2.2c0,1.2-0.7,2.2-2,2.2c-1.4,0-2-1.1-2-2.2C27.1,63.2,27.8,62.2,29.1,62.2"/>
		<path class="st3" d="M34.6,62.7c-0.6,0-0.8,0.5-0.8,1c0,0.5,0.3,0.9,0.8,0.9c0.5,0,0.9-0.4,0.9-0.9C35.5,63.2,35.2,62.7,34.6,62.7
			 M33.8,65.5c0,0.4,0.4,0.6,0.8,0.6c0.6,0,0.9-0.5,1-1.6l0,0c-0.2,0.4-0.6,0.6-1,0.6c-0.9,0-1.3-0.6-1.3-1.4c0-0.8,0.6-1.4,1.4-1.4
			c0.8,0,1.5,0.4,1.5,2c0,1.5-0.4,2.3-1.5,2.3c-0.7,0-1.2-0.4-1.3-1.1H33.8z"/>
		<path class="st3" d="M38,66.2c0.9,0,0.9-1.1,0.9-1.7c0-0.6,0-1.7-0.9-1.7c-0.9,0-0.9,1.1-0.9,1.7C37.2,65.1,37.2,66.2,38,66.2
			 M38,62.3c1.3,0,1.4,1.2,1.4,2.2c0,0.9-0.1,2.2-1.4,2.2c-1.3,0-1.4-1.2-1.4-2.2C36.6,63.5,36.7,62.3,38,62.3"/>
		<path class="st3" d="M41.4,66.2c0.9,0,0.9-1.1,0.9-1.7c0-0.6,0-1.7-0.9-1.7c-0.9,0-0.9,1.1-0.9,1.7C40.5,65.1,40.5,66.2,41.4,66.2
			 M41.4,62.3c1.3,0,1.4,1.2,1.4,2.2c0,0.9-0.1,2.2-1.4,2.2c-1.3,0-1.4-1.2-1.4-2.2C39.9,63.5,40,62.3,41.4,62.3"/>
		<path class="st3" d="M45.1,66.5h-0.5v-3h-1.1v-0.4c0.6,0,1.1-0.2,1.2-0.8h0.4V66.5z"/>
	</g>
</g>
</svg>
