<?xml version="1.0" encoding="utf-8"?>
<!-- Generator: Adobe Illustrator 21.1.0, SVG Export Plug-In . SVG Version: 6.00 Build 0)  -->
<svg version="1.1" id="Layer_1" xmlns="http://www.w3.org/2000/svg" xmlns:xlink="http://www.w3.org/1999/xlink" x="0px" y="0px"
	 width="68px" height="68px" viewBox="0 0 68 68" style="enable-background:new 0 0 68 68;" xml:space="preserve">
<style type="text/css">
	.st0{clip-path:url(#SVGID_2_);fill:#FFFFFF;}
</style>
<g>
	<g>
		<defs>
			<rect id="SVGID_1_" x="0.1" y="0.4" width="67.8" height="67.3"/>
		</defs>
		<clipPath id="SVGID_2_">
			<use xlink:href="#SVGID_1_"  style="overflow:visible;"/>
		</clipPath>
		<path class="st0" d="M66.1,34c0,17.6-14.4,31.9-32.1,31.9S1.9,51.6,1.9,34C1.9,16.4,16.3,2.1,34,2.1S66.1,16.4,66.1,34 M67.9,34
			C67.9,15.4,52.7,0.4,34,0.4C15.3,0.4,0.1,15.4,0.1,34S15.3,67.6,34,67.6C52.7,67.6,67.9,52.6,67.9,34"/>
		<path class="st0" d="M47.5,32l-7.2,8.4l-2.6,0l-4.2-3.9L36,34l2.7,2.7l7.3-6.4L47.5,32z M49.5,37.5c0.2-2.2,0-10.6,0-10.6H40h-9.5
			c0,0-0.2,8.4,0,10.6c0.1,2.3,2.2,4.2,5.8,6.3c1.2,0.7,3.6,2.1,3.6,2.1l0.1,0.1l0.1-0.1c0,0,2.4-1.4,3.6-2.1
			C47.3,41.7,49.4,39.7,49.5,37.5 M51.7,37.9c-0.1,2.8-2.7,5.3-7.1,7.9c-1.4,0.9-4.4,2.6-4.4,2.6L40,48.7l-0.2-0.2
			c0,0-3-1.8-4.4-2.6c-4.4-2.7-7.1-5.1-7.1-7.9c-0.2-2.8,0-13.3,0-13.3H40h11.7C51.7,24.6,51.9,35.1,51.7,37.9 M47.2,22.4H40h-7.2
			v-6.5c0-3.4,3.5-3.4,3.5-3.4h7.5c3.5,0,3.5,3.4,3.5,3.4V22.4z M53.9,22.4h-3.1V16c0,0,0-6.7-6.9-6.7h-7.8c0,0-6.9,0-6.9,6.7v6.5
			h-3.1c0,0-0.2,9.5-0.1,14.4l-3.9-1.3L11.8,39l6.7,2.8v2.3l-6.7-2.9v11.3l9.2,4V45.6l0,0v-1.8l5.8-2.4c0.3,0.6,0.8,1.1,1.3,1.7
			l-4.9,2.1v11.3l9.2-4v-6.2c0.7,0.4,1.4,0.9,2.2,1.3c1.7,1,5.2,3.8,5.2,3.8l0.2,0.2l0.2-0.2c0,0,3.5-2.7,5.2-3.8
			c5.3-3.2,8.4-5.5,8.5-8.8C54.2,35.5,53.9,22.4,53.9,22.4"/>
	</g>
</g>
</svg>
