<?xml version="1.0" encoding="utf-8"?>
<!-- Generator: Adobe Illustrator 21.1.0, SVG Export Plug-In . SVG Version: 6.00 Build 0)  -->
<svg version="1.1" id="Layer_1" xmlns="http://www.w3.org/2000/svg" xmlns:xlink="http://www.w3.org/1999/xlink" x="0px" y="0px"
	 width="92px" height="59px" viewBox="0 0 92 59" style="enable-background:new 0 0 92 59;" xml:space="preserve">
<style type="text/css">
	.st0{clip-path:url(#SVGID_2_);fill:#3D504E;}
</style>
<g>
	<defs>
		<rect id="SVGID_1_" x="0.2" y="0.3" width="91.6" height="58.4"/>
	</defs>
	<clipPath id="SVGID_2_">
		<use xlink:href="#SVGID_1_"  style="overflow:visible;"/>
	</clipPath>
	<path class="st0" d="M35.4,22.1c-9.3-1.4-15.8-4.5-15.8-8.1c0-1.5,1.1-2.9,3.1-4.2c2.3-1.2,4.8-2.1,7.4-2.9C33.5,6,37.6,5.4,42,5.1
		C38.9,8,36.4,14.3,35.4,22.1 M52.3,22.6c-2,0.2-4.1,0.3-6.3,0.3c-2.2,0-4.3-0.1-6.3-0.3c0.8-7.4,3.3-12.7,6.3-12.7
		C48.9,9.9,51.4,15.2,52.3,22.6 M50,5.1c12.7,0.6,22.4,4.3,22.4,8.8c0,3.6-6.5,6.8-15.8,8.1C55.6,14.3,53.1,8,50,5.1 M57.1,29.3
		c12.7-1.7,22-6.2,22.9-11.7c3.2,3.7,5,8,5,12.6C85,43.9,68.9,55,48.6,55.9c4.9-2.8,8.5-13.3,8.5-25.9
		C57.1,29.8,57.1,29.5,57.1,29.3 M39.5,29.7c2.1,0.2,4.3,0.2,6.5,0.2c2.2,0,4.4-0.1,6.5-0.2C52.2,39,49.4,46.3,46,46.3
		C42.6,46.3,39.8,39,39.5,29.7 M12.1,18c1.3,5.3,10.4,9.7,22.8,11.3c0,0.2,0,0.5,0,0.7c0,12.5,3.6,23,8.4,25.8
		c-20.1-1-36-12.1-36-25.6C7.3,25.8,9.1,21.6,12.1,18 M46,0.3C20.7,0.3,0.2,13.4,0.2,29.5S20.7,58.7,46,58.7s45.8-13.1,45.8-29.2
		S71.3,0.3,46,0.3"/>
</g>
</svg>
