<?xml version="1.0" encoding="utf-8"?>
<!-- Generator: Adobe Illustrator 21.1.0, SVG Export Plug-In . SVG Version: 6.00 Build 0)  -->
<svg version="1.1" id="Layer_1" xmlns="http://www.w3.org/2000/svg" xmlns:xlink="http://www.w3.org/1999/xlink" x="0px" y="0px"
	 width="92px" height="59px" viewBox="0 0 92 59" style="enable-background:new 0 0 92 59;" xml:space="preserve">
<style type="text/css">
	.st0{clip-path:url(#SVGID_2_);fill:#3D504E;}
	.st1{fill:#3D504E;}
</style>
<g>
	<g>
		<defs>
			<rect id="SVGID_1_" x="11.5" y="0.2" width="68.9" height="58.6"/>
		</defs>
		<clipPath id="SVGID_2_">
			<use xlink:href="#SVGID_1_"  style="overflow:visible;"/>
		</clipPath>
		<path class="st0" d="M70.7,32.7h-3.5l-2.8-5v5h-2.2v-7.3H66l2.5,5.1v-5.1h2.2V32.7z M46,51.7c-9.6,0-17.9-5.6-21.4-13.5
			C34.7,38.9,46.3,39,46.3,39c8.2,0.1,15.5-0.2,21.1-0.7C63.8,46.1,55.6,51.7,46,51.7 M23.5,27.8v4.9h-2.2v-7.3h3.8l2.7,5.2v-5.2
			h1.9v7.3h-3.4L23.5,27.8z M33.9,32.7h-2.6v-7.3h2.6V32.7z M37,29.9c0,0-1.4-0.1-1.7-1.9v-0.4c0,0-0.1-1.9,1.9-2.4h5.3v1.9h-4.8
			v1.1h4c0,0,1.4,0.5,1.4,1.9v0.4c0,0,0.1,1.5-1.3,2.1h-6.4v-1.8H41v-0.9H37z M45.5,29.9c0,0-1.4-0.1-1.7-1.9v-0.4
			c0,0-0.1-1.9,1.9-2.4H51v1.9h-4.8v1.1h4c0,0,1.4,0.5,1.4,1.9v0.4c0,0,0.1,1.5-1.3,2.1h-6.4v-1.8h5.5v-0.9H45.5z M61.5,32.7h-2.4
			l-0.7-1.3h-3.8l-0.6,1.3h-2.4l3.3-7.3H58L61.5,32.7z M46,7.3c9.6,0,17.8,5.5,21.4,13.5c-16.9-1.4-34.7-0.8-42.6-0.4
			C28.5,12.7,36.6,7.3,46,7.3 M80.4,24.3c0-2.2-1.7-2.2-1.7-2.2c-1-0.2-2-0.3-3-0.4C72.1,9.3,60.2,0.2,46,0.2
			c-14,0-25.9,9-29.6,21.2c-0.8,0.2-1.6,0.3-2.3,0.5c-2.2,0.4-2.3,1.9-2.3,2c-0.5,2-0.2,8.5,0,10.7c0.1,2.4,2.1,2.2,2.2,2.2
			c0.7,0.2,1.5,0.3,2.4,0.4C19.9,49.7,31.9,58.8,46,58.8c14.1,0,26-9.1,29.6-21.4c1.9-0.2,2.9-0.4,2.9-0.4c1.8-0.2,1.8-2.2,1.8-2.3
			C80.6,31.7,80.4,24.3,80.4,24.3"/>
	</g>
	<polygon class="st1" points="56.6,27.3 55.5,29.5 57.6,29.5 	"/>
</g>
</svg>
