<?xml version="1.0" encoding="utf-8"?>
<!-- Generator: Adobe Illustrator 21.1.0, SVG Export Plug-In . SVG Version: 6.00 Build 0)  -->
<svg version="1.1" id="Layer_1" xmlns="http://www.w3.org/2000/svg" xmlns:xlink="http://www.w3.org/1999/xlink" x="0px" y="0px"
	 width="92px" height="59px" viewBox="0 0 92 59" style="enable-background:new 0 0 92 59;" xml:space="preserve">
<style type="text/css">
	.st0{clip-path:url(#SVGID_2_);fill:#3D504E;}
</style>
<g>
	<defs>
		<rect id="SVGID_1_" x="0.2" y="12.4" width="91.6" height="34.2"/>
	</defs>
	<clipPath id="SVGID_2_">
		<use xlink:href="#SVGID_1_"  style="overflow:visible;"/>
	</clipPath>
	<path class="st0" d="M90.1,29.5c0,8.5-19.7,15.3-44,15.3C21.7,44.9,2,38,2,29.5C2,21,21.7,14.1,46,14.1
		C70.4,14.1,90.1,21,90.1,29.5 M91.8,29.5c0-9.5-20.5-17.1-45.8-17.1c-25.3,0-45.8,7.7-45.8,17.1C0.2,39,20.7,46.6,46,46.6
		C71.3,46.6,91.8,39,91.8,29.5"/>
	<path class="st0" d="M71.8,24.2l-6.3,11.1c-0.1,0.2-0.4,0.7-0.4,1c0.1,0.6,0.8,0.4,0.5,0.4c1.3-0.1,3.6-2.5,4.2-3
		c0.1-0.1,0.3-0.4,0.4-0.4s0.4,0.1,0.4,0.3c0,0.1-0.3,0.6-0.5,0.8c-1.2,1.5-3.1,3.7-5.3,3.8c-1.1,0-1.5-0.4-1.7-1.3
		c-0.5,0.4-2.2,1.2-4,1.2c-1.4,0-2-0.9-2.3-1.5c-0.3-0.6-0.4-1.4-0.2-2.2c-0.8,0.4-1.5,0.5-2.6,0.4c-1.2,0-2-0.6-2.4-2
		c-1.4,2.6-1.5,2.7-2.9,5.3h-2.5l3.2-5.4c0.4-0.7,0.6-1.3,0.8-1.9c0.1-0.4-0.2-0.7-0.6-0.7c-0.4,0-1.1,0.4-1.7,1
		c0,0-1.7,1.8-2.9,3.5c-1.2,1.7-3.1,3.6-5.3,3.6c-1.6,0-3-0.8-3.3-2.5c0,0-0.1,0.4-1.5,1.2c-0.1,0.1-0.4,0.2-0.5,0.2
		c-0.3-0.2-0.4-0.5-0.4-0.7c0.1,0,0.3-0.1,0.8-0.6c1.1-0.8,1.3-1.5,1.3-1.5c0.3-0.6,0.7-1.4,1.1-2c0.9-1.8,2.4-3.5,4.9-3.6
		c0.4,0,0.5,0.2,0.6,0.3c0.2,0.2,0.1,0.5,0.1,0.5c-1.8,0.3-3,1.3-3.7,2.3c-0.4,0.6-0.9,1.7-1,2.5c-0.2,1.3,0.4,2.2,1.4,2.4
		c1.7,0.3,3.1-1,4.3-2.9c0.3-0.5,0.5-1.8,0.5-2.5c0-0.7-0.4-1.4-0.7-1.7c0-0.5,0.3-0.8,0.7-0.8c0.1,0,0.2,0,0.4,0.1
		c0.6,0.6,0.9,1.7,0.9,2.5c0,0.3,0,0.6-0.1,0.9c1.2-1.5,2.8-3.4,4-3.8c0.2-0.1,0.5-0.1,0.7-0.1c2.2-0.1,1.9,1.9,1.9,1.9
		c1.2-1.3,2-1.8,3.1-1.8c1.2,0.1,1.6,0.9,1.6,1.5c0,0.8-0.6,1.6-1.6,1.7c-0.9,0-1.4-0.4-1.6-1.2c-0.6,0.2-0.8,0.6-0.9,1.3
		c-0.2,1,0.6,1.7,1.5,1.7c1.6,0,2.3-0.7,2.9-1.2c2-1.9,3.1-3.8,6-3.8c1.7,0,2.2,1.4,2.5,2l3.8-6.4H71.8z M59,19.8
		c0,0.9-3.3,2.7-6.1,2.7c-4.1,0-8.4-1.9-10.7-2.4c0.1,0.1,0.2,0.2,0.1,0.4c0,0.1-0.3,0.4-0.4,0.5c-0.6,0.5-2.6,1.8-4.8,5.5
		c1.8-0.1,3.8-0.4,3.8-0.4s-0.1-0.4-0.1-0.7c0.1-1.3,0.8-2,1.8-1.9c0.5,0.1,0.9,0.5,0.9,1c0,0.5-0.4,1.2-0.8,1.6
		c-0.3,0.2-0.6,0.4-0.9,0.6c0,0.3,0.4,0.6,0.8,0.6c-0.1,0.3-0.1,0.5-0.2,0.4c-0.9,0-1.2-0.8-1.2-0.8c-1.2,0.2-2.3,0.4-4.7,0.6
		c-5.9,9.4-7.7,10.9-11.3,10.9c-2.6,0-4.8-1.7-4.9-4.6c0-1.8,1.4-4,4.2-4.7c0.3,0,0.4,0.1,0.4,0.3c0,0.1-0.1,0.3-0.4,0.4
		c-0.8,0.3-2.2,1.8-2.2,3.3c0,1.1,0.7,2.3,1.8,2.5c0.3,0.1,0.6,0.1,0.9,0.1c2.9,0,6.1-3.2,9.6-8c-0.6,0-3,0.3-3.5,1
		c-0.3,0.2-0.4,0.1-0.5-0.1c0-0.1,0.1-0.3,0.2-0.4c0.9-1.1,3.8-1.3,4.5-1.4c2.5-3.9,5.8-6.3,6.7-6.5c0,0,0,0-0.1,0
		c-2.3-0.5-4.3-1-6-1c-5.7,0-8.2,2.4-8.1,4.6c0.1,0.9,0.8,1.5,1.9,1.3c1.2-0.2,2.8-1.3,3.2-2.3c0.1-0.2,0.3-0.2,0.4-0.2
		c0.2,0.1,0.1,0.4,0.1,0.4c-0.1,1.1-1.9,4.3-5,4.3c-1.7,0-2.9-1.6-2.8-3.1c0-2.9,3-5.8,10.4-5.8c1.4,0,3,0.1,4.7,0.4
		c2,0.4,6.9,1.2,10.9,1.2c1.5,0,3.4,0.1,4.9-0.2c1.6-0.3,1.3-0.3,1.9-0.3C59,19.3,59,19.5,59,19.8 M88.7,29.5
		c0-7.8-19.1-14.1-42.7-14.1c-23.6,0-42.6,6.3-42.6,14.1c0,7.8,19.1,14.2,42.6,14.2C69.6,43.7,88.7,37.3,88.7,29.5"/>
	<path class="st0" d="M63.3,29.9c-1-0.1-2.3,0.8-3.4,2c-0.5,0.6-1.1,1.9-1.2,2.6c-0.1,0.7,0.1,1.5,0.4,1.7c0.3,0.2,1.4,0.8,3.3-1
		c1-1,2-2.7,2-2.7l-0.3-0.1C64.7,31.3,64.6,30.1,63.3,29.9"/>
	<path class="st0" d="M41.6,25.8c0,0,0.3,0,0.7-0.5c0.2-0.2,0.5-0.7,0.4-1.1c0-0.2-0.1-0.4-0.3-0.4c-0.4,0.1-0.7,0.3-0.8,0.7
		C41.4,25.2,41.5,25.5,41.6,25.8"/>
</g>
</svg>
