<?xml version="1.0" encoding="utf-8"?>
<!-- Generator: Adobe Illustrator 21.1.0, SVG Export Plug-In . SVG Version: 6.00 Build 0)  -->
<svg version="1.1" id="Layer_1" xmlns="http://www.w3.org/2000/svg" xmlns:xlink="http://www.w3.org/1999/xlink" x="0px" y="0px"
	 width="68px" height="68px" viewBox="0 0 68 68" style="enable-background:new 0 0 68 68;" xml:space="preserve">
<style type="text/css">
	.st0{clip-path:url(#SVGID_2_);fill:#3D504E;}
	.st1{fill:#3D504E;}
</style>
<g>
	<g>
		<defs>
			<rect id="SVGID_1_" x="0.1" y="0.4" width="67.8" height="67.3"/>
		</defs>
		<clipPath id="SVGID_2_">
			<use xlink:href="#SVGID_1_"  style="overflow:visible;"/>
		</clipPath>
		<path class="st0" d="M61.2,38.7h-5.6v-9.3H61v1.9h-2.7v1.7h2.6v1.8h-2.6v2.1h2.9V38.7z M53.6,38.7h-2.5l-1.6-3.1
			c-0.4-0.7-0.9-2-1.1-2.6h0c0.1,0.8,0.2,2.4,0.2,4.2v1.6h-2.4v-9.3h2.5l1.7,3.4c0.3,0.6,0.9,1.8,1.2,2.5h0
			c-0.1-0.8-0.3-2.6-0.3-4.3v-1.5h2.4V38.7z M53.4,26.5H14.8c3.1-7.6,10.5-13,19.3-13C42.8,13.5,50.3,18.9,53.4,26.5 M18.6,34.7v2.1
			h2.9v1.9h-5.6v-9.3h5.4v1.9h-2.7v1.7h2.6v1.8H18.6z M28.4,35.2c-0.1-0.8-0.3-2.6-0.3-4.3v-1.5h2.4v9.3H28l-1.6-3.1
			c-0.4-0.7-0.9-2-1.1-2.6h0c0.1,0.8,0.2,2.4,0.2,4.2v1.6h-2.4v-9.3h2.5l1.7,3.4C27.5,33.3,28.1,34.4,28.4,35.2L28.4,35.2z
			 M36.9,35.3v-6h2.7v5.6c0,2.4-1.1,3.9-3.6,3.9c-2.8,0-3.6-1.5-3.6-3.9v-5.6h2.7v6c0,1.2,0.4,1.6,0.9,1.6
			C36.5,36.9,36.9,36.6,36.9,35.3 M41.5,29.3h2.7v9.3h-2.7V29.3z M14.7,41.5h38.7c-3,7.7-10.5,13.1-19.3,13.1
			C25.3,54.7,17.8,49.2,14.7,41.5 M14.2,38.4c-0.5,0.2-1.7,0.3-2.6,0.3c-1.5,0-2.5-0.3-3.3-0.9C7.3,37,6.8,35.6,6.8,34
			c0.1-3.3,2.5-4.8,5.2-4.8c1,0,1.7,0.2,2,0.3l-0.4,1.8c-0.3-0.1-0.8-0.2-1.3-0.2c-1.6,0-2.7,0.8-2.7,3c0,2,1,2.7,1.9,2.7
			c0.1,0,0.2,0,0.3,0V35h-0.9v-1.7h3.3V38.4z M64,39.8V28.2c0,0,0-1.8-1.8-1.8h-7.7c-3.1-8.3-11.1-14.1-20.5-14.1
			c-9.4,0-17.4,5.9-20.5,14.1H5.8c0,0-1.8,0-1.8,1.8v11.5c0,0,0,1.8,1.8,1.8h7.8c3.1,8.3,11.1,14.3,20.6,14.3s17.5-5.9,20.6-14.3
			h7.6C62.2,41.5,64,41.5,64,39.8"/>
		<path class="st0" d="M66.1,34c0,17.6-14.4,31.9-32.1,31.9S1.9,51.6,1.9,34C1.9,16.4,16.3,2.1,34,2.1S66.1,16.4,66.1,34 M67.9,34
			C67.9,15.4,52.7,0.4,34,0.4C15.3,0.4,0.1,15.4,0.1,34S15.3,67.6,34,67.6C52.7,67.6,67.9,52.6,67.9,34"/>
		<path class="st0" d="M55.7,16.3l-1.1-1.2l1-1l1.2,1.2l1.1-1L55.5,12l-5.4,5.1l2.4,2.5l1.1-1l-1.3-1.3l1.2-1.2l1.1,1.2L55.7,16.3z
			 M45.5,13.7l0.7-1.1c0.8-1.2,1.4-2.3,1.7-2.8l0,0c-0.2,0.5-0.4,1.5-0.5,2.1l-0.5,2.6l1.3,0.8l4-6.2l-1.2-0.8l-0.6,1
			c-0.8,1.2-1.4,2.5-1.7,3l0,0c0.2-0.6,0.4-1.6,0.5-2.1l0.6-2.8l-1.3-0.8l-4,6.2L45.5,13.7z M42.5,4.5l-2.4,7l1.6,0.5l2.4-7
			L42.5,4.5z M33.7,3.2l-0.3,4.4c-0.1,1.9,0.3,3.1,2,3.2c1.6,0.1,2.3-1,2.5-2.9l0.3-4.4l-1.7-0.1l-0.4,4.7c-0.1,1-0.3,1.2-0.7,1.2
			C35.2,9.3,35,9,35,8.1l0.4-4.7L33.7,3.2z M27.5,11.6l-0.3-1.2c-0.3-1.4-0.7-2.6-0.8-3.2l0,0c0.3,0.5,0.8,1.4,1.2,1.9l1.5,2.2
			l1.5-0.3l-1.7-7.2L27.5,4l0.3,1.2c0.3,1.4,0.8,2.7,0.9,3.3l0,0c-0.3-0.5-0.9-1.3-1.2-1.8l-1.6-2.4l-1.5,0.3l1.7,7.2L27.5,11.6z
			 M21.5,9.1l-1.4,0.8l-0.7-1.2l1.5-0.8l-0.7-1.3l-2.9,1.7l3.7,6.4l3.1-1.8l-0.7-1.3l-1.6,0.9l-0.8-1.5l1.4-0.8L21.5,9.1z
			 M16.1,13.1l-1.5,1.4l1,1l0.4-0.4l1,1.1c0,0.1-0.1,0.1-0.1,0.1c-0.4,0.4-1.3,0.4-2.4-0.7c-1.2-1.3-1.2-2.2-0.5-2.9
			c0.2-0.2,0.5-0.4,0.7-0.5L13.9,11c-0.2,0.1-0.6,0.3-1.1,0.7c-1.2,1.2-1.5,3.1,0.2,5c0.8,0.9,1.9,1.5,2.8,1.5c0.7,0,1.3-0.3,2-0.9
			c0.4-0.4,0.8-1,1-1.3L16.1,13.1z"/>
		<path class="st0" d="M52.4,52.7l-1.2,1.1l-0.9-1l1.3-1.1l-1-1.1L48,52.7l4.9,5.5l2.6-2.3l-1-1.1l-1.4,1.2l-1.1-1.3l1.2-1.1
			L52.4,52.7z M47.2,61.8l-0.6-1.1c-0.7-1.3-1.4-2.3-1.7-2.8l0,0c0.4,0.4,1.2,1.1,1.6,1.5l2.1,1.7l1.4-0.8l-3.6-6.5l-1.3,0.7
			l0.6,1.1c0.7,1.2,1.5,2.4,1.8,2.9l0,0c-0.4-0.4-1.2-1-1.6-1.4l-2.2-1.8l-1.4,0.8l3.6,6.5L47.2,61.8z M38.7,56.9l2.1,7.1l1.6-0.5
			l-2.1-7.1L38.7,56.9z M32.3,57.5l0.3,4.4c0.1,1.9,0.7,3,2.5,2.9c1.6-0.1,2.2-1.3,2.1-3.2l-0.3-4.4l-1.7,0.1l0.3,4.7
			c0.1,1-0.2,1.3-0.5,1.3c-0.3,0-0.6-0.2-0.7-1.2L34,57.3L32.3,57.5z M26.2,63.8l0.2-1.3c0.3-1.4,0.4-2.6,0.5-3.3l0,0
			c0,0.6,0.2,1.6,0.3,2.2l0.5,2.6l1.5,0.3l1.4-7.3l-1.5-0.3L29,58c-0.3,1.4-0.4,2.8-0.5,3.4l0,0c-0.1-0.6-0.2-1.6-0.3-2.1l-0.5-2.8
			l-1.5-0.3l-1.4,7.3L26.2,63.8z M23.4,57.9l-1.5-0.7l0.6-1.3l1.5,0.7l0.6-1.3l-3.1-1.4l-3.1,6.7l3.2,1.5l0.6-1.3L20.6,60l0.7-1.5
			l1.5,0.7L23.4,57.9z M18.4,55.3L16.8,54l-0.9,1.1l0.4,0.3l-0.9,1.2c-0.1,0-0.1-0.1-0.2-0.1c-0.4-0.4-0.5-1.2,0.4-2.4
			c1.1-1.4,2.1-1.5,2.8-0.8c0.3,0.2,0.5,0.4,0.6,0.7l1.1-1c-0.1-0.2-0.4-0.6-0.8-1c-1.3-1.1-3.3-1.1-5,0.9c-0.8,1-1.2,2-1.1,3
			c0.1,0.7,0.4,1.3,1.2,1.9c0.4,0.4,1.1,0.7,1.4,0.8L18.4,55.3z"/>
	</g>
	<polygon class="st1" points="32.9,19.2 32.2,21.4 34.1,20.1 35.9,21.4 35.2,19.2 37.1,17.9 34.8,17.9 34.1,15.7 33.4,17.9 
		31.1,17.9 	"/>
	<polygon class="st1" points="32.9,48.8 32.2,46.6 34.1,48 35.9,46.6 35.2,48.8 37.1,50.1 34.8,50.1 34.1,52.3 33.4,50.1 31.1,50.1 
			"/>
	<polygon class="st1" points="39.3,20.2 38.7,21.9 40.2,20.9 41.7,21.9 41.2,20.2 42.6,19.1 40.8,19.1 40.2,17.4 39.7,19.1 
		37.8,19.1 	"/>
	<polygon class="st1" points="39.3,47.8 38.7,46.1 40.2,47.2 41.7,46.1 41.2,47.8 42.6,48.9 40.8,48.9 40.2,50.7 39.7,48.9 
		37.8,48.9 	"/>
	<polygon class="st1" points="28.7,20.2 29.3,21.9 27.8,20.9 26.3,21.9 26.9,20.2 25.4,19.1 27.2,19.1 27.8,17.4 28.4,19.1 
		30.2,19.1 	"/>
	<polygon class="st1" points="28.7,47.8 29.3,46.1 27.8,47.2 26.3,46.1 26.9,47.8 25.4,48.9 27.2,48.9 27.8,50.7 28.4,48.9 
		30.2,48.9 	"/>
	<polygon class="st1" points="44.6,21.9 44.1,23.3 45.3,22.4 46.5,23.3 46.1,21.9 47.2,21 45.8,21 45.3,19.6 44.9,21 43.4,21 	"/>
	<polygon class="st1" points="44.6,46.1 44.1,44.7 45.3,45.6 46.5,44.7 46.1,46.1 47.2,47 45.8,47 45.3,48.4 44.9,47 43.4,47 	"/>
	<polygon class="st1" points="23.4,21.9 23.9,23.3 22.7,22.4 21.5,23.3 22,21.9 20.8,21 22.3,21 22.7,19.6 23.2,21 24.6,21 	"/>
	<polygon class="st1" points="23.4,46.1 23.9,44.7 22.7,45.6 21.5,44.7 22,46.1 20.8,47 22.3,47 22.7,48.4 23.2,47 24.6,47 	"/>
</g>
</svg>
