<?xml version="1.0" encoding="utf-8"?>
<!-- Generator: Adobe Illustrator 21.1.0, SVG Export Plug-In . SVG Version: 6.00 Build 0)  -->
<svg version="1.1" id="Layer_1" xmlns="http://www.w3.org/2000/svg" xmlns:xlink="http://www.w3.org/1999/xlink" x="0px" y="0px"
	 width="68px" height="68px" viewBox="0 0 68 68" style="enable-background:new 0 0 68 68;" xml:space="preserve">
<style type="text/css">
	.st0{fill:#FFFFFF;}
</style>
<g>
	<g>
		<path class="st0" d="M67.9,34.6c-0.3-18.3-15.3-33-33.9-33S0.4,16.4,0.1,34.6h3.4C3.9,18.2,17.4,5.1,34,5.1
			c16.6,0,30.1,13.2,30.4,29.6H67.9z"/>
		<path class="st0" d="M18.2,45c0,0.4-0.1,0.8-0.3,1c-0.3,0.3-0.7,0.4-1.3,0.4h-2.9v-3.7h2.9c0.5,0,1,0.1,1.3,0.4
			c0.2,0.2,0.3,0.5,0.3,1V45z M19.3,45.1v-1.2c0-0.7-0.2-1.3-0.6-1.6c-0.5-0.5-1.3-0.6-2.3-0.6h-3.7v5.7h3.7c1,0,1.8-0.1,2.3-0.6
			C19.1,46.4,19.3,45.8,19.3,45.1"/>
	</g>
	<polyline class="st0" points="12.6,31.3 55.4,31.3 55.4,24.5 12.6,24.5 	"/>
	<polyline class="st0" points="12.6,34.8 55.4,34.8 55.4,33.6 12.6,33.6 	"/>
	<polyline class="st0" points="12.6,38.2 55.4,38.2 55.4,35.9 12.6,35.9 	"/>
	<polygon class="st0" points="21.7,41.6 21.7,47.4 22.8,47.4 22.8,43.2 27.2,47.4 28.2,47.4 28.2,41.6 27.1,41.6 27.1,45.8 
		22.6,41.6 	"/>
	<polygon class="st0" points="55.4,47.4 55.4,46.4 51.2,46.4 51.2,41.6 50.1,41.6 50.1,47.4 	"/>
	<polygon class="st0" points="32.9,47.4 33.7,47.4 36.8,41.6 35.6,41.6 33.3,46 31,41.6 29.8,41.6 	"/>
	<g>
		<path class="st0" d="M44.1,41.6c-1,0-1.8,0.1-2.3,0.6c-0.4,0.4-0.6,0.9-0.6,1.6v1.2c0,0.7,0.2,1.3,0.6,1.6
			c0.5,0.5,1.3,0.6,2.3,0.6h3.7v-3.3h-3.5v1h2.4v1.3h-2.9c-0.5,0-1-0.1-1.3-0.4c-0.2-0.2-0.3-0.5-0.3-1v-1c0-0.4,0.1-0.7,0.3-1
			c0.3-0.3,0.7-0.4,1.3-0.4h4v-1H44.1z"/>
	</g>
	<rect x="37.7" y="43.9" class="st0" width="1.3" height="1.3"/>
	<g>
		<path class="st0" d="M3.5,35.5l-1,0c0.3,11.9,7.2,22.2,17.2,27.4v-1.2C10.3,56.7,3.9,46.8,3.5,35.5 M64.5,35.5
			c-0.3,11.6-7.1,21.6-16.9,26.6v1.1c10.4-5,17.6-15.5,17.9-27.7L64.5,35.5z"/>
		<path class="st0" d="M1.1,35.5l-1,0c0.3,13.3,8.2,24.8,19.6,30.1v-1.1C8.9,59.2,1.4,48.2,1.1,35.5 M66.9,35.5
			c-0.3,13-8.1,24.2-19.3,29.3v1.1c11.7-5.2,20-16.8,20.3-30.4L66.9,35.5z"/>
	</g>
	<rect x="21.8" y="61.9" class="st0" width="0.6" height="4.3"/>
	<g>
		<path class="st0" d="M25.9,63.2c-0.1-0.6-0.5-0.9-1.1-0.9c-0.5,0-1,0.2-1,0.7c0,0.5,0.7,0.6,1.4,0.8c0.7,0.2,1.4,0.4,1.4,1.2
			c0,0.9-0.9,1.3-1.7,1.3c-1,0-1.8-0.5-1.8-1.5h0.5c0,0.7,0.6,1,1.3,1c0.5,0,1.1-0.2,1.1-0.8c0-0.6-0.7-0.7-1.4-0.8
			c-0.7-0.2-1.4-0.4-1.4-1.1c0-0.9,0.8-1.3,1.6-1.3c0.9,0,1.5,0.4,1.6,1.4H25.9z"/>
		<path class="st0" d="M29.1,65.9c1,0,1.5-0.9,1.5-1.8c0-0.9-0.4-1.8-1.5-1.8c-1,0-1.5,0.9-1.5,1.8C27.6,65,28,65.9,29.1,65.9
			 M29.1,61.8c1.4,0,2.1,1.1,2.1,2.3c0,1.2-0.7,2.3-2.1,2.3c-1.4,0-2.1-1.1-2.1-2.3C27,62.9,27.7,61.8,29.1,61.8"/>
		<path class="st0" d="M34.6,62.4c-0.6,0-0.8,0.5-0.8,1c0,0.5,0.3,0.9,0.8,0.9c0.5,0,0.9-0.4,0.9-0.9C35.5,62.9,35.2,62.4,34.6,62.4
			 M33.8,65.2c0,0.4,0.4,0.7,0.8,0.7c0.6,0,0.9-0.5,1-1.7l0,0c-0.2,0.4-0.6,0.6-1,0.6c-0.9,0-1.3-0.6-1.3-1.4c0-0.8,0.6-1.4,1.4-1.4
			c0.8,0,1.5,0.4,1.5,2c0,1.5-0.4,2.3-1.5,2.3c-0.7,0-1.2-0.4-1.3-1.1H33.8z"/>
		<path class="st0" d="M38.1,65.9c0.9,0,0.9-1.1,0.9-1.7c0-0.6,0-1.7-0.9-1.7c-0.9,0-0.9,1.1-0.9,1.7C37.2,64.8,37.2,65.9,38.1,65.9
			 M38.1,62c1.3,0,1.4,1.2,1.4,2.2c0,0.9-0.1,2.2-1.4,2.2c-1.3,0-1.4-1.2-1.4-2.2C36.6,63.2,36.7,62,38.1,62"/>
		<path class="st0" d="M41.4,65.9c0.9,0,0.9-1.1,0.9-1.7c0-0.6,0-1.7-0.9-1.7s-0.9,1.1-0.9,1.7C40.5,64.8,40.5,65.9,41.4,65.9
			 M41.4,62c1.3,0,1.4,1.2,1.4,2.2c0,0.9-0.1,2.2-1.4,2.2c-1.3,0-1.4-1.2-1.4-2.2C40,63.2,40.1,62,41.4,62"/>
		<path class="st0" d="M45.2,66.3h-0.5v-3.1h-1.1v-0.4c0.6,0,1.1-0.2,1.2-0.8h0.4V66.3z"/>
	</g>
</g>
</svg>
