<?xml version="1.0" encoding="utf-8"?>
<!-- Generator: Adobe Illustrator 21.1.0, SVG Export Plug-In . SVG Version: 6.00 Build 0)  -->
<svg version="1.1" id="Layer_1" xmlns="http://www.w3.org/2000/svg" xmlns:xlink="http://www.w3.org/1999/xlink" x="0px" y="0px"
	 width="80px" height="80px" viewBox="0 0 80 80" style="enable-background:new 0 0 80 80;" xml:space="preserve">
<style type="text/css">
	.st0{clip-path:url(#SVGID_2_);}
</style>
<g>
	<g>
		<defs>
			<rect id="SVGID_1_" x="0.1" y="0.4" width="79.8" height="79.2"/>
		</defs>
		<clipPath id="SVGID_2_">
			<use xlink:href="#SVGID_1_"  style="overflow:visible;"/>
		</clipPath>
		<path class="st0" d="M77.8,40c0,20.7-16.9,37.5-37.8,37.5S2.2,60.7,2.2,40C2.2,19.3,19.1,2.5,40,2.5S77.8,19.3,77.8,40 M79.9,40
			C79.9,18.1,62,0.4,40,0.4C18,0.4,0.1,18.1,0.1,40S18,79.6,40,79.6C62,79.6,79.9,61.9,79.9,40"/>
		<path class="st0" d="M41.5,34.6V5.3h-2.9v29.3c-2.4,0.6-4.2,2.8-4.2,5.4c0,0.8,0.2,1.5,0.5,2.2L20,57.6l3.2,3L38,45.3
			c0.6,0.2,1.3,0.4,2,0.4c3.1,0,5.6-2.5,5.6-5.6C45.6,37.4,43.9,35.2,41.5,34.6"/>
	</g>
</g>
</svg>
