<?xml version="1.0" encoding="utf-8"?>
<!-- Generator: Adobe Illustrator 21.1.0, SVG Export Plug-In . SVG Version: 6.00 Build 0)  -->
<svg version="1.1" id="Layer_1" xmlns="http://www.w3.org/2000/svg" xmlns:xlink="http://www.w3.org/1999/xlink" x="0px" y="0px"
	 width="80px" height="80px" viewBox="0 0 80 80" style="enable-background:new 0 0 80 80;" xml:space="preserve">
<g>
	<path d="M77.8,40.3c0,20.7-16.9,37.5-37.8,37.5S2.2,61.1,2.2,40.3C2.2,19.6,19.1,2.8,40,2.8S77.8,19.6,77.8,40.3 M79.9,40.3
		C79.9,18.5,62,0.8,40,0.8C18,0.8,0.1,18.5,0.1,40.3S18,79.9,40,79.9C62,79.9,79.9,62.2,79.9,40.3"/>
	<path d="M21,10.8c0,0-0.1,0.1-0.2,0.1C21,10.9,21,10.9,21,10.8"/>
	<path d="M17.7,11c-0.1,0.1,0.4,0,0.6-0.1C18,10.9,17.8,10.9,17.7,11"/>
	<path d="M26.3,10.4c0.1-0.1,0.2-0.1,0.3-0.1C26.5,10.3,26.4,10.4,26.3,10.4"/>
	<path d="M18.3,10.9C18.3,10.9,18.3,10.9,18.3,10.9C18.3,10.9,18.3,10.9,18.3,10.9C18.3,10.9,18.3,10.9,18.3,10.9"/>
	<path d="M25.3,9.5C25.3,9.5,25.3,9.5,25.3,9.5C25.4,9.5,25.3,9.5,25.3,9.5"/>
	<path d="M16.1,18.6c0.5-0.6,1.3-0.4,1.9-0.7c-0.5,0-1-0.2-1.4-0.2c0.1-0.1,0.2-0.1,0.4-0.3c-0.7,0.1-1.1,0.4-1.7,0.4
		c0.4-0.2,2.1-1.1,2.3-0.7c0.6-0.5,0.2,0.7,0.7,0.8c1.3,0.4,0.4,0.7,0.4,0.5c-0.2,0.2-0.7,0.8-0.9,0.8c-0.1-0.1,0-0.2,0.1-0.4
		c-0.2,0-0.2,0.1-0.3,0.1c1-1.1-0.3-0.8-0.8-0.3c-0.2,0.2-1.2,1.6-1.3,1.2c-0.2-0.3,1-1.3,1.3-1.4C16.4,18.4,16.3,18.5,16.1,18.6
		 M20.4,18.8c-0.3,0.4-1.7,0.3-1.7,0.4C18.6,19,20.2,18.8,20.4,18.8 M17.1,20c-0.1,0,0-0.2,0-0.3c0,0.1,1.1,0.1,1.2,0
		C17.9,19.8,17.3,20,17.1,20 M28.5,11C28.5,11,28.4,11,28.5,11C28.4,11,28.4,11,28.5,11 M6.8,27.8c0.6-1,1.3-1.4,2.2-1.9
		c0.6-0.3,1.1,0.6,1.6,0.4c-0.1-0.2,0.1-0.3,0.3-0.6c-0.1,0-0.1,0.1-0.2,0c0.3-0.1,0.5,0,0.8-0.1C11.4,25.7,13,26,13,26
		c0.1,0.2-1,3.1-0.4,3.1c0.7,0.1,1.2-1.9,1.2-2.3c0.2-1.7,1.5-2.4,2.9-3c0,0,0,0,0,0c0.4-0.2,0.8-0.3,1.1-0.6
		C17.6,23,18,23,18.1,22.8c-0.1,0-0.1,0-0.1-0.2c0.2-0.1,0.3-0.2,0.4-0.4c0,0-0.1,0-0.1,0c0-0.1,0.4-0.9,0.5-1
		c0,0.1-0.2,0.8-0.2,0.8c0.5,0,0.6-0.8,0.9-1c-0.1-0.2,1.4-0.7,1.7-0.8c-0.1-0.1-0.4,0-0.5,0c0.6-0.3,1.4-0.2,1.9-0.4
		c-0.9,0,0.7-1.3,1.2-1.2c0.5,0.1,1.5-0.6,2.1-0.6c-0.1,0.2-0.1,0.2,0.1,0.2c-0.8,0-1.5,1.1-0.8,0.8c0.4-0.2,2-0.5,2.2-0.8
		c0.1-0.2-1.8-0.1-1-1.1c-0.1,0-0.2,0-0.4,0c0.2-0.2,0.7-0.1,0.9-0.4c0.2-0.3-2.2,0.2-2.3,0.2c1-0.8,5.8-0.6,5.3-2.2
		c-0.1,0-1.7,0.5-1.7,0.3c0.4-0.1,1.2-0.2,1.4-0.4c0.1-0.1-1.2,0-1-0.5l0,0c-0.3,0-0.4-0.1-0.6-0.2c0.8-0.3-0.2-1.6-0.7-1
		c0.1,0.1,0.1,0.1,0.2,0.2c-0.2-0.1-0.4-0.1-0.1-0.5c-0.4,0.7-2,0.3-2.5,0c-1.9-0.9-1.3,0.3-2.7,0.7c0,0.7,1,0.7-0.3,1.2
		c-1,0.4-0.4,0.6-1,1.2c-0.5,0-0.6,0-0.7-0.1c0.1,0,0.2,0.1,0.3,0c0.1-0.1-0.1-0.1-0.3-0.1c0-0.2,0.6-0.5,0.2-0.8
		c-1.1,0-1-0.8-2.3-0.7c0.4-0.4,0.4-0.6-0.1-0.5c0.7-0.5,2.1-0.9,2.7-1.4c0,0-0.1-0.1-0.2-0.1c0.7,0.1,1.8-0.1,2.2-0.4
		c-0.3,0-0.7,0-0.7-0.2c0.3,0.1,0.7,0.1,1.1,0c-0.4,0.1-0.8,0.4-1,0.6c0.1,0,0.3,0,0.5,0c-0.1,0.1-0.2,0.1-0.1,0.1
		c0.5,0,1.4-0.1,1.9-0.3c0-0.1-0.3,0-0.4-0.1c0,0,0-0.1,0-0.1c-0.1-0.1-0.6-0.2-0.7-0.2c0,0,0-0.1,0-0.1c0.1,0,0.2-0.1,0.4-0.1
		c0,0,0,0.1,0.1,0.1c0,0,0-0.1-0.1-0.1c0.7-0.2,1.4-0.5,1.8-0.8c-0.2,0-0.4-0.1-0.6-0.1c0.3,0,0.5,0,0.6,0c-0.2,0.1,0.7-0.1,0.9,0
		c0,0,0,0,0,0c0.1,0,0.1,0,0.2,0.1c-0.1,0-0.2,0-0.3,0.1c0,0,0.5,0,0.7,0.1c-0.2,0-0.4,0-0.6,0.1c0,0,0.7,0.2,0.7-0.1
		c0.5,0.3-0.9,0.6-0.5,0.7c-0.5,0.2-1.4,0.1-1.7,0.5c-0.1,0.1,1.5-0.1,1.6,0c0.4,0.2,1.1,0.6,1.6,0.5c0.5-0.1-0.4-0.5-0.4-0.5
		c0.8-0.1,0.8,0.3,1-0.4c-0.3,0-0.4-0.2-0.6-0.2c0-0.1,0.1-0.1,0.2-0.1c0.4,0.1,1.1,0.3,1.2-0.2c0,0-1-0.4-1.1-0.4
		c0.1-0.1,0.1-0.1,0.3-0.1c-0.1,0-0.2-0.1-0.3,0c0.1,0,0.2,0,0.3-0.1c-0.1-0.1-0.2-0.1-0.3-0.1c0,0,0,0,0-0.1
		c-0.8,0-1.6-0.3-2.4-0.3c0,0,0.1-0.2,0.1-0.2c-0.1-0.4-2.2,0.3-1.7,0.1c-0.2,0,0.5-0.2,0.7-0.2c-0.4,0-0.8,0-1.3,0.1
		c0.2-0.1,0.3-0.1,0.4-0.2c-0.9,0-1.3,0-1.9,0.5c0.2,0,0.4,0,0.6-0.2c0,0-0.1,0-0.1,0c0.2-0.1,0.6-0.1,0.9-0.2
		c-0.1,0.1-1,0.2-0.8,0.4c0,0,0.6,0,0.6,0c-0.2,0.2-0.4,0.2-0.7,0.1c-0.2,0.2,1.6,0.2,1.6,0.2c-0.2,0.1-1.1,0.9-1.5,0.6
		c0-0.2,0.1-0.3,0.3-0.3c0.2-0.2-0.9,0.1-0.8,0.1c0.3-0.2-0.2-0.1,0.2-0.2c-0.1,0-0.4,0-0.4,0c0.1,0,0.3-0.1,0.4-0.1
		c0.3-0.2-1-0.2-1.3,0.1c-0.1,0.1,0.5,0.1,0.4,0.2c-0.1,0.1-0.2,0.1-0.3,0.2c0.1,0,0.2,0,0.3-0.1c-0.1,0.2-0.7,0.1-1,0.4
		c-0.2,0-0.2,0-0.1-0.1c-0.5,0.1-1.7,0-2.5-0.1c-0.3,0.2-0.8,0.3-1,0.2c-1-0.3-1.8,0.4-2.5,1c-2,1.8-3.9,3.9-5.5,6.1
		C6,22.8,3.8,28,2.8,33.5c0.3,0,0.4,1.2,0.8,1.3c0.3,0.1,0.6-0.8,0.8-0.1c0.3,0.1,0.1,1.3,0.2,1.5c0.3,0.7,0.7,1,1.3,1.2
		c-0.2,0.6-0.1,1,0,1.6c0,0.6-0.5,1.2-0.3,1.8c0,0,0.1,0,0.1,0.1c0-0.1,0-0.2,0.1-0.3c0.6,0.2,0.2,3.1,1,3.4
		c0.4,0.2,0.5-1.7,1.3-1.4c0.4,0.1,0.1,1.2,0.1,1.4c0,0,0.6-0.6,0.7-0.7c-0.1-0.5-0.1-1.8-1-1.4c-1.8,0.8-1-2.3-0.7-3.3
		c0.4-1.1,2-3-0.1-3.2c-1.7-0.1,0.3-1.7,0.5-2.1c0.2-0.2,0.3-0.4,0.5-0.7c0.2-0.5,0.7-0.9,0.9-1.4c-1.9-0.4-2,2.2-3.8,1.8
		C3.7,32.9,6.6,28.1,6.8,27.8C6.7,27.8,6.7,27.8,6.8,27.8"/>
	<path d="M28,17.8c0,0,0-0.1-0.1-0.1c-0.2,0.1-0.4,0.2-0.6,0.4c-0.1,0.2,0.6,0.1,0.7-0.1C27.7,18,27.9,17.9,28,17.8"/>
	<path d="M29.5,16.8c-0.1,0-0.1,0-0.2,0c0,0,0,0,0-0.1c-0.1,0-0.2,0-0.3,0c0-0.1,0.1-0.1,0.2-0.2c-0.2-0.1-0.4-0.1-0.5,0
		c0,0,0.9-0.8,0.7-0.8c-0.7,0-1.3,1-2,1.2c0,0,0.1,0.1,0.1,0.1c-0.1,0.2-0.4,0.1-0.4,0.3c0,0,1.7,0.1,1.9,0.1
		c-0.1,0-0.2,0.1-0.3,0.2c0,0.1,0.7-0.3,0.7-0.3c0.3,0.3,0.3,0.8,0.6,0c-0.1,0-0.1,0.1-0.3,0.1c0.1-0.3,0.1-0.1,0.2-0.4
		c-0.1,0-0.2,0-0.2,0c0.1-0.2,0.1-0.3,0.2-0.4C29.9,16.9,29.6,16.9,29.5,16.8"/>
	<path d="M21.7,12.5c0.2,0,0.6-0.2,0.8-0.2C22.2,12.2,22,12.3,21.7,12.5C21.7,12.5,21.7,12.5,21.7,12.5"/>
	<path d="M19.1,8.9c-0.2,0-0.4,0.1-0.5,0.2c0.2,0,0.3,0,0.4-0.1C19.2,9,19.2,9,19.1,8.9"/>
	<path d="M19.3,9.1c0.1,0,0.2,0,0.3-0.1C19.4,9,19.3,9,19.3,9.1C19.2,9.1,19.2,9.1,19.3,9.1"/>
	<path d="M19.8,8.8c-0.1-0.1-0.2-0.1-0.3,0C19.6,8.9,19.7,8.9,19.8,8.8"/>
	<path d="M26.9,16.4c0.2,0.2,0.6,0.5,0.9,0.3C27.6,16.5,27.4,16.3,26.9,16.4"/>
	<path d="M20.6,8.8c-0.4,0-0.3,0,0.2,0c0,0,0,0,0-0.1c0,0,0.1,0,0.1,0c-0.3,0-0.7,0-0.8,0.1c0.1,0,0.2,0,0.4,0
		c-0.3,0.1-0.6,0.2-0.4,0.2C20.2,8.9,20.5,8.9,20.6,8.8"/>
	<path d="M16.2,10.9C16.1,11,16,11.1,16,11.1c0.1,0,0.3,0,0.3-0.1C16.3,11,16.3,10.9,16.2,10.9"/>
	<path d="M21.1,8.7c-0.1,0-0.1,0-0.2,0C21,8.7,21.1,8.7,21.1,8.7"/>
	<path d="M16.7,10.9c0.1,0.1,2.7,0,3.1-0.2c0,0-0.1-0.1-0.1-0.1c0.1-0.1,0.5-0.1,0.6-0.1c-0.3-0.3-0.6,0-0.4-0.4
		c0-0.1,0.6-0.4,0.6-0.4c-0.6-0.2-1.1,0.5-1.5,0.5c0.1,0-0.7-0.3-1.2-0.2c0-0.1,0-0.2-0.1-0.2c0,0,0-0.1,0-0.1
		c-0.1,0.1-0.1,0.1-0.2,0.2c0,0,0,0,0.1,0c-0.3,0.1-0.8,0.5-0.9,0.6c0.1,0,0.4-0.1,0.6,0c-0.5,0-0.7,0-1.1,0.3
		C16.4,10.8,16.6,10.8,16.7,10.9"/>
	<path d="M18.7,9.4c0,0,0.1,0,0.2-0.1c0,0,0,0,0,0c0.7-0.2,1.7,0.1,2.3-0.2c0.1,0-0.8,0-0.4-0.2c-0.1,0-0.9,0.1-0.5,0.2
		c-0.1,0-0.1,0.1-0.2,0.1c0,0,0.1,0,0.2,0c-0.5,0.2-0.9-0.1-1.4-0.1c0,0,0,0,0,0c-0.1,0-0.2,0-0.3,0c0,0,0,0,0.1,0
		c-0.1,0-0.2,0-0.3,0.1c0,0,0,0,0.1,0c-0.1,0-0.2,0-0.3,0.2C18.3,9.5,18.5,9.5,18.7,9.4"/>
	<path d="M18.8,9.4c-0.1,0-0.2,0.1-0.3,0.1C18.7,9.6,18.8,9.5,18.8,9.4"/>
	<path d="M14.6,28.5c0,0.1-0.1,0.2,0,0.2C14.5,28.6,14.5,28.5,14.6,28.5"/>
	<path d="M31.4,50.1c-0.8-0.2-1.2-0.6-2-0.8c-0.7-0.2-1.6,0-2.2,0.1c-0.1-0.6-0.3-0.6-0.8-0.8c-1.4-0.6-0.7,0.7-1.4,0.8
		c-0.7,0.1-1.5-0.8-0.9-1.6c0.4-0.5-1-2.4-1.7-2.3c-0.7,0-2.4-0.1-2.9-0.8c-0.5-0.8-2.4-1-2.6-1.9c0.1,0,0.2,0,0.3-0.1
		c-0.5,0-1.3,0.5-1.7,0.4c-0.3-0.1-1.1,0-1.3-0.2c-0.3-0.3-0.8-0.7-1.3-0.7c0,0.2,0.3,0.1,0.4,0.4c-1.3,0.1-0.3,1.4-0.6,1.4
		c-0.6,0-0.4-1.2-0.4-1.4c0.2-0.1,0.2-0.3,0.1-0.4c-0.2-0.3-0.4,0.2-0.6,0.3c-0.8,0.3-2.1,1.1-1.9,2.1c-1,0.4,0,1.7,0.2,2.4
		c-0.1,0.2,0,0.3,0.2,0.4c0,0.8-1,1.6-1.1,2.4c0,0.9-0.3,1,0.6,1.5c0,0.5-0.6,0.8-0.4,1.4c0.2,0.7,0.7,0.7,1,1.1
		c0.6,0.8,1.3,1.7,2,2.5c0.9,0.9,1.1,2.1,2.5,2.4c1.1,0.1,2.3,0.8,2.8,1.9c0.4,0.9,0.5,1.9,0.9,2.9c0.2,1,0.1,2.8,0.7,3.6
		c0.6,1.4,0.7,2.3,0.7,3.7c0,0.7,0.4,0.8,0.6,1.3c0.2,0.5-0.2,0.9,0.6,1.4c0-0.2,0.1-0.3,0.3-0.3c0.7,1.4,3.3,2.1,4.7,2.7
		c0.1-0.6-2.1-0.9-1-1.6c0.7-0.3,0.1-1.2,0-1.5c0.1,0,0.7,0.2,0.5-0.2c0.1,0.2-1.6-0.5-0.9-0.7c0.4-0.1,1.3,0.2,1-0.4
		c0-0.3-0.6-0.9,0-1.1c0.5-0.1,1.3-0.2,1.5-0.7c0.6-1.5-0.7-1.1-1.1-2c0.1,0.2,2-0.1,2.1-0.7c0.2-0.9,0.5-1.8,0.7-2.7c0,0,0,0,0,0
		c0-0.4,0.1-0.7,0.3-1c-0.1-0.4-0.3-0.8-0.4-1.2c-0.1-0.5,0.6-1.2,0.9-1.4c1.3-0.8,1.5-1.3,1.8-2.8c0.1-0.8-0.7-2.8-0.4-3.3
		C31.4,53.6,33,50.5,31.4,50.1"/>
	<path d="M14.6,32.7c0.3,0,0.4-0.1,0.4-0.3C14.9,32.4,14.3,32.6,14.6,32.7"/>
	<path d="M31.7,9.9C31.7,9.9,31.7,9.9,31.7,9.9C31.7,9.9,31.7,9.9,31.7,9.9"/>
	<path d="M74.5,37.8c-1.3,0.2-1.8,0.6-2.1-0.9c-0.2-1.1-2.1-1.8-2.3-3c-0.2-0.9-0.4-1.2-1-1.8c-0.5-0.6-0.3-1.6-0.8-2.4
		c-0.4-0.6-0.5-1.3-0.8-2c-0.5-1-1.6-2.3-1.6-3.4c0.3,0.4,0.7,1.4,1.1,1.4c0.2-1.1,0.3-1.3-0.1-2.4c-0.7,0.2-1.3-0.2-2,0
		c-0.9,0.3-1.6,0.2-2.5-0.1c-0.6-0.2-3.2-1.7-3.2,0c0,2-2.4-0.6-3-0.8c-0.7-0.2-1.8,0.2-1.8-1c0-0.7,0.2-1.2,0.3-1.7
		c-0.2,0.2-0.4,0.2-0.5,0c-0.3-0.5-0.7,0.1-1,0.2c-0.7,0-1.3,0-2,0c-1,0-2.1,0.6-2.9,1.1c-1.1,0.6-2-0.3-2.6,0.5c0,0,0,0,0,0
		c-0.5,0.7-1.2,1.3-1.7,2.1c-0.4,0.5-0.2,1.1-0.4,1.7c-0.2,0.5-0.8,1-1.3,1.2c-0.9,0.3-1.3,1.4-1.6,2.2c-0.3,0.7-0.5,1.3-0.9,1.9
		c-0.5,0.8,0.2,2.2,0.1,3.1c0,0.6-0.3,1.4-0.6,1.9c-0.3,0.5,0.1,1.2,0.1,1.9c0,0,0,0-0.1,0c0.3,0.6,0.8,1.1,1.2,1.5
		c0.8,0.9,0.9,2,1.8,2.9c0.6,0.6,1.4,1.6,2.4,1.3c0.5-0.2,0.8-0.4,1.3-0.5c0.4,0,0.7,0.4,1.2,0.3c1,0,1.9-1.4,3.1-1.4
		c0.9,0,0.8,1.4,1.5,1.4c2.4,0,2.1,1.7,1.5,3.3c-0.4,1.1,0.7,2.1,1.3,2.8c0.6,0.8,0.7,1.9,0.9,2.8c0.2,0.9,0.6,2.2,0.4,3.1
		c-0.2,0.9-0.9,1.5-1.1,2.4c-0.2,1.3,0.3,2.5,0.8,3.7c0.5,1.1,0.6,1.5,0.7,2.7c0.3,2.6,2.2,4.4,2.2,6.8c0.3-0.1,1,0.3,1.7,0
		c0.7-0.4,1.3-0.2,2.1-0.3c0.1-0.3,1.4-0.8,1.7-1.2c0.7-0.9,1.1-1.9,1.8-2.8c0.8-0.9-0.1-1.6,0.8-2.4c0.9-0.7,1.1-0.4,1.2-1.8
		c0-0.6-1.1-2.1,0.1-2.3c0.1-0.9,1-1.3,1.7-1.7c1.9-1.2,0.4-2.9,1.2-4.5c0.3-0.6-0.6-1.3-0.6-2c0-0.6-0.1-1.3-0.1-1.9
		c0-0.6,0.5-1,0.7-1.5c0.5-2.2,2.4-2.8,3.5-4.5c1-1.5,3-4.9,2.2-6.7C75.9,37.3,75.2,37.6,74.5,37.8"/>
	<path d="M73.5,58.7c0.2-0.3,0.4-0.7,0.5-1C73.7,57.9,73.5,58.2,73.5,58.7"/>
	<path d="M37.2,7.6c0.1,0,0.2,0,0.4,0C37.3,7.6,37.2,7.6,37.2,7.6 M38.5,7.7c0,0,0.1,0,0.2-0.1c0.2,0,0.4,0,0.5,0
		C38.9,7.6,38.6,7.7,38.5,7.7 M41.7,7.7c-0.1,0-0.1,0-0.2,0C41.5,7.7,41.6,7.7,41.7,7.7 M38.3,9.6c0.1-0.3,0.7,0.5,0.8,0
		c-0.2-0.1-0.3-0.1-0.5-0.2c0.3,0,0.8,0.2,1-0.1c0,0-0.1,0-0.1-0.1c0.2,0,0.4-0.1,0.5-0.1c-0.1,0-0.3,0-0.4-0.1
		c0.1-0.2,0.3,0,0.4-0.2c0.1-0.2-0.4-0.2-0.4-0.2c0.1-0.3,0.9,0.1,1-0.2c-0.1-0.1-0.3-0.1-0.4-0.1c0.1,0,0.1,0,0.2,0
		c-0.2-0.1-0.5-0.1-0.7,0c0.3-0.1,1.8-0.5,1.9-0.7c0.4,0,1.2-0.1,1.3-0.2c0-0.1-3.6,0.4-3.9,0.4c0,0,0.8-0.3,0.8-0.3
		c0,0-0.1,0-0.4,0c0.3,0,0.5-0.1,0.6-0.2c-1.9,0-4.1-0.2-6,0.3c0,0,0.1,0,0.1,0c-0.1,0-0.2,0-0.3,0.1c0.1,0.1,0.2,0.1,0.3,0.1
		c-0.2,0-0.9-0.1-1,0c0,0,0,0,0,0.1c-0.1-0.1-0.4-0.1-0.4,0c-0.3,0-2.2,0.1-2.4,0.5c0.1,0,0.2,0.1,0.4,0c-0.2,0.4-1.1,0.1-1.2,0.4
		c-0.1,0.1,0.8,0.1,0.9,0.1c-0.2,0.2-0.6,0-0.8,0.2c0.1,0,0.2,0,0.3,0c0,0-0.1,0-0.1,0.1c0.1,0.1,0.2,0.1,0.4,0c0,0,0,0,0,0
		c0.4-0.1,1.8-0.1,1.5,0.6c0.2,0,0.2,0.1,0,0.2c0.2,0,0.6,0.2,0.6,0.2c-0.1,0.2-0.4,0-0.5,0c0,0.1,0.4,0.1,0.6,0.2
		c-0.2,0.2-0.7,0.3-0.8,0.6c0,0,0.1,0,0.1,0c-0.2,0.3,0.2,0.4,0.3,0.5c-0.5,0.3,0.9,0.9,1.1,1c0.3,0,1-1.2,1.6-1.3c0,0,0,0.1,0,0.1
		c0.6,0,1-0.3,1.5-0.5c0.9,0,1.8-0.1,2.6-0.4c-0.2,0-1.1,0-1-0.2c0.3,0,0.1,0,0.2-0.2c0.1,0,1.1,0.4,1.1,0.2
		C39.2,9.8,38.4,9.7,38.3,9.6"/>
	<path d="M14.2,28.2c-0.1,0-0.2,0.1-0.3,0.1c0.1,0,0.2,0.1,0.4,0C14.3,28.3,14.3,28.2,14.2,28.2"/>
	<path d="M39.8,10.7c0,0-0.1,0-0.1,0c1,0.1,1.6,0.5,2.7,0.1c0.1-0.1-0.4-0.4-0.1-0.4c-0.1,0-1.3-0.1-1.3,0c-0.2-0.1-0.4,0-0.5-0.1
		c-0.1,0.1-0.5,0.2-0.3-0.1c-0.2,0-0.4,0.1-0.5,0.1c0,0.1,0.4,0.3,0.4,0.3c-0.1,0-0.4,0-0.6,0c0.1,0.1,0.3,0,0.4,0.1
		C39.9,10.6,39.9,10.6,39.8,10.7"/>
	<path d="M27.9,16.2C27.6,16.4,28.2,16.2,27.9,16.2"/>
	<path d="M11.5,35.2c-0.1,0-0.6,0.6,0.5,0.6c0-0.1,0-0.2-0.1-0.3c0,0,0,0,0,0.1C11.9,35.5,11.7,35.3,11.5,35.2"/>
	<path d="M14.2,35.2C14.2,35.2,14.2,35.2,14.2,35.2C14.2,35.2,14.2,35.2,14.2,35.2 M13.3,35.8c0.4-1,1.2,0.5,1.2,0.5
		c0.1,0,0.7-0.8,0.7-0.5c0,0,1.2,0,1.2,0c0,0-0.1-0.5-0.2-0.8c-0.2-0.4-0.1-1-0.7-1.1c-0.3,0-0.6,0.2-0.8-0.1
		c-0.4-0.7-0.5,1-0.5,1.2C14.1,35.1,12.4,35.3,13.3,35.8"/>
	<path d="M26.3,17.6c0,0-0.1,0-0.1,0.1c-0.1,0.1,0.6,0.5,0.8,0.1C26.8,17.9,26.5,17.8,26.3,17.6"/>
	<path d="M13.7,33.8c-0.2-0.3,0.1-0.6-0.4-0.8c0-0.3-0.7-1.4-1-1.7c-1-1-1.7-0.8-2.7,0.4c0.9,0.1,1-1.2,1.3-0.1
		c1.2,0.1,1.4,1.4,1.1,2.1C12.6,33.8,13.2,34.5,13.7,33.8"/>
	<path d="M17,36.4c-0.1,0.4,0.6,0.6,0.8,0.3C17.8,36.6,17.1,36,17,36.4"/>
	<path d="M16.2,35.2C16.2,35.2,16.2,35.2,16.2,35.2C16.1,35,16.2,35,16.2,35.2"/>
	<path d="M13.7,29.8c0-0.1,0-0.4-0.1-0.4C13.6,29.5,13.5,30.2,13.7,29.8"/>
	<path d="M10.3,31.8c-0.1,0-0.2,0.1-0.3,0.3c0.1-0.2,0.1,0.4,0.4-0.4C10.4,31.6,10.4,31.7,10.3,31.8"/>
	<path d="M23.4,9.2c0,0-0.2,0-0.2,0.1c0,0,1.1,0,0.8-0.1C23.8,9,23.6,9.1,23.4,9.2"/>
	<path d="M54.9,18.7c0.2,1.3,1-0.5-0.2-0.3C54.7,18.5,54.8,18.6,54.9,18.7"/>
	<path d="M46.5,13c0.8,0.1,1.3-0.2,1.3-0.9c0-0.1,0.7-0.5-0.2-0.6c-0.1,0-0.9,0-0.6,0.3c-0.1,0.1-0.6,0-0.6,0.2
		c0.1,0.1,0.2,0.2,0.3,0.2C46.5,12.4,45.7,12.9,46.5,13"/>
	<path d="M55,18.2c0-0.1,0-0.4,0.1-0.6c-0.1,0-0.1-0.1-0.1-0.2c-0.1,0.1-0.2,0.1-0.4,0.1C54.8,17.7,54.9,18.1,55,18.2"/>
	<path d="M63.5,22.1c-0.3-0.1-0.7-0.2-1.1-0.2C62.7,22.1,63.2,22.3,63.5,22.1"/>
	<path d="M52,18.8c0,0,0.4,0.3,0.4,0.1C52.3,18.6,52.2,18.6,52,18.8"/>
	<path d="M48.5,12c-0.1,0-0.1,0.1-0.1,0.1c0.1,0,0.1,0,0.2,0C48.6,12,48.6,12,48.5,12C48.6,12,48.5,12,48.5,12"/>
	<path d="M47.6,10.6c0.2,0,0.3-0.1,0.3-0.2C47.8,10.4,47.3,10.6,47.6,10.6"/>
	<path d="M47.7,10.7c0,0.1,0.1,0.1,0.3,0.2c0,0.3,0,0.2,0,0.6c0,0,0.1,0,0.1,0c0,0-0.1-0.1,0-0.1c0.5,0.3,0.1,0.1,0.1,0.4
		c0,0.2,0.6,0.1,0.7,0.1c-0.2,0.2,0,0.3,0.3,0.3c0,0.3-0.4,0.3-0.7,0.3c0,0.4-0.3,0.4-0.3,0.6c0,0.1,0.8,0.2,0.9,0.1
		c0,0.2-0.8,0.3-1,0.6c0.3,0,2.9-0.2,2.9-0.3c-0.1,0-0.2,0-0.3-0.1c0.4-0.4,0.4-0.8,0-0.6c-0.1,0-0.1,0-0.2,0.1
		c0-0.6-0.9-1.2-1.5-1.3c0.1-0.1,0.6-0.3,0.5-0.6c-0.4,0.2-0.7,0.2-0.9-0.1c0.1-0.1,0.2-0.1,0.4-0.2c0-0.5-1.2,0.2-1,0.3
		C48.1,10.8,47.7,10.7,47.7,10.7"/>
	<path d="M21.2,9.3c0.1,0,0.2,0,0.2-0.1c-0.2,0-0.3,0-0.4,0.1C21.1,9.3,21.1,9.3,21.2,9.3"/>
	<path d="M56.8,20c0,0.2,1,0.7,1.2,0.8c0,0,0-0.6,0.1-0.7C57.9,20,56.9,20,56.8,20"/>
	<path d="M51.9,7.4C51.9,7.4,51.9,7.4,51.9,7.4C51.9,7.4,51.9,7.4,51.9,7.4C51.9,7.4,51.9,7.4,51.9,7.4"/>
	<path d="M59.3,11.4c0.2,0,0.3-0.1,0.3-0.3c-0.1,0-0.5-0.1-0.2,0.1c-0.1,0-0.2,0-0.3,0C59.1,11.3,59.1,11.4,59.3,11.4"/>
	<path d="M51.9,7.4c-0.1,0,0.1,0.1,0.3,0.1C52.1,7.5,52,7.4,51.9,7.4"/>
	<path d="M52.4,7.5C52.3,7.5,52.3,7.5,52.4,7.5c0.1,0.1,0.5,0,0.8,0c-0.2,0-0.6,0.1-0.6,0.1c0,0.1,0.6,0.1,0.7,0.1
		c-0.2,0-0.4,0-0.6,0c0,0.5,1.3,0,1.7-0.1c0,0,0.1,0.1,0.2,0.1c0,0.1-0.1,0-0.1,0.1c0.1,0,0.3,0,0.5,0c0,0,0,0,0,0.1
		c0.3,0,0.4-0.1,0.6-0.1c-0.3-0.1-0.7-0.2-1-0.2c0,0,0.1,0,0.1,0c-0.1,0-0.2-0.1-0.2-0.1C55,7.5,56,7.4,56.2,7.3
		c-0.6-0.3-1.6-0.1-2.2-0.2c0,0,0,0,0.1,0c-0.1,0-0.1,0-0.2,0c0,0,0,0,0,0c-0.1,0-0.2,0-0.3,0c0.1,0.1,0.4,0.1,0.5,0.1
		c0,0,0.4,0,0.4,0c-0.1,0-0.3,0-0.4,0c0,0,0,0.1,0.1,0.1c-0.2,0-0.5-0.1-0.6-0.1c0,0,0,0,0-0.1c0,0-0.8-0.2-0.4,0.1
		c-0.1,0-0.6-0.1-0.5-0.1c-0.1,0-0.1,0-0.2,0c0,0,0.1,0,0.1,0c-0.2,0-0.4,0-0.7,0c0.1,0,0.2,0.1,0.3,0.1C52.1,7.4,52.2,7.4,52.4,7.5
		"/>
	<path d="M54.8,11.6C54.8,11.6,54.8,11.7,54.8,11.6C54.8,11.6,54.8,11.6,54.8,11.6"/>
	<path d="M57.8,11.6c0.1-0.1,0.2-0.2,0.2-0.3C57.9,11.3,57.6,11.5,57.8,11.6"/>
	<path d="M63.8,17c0.9-0.1,0.7-0.4,1.5,0.4c0.4,0.3,1.1,0.7,1.5,0.1c-0.2,0-0.7-0.1-0.8-0.3c0-0.1,0.9-0.3,1.3-0.4
		c-0.2,0.1,0.4,0.7-0.4,0.8c0.7,0.9,2.3,0.8,2.7,2c-0.4,0-0.5,0.3-0.9,0.3c-1-0.1-1.7-0.7-2.6-0.8c-0.8-0.1-1.3,0.3-2,0.2
		c0,0,0,0,0,0c-0.8-0.9-0.2-0.7-0.5-1.6C63.7,17.3,63.9,17.2,63.8,17 M72.1,21.1c0,0-0.1,0-0.2,0c-0.9-0.1-1.4-1.4-2.2-1.6
		C70.6,19.4,71.3,20.9,72.1,21.1 M49.8,14c0,0.2,0.1,0.3,0.1,0.4c-0.2,0-1.4-0.2-1.4,0c0,0.4,2.1,0.6,1.7,1.4c0,0,0,0,0,0
		c0.1,1.1-0.2,0.8-1,0.9c-0.7-0.1-1.4-0.2-2.1-0.3c-0.8-0.1-0.5,0.5-0.5,0.9c0,0.3-0.5,2.4,0.1,2.4c0.6,0,0.8-0.2,1.2,0.4
		c0.3,0.5,1.2-0.3,1.7-0.1c0.4-0.2,0.9-0.5,1.2-0.9c-1-0.4,1.3-1.4,1.3-1.5c-0.4-1.1,1.2-0.2,1.7-0.5c1-0.5,1.2-0.2,1.9,0.6
		c-0.1-0.3,3.4,2.4,2.3,2.3c0.1,0.5,0.7-0.4,0.7-0.4c-0.1-0.8-0.5-0.7,0.5-0.4c0-0.6-1.1-0.5-1.2-1.1c-0.7-0.1-1.9-1-2-1.8
		c-0.1-0.5,2.1,1.1,2.3,1.1c0.1,0.5,1.2,0.6,1.3,1.4c0.1,0.5,1,1.3,1.4,1.4c-0.2,0.5,0.1,0.7,0.7,0.8c-0.1,0-0.2-0.7-0.2-0.8
		c0.2,0.2,0.5,0.4,0.8,0.2c-0.5-0.4-0.7-0.8-1.1-1.2c-0.1-0.3,0.6,0.1,0.6,0.1c0-0.1,0-0.2-0.1-0.3c0.4-0.1,0.5-0.3,0.9,0
		c0.5,0.4,0.5-0.1,1,0c0,0.1,0.1,0.2,0.2,0.2c-0.2,0.1-1.5-0.1-1.4,0.3c0.1,0.3,0.6,0.1,0.1,0.7c0.5,0.2,0.8,0.5,1.2,0.9
		c0,0-0.1,0.1-0.1,0.1c1.4,0.1,2.5,0.7,3.9,0.3c0.2,0.6,0,1.1,0,1.8c0,0.2,0,0.8-0.1,0.9c-0.1,0,0.6,1.2,0.6,1.5
		c0.1,1.7,2.6,2.6,2.9,4.1c0.2,0.9,1,1.5,1.5,2.2c0.7,1,1,1.7,1.5,2.7c1,2,2.3,0.4,3.9-0.1c-0.3-1.8-0.7-3.7-1.2-5.4
		c-0.4-0.3-0.2-0.7-0.4-1.1c-0.2,0-0.1,0.3-0.2,0.3c-0.3-0.7-1.2-1.1-1.5-1.9c-0.7-1.5,0.8-0.5,1.3,0.1c-0.8-2.1-1.8-4.2-3.1-6
		c0,0,0.1,0,0.1,0c-1.9-3.1-4.2-5.9-6.8-8.3C64.2,10.9,61.3,8,59,7.8c0.1-0.4-1.1-0.1-0.7-0.1c-0.5,0.1-1-0.1-1.5,0.1
		c0.1,0,0,0,0.1,0c-0.2,0-0.3,0-0.5,0c0.1,0,0.1,0,0.2,0c0,0-1-0.1-1,0c0,0,0.1,0,0.2,0c0,0-0.2,0-0.2,0.1c0.3,0,0.4,0,0.7,0
		c-0.1,0.2-2.3,1.1-2.6,1.1c0.1,0,0.2,0,0.3,0.1c-0.4-0.1-2.3,0.3-1.3,1c-0.1,0-0.2,0.1-0.2,0.2c0.2,0,0.2,0,0.4,0
		c0,0.2-0.2,0.1-0.2,0.2c0,0.5,1.5,0.1,1.6,0c0.5-0.3,0.6,0,0.9,0.4c0.1,0.2,0.6,1,0.8,1.1c0.3,0,1.4-0.3,1.4-0.6
		c-0.9-0.2,0.6-0.8,0.5-0.9c-0.1-0.4-0.7-0.3-0.8-0.8c-0.1-0.5,1.4-0.3,1.3-0.6c0.1-0.2,1.2-0.8,1.5-0.1c0,0.1-1.4,0.6-1.5,0.5
		c0.1,0.2,0.1,0.4,0.4,0.4c-0.5,0.6,2.8,0.5,3.1,0.8c-0.7,0.3-1.5-0.2-2.1,0.1c-0.2,0.1,0.5,0.4,0.5,0.6c0-0.3-1.7,0.1-1.6,1.1
		c-0.2,0-0.3,0-0.5,0c0,0,0-0.1,0-0.1c-0.4-0.2-2.2,0.5-2.1-0.1c-0.5-0.1-1,0-1.5-0.1c0,0.1,0-0.1,0-0.3c0.1,0,0.3,0,0.3,0.1
		c0-0.2-0.1-0.3-0.3-0.3c0-0.2,0.1-0.3,0.1-0.3c-0.1-0.1-0.2-0.2-0.2-0.5c-0.9,0.4-0.9,0.4-0.4,1.2c0.2,0.4-0.7,0.3-0.9,0.3
		c-0.8-0.1-0.8,0.7-1.4,0.8C50.9,13.7,50.8,14,49.8,14"/>
	<path d="M55.1,12.3c0-0.1-0.1-0.1-0.1,0c0.4,0.3,0.3-0.2,0.6-0.3c-0.3-0.6-1,0-0.3,0.2C55.3,12.2,55.2,12.3,55.1,12.3"/>
	<path d="M67.3,22.3c-0.3,0-0.6,0.1-0.9,0.2C66.5,23,67.3,22.5,67.3,22.3"/>
	<path d="M22.8,8.7c-0.1,0-0.1,0-0.2,0C22.7,8.7,22.8,8.7,22.8,8.7c0.4,0,0.7-0.1,0.6-0.1c0,0,0.1,0,0.1,0c-0.2-0.2-1-0.1-1.2-0.1
		c-0.1,0-0.1,0,0.1,0c0,0-0.1,0-0.1,0c0,0,0.1,0,0.3,0c-0.1,0.1-0.2,0.1-0.4,0.1C22.3,8.7,22.5,8.7,22.8,8.7"/>
	<path d="M21.8,8.9c0.1,0,0.1,0,0.2,0c-0.1,0,0-0.1-0.3-0.1C21.6,8.8,21.7,8.9,21.8,8.9"/>
	<path d="M22.7,9.1c-0.1,0-0.4,0.1-0.5,0.1c0.2-0.1,1.2,0.2,1.2-0.3c0,0-0.8,0-0.9,0c0,0,0.1,0,0.2,0c-0.2,0.1-0.4,0-0.6,0.1
		c0,0,0,0,0.1,0C22.4,9.1,22.6,9.1,22.7,9.1"/>
	<path d="M24.5,9.1c-0.6,0.1,0.5,0.1,0.7,0.1c0.6-0.4,1.9,0.3,2.7-0.2c0,0-0.1,0-0.1,0c0.1,0,0.1,0,0.2,0c0-0.2-2.9,0.1-2.7,0
		c-0.1,0-0.4,0-0.3-0.1c0.1,0,0.3,0,0.4,0c-0.1-0.1-1.5-0.2-1.6-0.1c0.1,0.1,0.3,0.1,0.5,0.1C24.4,8.8,24.5,8.9,24.5,9.1"/>
	<path d="M21.4,10.7c0.2-0.4-1,0-0.8-0.1C20,10.7,21.2,10.7,21.4,10.7"/>
	<path d="M20.9,9.8c0.3,0.5,1.2,0.2,1.6-0.1c0,0-0.2,0-0.2,0c0.2-0.2-0.1-0.1-0.2-0.1c0.2,0,0.4-0.1,0.5-0.2c-0.1,0-1.6,0.1-0.9,0.1
		C21.3,9.9,21.1,9.7,20.9,9.8"/>
	<path d="M24.7,8.7c0.1,0,0.2,0,0.3-0.1c-0.3,0-0.5,0-0.8,0.1C24.2,8.7,24.6,8.7,24.7,8.7"/>
	<path d="M22.2,9.1C22.2,9.1,22.2,9.1,22.2,9.1C22.2,9.1,22.2,9.1,22.2,9.1C22.2,9.1,22.2,9.1,22.2,9.1"/>
	<path d="M21.7,9.1C21.7,9.1,21.7,9.1,21.7,9.1c0.1,0,0.3,0,0.5,0C22.1,9.1,21.7,8.9,21.7,9.1C21.7,9,21.7,9,21.7,9.1l-0.2,0
		C21.6,9.1,21.6,9.1,21.7,9.1"/>
	<path d="M24.3,8.3c0,0,0.1,0,0.1-0.1c-0.1,0-0.2,0-0.3,0C24,8.3,24.5,8.3,24.3,8.3"/>
	<path d="M25.6,8.5c0,0-0.1,0-0.1,0c0,0,0,0,0,0C25.5,8.5,25.6,8.5,25.6,8.5"/>
	<path d="M25.4,8.3c-0.1,0-0.2,0-0.2,0C25.2,8.3,25.3,8.3,25.4,8.3"/>
	<path d="M24.6,8.6c0.2-0.3-0.7-0.2-0.5,0C23.6,8.6,24.4,8.6,24.6,8.6"/>
	<path d="M29.3,7.8c0.1,0,0.2,0,0.2,0C29.5,7.8,29.4,7.8,29.3,7.8 M28.1,7.9c0.2,0,0.4,0,0.5,0c0,0,0,0-0.1,0c0,0,0.2,0.1,0.2,0.1
		C28.5,8,28.3,7.9,28.1,7.9 M25.4,8.3C25.4,8.3,25.4,8.3,25.4,8.3c0.2,0,0.6,0,0.7,0.1c-0.3,0-0.5,0-0.8,0.1c0,0.1,0.1,0.1,0.2,0.1
		c0.2-0.1,0.8,0,1.1,0c0,0,0,0,0-0.1c0.2-0.1,0.7-0.1,0.9,0.1c-0.2,0-1.3-0.1-0.8,0.1c-0.2,0-0.4,0-0.5,0.1C27,8.6,28.4,9.1,29,8.5
		c0,0-0.2,0-0.3,0c0.1-0.1,0.5-0.1,0.6-0.2c0.4,0,0.6-0.1,0.9-0.2c0,0-0.1,0-0.2-0.1c0.1,0,0.2,0,0.3-0.1c-0.1,0-0.1,0-0.2,0
		c0.8-0.2,1.7-0.2,2.5-0.4c-0.1,0-0.4,0-0.4,0c0.1,0,1,0,1-0.1c0.1-0.1-1.4,0.1-0.9,0C31.1,7,28,7.3,26.9,7.7c0.2,0,0.4,0,0.6,0
		c-0.1,0-0.2,0-0.3,0.1c0.2,0,0.5-0.1,0.7,0c-0.2,0-0.4,0-0.7,0.1c0.1,0,0.3,0,0.4,0c-0.1,0-0.2,0-0.3,0c0,0.1,0.2,0.1,0.5,0.1
		C28,7.9,27.9,8,27.7,8C27.8,8,28,8.1,28,8.1c-0.5,0.3-0.6,0-0.9,0.1c0.2-0.1,0.2-0.1,0-0.1c0,0,0,0,0,0C26.9,8.2,26.3,8,26,8
		c-0.1,0,0.1,0,0.2,0c-0.2,0-0.4,0-0.5,0c0,0,0,0,0.1,0c-0.1,0-0.3,0-0.4,0c0.1,0,0.2,0.1,0.3,0c-0.2,0-0.3,0-0.5,0
		C25,8.3,25.1,8.3,25.4,8.3"/>
	<path d="M26.1,8.7c-0.2,0-0.4,0.1-0.5,0.2C25.8,8.8,25.9,8.7,26.1,8.7"/>
	<path d="M24.6,8.6C24.6,8.6,24.6,8.6,24.6,8.6C24.7,8.6,24.7,8.6,24.6,8.6"/>
	<path d="M27.6,8C27.6,8,27.7,8,27.6,8C27.6,8,27.6,8,27.6,8"/>
	<path d="M27.1,9.4c-0.1,0.1,0.3,0.2,0.3,0.2c0.3,0,0.8,0,1-0.1C28.1,9.4,27.4,9.2,27.1,9.4"/>
</g>
</svg>
