<?xml version="1.0" encoding="utf-8"?>
<!-- Generator: Adobe Illustrator 21.1.0, SVG Export Plug-In . SVG Version: 6.00 Build 0)  -->
<svg version="1.1" id="Layer_1" xmlns="http://www.w3.org/2000/svg" xmlns:xlink="http://www.w3.org/1999/xlink" x="0px" y="0px"
	 width="68px" height="68px" viewBox="0 0 68 68" style="enable-background:new 0 0 68 68;" xml:space="preserve">
<style type="text/css">
	.st0{clip-path:url(#SVGID_2_);fill:#FFFFFF;}
	.st1{fill:none;}
	.st2{fill:#FFFFFF;}
</style>
<g>
	<g>
		<defs>
			<rect id="SVGID_1_" width="68" height="68"/>
		</defs>
		<clipPath id="SVGID_2_">
			<use xlink:href="#SVGID_1_"  style="overflow:visible;"/>
		</clipPath>
		<path class="st0" d="M58.7,36.3l-33,21l-7.4-26.6l22.5,7.2l11.6-15.4L58.7,36.3z M41.1,34.3c0.3-0.1,0.5-0.3,0.8-0.4l-1.5,2
			l-2.7-0.8C38.9,35.1,40,34.8,41.1,34.3 M38.1,28.2c-1,0.4-1.8-0.1-2.3-1.2c-1-2.3-0.2-4.9,1.8-5.8c0.4-0.2,0.8-0.3,1.1-0.3
			l0.7,2.9C39.8,25.5,39.3,27.7,38.1,28.2 M51.4,21.6l-6.7,8.8l-0.2-0.3c-0.8,1-2.1,2-3.5,2.6c-4,1.7-8,0.3-9.9-4.1
			c-2.3-5.2-0.1-10,4.1-11.8c4.1-1.8,7.5-0.1,9.1,3.6c1.3,3,0.6,5.3-0.7,5.8c-0.8,0.3-1.4-0.4-1.8-2.3l-1.3-5.2
			c-0.8,0-2.1,0.2-3.3,0.7c-3.8,1.6-4.9,5.7-3.5,8.9c0.9,2.1,2.8,2.8,4.4,2.1c1.5-0.6,2.4-1.9,2.6-3.7h0.1c0.7,1.5,1.9,1.7,3.1,1.2
			c2.7-1.2,3.8-4.5,2.1-8.4c-1.9-4.4-6.5-6.3-11.2-4.2c-5.9,2.6-7.7,9-5.4,14.4c0.7,1.7,1.7,2.9,2.9,3.9l-9.4-3l-0.1-0.3l-5-16.3
			l30.3-0.1L51.4,21.6z M38.6,12.3h-6.7l2.3-2.6L38.6,12.3z M19.8,26l1.1,3.8l-3.6-1.1C17.6,28.4,18,28,18,28L19.8,26z M60.8,36.8
			l-7.5-17.6l-1.6-1l-2.5-5.9H42l-7.9-4.9l-4.3,4.9h-14l3.5,11.9L15.9,28l-0.1,0.1l0,0l0,0l0,0l0,0l0,0l0,0v0.1l8.9,32L60.8,36.8z"
			/>
	</g>
	<rect class="st1" width="68" height="68"/>
</g>
<path class="st2" d="M68.1,33.6c0,0.1,0-0.3,0-0.2C67.8,20.2,59.9,7.9,46.9,2.6C29.6-4.5,9.8,3.8,2.7,21.1c-6.7,16.4,0.3,35,15.8,43
	l2.4-1.6C5.5,56-1.3,37.9,5.1,22.3C11.5,6.7,29.4-0.8,45,5.6c13.1,5.4,20.4,19,18.5,32.5c-0.2,0.9-0.5,1.8-0.8,2.8
	C59,52,48.2,57.2,48.2,57.2l-0.4-6l-20,14.4l25.3,1.6L50,63.1C55.8,60.2,60.3,56,63.8,50c0.4-0.8,0.9-1.6,1.2-2.4
	c0.6-1.6,1.3-3.1,1.8-4.8c0-0.1,0.1-0.2,0.1-0.3c0.3-0.6,0.4-1.5,0.6-2.1c0-0.1,0-0.1,0.1-0.2c0.2-0.7,0.3-1.5,0.4-2.2
	c0-0.2,0.1-0.5,0.1-0.7c0-0.2,0.1-0.5,0.1-0.7c0-0.3,0-0.5,0-0.9c0-0.2,0.1-0.4,0-0.6C68.1,34.5,68,34.1,68.1,33.6z"/>
</svg>
