<?xml version="1.0" encoding="utf-8"?>
<!-- Generator: Adobe Illustrator 21.1.0, SVG Export Plug-In . SVG Version: 6.00 Build 0)  -->
<svg version="1.1" id="Layer_1" xmlns="http://www.w3.org/2000/svg" xmlns:xlink="http://www.w3.org/1999/xlink" x="0px" y="0px"
	 width="22px" height="22px" viewBox="0 0 22 22" style="enable-background:new 0 0 22 22;" xml:space="preserve">
<style type="text/css">
	.st0{clip-path:url(#SVGID_2_);fill:#B8BE37;}
</style>
<g>
	<defs>
		<rect id="SVGID_1_" x="0.5" width="20.9" height="22"/>
	</defs>
	<clipPath id="SVGID_2_">
		<use xlink:href="#SVGID_1_"  style="overflow:visible;"/>
	</clipPath>
	<path class="st0" d="M9.9,17.5c-4.5,0-8.1-3.6-8.1-8.1c0-4.5,3.6-8.1,8.1-8.1S18,4.8,18,9.3C18,13.8,14.3,17.5,9.9,17.5 M17.1,15.1
		c1.3-1.6,2-3.6,2-5.8C19.2,4.2,15,0,9.8,0C4.7,0,0.5,4.2,0.5,9.3s4.2,9.3,9.3,9.3c1.6,0,3.2-0.4,4.5-1.2l4.6,4.6l2.6-2.6L17.1,15.1
		z"/>
</g>
</svg>
