<?xml version="1.0" encoding="utf-8"?>
<!-- Generator: Adobe Illustrator 22.0.1, SVG Export Plug-In . SVG Version: 6.00 Build 0)  -->
<svg version="1.1" baseProfile="basic" id="Слой_1"
	 xmlns="http://www.w3.org/2000/svg" xmlns:xlink="http://www.w3.org/1999/xlink" x="0px" y="0px" viewBox="0 0 24.8 24.7"
	 xml:space="preserve">
<style type="text/css">
	.st0{fill:#0E0F0F;}
</style>
<path class="st0" d="M3.5,15h1.2v-0.9v-1.3v-0.9H3.5v0.6H2.7c0,0-0.3,0-0.3,0.3v1.3c0,0,0,0.3,0.3,0.3h0.8V15z M5.4,18.2h2.4V8.7
	H5.4V18.2z M13.7,17.8l-1.6,2h6.5l-1.2-2H13.7z M11,15.8L11,15.8l0-4.7h0V9.7H9.7v1.4H8.5v4.7h1.2v1.4H11V15.8z M11.7,8.9h8.1V7.3
	h-6.7L11.7,8.9z M21.8,9.7h-1.2v7.5h1.2V9.7z M24,12.3c0,3.3-1.4,6.2-3.5,8.3v-0.2H10.2v1.1h9.2c-2,1.5-4.4,2.4-7.1,2.4
	c-6.4,0-11.7-5.2-11.7-11.6c0-3.9,2-7.4,5-9.5v1.4H4.9c0,0-0.3,0-0.3,0.3v1.2c0,0,0,0.3,0.3,0.3h0.7v1.8c0,0,0,0.3,0.3,0.3h1.2
	c0,0,0.3,0,0.3-0.3V6.1h0.7c0,0,0.3,0,0.3-0.3V4.6c0,0,0-0.3-0.3-0.3H7.5V2.4c0,0,0-0.3-0.3-0.3H7c1.6-0.8,3.5-1.3,5.4-1.3
	C18.8,0.8,24,5.9,24,12.3 M24.7,12.3c0-6.8-5.5-12.2-12.3-12.2S0.1,5.6,0.1,12.3c0,6.8,5.5,12.2,12.3,12.2c3.1,0,5.9-1.2,8.1-3h0v0
	C23.1,19.3,24.7,16,24.7,12.3"/>
<path class="st0" d="M11.7,11.5h8.1V9.7h-8.1V11.5z M11.7,13.2h8.1v-1.1h-8.1V13.2z M11.7,14.8h8.1v-1h-8.1V14.8z M19.9,15.4h-8.1
	v1.8h8.1V15.4z"/>
</svg>
