<?xml version="1.0" encoding="utf-8"?>
<!-- Generator: Adobe Illustrator 22.0.1, SVG Export Plug-In . SVG Version: 6.00 Build 0)  -->
<svg version="1.1" id="Слой_1" xmlns="http://www.w3.org/2000/svg" xmlns:xlink="http://www.w3.org/1999/xlink" x="0px" y="0px"
	 viewBox="0 0 6.2 21.2" style="enable-background:new 0 0 6.2 21.2;" xml:space="preserve">
<style type="text/css">
	.st0{fill:#B2BA53;}
</style>
<path class="st0" d="M4.9,3.1c0,1-0.8,1.8-1.8,1.8c-1,0-1.8-0.8-1.8-1.8c0-1,0.8-1.8,1.8-1.8C4.1,1.2,4.9,2.1,4.9,3.1 M6,3.1
	c0-1.6-1.3-2.9-2.9-2.9S0.2,1.4,0.2,3.1C0.2,4.7,1.5,6,3.1,6S6,4.7,6,3.1"/>
<polygon class="st0" points="4.7,19.8 4.7,10.1 5.4,10.1 5.4,8.9 4.7,8.9 1.5,8.9 0.8,8.9 0.8,10.1 1.5,10.1 1.5,19.8 0.8,19.8 
	0.8,21.1 1.5,21.1 4.7,21.1 5.4,21.1 5.4,19.8 "/>
</svg>
