<?xml version="1.0" encoding="utf-8"?>
<!-- Generator: Adobe Illustrator 22.0.1, SVG Export Plug-In . SVG Version: 6.00 Build 0)  -->
<svg version="1.1" id="Слой_1" xmlns="http://www.w3.org/2000/svg" xmlns:xlink="http://www.w3.org/1999/xlink" x="0px" y="0px"
	 viewBox="0 0 24.8 24.6" style="enable-background:new 0 0 24.8 24.6;" xml:space="preserve">
<style type="text/css">
	.st0{fill:#000;}
</style>
<path class="st0" d="M6.2,10.9H1.6v1.7h4.6V10.9z M7.5,8.8l1.2-1.2L5.4,4.3L4.3,5.5L7.5,8.8z M11.5,6.5h1.7V1.8h-1.7V6.5z
	 M14.9,14.4h-1.6v1.6h-1.8v-1.6H9.8v-1.8h1.6V11h1.8v1.6h1.6V14.4z M16.3,9.7l-1-1H9.4l-1,1l-0.9,8.2h9.5L16.3,9.7z M17.2,8.8
	l3.3-3.3l-1.2-1.2L16,7.6L17.2,8.8z M23.2,10.7h-4.6v1.7h4.6V10.7z M24,12.3c0,2.4-0.7,4.6-2,6.5H2.7c-1.2-1.8-2-4.1-2-6.5
	c0-6.4,5.2-11.6,11.7-11.6S24,5.9,24,12.3 M12.4,23.9c-2.6,0-5-0.9-7-2.3h13.9C17.4,23,15,23.9,12.4,23.9 M24.7,12.3
	c0-6.8-5.5-12.2-12.3-12.2S0.1,5.5,0.1,12.3c0,6.8,5.5,12.2,12.3,12.2S24.7,19,24.7,12.3"/>
</svg>
