<?xml version="1.0" encoding="utf-8"?>
<!-- Generator: Adobe Illustrator 22.0.1, SVG Export Plug-In . SVG Version: 6.00 Build 0)  -->
<svg version="1.1" id="Слой_1" xmlns="http://www.w3.org/2000/svg" xmlns:xlink="http://www.w3.org/1999/xlink" x="0px" y="0px"
	 viewBox="0 0 24.9 24.7" style="enable-background:new 0 0 24.9 24.7;" xml:space="preserve">
<style type="text/css">
	.st0{clip-path:url(#SVGID_2_);}
</style>
<g>
	<defs>
		<rect id="SVGID_1_" x="-58.5" y="-58.5" width="141.7" height="141.7"/>
	</defs>
	<clipPath id="SVGID_2_">
		<use xlink:href="#SVGID_1_"  style="overflow:visible;"/>
	</clipPath>
	<path class="st0" d="M24.1,12.4c0,1.1-0.2,2.1-0.4,3h-1.6V15h1.5v-1.7h-1.5V9.8l-5.8-1.1l0.2,1l-0.6,2.9l-0.2-4.7V6.2l0-0.6l0,0
		L16.1,5l0.1-0.5l-0.8-1.5l-5.8,9.2l-0.1-0.8l5.9-8.7l-0.9-0.3L8.4,9.9H3.5c0,0-0.2,0-0.5,0.2c-0.3,0.2-0.5,0.4-0.6,1
		c-0.1,0.4-0.6,3.3-0.9,5.1C1,15,0.8,13.7,0.8,12.4C0.8,6,6,0.8,12.5,0.8S24.1,6,24.1,12.4 M8.9,10.1c0,0,2.6-2.9,3-3.3l-2.7,4
		L8.9,10.1z M14,13.8l-0.8-0.5l0.9-3L14,13.8z M12.5,8.7l2.3-3.2L15,6.2L12.5,8.7z M15.2,9.3l0,4.8l-0.7-0.1l0.2-4L15.2,9.3z
		 M19,14.8l-3.1,0l1.1-4.6h2.2L19,14.8z M19.7,10.4l0-0.1l1.6,0.2l0,3.9l-1.7,0.4L19.7,10.4z M1.9,17.4l0.2-1h0.4l-0.2,1.8l0.6,0
		l0.4-1.8h0.4l-0.2,1.8l0.6,0l0.3-1.8H5l-0.2,1.8h0.7c0,0,1.3-6.7,1.4-7.2c0.1-0.5,0.7-0.7,0.7-0.7s0.2,0,0.1,0.1s-0.2,0.4-0.2,0.4
		l-0.9,5.8l3.1-1.6l0-1.3l4.2-5l-1.6,6.7c0,0,0,0,0.1,0l-0.2,0.2l-0.5,0v1.4h2.2l0.3,0.7l7.3,0l0-0.8h1.9c-0.2,0.4-0.4,0.8-0.6,1.1
		h-3.4c0,0-2.3,0.9-2.6,1.1c-0.3,0.2-0.4,0.9-0.3,1.3c0.1,0.4,0.5,0.8,0.5,0.8l3.3,0c-2,1.8-4.7,2.9-7.6,2.9
		C7.8,24,3.8,21.3,1.9,17.4 M22.4,18.4L22.4,18.4C22.5,18.4,22.5,18.4,22.4,18.4L22.4,18.4z M22.1,18.9
		C22.1,18.9,22.1,18.9,22.1,18.9c-0.2,0.3-0.4,0.6-0.6,0.9H20v0.6h0.8c-0.1,0.1-0.2,0.3-0.4,0.4h-1.1c0.2-0.1,0.3-0.4,0.3-0.7
		c0-0.5-0.3-0.8-0.6-0.8c-0.3,0-0.6,0.4-0.6,0.8c0,0.3,0.1,0.6,0.3,0.7h-0.5c0,0-0.4-0.6-0.1-1.1c0.4-0.7,1.8-1.3,1.8-1.3h0.6v0.1
		c-0.1,0-0.2,0.2-0.2,0.4c0,0.2,0.1,0.4,0.3,0.4s0.3-0.2,0.3-0.4c0-0.2-0.1-0.4-0.2-0.4v-0.1h1.5v0.1C22.2,18.5,22.1,18.7,22.1,18.9
		 M24.8,12.4c0-6.8-5.5-12.2-12.3-12.2S0.1,5.6,0.1,12.4c0,1.8,0.4,3.5,1.1,5.1c0,0.1,0.2,0.3,0.2,0.3c2,4.1,6.2,6.9,11,6.9
		C19.3,24.6,24.8,19.1,24.8,12.4"/>
	<path class="st0" d="M16.1,19.1c0,0,0.1-0.1,0.2-0.1h-3.3l-0.8,0.5v0c-0.1-0.1-0.2-0.1-0.3-0.1c-0.3,0-0.5,0.3-0.5,0.7
		s0.2,0.7,0.5,0.7c0.2,0,0.4-0.2,0.4-0.4h3.4C15.7,20,15.8,19.3,16.1,19.1 M17.7,18.2c-0.3-0.1-0.6-0.2-0.6-0.2h-4.9
		c0,0-2.3,0.9-2.6,1.1c-0.3,0.2-0.4,0.9-0.3,1.3c0.1,0.4,0.5,0.8,0.5,0.8H16l0-0.1c0,0-0.2-0.1-0.3-0.3h-4.4c0,0-0.4-0.6-0.1-1.1
		c0.4-0.7,1.8-1.3,1.8-1.3h4c0,0,0,0,0.1,0C17.3,18.3,17.5,18.3,17.7,18.2"/>
</g>
</svg>
