<?xml version="1.0" encoding="utf-8"?>
<!-- Generator: Adobe Illustrator 22.0.1, SVG Export Plug-In . SVG Version: 6.00 Build 0)  -->
<svg version="1.1" baseProfile="basic" id="Слой_1"
	 xmlns="http://www.w3.org/2000/svg" xmlns:xlink="http://www.w3.org/1999/xlink" x="0px" y="0px" viewBox="0 0 24.7 24.5"
	 xml:space="preserve">
<style type="text/css">
	.st0{fill:#0E0F0F;}
</style>
<path class="st0" d="M17.4,7.1c0.5,0.5,0.5,1.2,0.1,1.7c-0.5,0.5-1.2,0.4-1.7-0.1c-0.5-0.5-0.5-1.2-0.1-1.7
	C16.2,6.5,16.9,6.6,17.4,7.1 M21.3,9.7l-6.5-6.5l-4,4l0.5,0.5c0,0,1.5-0.1,3.5,2c2,2.1,1.9,3.5,1.9,3.5l0.6,0.6L21.3,9.7z M22.2,8.8
	l-6.5-6.5l-0.4,0.4l6.5,6.5L22.2,8.8z M23,7.5l-5.8-5.8C19.8,2.9,21.8,4.9,23,7.5 M12.4,0.6c1.5,0,2.9,0.3,4.1,0.8l-0.4,0.4l6.5,6.5
	l0.5-0.5c0.6,1.4,0.9,2.8,0.9,4.4c0,6.4-5.2,11.6-11.7,11.6c-1.8,0-3.5-0.4-5.1-1.2l0.3-0.3l-0.8-0.8l-0.5,0.5
	c-0.4-0.2-0.7-0.5-1-0.7L5.7,21c0.4,0.2,0.6,0.1,1.1,0.2l1.1,1.1l3.6-3.6L11,18.4c0.2,0.1,0.4,0.1,0.6,0c0.2-0.2,0.1-0.5-0.1-0.8
	c-0.2-0.2-0.4-0.3-0.6-0.2c0.1-0.4,0-0.8-0.2-1.2l4.4-5l-1.6-1.6l-5,4.4c-0.4-0.2-0.8-0.3-1.2-0.2c0-0.2,0-0.4-0.2-0.6
	c-0.3-0.3-0.6-0.3-0.8-0.1C6,13,6,13.2,6.1,13.4l-0.3-0.3l-3.6,3.6l1.1,1.1c0.1,0.4,0,0.6,0.2,1.1l-0.4,0.4c-0.3-0.3-0.5-0.7-0.7-1
	l0.5-0.5l-0.8-0.8l-0.3,0.3c-0.7-1.5-1.1-3.2-1.1-4.9C0.7,5.8,5.9,0.6,12.4,0.6 M5.1,15.8c1-1,2.6-1,3.6,0c1,1,1,2.6,0,3.6
	c-1,1-2.6,1-3.6,0C4.1,18.4,4.1,16.8,5.1,15.8 M24.7,12.2C24.7,5.5,19.2,0,12.4,0S0.1,5.5,0.1,12.2c0,6.8,5.5,12.2,12.3,12.2
	S24.7,19,24.7,12.2"/>
</svg>
