<?xml version="1.0" encoding="utf-8"?>
<!-- Generator: Adobe Illustrator 21.1.0, SVG Export Plug-In . SVG Version: 6.00 Build 0)  -->
<svg version="1.1" id="Layer_1" xmlns="http://www.w3.org/2000/svg" xmlns:xlink="http://www.w3.org/1999/xlink" x="0px" y="0px"
	 width="22px" height="22px" viewBox="0 0 22 22" style="enable-background:new 0 0 22 22;" xml:space="preserve">
<style type="text/css">
	.st0{clip-path:url(#SVGID_2_);fill:#B8BE37;}
	.st1{fill:#B8BE37;}
	.st2{clip-path:url(#SVGID_4_);fill:#B8BE37;}
</style>
<g>
	<g>
		<defs>
			<rect id="SVGID_1_" x="0.1" y="0.5" width="21.9" height="21.1"/>
		</defs>
		<clipPath id="SVGID_2_">
			<use xlink:href="#SVGID_1_"  style="overflow:visible;"/>
		</clipPath>
		<path class="st0" d="M16.2,12.7L18,9.7h-1L15.8,12l-1.2-2.3h-1.1l1.7,3.1H16.2z M10.1,12.7v-2l1.9,2h1V9.7h-0.9v2l-2-2H9.2v3.1
			H10.1z M5.7,10.2c0.4,0,0.7,0,0.8,0c0.2,0,0.3,0.1,0.4,0.1c0.1,0.1,0.2,0.2,0.3,0.3c0.1,0.1,0.1,0.3,0.1,0.5c0,0.2,0,0.4-0.1,0.6
			C7.2,11.9,7.1,12,7,12.1c-0.1,0.1-0.2,0.1-0.4,0.1c-0.1,0-0.3,0-0.6,0H5.3v-2H5.7z M4.3,12.7h1.8c0.4,0,0.6,0,0.9-0.1
			c0.3-0.1,0.5-0.1,0.7-0.2c0.2-0.1,0.4-0.3,0.5-0.5c0.1-0.2,0.1-0.4,0.1-0.7c0-0.3-0.1-0.5-0.2-0.7c-0.1-0.2-0.3-0.4-0.5-0.5
			C7.5,9.9,7.3,9.8,7,9.7c-0.2,0-0.5-0.1-0.9-0.1H4.3V12.7z"/>
	</g>
	<rect x="7.3" y="19.6" class="st1" width="7.4" height="1.9"/>
	<g>
		<defs>
			<rect id="SVGID_3_" x="0.1" y="0.5" width="21.9" height="21.1"/>
		</defs>
		<clipPath id="SVGID_4_">
			<use xlink:href="#SVGID_3_"  style="overflow:visible;"/>
		</clipPath>
		<path class="st2" d="M15.8,20.7v0.6c3.6-1.8,6.1-5.5,6.1-9.9h-0.6C21.4,15.5,19.1,18.9,15.8,20.7 M21,11.5h-0.5
			c0,3.4-1.8,6.4-4.6,8v0.6C18.9,18.4,20.9,15.2,21,11.5 M0.6,11.5H0.1c0,4.3,2.5,8.1,6.1,9.9v-0.6C2.9,18.9,0.6,15.5,0.6,11.5
			 M1,11.5c0,3.7,2.1,7,5.1,8.7v-0.6c-2.7-1.6-4.6-4.6-4.6-8.1H1z M21.3,10.7h0.6C21.5,5,16.8,0.5,11,0.5S0.5,5,0.1,10.7h0.6
			c0,0,0,0,0,0h0.4c0,0,0,0,0,0h0.5C2,5.8,6,1.9,11,1.9c5,0,9,3.8,9.4,8.7h0.5c0,0,0,0,0,0L21.3,10.7C21.3,10.7,21.3,10.7,21.3,10.7
			"/>
	</g>
</g>
</svg>
