<?xml version="1.0" encoding="utf-8"?>
<!-- Generator: Adobe Illustrator 21.1.0, SVG Export Plug-In . SVG Version: 6.00 Build 0)  -->
<svg version="1.1" id="Layer_1" xmlns="http://www.w3.org/2000/svg" xmlns:xlink="http://www.w3.org/1999/xlink" x="0px" y="0px"
	 viewBox="0 0 60 60" style="enable-background:new 0 0 60 60;" xml:space="preserve">
<style type="text/css">
	.st0{clip-path:url(#SVGID_2_);fill:#3D504E;}
	.st1{fill:#3D504E;}
	.st2{clip-path:url(#SVGID_4_);fill:#3D504E;}
</style>
<g>
	<defs>
		<rect id="SVGID_1_" x="0.1" y="1.5" width="59.8" height="57"/>
	</defs>
	<clipPath id="SVGID_2_">
		<use xlink:href="#SVGID_1_"  style="overflow:visible;"/>
	</clipPath>
	<path class="st0" d="M46.5,35.4l5.4-9.6h-3.2L45,32.9l-3.8-7.1h-3.3l5.4,9.6H46.5z M27,35.4v-6.3l6.1,6.3h3.1v-9.6h-2.8v6.4
		l-6.2-6.4h-3v9.6H27z M13.2,27.4c1.2,0,2.1,0,2.5,0.1c0.6,0.1,1,0.2,1.4,0.5c0.4,0.2,0.7,0.5,0.9,0.9c0.2,0.4,0.3,1,0.3,1.7
		c0,0.7-0.1,1.3-0.3,1.8c-0.2,0.4-0.5,0.7-0.8,0.9c-0.3,0.2-0.7,0.3-1.2,0.4c-0.4,0.1-1,0.1-1.9,0.1h-2.3v-6.4H13.2z M8.8,35.4h5.8
		c1.1,0,2-0.1,2.7-0.2c0.9-0.2,1.6-0.4,2.2-0.8c0.7-0.4,1.2-1,1.6-1.7c0.3-0.6,0.5-1.3,0.5-2c0-0.9-0.2-1.7-0.5-2.3
		c-0.3-0.6-0.8-1.1-1.4-1.6c-0.6-0.4-1.4-0.7-2.3-0.9c-0.7-0.1-1.6-0.2-2.9-0.2H8.8V35.4z"/>
</g>
<rect x="19.9" y="53.4" class="st1" width="20.1" height="5.1"/>
<g>
	<defs>
		<rect id="SVGID_3_" x="0.1" y="1.5" width="59.8" height="57"/>
	</defs>
	<clipPath id="SVGID_4_">
		<use xlink:href="#SVGID_3_"  style="overflow:visible;"/>
	</clipPath>
	<path class="st2" d="M43.1,56.2v1.7c9.9-4.8,16.7-14.9,16.8-26.7h-1.6C58.3,42.1,52.2,51.5,43.1,56.2 M57.2,31.3h-1.4
		c-0.1,9.2-5,17.3-12.5,21.8v1.6C51.6,50.1,57.1,41.3,57.2,31.3 M1.7,31.3H0.1c0,11.7,6.8,21.8,16.8,26.7v-1.7
		C7.8,51.5,1.7,42.1,1.7,31.3 M2.8,31.3c0.1,10.1,5.7,18.9,14,23.5v-1.6C9.3,48.7,4.3,40.6,4.2,31.3H2.8z M58.2,29.1h1.6
		C58.7,13.7,45.8,1.5,30,1.5C14.2,1.5,1.3,13.7,0.2,29.1h1.6c0,0,0,0,0,0h1.1c0,0,0,0,0,0h1.4C5.3,15.9,16.4,5.5,30,5.5
		s24.7,10.4,25.7,23.6h1.4c0,0,0,0,0,0L58.2,29.1C58.2,29.1,58.2,29.1,58.2,29.1"/>
</g>
</svg>
