<?xml version="1.0" encoding="utf-8"?>
<!-- Generator: Adobe Illustrator 21.1.0, SVG Export Plug-In . SVG Version: 6.00 Build 0)  -->
<svg version="1.1" id="Layer_1" xmlns="http://www.w3.org/2000/svg" xmlns:xlink="http://www.w3.org/1999/xlink" x="0px" y="0px"
	 viewBox="0 0 65 50" style="enable-background:new 0 0 65 50;" xml:space="preserve">
<style type="text/css">
	.st0{fill:#0092C0;}
	.st1{fill:#FFF100;}
</style>
<rect x="0" class="st0" width="65" height="50"/>
<g>
	<g>
		<path class="st1" d="M34.4,11.5c-0.1,0.6-0.5,2.2-0.5,2.5c0,0.3,0.2,0.5,0.5,0.5c0.3,0,0.5-0.2,0.5-0.5
			C34.9,13.7,34.5,12.2,34.4,11.5z"/>
		<path class="st1" d="M32.2,11.7c0,0.7-0.1,2.2,0,2.5c0.1,0.3,0.3,0.4,0.6,0.4c0.3-0.1,0.4-0.3,0.4-0.6
			C33.1,13.8,32.5,12.3,32.2,11.7z"/>
		<path class="st1" d="M30.1,12.4c0.1,0.6,0.4,2.2,0.5,2.5c0.1,0.3,0.4,0.4,0.7,0.3c0.3-0.1,0.4-0.4,0.3-0.7
			C31.4,14.2,30.4,12.9,30.1,12.4z"/>
		<path class="st1" d="M28.1,13.4c0.2,0.6,0.8,2.1,1,2.3c0.2,0.2,0.5,0.3,0.7,0.1c0.2-0.2,0.3-0.5,0.1-0.7
			C29.8,15,28.6,13.9,28.1,13.4z"/>
		<path class="st1" d="M26.4,14.8c0.4,0.5,1.2,1.9,1.4,2.1c0.2,0.2,0.5,0.2,0.7,0c0.2-0.2,0.2-0.5,0-0.7C28.3,16,27,15.2,26.4,14.8z
			"/>
		<path class="st1" d="M25,16.5c0.5,0.5,1.5,1.6,1.8,1.8c0.2,0.2,0.5,0.1,0.7-0.1c0.2-0.2,0.1-0.5-0.1-0.7
			C27.1,17.4,25.6,16.8,25,16.5z"/>
		<path class="st1" d="M24,18.5c0.5,0.4,1.8,1.3,2.1,1.4c0.3,0.1,0.5,0,0.7-0.3c0.1-0.3,0-0.5-0.3-0.7C26.2,18.9,24.6,18.6,24,18.5z
			"/>
		<path class="st1" d="M23.3,20.6c0.6,0.3,2,0.9,2.3,1c0.3,0.1,0.5-0.1,0.6-0.4c0.1-0.3-0.1-0.5-0.4-0.6S24,20.6,23.3,20.6z"/>
		<path class="st1" d="M23.1,22.8c0.6,0.1,2.2,0.5,2.5,0.5c0.3,0,0.5-0.2,0.5-0.5c0-0.3-0.2-0.5-0.5-0.5
			C25.3,22.3,23.7,22.7,23.1,22.8z"/>
		<path class="st1" d="M23.3,25c0.7,0,2.2,0.1,2.5,0c0.3-0.1,0.4-0.3,0.4-0.6c-0.1-0.3-0.3-0.4-0.6-0.4S23.9,24.8,23.3,25z"/>
		<path class="st1" d="M24,27.2c0.6-0.1,2.2-0.4,2.5-0.5c0.3-0.1,0.4-0.4,0.3-0.7c-0.1-0.3-0.4-0.4-0.7-0.3
			C25.8,25.9,24.5,26.8,24,27.2z"/>
		<path class="st1" d="M25,29.1c0.6-0.2,2.1-0.8,2.3-1c0.2-0.2,0.3-0.5,0.1-0.7c-0.2-0.2-0.5-0.3-0.7-0.1
			C26.6,27.5,25.5,28.7,25,29.1z"/>
		<path class="st1" d="M26.4,30.8c0.5-0.4,1.9-1.2,2.1-1.4c0.2-0.2,0.2-0.5,0-0.7c-0.2-0.2-0.5-0.2-0.7,0
			C27.6,28.9,26.8,30.3,26.4,30.8z"/>
		<path class="st1" d="M28.1,32.2c0.5-0.5,1.6-1.5,1.8-1.8c0.2-0.2,0.1-0.5-0.1-0.7c-0.2-0.2-0.5-0.1-0.7,0.1
			C28.9,30.1,28.4,31.6,28.1,32.2z"/>
		<path class="st1" d="M30.1,33.3c0.4-0.5,1.3-1.8,1.4-2.1c0.1-0.3,0-0.5-0.3-0.7c-0.3-0.1-0.5,0-0.7,0.3
			C30.5,31.1,30.2,32.7,30.1,33.3z"/>
		<path class="st1" d="M32.2,33.9c0.3-0.6,0.9-2,1-2.3c0.1-0.3-0.1-0.5-0.4-0.6c-0.3-0.1-0.5,0.1-0.6,0.4
			C32.1,31.7,32.2,33.3,32.2,33.9z"/>
		<path class="st1" d="M34.4,34.2c0.1-0.6,0.5-2.2,0.5-2.5c0-0.3-0.2-0.5-0.5-0.5c-0.3,0-0.5,0.2-0.5,0.5
			C33.9,32,34.3,33.5,34.4,34.2z"/>
		<path class="st1" d="M36.6,33.9c0-0.7,0.1-2.2,0-2.5C36.6,31.1,36.3,31,36,31c-0.3,0.1-0.4,0.3-0.4,0.6
			C35.7,31.9,36.4,33.3,36.6,33.9z"/>
		<path class="st1" d="M38.7,33.3c-0.1-0.6-0.4-2.2-0.5-2.5c-0.1-0.3-0.4-0.4-0.7-0.3c-0.3,0.1-0.4,0.4-0.3,0.7
			C37.4,31.5,38.4,32.8,38.7,33.3z"/>
		<path class="st1" d="M40.7,32.2c-0.2-0.6-0.8-2.1-1-2.3c-0.2-0.2-0.5-0.3-0.7-0.1c-0.2,0.2-0.3,0.5-0.1,0.7
			C39.1,30.7,40.2,31.8,40.7,32.2z"/>
		<path class="st1" d="M42.4,30.8c-0.4-0.5-1.2-1.9-1.4-2.1c-0.2-0.2-0.5-0.2-0.7,0c-0.2,0.2-0.2,0.5,0,0.7
			C40.5,29.6,41.9,30.5,42.4,30.8z"/>
		<path class="st1" d="M43.8,29.1c-0.5-0.5-1.5-1.6-1.8-1.8c-0.2-0.2-0.5-0.1-0.7,0.1c-0.2,0.2-0.1,0.5,0.1,0.7
			C41.7,28.3,43.2,28.9,43.8,29.1z"/>
		<path class="st1" d="M44.9,27.2c-0.5-0.4-1.8-1.3-2.1-1.4c-0.3-0.1-0.5,0-0.7,0.3c-0.1,0.3,0,0.5,0.3,0.7
			C42.6,26.8,44.2,27.1,44.9,27.2z"/>
		<path class="st1" d="M45.5,25.1c-0.6-0.3-2-0.9-2.3-1c-0.3-0.1-0.5,0.1-0.6,0.4c-0.1,0.3,0.1,0.5,0.4,0.6
			C43.3,25.1,44.9,25.1,45.5,25.1z"/>
		<path class="st1" d="M45.7,22.8c-0.6-0.1-2.2-0.5-2.5-0.5c-0.3,0-0.5,0.2-0.5,0.5c0,0.3,0.2,0.5,0.5,0.5
			C43.5,23.3,45.1,23,45.7,22.8z"/>
		<path class="st1" d="M45.5,20.6c-0.7,0-2.2-0.1-2.5,0c-0.3,0.1-0.4,0.3-0.4,0.6c0.1,0.3,0.3,0.4,0.6,0.4
			C43.5,21.6,44.9,20.9,45.5,20.6z"/>
		<path class="st1" d="M44.9,18.5c-0.6,0.1-2.2,0.4-2.5,0.5c-0.3,0.1-0.4,0.4-0.3,0.7c0.1,0.3,0.4,0.4,0.7,0.3
			C43,19.8,44.3,18.9,44.9,18.5z"/>
		<path class="st1" d="M43.8,16.6c-0.6,0.2-2.1,0.8-2.3,1c-0.2,0.2-0.3,0.5-0.1,0.7c0.2,0.2,0.5,0.3,0.7,0.1
			C42.3,18.2,43.4,17,43.8,16.6z"/>
		<path class="st1" d="M42.4,14.8c-0.5,0.4-1.9,1.2-2.1,1.4c-0.2,0.2-0.2,0.5,0,0.7c0.2,0.2,0.5,0.2,0.7,0
			C41.2,16.7,42.1,15.4,42.4,14.8z"/>
		<path class="st1" d="M40.7,13.4c-0.5,0.5-1.6,1.5-1.8,1.8c-0.2,0.2-0.1,0.5,0.1,0.7c0.2,0.2,0.5,0.1,0.7-0.1
			C39.9,15.5,40.5,14,40.7,13.4z"/>
		<path class="st1" d="M38.7,12.4c-0.4,0.5-1.3,1.8-1.4,2.1c-0.1,0.3,0,0.5,0.3,0.7c0.3,0.1,0.5,0,0.7-0.3
			C38.4,14.6,38.6,13,38.7,12.4z"/>
		<path class="st1" d="M36.6,11.7c-0.3,0.6-0.9,2-1,2.3c-0.1,0.3,0.1,0.5,0.4,0.6s0.5-0.1,0.6-0.4C36.7,14,36.6,12.4,36.6,11.7z"/>
	</g>
	<circle class="st1" cx="34.4" cy="22.8" r="7.5"/>
	<g>
		<path class="st1" d="M34.1,35.3c-0.5,0.1-2-0.1-2.9-0.4c-1.4-0.6-2.8-0.9-3.6-1.6c-1-0.8-4.1-2.6-5.3-7.4
			c-0.2-0.9-0.2-1.3-0.5-1.3c-0.1,0-0.2,0.7-0.1,1.6c0.1,0.8-0.1,0.7-0.6-0.3c-0.4-1-0.7-1.8-0.8-2.6c-0.1-0.6-0.6-0.1-0.5,0.9
			c0.1,0.8,0.7,2.3,1.2,3.2c0.5,0.7,0.1,0.8-0.4,0.1c-0.5-0.6-1.2-1.6-1.6-2.7c-0.4-1.1-0.4,0.4-0.2,1c0.5,1.5,1.6,2.9,2.2,3.5
			c0.6,0.6,0.4,0.8-0.2,0.3c-0.6-0.4-0.8-0.5-1.5-1.2c-0.7-0.7-0.9-0.4-0.3,0.4c0.6,0.7,1.2,1.3,1.9,1.9c0.4,0.3,0.7,0.6,0.1,0.5
			c-0.4-0.1-1-0.5-1.2-0.7c-0.3-0.3-0.7-0.3-0.3,0.2c0.4,0.6,1.4,1.5,2.3,1.8c0.3,0.1,0.1,0.3-0.6,0.2c-0.6-0.1-0.2,0.3,0.1,0.5
			c0.3,0.2,0.8,0.3,1.2,0.4c0.4,0.1,0.2,0.2-0.1,0.2c-0.3,0-0.5,0-0.7-0.1c-0.2-0.1,0,0.2,0.2,0.3c0.2,0.1,0.5,0.2,0.8,0.2
			c0.3,0,0.2,0.3-0.1,0.3c-0.3-0.1-0.6-0.1-0.4,0.1c0.1,0.2,1,0.3,1.5,0.4c0.6,0,0.4,0.2,0.1,0.3c-0.3,0.1-0.5,0.1-0.7,0.1
			s-0.3,0.3,0.1,0.3c0.4,0,1,0.1,1.9,0.5c1.2,0.6,2.7,1.1,3.8,1c1-0.1,0.4-0.4,0-0.4c-0.8,0.1-1.4-0.5-2-0.5c-0.5,0-1.3-0.6-1.9-0.7
			c-0.3,0-0.5-0.3-0.1-0.3c0.3-0.1,0.5-0.3,0.4-0.4c-0.1-0.2-0.6,0-1-0.2c-0.3-0.1-0.3-0.2,0-0.4c0.3-0.2,0.1-0.4-0.4-0.4
			c-0.5,0-0.6-0.2-0.3-0.4c0.2-0.2,0.1-0.3-0.1-0.3c-0.2,0-0.2-0.2-0.1-0.3c0.2-0.1,0.1-0.2-0.1-0.2c-0.4-0.1-0.7-0.5-1.1-0.6
			c-0.3-0.1-0.3-0.2-0.1-0.2c0.1,0,0.3-0.1,0.1-0.2c-0.3-0.2,0-0.4-0.4-0.6c-0.3-0.2-0.4-0.4-0.4-0.5c0.1-0.2,0.6-0.1,0.6-0.3
			c0-0.2-0.7-0.5-0.6-0.9c0-0.2,0.1-0.2,0.3-0.1c0.1,0.1,0.3,0.1,0.2-0.1c0-0.2,0-0.3,0.3-0.1c0.8,0.4,1.7,1.7,2.6,3.1
			c0.6,0.9,1.2,1.3,1.7,1.4c0.7,0.2,2,1.1,2.6,1.6c0.4,0.3,0.7,0.6,1.4,0.4c0.7-0.1,1.4,0,2,0.3c0.6,0.3,1.1,0.6,1.7-0.1
			C34.5,35.3,34.4,35.3,34.1,35.3z"/>
		<path class="st1" d="M38.1,35.6c-1.5,0-2.5,0.2-2.8,0.5c-0.7,0.6-0.8,0.3-1.2,0.5c-0.3,0.2-0.6,0.2-0.8,0.2
			c-0.2-0.1-0.2-0.2,0.1-0.3c0.3-0.1,0.6-0.4,0.7-0.5c0.5-0.5,1.4-0.7,2.1-0.8c2.3-0.5,5.8-1.7,8.1-4.7c1.6-2.1,2.2-4.3,2.4-6.3
			c0.1-0.7,0.5-0.5,0.5-0.1c0.1,0.5-0.1,1.6-0.2,2c-0.1,0.4,0,0.7,0.3,0.1c0.5-0.8,1-2.6,1.2-3.4c0.2-0.9,0.4-0.8,0.5,0
			c0,1.2-0.5,3.1-1.6,4.7c-0.4,0.6-0.2,0.9,0.4,0.2c0.8-0.9,1.2-1.4,1.6-2.4c0.3-0.8,0.6-0.6,0.3,0.4c-0.4,1.5-1.3,2.5-2,3.3
			c-0.7,0.8-0.4,0.8,0,0.6c0.4-0.1,1.1-0.7,1.6-1.4c0.5-0.7,0.7-0.4,0.3,0.3c-0.3,0.6-1.2,1.6-1.8,2.2c-0.5,0.5-0.1,0.5,0.3,0.2
			c0.3-0.3,0.5-0.6,0.9-0.7c0.3-0.1,0.7-0.1-0.1,0.8c-0.4,0.4-1.5,1.2-2.1,1.5c-0.5,0.3-0.3,0.5,0.1,0.4c0.4-0.1,1.1-0.5,1.1-0.3
			c0,0.2-0.5,0.4-0.9,0.6c-0.4,0.2-0.7,0.6-0.2,0.6c0.2,0,0.2,0.2,0,0.2c-0.2,0-0.6,0.1-0.7,0.3c0,0.1,0.1,0.2,0.3,0.2
			c0.1,0,0.2,0.1,0,0.3c-0.6,0.4-1.4,0.2-1.7,0.4c-0.3,0.2,0,0.2,0.4,0.2c0.5,0,0.9,0.4,0.2,0.4c-0.9,0-2.1,0.3-3.1,0.7
			c-0.7,0.3-1.3,0-0.3-0.4c0.6-0.2,1.4-0.5,1.6-0.6c0.6-0.3-0.4-0.2,0.2-0.6c0.2-0.1,0.6-0.1,0.6-0.3c0-0.2-0.4-0.2-0.1-0.4
			c0.2-0.1,0.5-0.1,0.7-0.1c0.2,0,0.4-0.2,0.1-0.3c-0.3-0.1-0.3-0.2,0.1-0.3c0.3-0.1,0.7-0.2,0.8-0.3c0.2-0.1,0.2-0.2-0.2-0.3
			c-0.3,0-0.4-0.1-0.1-0.3c0.4-0.1,0.8-0.4,1.1-0.6c0.3-0.2,0.2-0.3-0.1-0.4c-0.3-0.1-0.3-0.1-0.1-0.3c0.3-0.2,0.5-0.3,0.5-0.5
			c0.1-0.2,0.1-0.3-0.2-0.3c-0.3,0-0.5,0-0.5-0.3c0-0.4,0.1-0.5,0.3-0.7c0.2-0.2,0-0.4-0.5-0.2c-0.9,0.3-1.2,0.4-1.6,1
			c-0.4,0.6-0.9,1.3-1.2,1.9c-0.3,0.6-0.9,1.2-1.6,1.4c-0.6,0.2-2.1,0.8-2.7,1.3C38.9,35.4,39.1,35.6,38.1,35.6z"/>
		<path class="st1" d="M30.9,38.2c-0.3-0.2-0.3-0.4,0.2-0.5c0.4-0.1,0.4-0.1,0.7-0.2c0.2-0.1,1-0.5,1.4-0.5c0.4,0,0.3,0.3,0,0.3
			c-0.3,0-1.1,0.4-1.4,0.6c-0.3,0.2-0.4,0.2-0.6,0.2C31,38,30.9,38.1,30.9,38.2z"/>
		<path class="st1" d="M30.1,39.3c-0.3-0.4,0-0.8,0.5-0.9c0.1-0.1,0.3,0.2,0.8,0.2c0.5,0,1-0.1,0.7-0.4c-0.1-0.1-0.2-0.3,0-0.3
			c0.1,0,0.2,0,0.2-0.1c0.1,0,0.2-0.1,0.3,0c0.1,0,0.2,0.1,0.3,0c0.1,0,0.2,0.1,0.1,0.2c-0.3,0.2-0.1,0.4,0.1,0.4
			c0.2,0,0.6-0.1,0.8,0c0.2,0.1,0.4,0.1,0.6,0c0.2,0,0.5,0,0.8,0.1c0.4,0.2,0.4,0.4,0,0.4c-0.9-0.1-1.5-0.2-2-0.1
			c-0.5,0.1-1.3,0-1.8-0.1C31,38.8,30.6,38.8,30.1,39.3z"/>
		<path class="st1" d="M33.3,39.5c-0.2,0.4-0.6,0.6-1.1,0.8c-0.4,0.1-0.6,0.3-0.1,0.3c0.5,0.1,0.7-0.1,1-0.2
			c0.3-0.1,0.4-0.4,0.5-0.1c0.2,0.3,0.4,0.3,0.7,0c0.2-0.2,0.3-0.3,0.5-0.3c0.2,0,0.2,0.1,0.1,0.2c-0.1,0.2,0,0.5,0.3,0.2
			c0.3-0.3,0.4-0.5,0.7-0.5c0.2,0,0.2,0.1,0,0.3c-0.2,0.2-0.3,0.3,0.1,0.3c0.4,0,0.5-0.1,0.7-0.3c0.1-0.2,0.2-0.3,0.5-0.1
			c0.3,0.2,0.5,0.5,0.6,0.2c0.1-0.3,0.2-0.3,0.4-0.2c0.2,0.2,1,0,1.1-0.3c0-0.2,0-0.4,0.3-0.1c0.3,0.2,0.8,0.2,0.8-0.1
			c0-0.3,0.2-0.3,0.4-0.2c0.3,0.1,0.6,0.1,0.8,0c0.2-0.2,0.2-0.2,0.1-0.5c-0.1-0.2-0.1-0.4,0.3-0.3c0.6,0.2,1.2,0.4,1.6-0.1
			c0.4-0.5,0.5-0.6-0.1-0.6c-0.7,0-1.9-0.1-2.5-0.2c-0.6-0.1-1.3-0.2-1.5-0.2c-0.2,0-0.2,0.1-0.2,0.2c0,0.1-0.2,0.1-0.2,0.3
			c0,0.2-0.1,0.2-0.3,0.2c-0.2-0.1-0.2,0-0.2,0.1c0.1,0.2,0.1,0.3-0.2,0.3c-0.6-0.1-1,0.1-1.5,0.3c-1,0.4-1.6,0.5-2.4,0.4
			C33.8,39.2,33.6,39.1,33.3,39.5z"/>
	</g>
</g>
<g>
	<g>
		<path class="st1" d="M5.3,36.5c0-0.6-1.1-2.3-2.5-1.5c-1.8,1,1,5.1,1.8,7.3c0.4,1.2-0.1,1.8-0.6,1.9c-0.6,0.1-0.8-0.3-0.9-0.7
			c-0.1-0.3,0.2-0.6,0.5-0.7c0.3,0,0.5,0.2,0.4,0.4c-0.6-0.2-0.8,0.6-0.2,0.6c0.7,0,0.9-0.8,0.6-1.1c-0.3-0.3-1-0.3-1.2,0
			c0.1-0.3,0.2-0.7,0.2-1.1c0-0.1,0.1-0.7,0.2-0.8c-0.1-0.1-0.4,0.1-0.4,0.2c-0.1-0.3-0.4-0.6-0.8-0.8c0.5,0.9,0.5,1.8,0.2,2.5
			c-0.4,0.9-0.1,2.3,1.4,2.1c1.5-0.2,1.7-1.5,0.8-3.4c-0.9-1.9-2.9-5.2-1.5-5.8c0.5-0.2,1.1,0.2,1.5,0.8c0.1,0.2,0,0.3-0.2,0.3
			c-0.1,0-0.3,0-0.5,0v-0.1c0-0.4-0.4-0.4-0.4,0v0.1c-0.1,0-0.2,0.1-0.2,0.2c0,0.1,0.1,0.2,0.2,0.2v0.1c0,0.4,0.4,0.4,0.4,0V37
			c0.2,0,0.6,0,0.7,0C4.9,37,5,37,5,37.2c0,0.7,0,1.2,0,1.6c0,0.1-0.5,0.1-0.5-0.2c0-0.1-0.1-0.2-0.1-0.1C3.9,39,4.8,39.3,5,39.1
			c0,0.4,0,0.7,0,1c0,0.7,0.7,0.7,0.7,0c0-0.2,0-0.5,0-1c0.2,0.2,1.1-0.2,0.6-0.7c-0.1-0.1-0.2,0-0.1,0.1c0,0.3-0.5,0.4-0.5,0.2
			c0-0.4,0-0.9,0-1.6C5.7,37,5.8,37,5.9,37c0.1,0,0.5,0,0.7,0v0.1c0,0.4,0.4,0.4,0.4,0V37c0.1,0,0.2-0.1,0.2-0.2
			c0-0.1-0.1-0.2-0.2-0.2v-0.1c0-0.4-0.4-0.4-0.4,0v0.1c-0.2,0-0.4,0-0.5,0c-0.2,0-0.3-0.1-0.2-0.3c0.3-0.6,1-1,1.5-0.8
			c1.3,0.6-0.6,3.9-1.5,5.8c-0.9,1.9-0.7,3.2,0.8,3.4c1.5,0.2,1.8-1.2,1.4-2.1C7.7,41.8,7.7,41,8.2,40c-0.4,0.2-0.6,0.5-0.8,0.8
			c0-0.1-0.2-0.2-0.4-0.2c0.2,0.1,0.2,0.7,0.2,0.8c0,0.4,0.1,0.8,0.2,1.1c-0.2-0.3-0.9-0.3-1.2,0s-0.2,1.2,0.6,1.1
			c0.6,0,0.4-0.8-0.2-0.6c-0.1-0.2,0.1-0.4,0.4-0.4c0.3,0,0.6,0.4,0.5,0.7c-0.1,0.4-0.3,0.8-0.9,0.7c-0.6,0-1.1-0.7-0.6-1.9
			c0.8-2.2,3.6-6.2,1.8-7.3C6.4,34.2,5.3,35.9,5.3,36.5z"/>
	</g>
	<g>
		<path class="st1" d="M5.3,49.2c0.3,0.4,0.9,0.4,1.2,0.1C7.3,48.8,6.4,48,6.1,47c-0.4-1.2-0.1-1.9,0.6-1.9c0.6-0.1,0.8,0.3,0.9,0.7
			c0.1,0.3-0.2,0.6-0.5,0.7c-0.3,0-0.5-0.2-0.4-0.4c0.6,0.2,0.8-0.6,0.2-0.6c-0.7,0-0.9,0.8-0.6,1.1c0.3,0.3,1,0.3,1.2,0
			c-0.1,0.3-0.2,0.7-0.2,1.1c0,0.1-0.1,0.7-0.2,0.8c0.1,0.1,0.4-0.1,0.4-0.2c0.1,0.3,0.4,0.6,0.8,0.8c-0.5-0.9-0.5-1.8-0.2-2.5
			c0.4-0.9,0.1-2.3-1.4-2.1c-1.5,0.2-1.7,1.6-0.6,3.7c0.4,0.7-0.5,0.8-0.7,0.2c-0.1,0.6-1.1,0.5-0.7-0.2c1.1-2.1,0.8-3.5-0.6-3.7
			c-1.5-0.2-1.8,1.2-1.4,2.1c0.3,0.7,0.3,1.6-0.2,2.5c0.4-0.2,0.6-0.5,0.8-0.8c0,0.1,0.2,0.2,0.4,0.2c-0.2-0.1-0.2-0.7-0.2-0.8
			c0-0.4-0.1-0.8-0.2-1.1c0.2,0.3,0.9,0.3,1.2,0c0.3-0.3,0.2-1.2-0.6-1.1c-0.6,0-0.4,0.8,0.2,0.6c0.1,0.2-0.1,0.4-0.4,0.4
			c-0.3,0-0.6-0.4-0.5-0.7c0.1-0.4,0.3-0.8,0.9-0.7c0.7,0.1,1,0.8,0.6,1.9c-0.3,0.9-1.2,1.7-0.5,2.3C4.5,49.6,5,49.6,5.3,49.2z"/>
	</g>
	<g>
		<path class="st1" d="M5.3,33.1c0,0.6-1.1,2.3-2.5,1.5c-1.8-1,1-5.1,1.8-7.3c0.4-1.2-0.1-1.8-0.6-1.9c-0.6-0.1-0.8,0.3-0.9,0.7
			c-0.1,0.3,0.2,0.6,0.5,0.7c0.3,0,0.5-0.2,0.4-0.4c-0.6,0.2-0.8-0.6-0.2-0.6c0.7,0,0.9,0.8,0.6,1.1c-0.3,0.3-1,0.3-1.2,0
			c0.1,0.3,0.2,0.7,0.2,1.1c0,0.1,0.1,0.7,0.2,0.8c-0.1,0.1-0.4-0.1-0.4-0.2c-0.1,0.3-0.4,0.6-0.8,0.8c0.5-0.9,0.5-1.8,0.2-2.5
			C2.2,26.2,2.5,24.8,4,25c1.5,0.2,1.7,1.5,0.8,3.4c-0.9,1.9-2.9,5.2-1.5,5.8c0.5,0.2,1.1-0.2,1.5-0.8c0.1-0.2,0-0.3-0.2-0.3
			c-0.1,0-0.3,0-0.5,0v0.1c0,0.4-0.4,0.4-0.4,0V33c-0.1,0-0.2-0.1-0.2-0.2s0.1-0.2,0.2-0.2v-0.1c0-0.4,0.4-0.4,0.4,0v0.1
			c0.2,0,0.6,0,0.7,0c0.1,0,0.2-0.1,0.2-0.2c0-0.7,0-1.2,0-1.6c0-0.1-0.5-0.1-0.5,0.2c0,0.1-0.1,0.2-0.1,0.1
			c-0.5-0.6,0.4-0.9,0.6-0.7c0-0.4,0-0.7,0-1c0-0.7,0.7-0.7,0.7,0c0,0.2,0,0.5,0,1c0.2-0.2,1.1,0.2,0.6,0.7c-0.1,0.1-0.2,0-0.1-0.1
			c0-0.3-0.5-0.4-0.5-0.2c0,0.4,0,0.9,0,1.6c0,0.2,0.1,0.2,0.2,0.2c0.1,0,0.5,0,0.7,0v-0.1c0-0.4,0.4-0.4,0.4,0v0.1
			c0.1,0,0.2,0.1,0.2,0.2S7.1,33,7,33v0.1c0,0.4-0.4,0.4-0.4,0V33c-0.2,0-0.4,0-0.5,0c-0.2,0-0.3,0.1-0.2,0.3c0.3,0.6,1,1,1.5,0.8
			c1.3-0.6-0.6-3.9-1.5-5.8c-0.9-1.9-0.7-3.2,0.8-3.4c1.5-0.2,1.8,1.2,1.4,2.1c-0.3,0.7-0.3,1.6,0.2,2.5c-0.4-0.2-0.6-0.5-0.8-0.8
			c0,0.1-0.2,0.2-0.4,0.2c0.2-0.1,0.2-0.7,0.2-0.8c0-0.4,0.1-0.8,0.2-1.1c-0.2,0.3-0.9,0.3-1.2,0c-0.3-0.3-0.2-1.2,0.6-1.1
			c0.6,0,0.4,0.8-0.2,0.6c-0.1,0.2,0.1,0.4,0.4,0.4c0.3,0,0.6-0.4,0.5-0.7c-0.1-0.4-0.3-0.8-0.9-0.7c-0.6,0-1.1,0.7-0.6,1.9
			c0.8,2.2,3.6,6.2,1.8,7.3C6.4,35.4,5.3,33.8,5.3,33.1z"/>
	</g>
	<g>
		<path class="st1" d="M5.3,13.5c0,0.6-1.1,2.3-2.5,1.5c-1.8-1,1-5.1,1.8-7.3C5,6.6,4.5,5.9,3.9,5.9C3.3,5.8,3.1,6.1,3,6.6
			C3,6.9,3.3,7.2,3.6,7.2C3.9,7.3,4.1,7,4,6.8C3.3,7,3.2,6.2,3.8,6.2c0.7,0,0.9,0.8,0.6,1.1c-0.3,0.3-1,0.3-1.2,0
			C3.2,7.6,3.3,8,3.3,8.5c0,0.1,0.1,0.7,0.2,0.8C3.4,9.4,3.2,9.2,3.2,9.1C3.1,9.5,2.8,9.8,2.5,10C2.9,9,2.9,8.2,2.6,7.5
			C2.2,6.6,2.5,5.2,4,5.4c1.5,0.2,1.7,1.5,0.8,3.4c-0.9,1.9-2.9,5.2-1.5,5.8c0.5,0.2,1.1-0.2,1.5-0.8c0.1-0.2,0-0.3-0.2-0.3
			c-0.1,0-0.3,0-0.5,0v0.1c0,0.4-0.4,0.4-0.4,0v-0.1c-0.1,0-0.2-0.1-0.2-0.2c0-0.1,0.1-0.2,0.2-0.2v-0.1c0-0.4,0.4-0.4,0.4,0V13
			c0.2,0,0.6,0,0.7,0C4.9,13,5,13,5,12.8c0-0.7,0-1.2,0-1.6c0-0.1-0.5-0.1-0.5,0.2c0,0.1-0.1,0.2-0.1,0.1C3.9,11,4.8,10.7,5,10.9
			c0-0.4,0-0.7,0-1c0-0.7,0.7-0.7,0.7,0c0,0.2,0,0.5,0,1c0.2-0.2,1.1,0.2,0.6,0.7c-0.1,0.1-0.2,0-0.1-0.1c0-0.3-0.5-0.4-0.5-0.2
			c0,0.4,0,0.9,0,1.6C5.7,13,5.8,13,5.9,13c0.1,0,0.5,0,0.7,0v-0.1c0-0.4,0.4-0.4,0.4,0V13c0.1,0,0.2,0.1,0.2,0.2
			c0,0.1-0.1,0.2-0.2,0.2v0.1c0,0.4-0.4,0.4-0.4,0v-0.1c-0.2,0-0.4,0-0.5,0c-0.2,0-0.3,0.1-0.2,0.3c0.3,0.6,1,1,1.5,0.8
			c1.3-0.6-0.6-3.9-1.5-5.8C4.9,6.9,5.2,5.6,6.6,5.4C8.1,5.2,8.4,6.6,8,7.5C7.7,8.2,7.7,9,8.2,10C7.8,9.8,7.6,9.5,7.4,9.1
			c0,0.1-0.2,0.2-0.4,0.2c0.2-0.1,0.2-0.7,0.2-0.8c0-0.4,0.1-0.8,0.2-1.1c-0.2,0.3-0.9,0.3-1.2,0C6,7,6.2,6.2,6.9,6.2
			c0.6,0,0.4,0.8-0.2,0.6C6.6,7,6.8,7.3,7.1,7.2c0.3,0,0.6-0.4,0.5-0.7C7.5,6.1,7.3,5.8,6.7,5.9C6.1,5.9,5.6,6.6,6,7.7
			c0.8,2.2,3.6,6.2,1.8,7.3C6.4,15.8,5.3,14.1,5.3,13.5z"/>
	</g>
	<g>
		<path class="st1" d="M5.3,0.8c0.3-0.4,0.9-0.4,1.2-0.1C7.3,1.2,6.4,2,6.1,3C5.7,4.2,6,4.8,6.7,4.9C7.3,5,7.5,4.6,7.6,4.2
			c0.1-0.3-0.2-0.6-0.5-0.7c-0.3,0-0.5,0.2-0.4,0.4c0.6-0.2,0.8,0.6,0.2,0.6C6.2,4.6,6,3.8,6.3,3.4s1-0.3,1.2,0
			C7.4,3.1,7.3,2.7,7.3,2.3c0-0.1-0.1-0.7-0.2-0.8c0.1-0.1,0.4,0.1,0.4,0.2C7.6,1.3,7.8,1,8.2,0.8C7.7,1.7,7.7,2.6,8,3.3
			c0.4,0.9,0.1,2.3-1.4,2.1C5.2,5.2,4.9,3.7,6,1.7c0.4-0.7-0.5-0.8-0.7-0.2C5.2,0.9,4.3,0.9,4.6,1.7C5.8,3.7,5.5,5.2,4,5.4
			C2.5,5.6,2.2,4.2,2.6,3.3c0.3-0.7,0.3-1.6-0.2-2.5C2.8,1,3.1,1.3,3.2,1.6c0-0.1,0.2-0.2,0.4-0.2C3.4,1.6,3.3,2.2,3.3,2.3
			c0,0.4-0.1,0.8-0.2,1.1c0.2-0.3,0.9-0.3,1.2,0c0.3,0.3,0.2,1.2-0.6,1.1C3.2,4.5,3.3,3.7,4,3.9c0.1-0.2-0.1-0.4-0.4-0.4
			C3.3,3.6,3,3.9,3,4.2C3.1,4.6,3.3,5,3.9,4.9c0.7-0.1,1-0.8,0.6-1.9C4.3,2,3.3,1.2,4.1,0.7C4.5,0.4,5,0.4,5.3,0.8z"/>
	</g>
	<g>
		<path class="st1" d="M5.3,16.9c0-0.6-1.1-2.3-2.5-1.5c-1.8,1,1,5.1,1.8,7.3c0.4,1.2-0.1,1.8-0.6,1.9c-0.6,0.1-0.8-0.3-0.9-0.7
			c-0.1-0.3,0.2-0.6,0.5-0.7c0.3,0,0.5,0.2,0.4,0.4c-0.6-0.2-0.8,0.6-0.2,0.6c0.7,0,0.9-0.8,0.6-1.1c-0.3-0.3-1-0.3-1.2,0
			c0.1-0.3,0.2-0.7,0.2-1.1c0-0.1,0.1-0.7,0.2-0.8c-0.1-0.1-0.4,0.1-0.4,0.2c-0.1-0.3-0.4-0.6-0.8-0.8c0.5,0.9,0.5,1.8,0.2,2.5
			C2.2,23.8,2.5,25.2,4,25c1.5-0.2,1.7-1.5,0.8-3.4c-0.9-1.9-2.9-5.2-1.5-5.8c0.5-0.2,1.1,0.2,1.5,0.8c0.1,0.2,0,0.3-0.2,0.3
			c-0.1,0-0.3,0-0.5,0v-0.1c0-0.4-0.4-0.4-0.4,0V17c-0.1,0-0.2,0.1-0.2,0.2c0,0.1,0.1,0.2,0.2,0.2v0.1c0,0.4,0.4,0.4,0.4,0v-0.1
			c0.2,0,0.6,0,0.7,0c0.1,0,0.2,0.1,0.2,0.2c0,0.7,0,1.2,0,1.6c0,0.1-0.5,0.1-0.5-0.2c0-0.1-0.1-0.2-0.1-0.1
			c-0.5,0.6,0.4,0.9,0.6,0.7c0,0.4,0,0.7,0,1c0,0.7,0.7,0.7,0.7,0c0-0.2,0-0.5,0-1c0.2,0.2,1.1-0.2,0.6-0.7c-0.1-0.1-0.2,0-0.1,0.1
			c0,0.3-0.5,0.4-0.5,0.2c0-0.4,0-0.9,0-1.6c0-0.2,0.1-0.2,0.2-0.2c0.1,0,0.5,0,0.7,0v0.1c0,0.4,0.4,0.4,0.4,0v-0.1
			c0.1,0,0.2-0.1,0.2-0.2C7.2,17.1,7.1,17,7,17v-0.1c0-0.4-0.4-0.4-0.4,0V17c-0.2,0-0.4,0-0.5,0c-0.2,0-0.3-0.1-0.2-0.3
			c0.3-0.6,1-1,1.5-0.8c1.3,0.6-0.6,3.9-1.5,5.8c-0.9,1.9-0.7,3.2,0.8,3.4c1.5,0.2,1.8-1.2,1.4-2.1c-0.3-0.7-0.3-1.6,0.2-2.5
			c-0.4,0.2-0.6,0.5-0.8,0.8c0-0.1-0.2-0.2-0.4-0.2c0.2,0.1,0.2,0.7,0.2,0.8c0,0.4,0.1,0.8,0.2,1.1c-0.2-0.3-0.9-0.3-1.2,0
			c-0.3,0.3-0.2,1.2,0.6,1.1c0.6,0,0.4-0.8-0.2-0.6c-0.1-0.2,0.1-0.4,0.4-0.4c0.3,0,0.6,0.4,0.5,0.7c-0.1,0.4-0.3,0.8-0.9,0.7
			c-0.6,0-1.1-0.7-0.6-1.9c0.8-2.2,3.6-6.2,1.8-7.3C6.4,14.6,5.3,16.3,5.3,16.9z"/>
	</g>
</g>
</svg>
