<?xml version="1.0" encoding="utf-8"?>
<!-- Generator: Adobe Illustrator 22.0.1, SVG Export Plug-In . SVG Version: 6.00 Build 0)  -->
<svg version="1.1" baseProfile="basic" id="Слой_1"
	 xmlns="http://www.w3.org/2000/svg" xmlns:xlink="http://www.w3.org/1999/xlink" x="0px" y="0px" viewBox="0 0 24.8 24.7"
	 xml:space="preserve">
<style type="text/css">
	.st0{fill:#0E0F0F;}
</style>
<path class="st0" d="M16.1,7.4C16.2,7,16,6.7,15.7,6.5c-0.4-0.1-0.7,0.1-0.9,0.5c-0.1,0.4,0.1,0.8,0.4,0.9S16,7.8,16.1,7.4
	 M16.7,7.6c-0.2,0.7-1,1.1-1.7,0.9c-0.7-0.2-1.1-1-0.9-1.7c0.2-0.7,1-1.1,1.7-0.9C16.6,6.1,17,6.9,16.7,7.6 M17.7,7.4
	c0-0.3,0-0.5-0.1-0.8l0.6-0.3l-0.5-0.9l-0.6,0.3c-0.2-0.2-0.4-0.4-0.6-0.5l0.2-0.6l-1-0.3l-0.2,0.6c-0.3,0-0.6,0-0.8,0.1l-0.3-0.6
	l-0.9,0.5L14,5.4c-0.2,0.2-0.4,0.4-0.5,0.6l-0.6-0.2l-0.3,1L13.2,7c0,0.3,0,0.5,0.1,0.8l-0.6,0.3L13.1,9l0.6-0.3
	c0.2,0.2,0.4,0.4,0.6,0.5l-0.2,0.6l1,0.3l0.2-0.6c0.3,0,0.6,0,0.8-0.1l0.3,0.6l0.9-0.5L16.9,9c0.2-0.2,0.4-0.4,0.5-0.6l0.6,0.2
	l0.3-1L17.7,7.4z M5.4,11.4C5.4,12.3,6.1,13,7,13c0.9,0,1.6-0.7,1.6-1.6S7.9,9.8,7,9.8C6.1,9.8,5.4,10.5,5.4,11.4 M19.4,16
	c0.2-0.7-0.1-1.4-0.8-1.6s-1.4,0.2-1.6,0.8c-0.2,0.7,0.1,1.4,0.8,1.6S19.2,16.7,19.4,16 M20.6,16.4c-0.4,1.3-1.8,2.1-3.2,1.6
	c-1.3-0.4-2-1.9-1.6-3.2c0.4-1.3,1.8-2.1,3.2-1.6C20.3,13.6,21,15,20.6,16.4 M7,8.2c1.7,0,3.1,1.4,3.1,3.2c0,1.8-1.4,3.2-3.1,3.2
	s-3.1-1.4-3.1-3.2C3.9,9.6,5.3,8.2,7,8.2 M24,12.3c0,1.4-0.3,2.7-0.7,4L22.5,16c0.1-0.5,0-1-0.1-1.5l1.1-0.6l-0.8-1.7l-1,0.5
	c-0.3-0.4-0.7-0.7-1.1-1l0.4-1.1L19,10.2l-0.4,1.1c-0.5,0-1,0-1.5,0.1l-0.5-1l-1.6,0.9l0.6,1.1c-0.4,0.3-0.7,0.7-0.9,1.1L13.4,13
	l-0.6,1.8l1.2,0.4c-0.1,0.5,0,1,0.1,1.5L13,17.2l0.8,1.7l1-0.5c0.3,0.4,0.7,0.7,1.1,1l-0.4,1.1l1.8,0.6l0.4-1.1c0.5,0,1.1,0,1.5-0.1
	l0.5,1l0.9-0.5c-2.1,2.2-5.1,3.6-8.4,3.6C6,23.9,0.8,18.9,0.7,12.5h1.1c0.1,0.6,0.4,1.2,0.7,1.7l-1.1,1.1L3.1,17l1-1
	c0.5,0.3,1.1,0.6,1.7,0.7v1.5h2.3v-1.5c0.6-0.1,1.2-0.4,1.8-0.8l1,1l1.6-1.7l-1.1-1.1c0.3-0.5,0.5-1.1,0.7-1.7h1.5v-2.3h-1.5
	c-0.1-0.6-0.4-1.2-0.7-1.7l1.1-1.1L11,5.8l-1,1C9.4,6.5,8.8,6.2,8.2,6.1V4.6H5.9v1.5C5.2,6.2,4.6,6.5,4.1,6.8l-1-1L2.3,6.6
	c2-3.5,5.8-5.8,10.1-5.8C18.8,0.8,24,5.9,24,12.3 M1.7,7.7l0.8,0.8C2.2,9,1.9,9.6,1.8,10.2H0.9C1.1,9.3,1.3,8.5,1.7,7.7 M21,18.9
	c0.4-0.3,0.7-0.7,0.9-1.1l0.7,0.2c-0.3,0.6-0.7,1.2-1.2,1.7L21,18.9z M24.7,12.3c0-6.8-5.5-12.2-12.3-12.2S0.1,5.6,0.1,12.3
	c0,6.8,5.5,12.2,12.3,12.2S24.7,19.1,24.7,12.3"/>
</svg>
