<?xml version="1.0" encoding="utf-8"?>
<!-- Generator: Adobe Illustrator 21.1.0, SVG Export Plug-In . SVG Version: 6.00 Build 0)  -->
<svg version="1.1" id="Layer_1" xmlns="http://www.w3.org/2000/svg" xmlns:xlink="http://www.w3.org/1999/xlink" x="0px" y="0px"
	 viewBox="0 0 65 50" style="enable-background:new 0 0 65 50;" xml:space="preserve">
<style type="text/css">
	.st0{fill:#C3002F;}
	.st1{fill:#FFFFFF;}
	.st2{fill:none;}
	.st3{fill:#022169;}
</style>
<g>
	<g>
		<g>
			<rect class="st0" width="65" height="50"/>
			<rect x="34" y="3.9" class="st1" width="31" height="3.8"/>
			<rect x="34" y="11.6" class="st1" width="31" height="3.8"/>
			<rect x="34" y="19.3" class="st1" width="31" height="3.8"/>
			<rect y="26.9" class="st1" width="65" height="3.8"/>
			<rect y="34.6" class="st1" width="65" height="3.8"/>
			<rect y="42.3" class="st1" width="65" height="3.8"/>
			<rect class="st2" width="65" height="50"/>
			<rect class="st3" width="34.6" height="26.9"/>
			<polyline class="st1" points="4.4,2.1 3.2,2.1 2.8,1 2.5,2.1 1.3,2.1 2.2,2.8 1.9,4 2.8,3.2 3.8,3.9 3.5,2.8 4.4,2.1 			"/>
			<polyline class="st1" points="10.1,2.1 9,2.1 8.5,1 8.2,2.1 7.1,2.1 8,2.8 7.6,4 8.5,3.2 9.5,3.9 9.2,2.8 10.1,2.1 			"/>
			<polyline class="st1" points="15.8,2.1 14.7,2.1 14.3,1 13.9,2.1 12.8,2.1 13.7,2.8 13.3,4 14.3,3.2 15.3,3.9 14.9,2.8 15.8,2.1 
							"/>
			<polyline class="st1" points="21.5,2.1 20.4,2.1 20,1 19.7,2.1 18.5,2.1 19.4,2.8 19,4 20,3.2 21,3.9 20.6,2.8 21.5,2.1 			"/>
			<polyline class="st1" points="27.3,2.1 26.1,2.1 25.7,1 25.4,2.1 24.2,2.1 25.1,2.8 24.8,4 25.7,3.2 26.7,3.9 26.3,2.8 27.3,2.1 
							"/>
			<polyline class="st1" points="33,2.1 31.9,2.1 31.4,1 31.1,2.1 30,2.1 30.9,2.8 30.5,4 31.4,3.2 32.4,3.9 32,2.8 33,2.1 			"/>
			<polyline class="st1" points="4.4,7.7 3.2,7.7 2.8,6.6 2.5,7.7 1.3,7.7 2.2,8.4 1.9,9.5 2.8,8.8 3.8,9.5 3.5,8.4 4.4,7.7 			"/>
			<polyline class="st1" points="10.1,7.7 9,7.7 8.5,6.6 8.2,7.7 7.1,7.7 8,8.4 7.6,9.5 8.5,8.8 9.5,9.5 9.2,8.4 10.1,7.7 			"/>
			<polyline class="st1" points="15.8,7.7 14.7,7.7 14.3,6.6 13.9,7.7 12.8,7.7 13.7,8.4 13.3,9.5 14.3,8.8 15.3,9.5 14.9,8.4 
				15.8,7.7 			"/>
			<polyline class="st1" points="21.5,7.7 20.4,7.7 20,6.6 19.7,7.7 18.5,7.7 19.4,8.4 19,9.5 20,8.8 21,9.5 20.6,8.4 21.5,7.7 			
				"/>
			<polyline class="st1" points="27.3,7.7 26.1,7.7 25.7,6.6 25.4,7.7 24.2,7.7 25.1,8.4 24.8,9.5 25.7,8.8 26.7,9.5 26.3,8.4 
				27.3,7.7 			"/>
			<polyline class="st1" points="33,7.7 31.9,7.7 31.4,6.6 31.1,7.7 30,7.7 30.9,8.4 30.5,9.5 31.4,8.8 32.4,9.5 32,8.4 33,7.7 			
				"/>
			<polyline class="st1" points="4.4,13.2 3.2,13.2 2.8,12.1 2.5,13.2 1.3,13.2 2.2,13.9 1.9,15 2.8,14.3 3.8,15 3.5,13.9 4.4,13.2 
							"/>
			<polyline class="st1" points="10.1,13.2 9,13.2 8.5,12.1 8.2,13.2 7.1,13.2 8,13.9 7.6,15 8.5,14.3 9.5,15 9.2,13.9 10.1,13.2 
							"/>
			<polyline class="st1" points="15.8,13.2 14.7,13.2 14.3,12.1 13.9,13.2 12.8,13.2 13.7,13.9 13.3,15 14.3,14.3 15.3,15 
				14.9,13.9 15.8,13.2 			"/>
			<polyline class="st1" points="21.5,13.2 20.4,13.2 20,12.1 19.7,13.2 18.5,13.2 19.4,13.9 19,15 20,14.3 21,15 20.6,13.9 
				21.5,13.2 			"/>
			<polyline class="st1" points="27.3,13.2 26.1,13.2 25.7,12.1 25.4,13.2 24.2,13.2 25.1,13.9 24.8,15 25.7,14.3 26.7,15 
				26.3,13.9 27.3,13.2 			"/>
			<polyline class="st1" points="33,13.2 31.9,13.2 31.4,12.1 31.1,13.2 30,13.2 30.9,13.9 30.5,15 31.4,14.3 32.4,15 32,13.9 
				33,13.2 			"/>
			<polyline class="st1" points="4.4,18.7 3.2,18.7 2.8,17.7 2.5,18.7 1.3,18.7 2.2,19.4 1.9,20.6 2.8,19.9 3.8,20.6 3.5,19.4 
				4.4,18.7 			"/>
			<polyline class="st1" points="10.1,18.7 9,18.7 8.5,17.7 8.2,18.7 7.1,18.7 8,19.4 7.6,20.6 8.5,19.9 9.5,20.6 9.2,19.4 
				10.1,18.7 			"/>
			<polyline class="st1" points="15.8,18.7 14.7,18.7 14.3,17.7 13.9,18.7 12.8,18.7 13.7,19.4 13.3,20.6 14.3,19.9 15.3,20.6 
				14.9,19.4 15.8,18.7 			"/>
			<polyline class="st1" points="21.5,18.7 20.4,18.7 20,17.7 19.7,18.7 18.5,18.7 19.4,19.4 19,20.6 20,19.9 21,20.6 20.6,19.4 
				21.5,18.7 			"/>
			<polyline class="st1" points="27.3,18.7 26.1,18.7 25.7,17.7 25.4,18.7 24.2,18.7 25.1,19.4 24.8,20.6 25.7,19.9 26.7,20.6 
				26.3,19.4 27.3,18.7 			"/>
			<polyline class="st1" points="33,18.7 31.9,18.7 31.4,17.7 31.1,18.7 30,18.7 30.9,19.4 30.5,20.6 31.4,19.9 32.4,20.6 32,19.4 
				33,18.7 			"/>
			<polyline class="st1" points="7.1,4.8 6,4.8 5.6,3.8 5.3,4.8 4.1,4.8 5,5.5 4.6,6.7 5.6,6 6.6,6.7 6.1,5.5 7.1,4.8 			"/>
			<polyline class="st1" points="12.9,4.8 11.7,4.8 11.3,3.8 11,4.8 9.8,4.8 10.7,5.5 10.4,6.7 11.3,6 12.3,6.7 11.9,5.5 12.9,4.8 
							"/>
			<polyline class="st1" points="18.6,4.8 17.4,4.8 17,3.8 16.7,4.8 15.5,4.8 16.4,5.5 16.1,6.7 17,6 18,6.7 17.6,5.5 18.6,4.8 			
				"/>
			<polyline class="st1" points="24.3,4.8 23.1,4.8 22.7,3.8 22.4,4.8 21.2,4.8 22.2,5.5 21.8,6.7 22.7,6 23.7,6.7 23.3,5.5 
				24.3,4.8 			"/>
			<polyline class="st1" points="30,4.8 28.8,4.8 28.5,3.8 28.2,4.8 26.9,4.8 27.9,5.5 27.5,6.7 28.5,6 29.4,6.7 29,5.5 30,4.8 			
				"/>
			<polyline class="st1" points="7.1,10.4 6,10.4 5.6,9.3 5.3,10.4 4.1,10.4 5,11.1 4.6,12.3 5.6,11.6 6.6,12.3 6.1,11.1 7.1,10.4 
							"/>
			<polyline class="st1" points="12.9,10.4 11.7,10.4 11.3,9.3 11,10.4 9.8,10.4 10.7,11.1 10.4,12.3 11.3,11.6 12.3,12.3 
				11.9,11.1 12.9,10.4 			"/>
			<polyline class="st1" points="18.6,10.4 17.4,10.4 17,9.3 16.7,10.4 15.5,10.4 16.4,11.1 16.1,12.3 17,11.6 18,12.3 17.6,11.1 
				18.6,10.4 			"/>
			<polyline class="st1" points="24.3,10.4 23.1,10.4 22.7,9.3 22.4,10.4 21.2,10.4 22.2,11.1 21.8,12.3 22.7,11.6 23.7,12.3 
				23.3,11.1 24.3,10.4 			"/>
			<polyline class="st1" points="30,10.4 28.8,10.4 28.5,9.3 28.2,10.4 26.9,10.4 27.9,11.1 27.5,12.3 28.5,11.6 29.4,12.3 29,11.1 
				30,10.4 			"/>
			<polyline class="st1" points="7.1,16 6,16 5.6,14.9 5.3,16 4.1,16 5,16.7 4.6,17.8 5.6,17.1 6.6,17.8 6.1,16.7 7.1,16 			"/>
			<polyline class="st1" points="12.9,16 11.7,16 11.3,14.9 11,16 9.8,16 10.7,16.7 10.4,17.8 11.3,17.1 12.3,17.8 11.9,16.7 
				12.9,16 			"/>
			<polyline class="st1" points="18.6,16 17.4,16 17,14.9 16.7,16 15.5,16 16.4,16.7 16.1,17.8 17,17.1 18,17.8 17.6,16.7 18.6,16 
							"/>
			<polyline class="st1" points="24.3,16 23.1,16 22.7,14.9 22.4,16 21.2,16 22.2,16.7 21.8,17.8 22.7,17.1 23.7,17.8 23.3,16.7 
				24.3,16 			"/>
			<polyline class="st1" points="30,16 28.8,16 28.5,14.9 28.2,16 26.9,16 27.9,16.7 27.5,17.8 28.5,17.1 29.4,17.8 29,16.7 30,16 
							"/>
			<polyline class="st1" points="7.1,21.5 6,21.5 5.6,20.5 5.3,21.5 4.1,21.5 5,22.2 4.6,23.4 5.6,22.6 6.6,23.3 6.1,22.2 7.1,21.5 
							"/>
			<polyline class="st1" points="12.9,21.5 11.7,21.5 11.3,20.5 11,21.5 9.8,21.5 10.7,22.2 10.4,23.4 11.3,22.6 12.3,23.3 
				11.9,22.2 12.9,21.5 			"/>
			<polyline class="st1" points="18.6,21.5 17.4,21.5 17,20.5 16.7,21.5 15.5,21.5 16.4,22.2 16.1,23.4 17,22.6 18,23.3 17.6,22.2 
				18.6,21.5 			"/>
			<polyline class="st1" points="24.3,21.5 23.1,21.5 22.7,20.5 22.4,21.5 21.2,21.5 22.2,22.2 21.8,23.4 22.7,22.6 23.7,23.3 
				23.3,22.2 24.3,21.5 			"/>
			<polyline class="st1" points="30,21.5 28.8,21.5 28.5,20.5 28.2,21.5 26.9,21.5 27.9,22.2 27.5,23.4 28.5,22.6 29.4,23.3 
				29,22.2 30,21.5 			"/>
			<polyline class="st1" points="4.4,24.3 3.2,24.3 2.8,23.2 2.5,24.3 1.3,24.3 2.2,25 1.9,26.2 2.8,25.4 3.8,26.2 3.5,25 4.4,24.3 
							"/>
			<polyline class="st1" points="10.1,24.3 9,24.3 8.5,23.2 8.2,24.3 7.1,24.3 8,25 7.6,26.2 8.5,25.4 9.5,26.2 9.2,25 10.1,24.3 
							"/>
			<polyline class="st1" points="15.8,24.3 14.7,24.3 14.3,23.2 13.9,24.3 12.8,24.3 13.7,25 13.3,26.2 14.3,25.4 15.3,26.2 
				14.9,25 15.8,24.3 			"/>
			<polyline class="st1" points="21.5,24.3 20.4,24.3 20,23.2 19.7,24.3 18.5,24.3 19.4,25 19,26.2 20,25.4 21,26.2 20.6,25 
				21.5,24.3 			"/>
			<polyline class="st1" points="27.3,24.3 26.1,24.3 25.7,23.2 25.4,24.3 24.2,24.3 25.1,25 24.8,26.2 25.7,25.4 26.7,26.2 
				26.3,25 27.3,24.3 			"/>
			<polyline class="st1" points="33,24.3 31.9,24.3 31.4,23.2 31.1,24.3 30,24.3 30.9,25 30.5,26.2 31.4,25.4 32.4,26.2 32,25 
				33,24.3 			"/>
		</g>
	</g>
</g>
</svg>
