<svg id="Слой_1" xmlns="http://www.w3.org/2000/svg" xmlns:xlink="http://www.w3.org/1999/xlink" viewBox="0 0 126.4 83.7"><style>.st0,.st1{clip-path:url(#SVGID_2_);fill:#fff}.st1{fill:#b2ba53}</style><defs><path id="SVGID_1_" d="M-81.1-29h283.5v141.7H-81.1z"/></defs><clipPath id="SVGID_2_"><use xlink:href="#SVGID_1_" overflow="visible"/></clipPath><path class="st0" d="M126.3 41.9c0-23-18.7-41.7-41.7-41.7-20.4 0-37.3 14.6-41 33.9.5-.1 1-.2 1.5-.2.2 0 .4 0 .6.1C49.4 15.8 65.4 2.2 84.6 2.2c21.9 0 39.7 17.8 39.7 39.7 0 21.9-17.8 39.7-39.7 39.7-19.6 0-35.9-14.3-39.1-33h-.4c-.6 0-1.2-.1-1.7-.2 3.1 20 20.4 35.2 41.2 35.2 23 0 41.7-18.7 41.7-41.7"/><path class="st1" d="M51 41.2c0 3.3-2.7 6-6 6s-6-2.7-6-6 2.7-6 6-6c3.4.1 6 2.7 6 6"/><path class="st0" d="M10.8 45.2c0 1.6-.8 2.4-2.4 2.4h-8l-.3-1.8c.5.2 1.3.2 1.8.2h4.9c.5 0 .7-.2.7-.7v-1.6c0-.5-.2-.7-.7-.7H2.3c-1.5 0-2.4-.8-2.4-2.4v-2.5c0-1.6.8-2.4 2.4-2.4h8.1l.3 1.8c-.6-.2-1.3-.3-1.8-.3H4c-.5 0-.7.2-.7.7V39c0 .5.2.7.7.7h4.4c1.5 0 2.4.8 2.4 2.4v3.1zM22 35.7l.3 1.8c-.6-.2-1.3-.3-1.8-.3h-1.8V46c0 .5 0 1 .2 1.6H15c.2-.6.2-1.1.2-1.6v-8.7h-1.8c-.5 0-1.3 0-1.8.3l.3-1.8H22zm12 9.5c0 1.6-.8 2.4-2.4 2.4h-8l-.3-1.8c.6.2 1.3.3 1.8.3H30c.5 0 .7-.2.7-.7v-1.6c0-.5-.2-.7-.7-.7h-4.4c-1.5 0-2.4-.8-2.4-2.4v-2.5c0-1.6.8-2.4 2.4-2.4h8.1l.3 1.8c-.6-.2-1.3-.3-1.8-.3h-4.9c-.5 0-.7.2-.7.7v1.1c0 .5.2.7.7.7h4.4c1.5 0 2.4.8 2.4 2.4v3zm25.8 2.4c-1.5 0-2.4-.8-2.4-2.4v-7c0-1.6.8-2.4 2.4-2.4h8.7l.3 1.8c-.6-.2-1.3-.3-1.8-.3h-5.4c-.5 0-.7.2-.7.7v7.4c0 .5.2.7.7.7h3.7c.4 0 .5-.2.5-.5V42h-3c-.4 0-.6.1-.9.2v-1.7h7.5c-.2.6-.2 1.1-.2 1.6V46c0 .5 0 1 .2 1.6h-3.1l-.2-1c-.1.8-.4 1-1.5 1h-4.8zm14.4-2c0 1 .1 1.5.2 2h-3.6c.1-.4.2-.9.2-2v-7.9c0-1-.1-1.6-.2-2h3.4v9.9zm8.4.6c.4 0 .6-.2.6-.6v-4.7c0-.5-.1-.6-.6-.6h-2.8c-.4 0-.6.2-.6.6v4.7c0 .5.1.6.6.6h2.8zm-4.4 1.4c-1.5 0-2.2-.7-2.2-2.3v-4c0-1.6.7-2.3 2.2-2.3h6c1.5 0 2.2.7 2.2 2.3v4c0 1.6-.7 2.3-2.2 2.3h-6zm16-1.4c.4 0 .6-.2.6-.6v-4.7c0-.5-.1-.6-.6-.6h-2.8c-.4 0-.6.2-.6.6v4.7c0 .5.1.6.6.6h2.8zm-3.6 1.4h-3.2c.1-.4.2-.9.2-2v-7.9c0-1-.1-1.6-.2-2h3.4v4h.1c.1-.4.3-.6.4-.7.1-.1.3-.2.6-.2h3.9c1.5 0 2.2.7 2.2 2.3v4c0 1.6-.7 2.3-2.2 2.3h-4c-.5 0-.8-.4-.9-.8l-.3 1zm12.4-4.7c-.4 0-.6.2-.6.6v2c0 .5.1.6.6.6h2.8c.4 0 .6-.2.6-.6v-2.7H103zm6.6 2.7c0 1 .1 1.5.2 2h-3l-.1-.9c-.3.7-.6.9-1.2.9h-4c-1.5 0-2.2-.6-2.2-3s.7-3 2.2-3h4.5c.3 0 .5-.1.5-.4v-.6c0-.3-.2-.4-.5-.4h-4.8c-.5 0-.9 0-1.5.2l.2-1.5h7.7c1.5 0 2.2.7 2.2 2.3v4.4zm5 0c0 1 .1 1.5.2 2h-3.6c.1-.4.2-.9.2-2v-7.9c0-1-.1-1.6-.2-2h3.4v9.9z"/></svg>