<svg id="ab5361db-c3c0-490c-b674-64f84d6abbee" data-name="Layer 1" xmlns="http://www.w3.org/2000/svg" viewBox="0 0 837.81 413.42" fill="#FFF"><defs><style>.e2f71f99-73a1-4e01-a6ff-cc3e0285b8dc{opacity:.5}</style></defs><path class="e2f71f99-73a1-4e01-a6ff-cc3e0285b8dc" d="M41.82 231.86v-2.22a44.68 44.68 0 0 1-5.13 3.21l1.1 2.34L40 234zm10-10.1c-2-2.25 2.76-1 3.66-1.23 3 2.08 7.11 5.08 10.86 3.45l2.08.86h1.95a18 18 0 0 0 5 3.08l1.63 1.72c.43.25 3 1 3.54.13l1.83 1.11 1.22 1.72 2.81.74-.49 1.6 2.69 1.11-.49 1.48a12.19 12.19 0 0 0 3.42.86l.12 1.72L93 242a16.35 16.35 0 0 0 1.1 4.07l2.2.24.61 2.34c.95.85 2.76 2.45 2.92 3.82a29.4 29.4 0 0 0 6.6 2.71l.36 1.23c1.09.69 3.28 2.17 4.28 3a12.12 12.12 0 0 1 1 5.3c-1.06-1.27-3-3-3.3-4.68a13.28 13.28 0 0 0-3.29-1.73l-.24-2h-1.59c-1.38-1.15-3.44-2.2-5.25-1.6a7.27 7.27 0 0 0 2.81 2.58 41.58 41.58 0 0 0 4.79 3.52c.64 1.27 1.8 4 2.32 5.31-.13 2.67-.47 6.42-.36 9.11l-1.11.86v2.34l1.35 2.46a5.89 5.89 0 0 0 .85 5.79L109 289a13.2 13.2 0 0 0 3.17 3.57l1.1 3.33 1.59 1.35.37 1.73 1.46 2h2.2a12.31 12.31 0 0 0 4 2.46l1.71 1.73c.42 2.28 1.85 5.37 2.44 7.63 1.08 1.32 3.37 2.7 3.79 4.44l-1.47 1.11c1.36 2.5 5 3.38 6.47 5.78l-.24 1.36.49 1.11c1.79.44 3.54 2.15 4.76 3.45l.12 1.47 1-.49.24-1.6-.73-1.85-1.59-.74-.25-1.6-1.83-1.35c-.34-1-1.08-3.06-1.46-4.07l-1.59-1.47-.48-2-1.59-.62-1-2.46-1.83-2.1-.24-2.71 1.46-.12 2.08.86 1.22 1.49.12 2.33a36.56 36.56 0 0 0 4.52 5.54c1.63 1.28 4 3.12 3.9 5.42l2.2 1.23 1.58 1.85a22.35 22.35 0 0 0 3.79 4.68l1 2.34 1.34 1.11-1.34.86-.37 1.48c1.29 1 3.86 3 5.13 4.06a19 19 0 0 1 5.73 2.59c3.75 1.29 8.07 4.68 12.21 4.06l.61-1 2.2-.25a17.24 17.24 0 0 1 6.59 5.05c1.24 0 3.17-.2 4.27.5l1.34 1.84 2.69.87.12-1.25 1.47.74 1.46 2.1s2.2 2.46 2.69 2.83-.25 2.21-.25 2.21l.85 1 1.11-.49c2 .36 3.85 4.31 5.73 3.32 1.25.64 4.35 2.21 5.61 2.72l-.12-2 1-1.23 3.42.25.37 1.23 1.09-.12.57-1.56-1.22-1.48c-2.73.07-6.55-.14-9.27-.37a18.76 18.76 0 0 1-3.79-3.45c.11-1 .14-3.26.12-4.31a16.35 16.35 0 0 0 .73-5.18l-1.09-1.6-2.2-1.1a14.36 14.36 0 0 1-5.62-.25l-2.56 1-1.71-1.1 1.59-1.24a6.25 6.25 0 0 1 .61-3.57l.86-2.22v-2.46l1.46-1 .25-1.85-1.1-.74a49.61 49.61 0 0 0-6 .62c-1.18 1.82-2 4.74-3 6.65-2.29.19-5.37 1.25-7.69 1.35L176 341l-2.44-1.23a22 22 0 0 0-2.56-4.57 55.57 55.57 0 0 1-1.35-7.64 15.78 15.78 0 0 0 1.83-5.29l-1.22-3 2.2-2.83 1.83-.12a44.7 44.7 0 0 0 3.66-3.21 17.78 17.78 0 0 1 4.4 1l1.46-.62 1.22 1.6a36.32 36.32 0 0 0 3.91-.12l-.37-1.23.61-2c2.33-.13 5.61-.49 7.94 0l1.34 1.72h1.1l.73-1 1-.25a20.93 20.93 0 0 1 3.06 3.32v2.1a6 6 0 0 1 1.22 2.59l1.1 1 .6 1.48 1.35.74.12 1.6 1.22.37a9.46 9.46 0 0 0 1.35-2.83 36.77 36.77 0 0 1-1.47-5.3l-1.58-2.83a14.08 14.08 0 0 1 2.19-9c1.39-.3 3.54-2 4.52-3a15.72 15.72 0 0 1 4.51-2.46l.37-1.6 1.71-1a15.84 15.84 0 0 0-2.57-3.94l.49-1.48-1-1.35 1.71-.86 1.46 2c.64-1.56 1.57-3.73 2.93-4.81l1.1-3.69h3.29l2.08-1.24 2.44-.24c-.67-.91-.73-3.49-.73-4.56l1.7-2.34h2l.61-1.35 2.56.12 2.32-1.36 1.46-1.84a13.62 13.62 0 0 1 5.87.36c.49.13-.74 1-.74 1h-3.17c-1.2.95-2.49 1.28-1.71 3.33l1.34.61a9.29 9.29 0 0 1 4.64-2.58 13.08 13.08 0 0 1 4.4-1.6 20 20 0 0 1 3.42-3.58l.24-1.72-2.32.62-1.59 2.58c-3.08.59-5-1-7.2-2.83l-1.22-3.2 2.08-1.61-.13-2.58c-3.54-.81-7.12 1-10 2.83a38 38 0 0 1-6.34 5.42 16.77 16.77 0 0 1 3.9-4.8L232 262h3.54l.85-1.73 2-1.59 2.32-.13 1-2 2-.74h3l5.49-.12a15.39 15.39 0 0 0 5 .36 18.11 18.11 0 0 0 4.15-3.81c1.91-.18 5.17-.28 6.35-2.1l-1.1-1 .73-1 .12-2.09-2.56-.37-.49-1.23h-2.81a40.85 40.85 0 0 0-3.66 2.21l-1.22-.49.49-1.48a49.2 49.2 0 0 1 5.61-1.6l1.34-1.23-1.95-.12a18.38 18.38 0 0 0-4.51-1.73c-1.19-1.32-3.52-2.56-4.15-4.31l1.1-.24.36-1c-2.49-3.41-6.05-7.62-7.69-11.58l-2.19 2.72v2.4l-2.32.87-1.47 1.6-2.19-.13-.5-1.47-1.46-1.11-2.2.49c.77-2.22.7-5.58.49-7.88l-2.68-.12a17.41 17.41 0 0 1-4-3.33l-3.42-2.09-1.22 1c-1.09 0-3.32 0-4.15-.86h-3.29l-1.34 1.35 1.21 2c-.79 2.65-.3 4.3 1 6.66h-1.71l.13 2.21-1.1 1.23c.87.57 2.8 2 3.66 2.59a20.42 20.42 0 0 1 .61 6 13.56 13.56 0 0 1-3.78 3.95l-3.06.37 1.71 2.71v3.45l.86 2a9.82 9.82 0 0 1-1.83 3.58l-2.93.36a29.49 29.49 0 0 0-3.79-5.29 18.05 18.05 0 0 0-.61-5.05l.37-2.46a56.47 56.47 0 0 0-6.59-.62c-.87-.82-3.87-1.47-5-1.72-1.57-2.18-5.36-3.4-7.57-4.81l-4.15 1a43.11 43.11 0 0 1-2.68-5.3l-2.08-1-1.34-1.47.49-4.56c1-1.67 3-5 4.15-6.52a14.71 14.71 0 0 0 4.66-2.73l-.86-1.73a55.11 55.11 0 0 1-7.08-2l4.4.62c1.17.3 4 1.16 5.13.49l.36-1.85 2.93 1 1.71-.37.12-1.48 1.1-.62.61-2c-1.15-.16-3.59-.4-4.76-.5-.47-1.09-3-2-4-2.34 2.29-.05 5.44 1 7.57 1.72l2.2-.73 1.47-1.85-1.59-1.48h2.19l1.35 1.35c-1.8 1.85-2.32 5.06-2.08 7.52l-2.2.74.62 1.47 2.31.13v1.35c1.66.31 3.11.55 3.91-2a32 32 0 0 1 4.51.37l1.59.74h2.32l.25-1.85-2.32-.49-1.1-2.34-2.81-.24-2.2-1.85-2.07-.5v-1.35l1.95.37.86-1-.25-1.11h2.32l.85-1.6c.94-.62 2.62-1.78 2.94-3a12.34 12.34 0 0 1-2.33-3.94l2.08-.37.61-1.85-1.61-1.7c-1.25-.51-3.8-1.8-5-2.46h3.17l.37-1 2.32.25 1.83 1.11a21 21 0 0 0 4.88-.62l-1.95-1.84 1.34-.37 2.04 2.1 2.31.25 1 2 1.71.37 1 1.48 1.83.74 1 1.85 2.07.74 1.71 1.84.36 2.22a56.92 56.92 0 0 0-4.51 4.68l1.09 2.22-3.66.49a11.39 11.39 0 0 0-4-.49l-2.64 1.81v2a18.76 18.76 0 0 0 5.49.37l.61-1.11 1.1-.61c1 .18 3.51.92 4.51 1.22l2.81 2.72c.18 1 1.58 2.62 2.32 3.32h2.44l2.56 2.46 3.78.13 2.44 1.1.25-1.47c-1.77-1.57-5.65-3.67-6.59-5.92 2.74 1.39 6.91 3.45 9.52 5V213l1.34-2-2.19-1.23-.49-3.08-3-1.11-3.67-3.95c.59-.55 1.81-1.6 2.44-2.09 1.62 1.17 5.79 4.17 6.6 6l2.07.37.61-2.71 2.56-1 .37-1.11h1.71l.73-1.23-.12-1.85H252v-1l-2.07-1.61-1.47-.24-2.19-1h-1.71a17.36 17.36 0 0 0-1.1-2.59 33.56 33.56 0 0 1-4.15-.12v-2.1h2.07l1.1-1-2.8-.74.36-.86 1.34-.25-1.58-1.48-2.2-.61.85-1.36-2.32-1-2.56.12-.36-1.11a11.37 11.37 0 0 1-2.93-.37l1.71-1.11-2.32-.73-2.93.73-2-2-.25-1.11-1.83-.12-.12-1.35-2.93-1h-3.78l-.5 1.11a8.19 8.19 0 0 1-3.78-.12l-.61 1.35-1.83.12L209 175l1.1-1.6a12.8 12.8 0 0 1-2.69-4.18H204l-1.58 1.47-2.32.12-1.59 1-.37 2 1.47 2.09-1 1.36 2 2.58-1.61.16-2.19-2.22a30 30 0 0 1-1-4.92 13.39 13.39 0 0 1 3.9-3.82 42.77 42.77 0 0 0-6.59.37l-3 2.46-1.83 3.45-.12 4.31a32 32 0 0 0 4.76.61l.85 1.61-2.2-.37-2.31.61 1.95 2c1 0 3.19.06 4-.5 1 1 3.89 2 5.24 2.34l-2.07.62-.12 1.72 1.46 1.23-2.32 3.33a11.43 11.43 0 0 1-2.81 4.19l-1.58-.74-1.22-2.84 1.22-1.72L190 189l-2.44 2.09c-.71-.7-3.51-4.35-4.64-4.31a8.72 8.72 0 0 0-.25-4.18l-1.58-.25-.09-1.85-2.57-2.09-3.05-.13-.49 1.24-1.34.12-1.34 2 .73 1.6-.37 1.23a23.2 23.2 0 0 0 4.76 3.45l-.73 1.85-2.56-.49.73 2.09 2.2-.12 2.44-1.48V192l-4.27 2.22.36 3.2-2.68-1.73.73-2.22h-1.71l-.12-2.09h1.59l-.49-3.08-3.91-1.84-.85 2.21-2.07 1 3.53 2.34-1.71 1.35-.61 1.72-6.59.25-3.3-1.35-2.44-.37-3.17-1.85a32.45 32.45 0 0 1-5.61 2.84l.85 2.09-.49 3.2-2.1-3.89-3.3-1.47c-2.51 1.08-9.08.28-11.72 0l-.12-1.12 2.81-1-4-2.09c-1.84.66-8-1.47-9.76-2l-1.84-1.6a23.64 23.64 0 0 0-5.24-.24l-.86 1.35-1.83.37-1.83-3.08-1.22 2.71-2.2-.37-2.1-3.46-2.44-.62-.7 2.29-1.58 1.48c-2.8.18-6.36 1.73-8.79 3.08l2.56-2.46a36.33 36.33 0 0 0 4.64-1.48l.86-1.23-1.1-.24a58.87 58.87 0 0 0-7 2.7c-1 .09-3 .15-4 .13l-4 2.21-3.78-.37-3-2.34-5.5-.24-2-1.24-2.8-.49-3.42.74-2.2-1.23h-3.6c-2.84-1.1-6.91-1.07-9.89-1l-.73-1.69c-1.55-.08-6.1-.37-7.56 0l.6-1.36-3.17-.12-2.8 1.6h-4.4L22 184.57h-2.52l-2.19 1.72-.29 2.22-2.69 1.85-4.39.12-.85 2.46 5 2.22 1.71 2.34 2.81 1.11 1.83 2.83-2.69.37-2.56-.49-.17-2.09-3.06 1.6-2.56.24-3 2.47a20.33 20.33 0 0 1 3.05 2.09l1 2.71c1.79-.28 8.67-.45 9.88-2.09l2.08.24a17.48 17.48 0 0 0-.49 5 13.68 13.68 0 0 0-5.61 1.11l-2.45-.25-.84 2.76-2.93 2.71.61 1.85 1.34.25a27.39 27.39 0 0 0 1.59 3.81l3.3 1.11 1.6-1.84 1.83 2.47-.34 3.44h1.71l1.1-.62 2.56-.13 1.71 1 1-1.72 1.58 1.35 2-1.11a13.28 13.28 0 0 0-1.23 3.08c0 .74-1.34 1.85-2.07 2.22a18.84 18.84 0 0 0-5.13 4.68l-2.44.13-2.44 1.72-3.29.74-2.81 2.34 1.58.74 2.81-2.1c1.42.25 3.72-1.06 4.88-1.72 2.23-.88 8.15-3.73 10.38-4.8l1-2.1 7.2-4.06-1.83-2.71 3.66-2.1 2-3.32 3.17-.74 1.71 1-3.78 1.48-1 2 .48 2.22 4.63-2.38 3.42-.61zm-41 2.71l-.73-1.72H8.25l-.85.62.36 1.47 2.08.13zm101.68-44.58h2.56l1.59-1.24.61-2.34s2.2-1 2.32-1.47 1.58-1.6 1.58-1.6c1.64-.67 5.42-2.14 7.09-2.59l-.25-1.6c-1.2-.74-3.88-2.41-5.37-2.22l-2.32 1c-1.35-.41-4-1.34-5.37-1.85a34.25 34.25 0 0 0-7.57.12 10.34 10.34 0 0 0 .62 3.45l-.74 3.33-3.42 4.31 4.28 1.23 2.31 3.2zm34.06 13.3a10.14 10.14 0 0 1 3.9-1.35l.12-1.61a22.72 22.72 0 0 0-6.46 2.47zm-20.39-4.81c1.39.08 4.23.16 5.61.13l1.35 2.34 1.7 1c1.59 0 4.77 0 6.35-.13a14.78 14.78 0 0 1 4.27-1.72c.79-.44 2.69-1.5 3.42-2l1 .87 1.34-.25c2.77 1.61 4.59 2.24 7.82 1.6l.85-1.6-1.71-1.35a31 31 0 0 0 3.42-.5l.49-1.11c-1.12-1-4.55-2.15-6-2.58L154 181l.37-2.09-1.84-1.35-.36-2.84-1.47-1.84-2.7-1.12h-2.32a8.31 8.31 0 0 0 1.59 5.54l-.73.86-1-.12-1-.86c0-1.79-1.47-3.54-2.68-4.68l-1.83-.13a8.14 8.14 0 0 0 1.22 2.47h-2.08l-.12 1-1.71.25c.19-.61.63-1.86.85-2.46a10.2 10.2 0 0 1-3.29-.74l-1.83.12-.25 1.35-1.46-.24.36-.86-.36-1.73c-.61-.44-2.46-.39-3.17-.37a8.18 8.18 0 0 1-2.89 1.84 8.54 8.54 0 0 0-3.66 1.6l.37 1.72-2.08 1.24.13 1h1.46l1 1a14 14 0 0 1 4.15-.87l1.46 1.11c-1.08.31-3.29.87-4.39 1.11l-1 1c2.34 1.45 5.7 1.17 8.3.86h2.57a22.24 22.24 0 0 0 2.07.86c.49.13-.24 1.24-.24 1.24-3.32 0-8-.82-11 1.1zm-1.71-32.14l2.08-.74a16.81 16.81 0 0 1 1.34-3.94l-2.69-.62-1.34 1.24c-1.11 0-3.55 0-4.64-.13a19.54 19.54 0 0 1-3.54 4.44h-2.19l-2.08.86.85 1.48 2.45.86 1-1.23 1.47 1 1.34-.74.25-1 1.58-.12.49-1.47 1.34-1 1.1 1.6zm-3.9 3.08l-1.23 1.48 2.32.36 1.22-2.46zm9.76-5.3l.25 1 2.68.24-.12-1.23s-2.69.5-2.81 0m-.73 2.34l-2.32.74a25.45 25.45 0 0 1-3.78 4.31l.24 1.48a21.53 21.53 0 0 1 5 .62l2.08-.25 1.83-.62a25.87 25.87 0 0 0 5.25.5c-2.27 1.59-4.31 0-6.35 1.48l.24 1.1c2.95 1.6 7.2.17 9.53-2a63.51 63.51 0 0 1 8-.24l1.1-1.36.73-2.59-1-1h-1.35l-.24 1.11a10.21 10.21 0 0 1-3.78-2.22 4.38 4.38 0 0 0-.73-2.71h-1.84l-.73.86-1.34.37.12 1 1.46 1a6.34 6.34 0 0 1-.36 1.85l1.83.25c1.15 1.84-3.12.87-3.91 1.1a9.22 9.22 0 0 1-3.17-2.95 7.3 7.3 0 0 0-3.66-.74 8.78 8.78 0 0 0-2.86-1.1zm2.41-6.17l-.25-1.59c-.79-.38-2.15-.94-3.05-.62a3.76 3.76 0 0 0 1.47 2.09zm4.27 2.22c.82-.52 3.09-.61 4-.61l.61-1-1.22-1.11 1.22-.12.85-1.11c-2.59 0-5.89-.27-8.05 1.47l1.34 2.23zm-2.42-5.42h8.67s.12-1.23-.49-1.35a8.13 8.13 0 0 0-4.52-.62l-1.95.5zm11.84 22.42l-.85.86 1.71.25.6-1.24zm8.06 2.83l.48-1.85-1-.86-3.79-.62-1 1.11c.66.49 3.59 2.31 3.9 3.21zm13.67 7.75c.49 0 1.7-1.48 1.7-1.48l2.81-.12 1.1-2a9.35 9.35 0 0 0-4.27-4.07c4.7-1.52 1-2.57-.49-4.68l-2 .13-.24 1.36a6.36 6.36 0 0 1-2.57-.63l-1.83.5.37 1.35 1.59 1.48c-.77 2.93-1.76 2.65-3.55.86l-1.46.13-.25 1.35c1.5.92 3.44 2.31 5.26 2.46 1.17 2.19 1.11 2.63 3.78 3.33m10.74-3.82l1.58-1.11.25-1.72 2.44.49 1.46-1.11 1.1-2 1.59-1.72a7.57 7.57 0 0 0-2.2-1h-2.19a10.33 10.33 0 0 0-5.38-.61c-.81.83.93 2.15-1.7 2.83a20.73 20.73 0 0 0 .73 6.28zM217.58 197a8.83 8.83 0 0 0 4.27-.25L223 195l-1-1.84c-2.37.14-4.06-.49-5.5 2.22zM154 152.79l-1.59-2.09-2-1.11c-.8 1 1.78 3.64 2.2 3.82zm-.85 9.24l.48 1.35 1.59-.12a2.17 2.17 0 0 0 .61-1.11c0-.49-1.95-1.11-1.83-.62s-.85.5-.85.5m7.07-1a15.77 15.77 0 0 1 2.69-.74 8.12 8.12 0 0 1 1.83 3.33c1.23-.91 3.35-.61 4.76-1a26.19 26.19 0 0 0 .12-3.32 3.86 3.86 0 0 1 .86-1c.61-1.57-3-3.45-3.91-1.61l-2.32-1.48h-2c4.53 3.45 3.94 6.09-.73 1.24h-1.83a10.09 10.09 0 0 0 .61 3.07l-2.2-1.35-1.1-2.46-3.17-1.11-.12 2.09c.49 1.29 2.66 2.22 3.78 3.45zm1.1-10.71l-1.58-1.11-2.32.12.36 1.36a7 7 0 0 0 3.53-.36zm4.65-.25l.6-1.11-.36-1.48-1.35-1-.61-1.48a17.87 17.87 0 0 1-3.29-1.6l-1.47.25a18.45 18.45 0 0 0-3.17-2c-1 .13-4.12.77-5.13 1l.85 1.23 1.35-.12 1.34.62.37 1.47H153l.74 1.36 1.34-.12 1 .86 1.35-.62c.79.09 3.31.3 4.15.37l2.2 1.85zm1.58-10.59l-.61-1.72a7.49 7.49 0 0 0-3.17-.5v1.48h1.83l.49 1.36zm6.83 9.24l2-.38.48-1-2.07-1.48-2.93-.24-2.32-1.48-1.1.86a9.37 9.37 0 0 1 1.72 3.58 10.72 10.72 0 0 0 4.21.15zm-.49 3.08a29.9 29.9 0 0 0 6.47-.87v-1.23h-5.12l-1.35 1.11zm5 5.9l1.34-1.35-.12-1.11-1.71-1.35c-1 .06-2.8 0-3.66-.61l-2.2.36-.24 1.6c1.94 1.08 4.24 2.76 6.59 2.47zm-6 5.3l1.71 1.61h1.83l1.71.73 1.46-.61.49-1.85-1.71-1-1-1.35a13.75 13.75 0 0 0-4 1.23zm-3.79 3.08h1.71l-.72-1.11zm17-.49l3.3-.25 1.58-1c1.81 1.55 3.33 2.24 5.74 1.72 1.29 0 4.69.1 5.86-.49l.85-.86 1.23 1c1.59 0 3.62-.35 5.61-.49 1-.42-.79-1.76 1.59-2.22l-.37-2c-1.62-.48-4.93-1.28-6.59-1.6a34 34 0 0 1-8.79 2 20.07 20.07 0 0 0-6.22-.49l-2.32-1.85a8.19 8.19 0 0 0-1.1-3.57 31.28 31.28 0 0 0-5.13.25 18 18 0 0 0 2.2 4.92l-1.1 2a12.82 12.82 0 0 0 3.65 2.94zm-2-14.9l-1.1 1.72 3.54.49 1.95-.86a14.71 14.71 0 0 0-1.59-1.85zm6.35-4.19c1.19.11 1.73-.06 1.34-1.23l.24-1.36 1.83.74s.61-.49.61-1c.85-.9 2.72 1.18 3.79-1v-1.85c-1.59-.55-2.07-.48-4-1.23l-.73-1.23v-1l-1.47-.86c-1.95 2.5-1.59-1.07-3.29-1.48-.5-.09-4.1-.82-3.91-1.85a16.1 16.1 0 0 0-3.3-2.58c-1.25-.17-3-.26-3.78 1 .75.16 2.72-.54 2.44.87.12.61-1.46.37-1.46.37-.72 0-2.68-.08-3.3.36.18.35 2.61 1.06 1.71 2.1a10.14 10.14 0 0 0-3.3.12l.37 1.6-1.22.75v1.47l1.59.13V141l1.95 1c1.72-.18 4-1 5.74-.86l1.09 1.23a9.3 9.3 0 0 1-4.14.61l-1.47.75 2.08 1.1 1.1 1.73 3.54.74 2.68-.37 2.44.61zm-1.1 8l1.71 1.84 2.19.86 2.32-.73c0-.83 4.52 1.26 4.76.37.12-.5 1.59-.87 1.59-.87a4 4 0 0 0 3.29.74c.49-.24.12-.37.86-.37h1.95c.24.62-.6 1.37-.12 1.48a3.77 3.77 0 0 0 2.56-.13 7 7 0 0 0 3.42-.73s.12-.62 1-.62 1.46-1.35 1.46-1.35l-.48-1.36-2 .87-.61-1.85 2.07-.37.62-1.73-.73-1.6c.9 0 3.21.08 4.14.13 1.2.54 1.49-1.29 1.23-1.85-2.68-1.75-1-1.5 1-1.48 2.55.63.73-1.45.24-1.85-3.9-.64-2.61-1.91-6.71.74l-.49-1.23 2-.5c-.74-.89 1.44-1.31 1.58-1.59h1.8l.86 1c3.12.64 3.38.51 5.86-1.23l-2.2-1.6 2.44-.12 1 1.1a12.59 12.59 0 0 0 4.27-.86l-1-1.72-1.58-.62h4.51l1-1.1a11.45 11.45 0 0 0 4.15-2c.84-.16 4.43-1.52 4.88-2.46l2.2-.13 1.22-.73-1-1.24c-.75.32-3.15 1.43-4.15 1.24-.43-1-4-.25-4.15-.37l.49-1.11c2.23-.7 5.39-.47 7.69-.5.29-.28 4.75-.91 5-1.35l2.68-.12c.57-.86 1.35-2.37.24-3.08a7.5 7.5 0 0 1-3.9.25l-.49-1.24-2.44-1.23a12.05 12.05 0 0 1-4.4.49l-2.8.74.12-1.11-2.08-.12c-1.18.52-1.77.42-2.44-.74-.9.15-4.13-.89-4.27-.74 0 0 .12 1.85-.36 1.73s-.86.49-1.35-.13-.24-1-1.1-1c-1.45 0-2.21.16-2 1.48-1.67 1.12-4.14-1.91-4.51-1.48-2.42.19-5.56-1.86-4 2.22h-1.1c-1-.42-1.26-1.11-2.56-1.36h-2.2l-.12 1c-1.11.1-4.71-.42-5.13-.25a3.94 3.94 0 0 1-2.32 1l-1.1 1.47h2.81c.73.74 3.54 1.36 3.54 1.36.76-.92 1.44 1.6 1.59 1.6-3.52.54-2.11-1.93-6.84-1.35-3.25-.13-.95-2.7-5-1.73a3.58 3.58 0 0 0-3.78-.61l-.18 1.13c.75 1.79-.48 1.29-1.71 1.35a9.25 9.25 0 0 0-3.17-.62c-1.5 1.72-2.58 1.53-4.76 1.48l-.25 1-2.44-.11-.12 1.1a16.22 16.22 0 0 1 2.44.49l-.12 1.48 2 .37c.42 1.66 2.08 1.39 3.17 1.48.11.2 3.75 1.09 3.91.86.45-.55 1.5-1.81 2-2.34l2.44-.24a8.1 8.1 0 0 0-2.69 2.58l.25 1.48 3.53-.13c2.72.72 2.46.41 4-1.47a36.94 36.94 0 0 0 5.37.25 19.42 19.42 0 0 0 3-2.34l.24-.87c.52.38 3.53-.56 3.79-.86l2.07.25c-1.46-.33-4.71 2-5.36 2.46a18.19 18.19 0 0 1 5 .25l-.73 1c-1.22 0-3.68 0-4.88.13a7.43 7.43 0 0 1-2.57.61c-2.56 1.1-3.57.49-5.73 1v1.23a3.21 3.21 0 0 1 3.29 2.21l3.3.5a10.9 10.9 0 0 1-3.42.12 39.1 39.1 0 0 0-5.49-3.2c-1.89 0-4.4-.32-6.11-.49L196 138c3.2 2.74 7.24 6 11.72 5.67-.8 1.89-2.48-.48-2.08 2.83l-3.05-2.09a12 12 0 0 0-8.3 1.11 13.94 13.94 0 0 0 .12 2.33 17.81 17.81 0 0 0 6.71.13L199 149.1l.61 1.35c2.2.75 4.31-.63 5.73-1.84l-.72 1.59-2 1.36-2.2.12-3.41-1.11c-.93-1.24-4.19-1.38-5.38-1.1.22.76 1.49 2.54 1 3.32a23.29 23.29 0 0 0-2.32.37zm133.23 38.1c1-.17 1.41.91 2.29 1 1.29-.35 1.92 1.07 3.24.74a4.19 4.19 0 0 0 3-1.36 1.72 1.72 0 0 1 1.34-1.1 4.07 4.07 0 0 0 2.07-.37 2.57 2.57 0 0 0 1.59-.5c.59.15.94-.43 1.47-.61.83-.73 1.11-2.31 2.35-2.47.77 0 2.95.27 3.5-.49.39-.52 1.28-.73 1.1-1.48l-.49-.25c-.48.38-1 .59-1.09 1.24a2.49 2.49 0 0 1-2.2-.25c-.31-.24-.24-.77-.61-1-1.92.06-5.2.06-4.64-2.7 1.62-.37 3.89.38 4.76-1.48 1.44.1.51 1.56 1.1 2.34.19.82 1.38 1.43 1.95.61a1.27 1.27 0 0 1 1.1-1.11c.83-.14 1.83.29 2.56-.24a4.68 4.68 0 0 0-1-2.71c-.64-.4-1.52-.59-1.83-1.35-.13-.34.12-.65 0-1-.61-.18-.64-.64-.62-1.23-.56-.43-1.43-.45-1.94-1 .23-.37.38-.58.85-.61a3.81 3.81 0 0 1 1.09 1.35c.67.14 1.41-.2 2.08-.06a19.29 19.29 0 0 0 .12-2.4c.65-1.42.29-1.84-1.28-2-.61 0-1.14 0-1.28.61-.3.26-1.81.08-2.2.13.16-1.1 1.67-.57 1.47-1.6a13.78 13.78 0 0 1-1.47-.62l.37-.37h2.07v1.35c.41-.06 2.13.14 2.45-.12.14-.65.66-.64 1.28-.61 1-.21 1.73 1 2.62.24.2-.37.71-.63.85-1a2.86 2.86 0 0 0-1.58-1.84c-.81-.07-1.4.78-2.2.37-1.51-.89-.39-1.73.86-1.11 1.09 0 2.13.19 3.05-.49.35-.56.25-.58.85-.25.71-.13 2.19.44 2.2-.61a1.54 1.54 0 0 0-1.46-.74c-1.79-.54-1.25-2.41-1.29-3.76a15.13 15.13 0 0 0 2 0v-1.45c0-.65-.71-.74-1-1.32a6 6 0 0 0-.12-1.24c-1.9.37-5.75-1-3.17-3 1.4.11 3.31-.85 4.51.13 1.5 1-1.19 1.83.49 3.94l.61-.25v-3.94c.15-.44.72-.59.85-1a1.85 1.85 0 0 0-1-1.48 2.47 2.47 0 0 0-1.22.37c-.83.13-1.78-.15-2.57-.06v-1.54c.43-.18.6-.05 1 .13a2.38 2.38 0 0 0 1.95-.5c-.53-.92-.8-1.09-1.83-.86a4.72 4.72 0 0 0-3.41-.61 1.77 1.77 0 0 1-.25 1.35c-1.37.26-1.12-1.59-.61-2.34a1 1 0 0 0 .86-.62 10.43 10.43 0 0 1 .24-2.83h1.47c-.13-1 .44-2 1.58-1.85a1 1 0 0 0 1-.37c-.69-1.56.69-3.37 2.19-3.81.68-.06 1.31.35 2 0 .41-.87.45-1.74 1.58-2 .68-.1 1.54.11 1.83-.62l-.12-.58c-.94 0-4.92.12-5.73-.28 1.31.15 1.95-1.7 3.17-.86.91.75 2.22.23 3.29.12.54-.67 1.12-1.46 1.71-2.09 1.46-.31 3 .05 4.4-.5 1-.52 1.59-2.78.24-3.2-3.41-.59-2.38 1.66-6.83-.5-7 .58-1 3.57-8.06 2.84-.36-.67-.89-.73-1.65-.62-1-.3-1.52.61-1.89 1.36-1.06.65-2.61-.21-3.54.86-2.62 0-2.37 3.34-3.9 2.34a1 1 0 0 1 .73-.74 4.89 4.89 0 0 1 .61-1c.22-1.09 1.09-.93 1.89-1.36a10.55 10.55 0 0 1-.06-1.6c.4-.53 1.19-.5 1.59-1a2.18 2.18 0 0 0-.62-2c-1.73-.14-3.64.68-5.37 0 .13.89-.18 1.68 0 2.47-.82.38-1.87-.26-2.92 0-.86.25-1.59 1-2.45 1 .58-3.35 2.39-1.07 4.15-2.46l-.12-.49a5.46 5.46 0 0 0-3.78 0c-1.69.07-4.47.33-6.16-.12-2 .11-3.59 1.38-5.56 1.35-.75.14-1.5.9-2.2.37.56-4.09 8.58-2.18 11.2-2.58.51 0 .63-.31.89-.62 1.46-.33 7.57 0 8.91-.25.43-.1.57-.4.73-.74.54 0 .92-.3 1.46-.25s.67-.13 1-.36c.75-.15 1.44.14 2.2-.13v-1.11l-1.47-.12a1.8 1.8 0 0 1-1 .25c-1.46-1-3.3.14-4.76-.74.58-.33.56-.28.24-.86-.85.05-1.54-.6-2.22.12h-2.39c-.58-.07-.85-.76-1.49-.74h-4.76c-1.27.18-3.34-.49-4.27.55h-4.28l.13-.55c1.17-.12 2.24.68 2.56-.92h14.64c0-2.16-3.31-1.3-4.75-1.79-1.43-.83-3.19-.14-4.76-.25-3.56 0-12.36-1.37-14.65.74-2 .18-4.32-1.07-6 .62 1.72 2.43-1.18 2.62-2.84 1.72h-2.51c-1.14-.36-2-1.52-3.44-1.23-.63-.05-1.2 0-1.47.62-.47.38-1.08.23-1.64.24a2.57 2.57 0 0 1-1.77-.37c-1.84.6-3.81-.11-5.56.93.58 1.51 3 .72 2.63 3.14-.38-.16-.42-.77-.86-.68-.74-.1-1.24-.49-1.95-.61-1.67-.37-2.34.59-.85 1.66a6.84 6.84 0 0 0 3.29.8 5.06 5.06 0 0 1 1.83 1.79c.31.88.4 1.59-.79 1.11-1.61-.47-3.26-1.19-4.88-1.73-.56-.14-.92-.65-1.47-.86-.3-.23-.41-.67-.85-.56a3.56 3.56 0 0 0-2.26-.25 8.26 8.26 0 0 0-4.21-.58c0 .62.68 1.27 1.22 1.51a.74.74 0 0 1 .55.12c.89.94 2.06 1.89 2.07 3.33a2 2 0 0 1-1.95-.8c-.82-.45-1.52-1.1-2.32-1.6-.54-.75-1.44-.44-2.07-1-.31-1-1.75-.82-2.63-.86-.15.81.59 1.31.73 2a11.6 11.6 0 0 0-.12 1.17c-.3.59-.4 1.29-.73 1.85-.86.26-1.93-.55-1.53-1.48.6-1 1.44-1 .49-2.15-.18-.14-.29-.25-.24-.5.19-.42-.19-.75-.55-.92-.56-.49-1.16-1-1.89-.56-1.11.26-1.89 1-3 1.3-.59.47-1.82.07-2.55.18-.51 0-.87.42-1.37.43-.82.07-2.65-.45-2.8.62.11.47.76.34 1.16.37.77.08 1 .84 1.41 1.35.73.36 1.15.21 1.76.43.43.56 1.26.49 1.66 1.11l-.19.25a4.54 4.54 0 0 1-3.48-1.36 8.39 8.39 0 0 1-1.65-.12c-.42-.54-1.21-.43-1.77-.86-.44-.26-.52-1-1.09-.92-1.26 0-2.07.9-3.24 1.16-.66.46.17 1 .37 1.48a13.1 13.1 0 0 1 .09 2.28c-.79 0-2.11.16-2.59-.61-1.11-.15-1.88-.06-3-.12-.42.15-.35.73-.74.92-.6.1-1.07.49-1.71.49-.5.25-.77.88-1.28 1.17-.43.47-1.16.12-1.71.31-.57-.11-.87.54-1.4.61.08.71-.8.27-.92.8a2.14 2.14 0 0 0-.55.87c-.48 0-.55.38-.42.8.71.05 1.62 0 2 .68a5.68 5.68 0 0 0 2.5-.25c1.24-1.29.82.64 1.1 1.29.44 1.11.24 2.72-1 3.26-1.15 0-2-.24-3 .37-1.55.77-3.37-.76-4.89.19-.07 1.44-1 1.33-2.18 1.29-1.25 1-2.82 0-4.16.68-1.61.19.32 1.63-2.5 1.29a1 1 0 0 0-.07 1.66 2 2 0 0 1 .74.87c.89.05 2.33-.09 2.68 1h2.44c.39.27 1.25.5 1.59.74.38.43.9.28 1.41.37a3.32 3.32 0 0 0 2-.43c1.13.11 2.31-.33 3.41-.21 0 .49.17 1.48-.49 1.63s-.82.66-1.28.67c-.7 0-1.19-.48-1.93-.37-.78-.09-1.3.52-2.11.37s-1.51-.5-2.32-.24v.61c-1.36-.13-3 .16-1 1.42a14.56 14.56 0 0 1 4 1.42c-.44-.07-.93 0-1 .49.16.38.59.29.91.49s.39.74.74.87c1.23.33 2.55 1.78 3.78 1-1.38-1.69 0-1.16 1.28-1.23.52.11 1 .66 1.53.5v-.5h1a2 2 0 0 0 1.85.37c.29-.49.89-.54 1.4-.62.34-.42.86-.83 1.41-.43.63.71 1.63.46 2.49.55a8.7 8.7 0 0 1 1.59.87 13.64 13.64 0 0 0 1.94.06c.87 0 1.32 1 2.21.8.63-.17.7.46 1.16.74.58.47 1.82 0 2.08 1-.42 4.07 2 1.65 2.68 4.23 1.18.91 1.75 2.4 2.51 3.77.32.32 1 .44.91 1 0 .3-.19.49-.25.74.06.47.67.64.68 1.12v1.26c-.24.4-.65.68-.43 1.22H269v1c-.45-.08-1.12 0-1.17.55a1.84 1.84 0 0 1 .12 1.66H267v1c.21.83 1.08.89 1.83.86a12 12 0 0 0 3.41.25 1.42 1.42 0 0 1 .25-1c.69-.13 1.29.1 1.95 0 0 1.39.91 2.79 2.44 2.52a3.19 3.19 0 0 1 2 1.85l-.13.5a5.89 5.89 0 0 1-1.58-.13 8.21 8.21 0 0 1-2.44-.12c-.48-.11-.51-.35-.61-.74-1.33 0-2.77-.57-4 .13.17.56.27 1.08.85 1.35s.55.53.25 1c-1-.14-2.6.95-1.71 2 .45.34.91 0 1.46.13 1.06.08 1.41 1.46 2.32 1.6 1-1.08 1.34-1.46 3-1.23v-1.73a14.64 14.64 0 0 1-1.89-.12c-.24-.79-.54-.36-1.22-.62l.24-.49a2.36 2.36 0 0 1 2 .49c.48.35 1 .23 1.58.37.82.07 2.35-.33 2.44.87.11.4-.28.39-.48.61s.06.34 0 .49-.49.22-.49.49c-.09.59.56.83.85 1.24s.21 1.55.25 2a7.74 7.74 0 0 1-1.83-.13 3.1 3.1 0 0 0-.86.87c-.29.06-.77 0-1.1 0a.84.84 0 0 0-1-.06v2.4c-.77 0-1.28-.85-1.65.12a5.46 5.46 0 0 1-1.46.49 1.84 1.84 0 0 0 .11 1.73c.42 1.29 2.71.6 2.57 2.46-1.46-.06-1.67 1.3-.73 2.22.42.63.44 1.81 1.46 1.6.57.1.84-.23 1.1-.62a2.11 2.11 0 0 1 1.46.25c.14 1.44-.33.7-1.1 1.23.15.69-.45 1.09-.73 1.6a3.48 3.48 0 0 0 .86 2.22c2 .52 1.39-2.07 3.29-1.35v2c-.39.74-1.33.67-1.83 1.35-.5 1.07.41 1.7 1.1 2.34a7.31 7.31 0 0 0 1.59 1.85c.33.67.29 1.38.85 2a2.4 2.4 0 0 0 1.71 2.09c1 1.32-.4 2.12 2.2 2.46a3.55 3.55 0 0 1 1.34 1.24c1 .23 1.92-.71 2.93-.25 1.27-.22-.21 2 2.93 1.72.43.12.52.63.61 1 .41.88 1.67.42 2.44.49.88-.71 1.73-.58 1.47-2-.47-2.21 2.55-3.09 1.46-5.29.21-.69.25-1.53-.49-1.85-1.4-2 1.62-1.63 2.81-1.73-.08-.88-.08-1.8.85-2.21a1.12 1.12 0 0 0 1-.37v-2.46c1-.61.17-1.55 0-2.34-.1-.16-.49 0-.49-.25-.12-1.41 2.08-.35 2.68-1.48.08-.49-.09-1 .13-1.48h3a6.37 6.37 0 0 1 0-1.85h1.71a8.43 8.43 0 0 0 0 2.07c3 .27 2.25-1 4.33-2.19a4.77 4.77 0 0 0 2.44-.37c-.18-1 .95-1.54 1.71-2 .31-1.08 1.38-1 1.71-2.09.07-.87 1.5-.36 1.22-1.36 1-1.2 1.65-.36 1.34-2.58v-.1m-68.87 66.24c-.93-.76-2-.21-2.93-1-.63-.59-.95-1.26-1.95-1l-1 .49c2.23.86 3.86 5.59 5.86 1.48m13.19-5.43c-1.54.24-.83 1.6-1.23 2.71-1.26 2.91-6 4.81-4.88 8.38h7c1.72.23 2.24 2.42 4 3 1.3-.53 1-1.47 1-2.71-.51-1.18 0-2 .74-3l-.25-1c-1.68.29-2.78-1.26-3.91-2.21-1-.38-2-.06-2.92-.74a6.63 6.63 0 0 1 .73-2c1.33-.4 1.53-1.33.73-2.47-.37.07-.67-.18-1 0m75.18-49.26c.87-.61 2.09-.87 2.69.25 1.1.35 1.1.61 1 1.72a9.15 9.15 0 0 0-4.87 0l.24 1.48c.68-.21 2.63-.55 3.17 0 0 .74-.06 2.36.49 3a39.5 39.5 0 0 1 5.85-.25 2.81 2.81 0 0 0 3.18 1.48c1.67.37 2.52-.64 3.17-2a2 2 0 0 1 1.95-.74c1.63-2.12 4.15-1.85 6.6-1.73v-2a2.05 2.05 0 0 0-2.44-1.48 3 3 0 0 1 .48-1.9c0-.5-.24-.81-.24-1.3-.78 0-2.74-.14-3.42.25a29.29 29.29 0 0 1-2.68 1.72 9.41 9.41 0 0 0-4.88-.24 6.2 6.2 0 0 1-4.15 1c0-1.16.23-2.11-.74-2.95l-1 .24v1c-1.84-.94-6.58-.51-5.36 2.47.36-.06.67.06 1 0M224.18 337.79c-3.16-4.84-5.34-2-9-3.58-1-1.6-3.06-2-4.64-2.95-.74-1.73-2.35-.84-3.9-1a1.73 1.73 0 0 1-1.95.25c-1.22.06-3-.1-4.16 0a1.73 1.73 0 0 0 .25 3c3.61 2.16 5.25-3 9 .5.37.81.45 1.18 1.47 1.23a3 3 0 0 0 2.2.49c1 .74 1.73 2.18 3.23 2.1zm-4.4 5.54c-.08-1.11-.25-1-1.22-1.23-.63-.77-3.06-.44-3.91-.5.37.5.43 1 1 1.24 1.05-.13 2.26.22 2.2 1.48a1.75 1.75 0 0 0 1.95-1m11.47.74a3.22 3.22 0 0 1 3.91-1c1.6-.43 3.23-.13 4.88-.49 1.87-.68 4.11 1.13 5.86-.25-1.36-.45-1-.68-1-1.91a8.1 8.1 0 0 1-5.37-.05c-1.05-.12-1.19 1.12-2.44.73-.91.2-1.3-.2-2-.73a3.91 3.91 0 0 1-1.95-1c-2 0-3.9-.47-5.86 0v2.95a7.43 7.43 0 0 0 2 1.73c.56 0 1.44.06 1.95 0m-6.1 159a2 2 0 0 1-1-.36c.07-.71-.26-1.8-1.1-1.11v1.47c-.55.07-1.12.1-1.23.74-1 .35-.16 1.42.62 1.48a1.3 1.3 0 0 1 1 0c.48-.09.63.1.86.49 0 .52-.46.63-.61 1a1.52 1.52 0 0 1 .24 1 3.49 3.49 0 0 1 2.32.62 1.32 1.32 0 0 0-.24 1 4.63 4.63 0 0 0-2.45.37c-.75-.13-2 .2-1.95 1.1a2.51 2.51 0 0 1 .24 1.48c.35.21.86.42.86 1v.25c-1.49 1.4.46 1.47.61 2.82 0 .22-.49 0-.49.25a.89.89 0 0 0 .12.49c.4.34 1.21.27 1 1l-1 .5.25.61a3.59 3.59 0 0 1 2 0c.08.75-.52.85-1.1 1.11.39.5.69 1 1.34.86.47 0 .53-.16.49.37l-.49.37c.32.56 1 .74 1 1.48-.19.43-.11.68.37.86 1 .46 2.2.61 2.19 2 1.6.74.81.32 1.1 1.85 3.15.11 1 .39 2.81 1.6a4.94 4.94 0 0 1 2.93.86c.66.12 1.44-.25 1.95.37.81.38 4.29-.19 5 .37.24 0 .3-.22.48-.37.11-1.33 1.4-.76 2.32-.92 0-.72-.12-1.09-.85-.93-1-.79-2.36-.46-3.54-.74v-1.11c-2.06.35-2.24-.69-2.32-2.46.13-.5-.15-.6-.49-.86a2.23 2.23 0 0 1-.24-1.48c-.44-.57-.09-1.32-.37-2 0-.52-.71-.68-.82-1.11.17-.57.41-1.21 0-1.72a17 17 0 0 1 .12-2.77h2.44c.08-1-.63-2.75.86-2.9.53-.11 1.22.05 1.46-.61.76-1.37.69-3.58 2.68-3.58.19-.09.13-.36.25-.49v-1c-.79-.3-1.63.19-2.32-.38-.13-.35-.19-.83-.61-1-1.7-.27-2.81-2.86-1.22-3.94.73-1.29 3.22-.77 4.39-.86v-2.74c.38-1.05 1.82-2 1.23-3.3 0-1.25 1-.95 1.83-.73a1.35 1.35 0 0 0 1-2.22c-.89-.27-1.16.91-1.95.73-1-.23-.94-.29-.87-1.29a14.49 14.49 0 0 1-.25-3 2.81 2.81 0 0 1 1.83.37c.43.22.52.74 1 .74h3c0-.21.25-.28.25-.49s-.34-.28-.37-.49c-.05-.73-.06-1.52.73-1.72.19-1.22-.72-2.31-.49-3.58 1.87 0 4 .08 5.77-.61H260c.56.07 1.09.76 1.5 0a4.75 4.75 0 0 1 2.8-3.45 4.14 4.14 0 0 0 1.23-3.45 2.16 2.16 0 0 1-1-.13c-.08-.75.32-2-.61-2.33-.83-.74-2.49-1.26-2.44-2.47a9.39 9.39 0 0 1 3.05.25 5 5 0 0 0 3.91 1.35c.53-.9 1.57-.32 2.44-.49.42-.42 1.11-.38 1.34-1 .83-2.9 3.13-1.45 2.8-4.43a3 3 0 0 0 1.23-2.95c0-1.09.93-3 2.19-2.22-.32 1-.92 1.41-.24 2 1.53-.28 1.35-2.11 2.44-2.94.87-1.05.74-2.46 1.58-3.46 2.95-.37 2.26-3 1.84-5.05-.54-2.53-.07-4.06 2.56-4.92a10 10 0 0 1 2-2.59c.25-.65 2.42-.28 2.9-.37 1.06-.18 1.47-1.32 2.23-1.85h6c.18-.65-.11-1.39.61-1.72a.71.71 0 0 0 .73-.62c.53-.77 1.4-1.49 1.34-2.46.21-.68.87-.53 1.35-.74.47-1.21.22-2.83 1.1-3.94.6 0 .76-.62 1-1.11.09-1.31.12-2.64.25-3.94a11.31 11.31 0 0 0 1.1-3.08c0-2.29-.53-4.94-.37-7.27a3.6 3.6 0 0 0 3-2.09 3.69 3.69 0 0 1 .85-2.1c.94.13 1.41-.42 2-1.1 1.08-.27 1.68-2.66 2.19-3.7.26-.35.72-.39 1-.73a3.2 3.2 0 0 1 .37-1c1.68-1.84-.32-3.6-.86-5.42.45-3.83-1.8-2.83-4.39-3.2-1.88-.53-3.55-.58-3.54-3.08-.45-.48-1.18-.69-1.59-1.24a3.08 3.08 0 0 0-2.47.13h-3c-.73.07-1.05-.53-1.62-.86a3.69 3.69 0 0 0-2.68-.25 12.29 12.29 0 0 1-.06 1.48c-.93 0-2.57 0-2.75-1.11.29-.65.89-.51 1.34-1l-.24-.49c-1.75.05-2.72-1.6-4.28-2.09-1.77.23-3.11-1.45-4.93-.87v2.34h-2a2.61 2.61 0 0 1 1-2.46c.7 0 .6-.52.61-1.1-1.6-.12-2.92-1.5-4.64-.87.27 1.42-.35 2.67-2 2.09a16.4 16.4 0 0 0 0-2c.76 0 2 .16 2.16-.73 0-1.36.38-2.65.13-4-.58.15-1.05-.11-1.59 0a10.82 10.82 0 0 0-.37-3.75c0-.66-.79-.81-.61-1.48-.34-.75-1.58-.58-2.27-1.14-.72-.08-.49-.84-.85-1.23a3.57 3.57 0 0 1-1-.37c-.29-.68-.78-.55-1.46-.5-.62-.11-1.13-.63-1.71-.85-1.37-1.19-1.66.83-3.11.36-2.43 0-7.24-1.56-6.53-4.68a3.47 3.47 0 0 1-2.56-1.23c-.16-.15-.37-.09-.49-.24s.12-.4 0-.5a1.75 1.75 0 0 1-1.71-2.34c-2-.07-3.9 2.26-3.67-1.23a1.74 1.74 0 0 0 1.1-.49c-.38-.86-1.4-.84-2.19-1.11l-1.1.86c-3.77-1.58-1.59 1-3.79 2-.78.13-.78-.65-1.22-1.11-.73-1.37-3.3-.88-4.6-1a5.35 5.35 0 0 0-1.75-.49V359a2.49 2.49 0 0 1-2.43-1 16 16 0 0 0-2.2-.49c.15 1.17-.23 2.42-1.59 2.09-.51.49-1.79.86-1.34 1.73.17 1.18.73 2.41.12 3.57a4.16 4.16 0 0 1-1.71-3.08c-.08-.74.62-1.18.61-2-.59-.77-.3-1.43.49-2 .54-.29.74-.94 1.34-1.11l-.24-.49c-1.56-.08-3.17.13-2.69 2.1h-2.77c-1.59.94-3.27 2-5.28 1.84v2.83a2.48 2.48 0 0 1-2.44.87c.23.86-.6 1.39-.49 2.21-.41.45-1 .67-1.47 1.11-.39.2-.56.4-.48.86-.25.28-.64.49-.52 1 0 0-.16.46 0 .49a4.57 4.57 0 0 1 1.09.13c-.76 2 2 4.49.24 5.79-1.52.61.41 2.79-1.09 3.57-.31.77-1.13.43-1.83.61l-.13.74a1.05 1.05 0 0 1 .37 1 11.74 11.74 0 0 0-1.47.85l-.11 1c-1.62.08-2.38 1.39-2.2 2.94h-2.08c.51 1.75-.72 3.55.37 5.06a2.79 2.79 0 0 1 2.32-.37v1c-.28 1.06-1.5.76-2.32 1 .64 2.69-3.55 1.53-.85 4.93.13.85-.37 2 .36 2.58.58.52 1.38 0 1.95.49 1.3.39 1.27 2.09 2.32 2.72.51.72.07 1.67.49 2.46a3 3 0 0 1 .85.86c1.22.53.12 2.26 1 3.08a1.57 1.57 0 0 0 .74.86c.88.84.39 2.08.73 3.08.13.66.8.61 1 1.23 2.37.89 1.54 2.18 1.83 4.19.71.39.82 1.18 1.23 1.85 1.06.71 2.18 1.69 3.54 1.48 1.45 1.28 2.81 2.69 4.76 3.32s2.12 3.78 4.48 3.21v5.14a8.21 8.21 0 0 0 0 3.69c.07.34-.13.52-.24.77a1.52 1.52 0 0 1-.25 1 5.72 5.72 0 0 1 0 1.6 3.61 3.61 0 0 1 .25 2 2.08 2.08 0 0 0-.37 1.72c.79.92.1 2 0 3.08a11.4 11.4 0 0 0-1.46 4.19 13 13 0 0 1 .12 3.45c-.39 1.37-1.8 2.24-2.08 3.63-.18 1.66 1.38 2.59 1.34 4.26-.58 2 0 4.47-1.46 6 .18 1.11-.84 1.74-1.46 2.46 0 1.09.07 2.17.12 3.2-.36.74-1.18 1.25-1.22 2.1-.72.6-2.38 1.65-1.1 2.46.12 1.18.65 2.26.49 3.51.41 2.82-2.68 2.61-.74 5.36.34.49.64.91.37 1.48a1.4 1.4 0 0 0-1.71 1.47 2.06 2.06 0 0 0-.36 2.46c.36.17.64.48 1 .62h1.56l.36-4.43h1.84v1.47c-.27.58-.95.67-1.23 1.24v2.58c-1.92 1.35-.3 3.58-1 5.43-.72-.36-.65-.86-1.4-1a10.14 10.14 0 0 0-.13-2c.1.45-.4.22-.73.25v1.47c.44 0 .6.22.73.62 1 .52.81 1.84.85 2.83zm248.26-188.53c-1.8-1.83.77-3-2.68-4.19-.3-.12-.67.06-1 0s-.55-.68-1-.74c-1.38-.27-2.11 1-3.42 1l-7.08-1.73a4.43 4.43 0 0 1-3.42.25c-1.77-1.73-3.74-3.59-6.34-3.7-1.41.19-2.52.85-3.91.13-.14 2.2.52 4.08 0 6.28-7.36 1.42-.61-2.84-11.47-2-.75-3.32-4.54-4.05-7.57-3.94-2.44-.79-6.24-3.39-2.68-5.42 1-1.8-1.14-2.32-2.2-3.21.48-1.16 1.57-1.22 2.68-1.47-.05-1-.3-1.13-1.22-1.23-1.8-1.29-4-.47-5.86.24-2.36 0-4.14-.47-5.86 1.48-2.32-2.35-3.47-3.39-6.59-1.23a1.76 1.76 0 0 0-1.95 1H397c-1 3.27-1.62 2.72-4.64 2.71-.87.75-1.89.44-2.93.25-1.8 0-3.54.43-4.88-1l-1-.49c-1.12 1.19-.93 3-1 4.56-1.25-.21-2.37.27-3.66 0v4.06h-3.66c-.06 3.07-1.12 5.77-1 8.87h-2.92c0 1.59-.56 3.12-2.2 3.2-.37.25-.31.8-.73 1-1.21.54-2.05-.37-2.45 1.23a21.39 21.39 0 0 0-2.68 5.42 4.65 4.65 0 0 0-1.71 3c-.79.13-1.76.08-2.69.24-.07 2 .6 4.8-1.45 5.91-.25.19-.68.07-1 .25s-.24.68-.48 1v1.72a22.41 22.41 0 0 0 3.9.25c.43.06.37.74.73 1-.21.81-1 1.31-1.22 1.91-.33 2.84 1.29 6.66-.49 8.93-.93.08-1.11-.37-1.21 1a10.33 10.33 0 0 1 1 2.95c.05 1.43-.34 3.07 1.22 3.7.32 1.24 1.55 1.45 2.44 2.21 3.7-.44.72 3.44 4.4 3 0 1.49-.54 2.88.73 3.94 1.76.7 3.26 2.24 5.37 2 .68 1.24-.61 3.11 1.22 3.45 1.49.59 2 2.28 3.66 2.71 1.26-.2 2.11.83 3.42.74.9-.07 1-1.35 1.22-2 .81-.56 2-.22 2.93 0a4.45 4.45 0 0 1 1.59-.25 32.15 32.15 0 0 1 3.54 0c.36.12.12.8.49 1 2.2.85 4.44-.2 5.85-.25 1.09-2.75 3.79-2.73 6.35-2.21h.49a4.92 4.92 0 0 1 3.78-1.48c1.13-.2 1.82.08 1.83 1.23.92.75.88 1.94 1.22 2.95 1.21 1.35 8.88.53 10.5.74.1 2.17-.31 4.77-.24 6.89-1.28 1.35-1 3.18-1.22 4.94-.19 2.19-1.13-.21-1.71 2 4.86 1.8 2 .49 3.66 4.18 1 .36 2.23.34 2.19 1.73.76 1 1.78 1.7 2.2 3 2.13 2.25 1.41 4.48 2.2 7.14.12.43.67.55.73 1s-.24.62-.24 1c-.37 4.53 2 2 1.46 4.92.63 3.7-2.4 4-2.93 7.15.64 4-2.28 3.1-1.7 6.9-.3 2.46.32 3.43 2.19 4.68a5 5 0 0 0 3.18 5.42c-.22 1.16.59 2.09.73 3.2.06.3-.06.67 0 1s.73.49.73.92c0 3-.31 7.41 1.47 9.91.79 1.17 2.07 1.42 2.68 2.71-.1 1.76.87 3.3 1.47 4.93 1.6 1.93 2.16.71 2 3.69.16.77.91 1.34 1.22 2 .19.87-.45.81-1 1.23-.49.62-1 1.15-.73 2a4.75 4.75 0 0 0 1.95.25c0 .68-.06 1.36 0 2a7.91 7.91 0 0 0 2 1c1.58-.06 5.45.33 6.77-.74 1.36-.78 6.51-.42 8.06-.49.18-.44.54-.56.73-1s-.25-.81 0-1c1.74-.74 4.67.45 5.61-1.72-.12-1.05 0-1.1 1-1.48a8.19 8.19 0 0 0 3.66-4.68c.7-1.15 2.25-1.55 2.93-2.71a2.65 2.65 0 0 1 1.22-2c1.69-1 1.22-3.25 1.22-4.92a4 4 0 0 1-1-2c.8-1 1.82-.72 2.93-.75a16.76 16.76 0 0 0 2.69-2.7 4.37 4.37 0 0 1 2-1c.21-3.45-1.3-6.82-2.68-9.85 0-.56.67-.62 1-1a9.14 9.14 0 0 1 1.71-2c.25-.12.74-.12 1-.24a6.12 6.12 0 0 1 1.47-2c.68-2.58 3.87-1.5 5.36-2.95 4-1.32 3.34-5.74 3.42-9.11-.75-.66-.44-6-.48-6.91-1.55-.79-1.7-2.45-2.45-3.93.66-1.46.15-2.55.49-3.95-.28-.82-1-1.54-1-2.46A16.16 16.16 0 0 0 489 397a13.14 13.14 0 0 0 3.42-3.7 3.68 3.68 0 0 1 1-2c.35-1.38.83-3 2.2-3.69 1.94-1.67 3.71-3.67 5.62-5.43 1-.58 2.13-1 2.44-2.21.24-.37.67-.37 1-.74s0-.8.25-1c1.54-.3 2.5-1.63 3.9-2.22 1.23-1 1-2.54 1.47-3.94 1.52-1.51 3.62-2.45 4.63-4.43a16.77 16.77 0 0 0 .25-4 14.62 14.62 0 0 0 .73-5.17c-3.08-1.33-4.72 2.07-7.56 2.22-2.62-1.19-5.48.54-8.06-.74a8.93 8.93 0 0 0-1.22-2c.15-1.43-.05-.84-1-1.48l-.48-1a1.38 1.38 0 0 0-1-1.73c-1.86.42-2-2.07-3.67-2.46-.84-2-2.5-.92-3.66-2.22-1.37-1.27-1-3.31-1.46-4.92a12.54 12.54 0 0 1-3.18-3.7c.41-1.64.56-3.66-.73-4.92-.72-1.31-1-3-2.44-3.46-1.06-1.43 0-3.34-.73-4.92s-2.44-2.3-2.93-3.95c.69-4-3.37-5.54-4.4-8.86M513.94 432c-.76-2.36-1.05-2.65.25-4.93a22 22 0 0 0-.25-2.46c1.93-1.11 1.07-2.79.73-4.69 0-1.06.05-1.93 0-2.95a5.78 5.78 0 0 0-2.93-1.73c0 .72.06 1.3 0 2-1 .73-1.72 1.74-2.68 2.46a5.29 5.29 0 0 0-.24 2c-1.85.14-.72 1.27-1.72 2.22-1.86.12-4.25-.33-5.85 1-.15.64.09 1.33 0 2-.19.8-1 1.1-1 2 .48 1.43-.25 2.89 1 3.95.28 4.28-.56-.27-2 3.94-.12.67.19 1.29 0 2s-.94.76-.73 1.48a17.11 17.11 0 0 1 1 6.28 11.49 11.49 0 0 0 2.93 0c.69.79-.07 1 1.46.86a2.45 2.45 0 0 0 1.95 0c1.24.06 2.22 0 2.69-1.23 1.19-1.74-.09-4 .73-5.91 2.1-2.09 1.35-3.27 1.47-5.92.66-1 2.57-1.22 3.17-2.21M383.34 244.43a1.1 1.1 0 0 0 1.1-1.73 1.51 1.51 0 0 1-.62-1.48.93.93 0 0 0-1-.37c-.26-.13-.38-.46-.73-.37s-.81.3-1.23.37a1 1 0 0 1-.73.74c-.62-.13-.59-.85-1.22-1l-1.16.12c.12.61-.14 1.13 0 1.76 0 .3-.29.82.19.7a10.17 10.17 0 0 0-2.44.62c-.25 0-.28-.31-.49-.37l-.55.12v3.52a6.51 6.51 0 0 0 1.65 0v1.53c-1.62 0-1.71.63-1.71 2.1a.8.8 0 0 0-.49 1.23 1.85 1.85 0 0 0 1.22.62 1.61 1.61 0 0 1 1.95-.07c.5-.08.84-.5 1.22-.8-.09-.48.13-.64.49-.86H383a3.44 3.44 0 0 0-.37-1.73 1 1 0 0 0 .74-1.23c.04-1.12.01-2.25-.03-3.42zm2.07 12.68c.78-.22 1.94-.25 2.2-1.11a3.32 3.32 0 0 1 1 .37h1.43a6.55 6.55 0 0 1 .12-1.32c1.18.08 2.24.09 3.42.09.67-.35.67-1.19 1.59-.74.67.44 1.12 1 1.95.62.7-.07 1.45.24 1.95-.37.17-.93 1.15-.2 1.71-.74l.12-.5c-.51-.52-1.35-2-.12-2.09.71.2.58-.49.73-1h1v-1a1.47 1.47 0 0 1-.85-1.48 5.82 5.82 0 0 1-1-.61l-.49.12c.36.68-.48.79-.73 1.35-1.43-.12-.59-1.89-1-2.82H397c.29-1.11.29-2.82-1.22-2.72-.18-.09-.1-.37-.24-.49-.54-.07-.52-.09-.49-.62-.23-.66-1.18-.58-1-1.35-1.27-2.93-2.63-.77-3.91-2.46.18-.6.8-.74.85-1.36a3.4 3.4 0 0 0 1-.12c-.21-2.59 1.5-.31 1.09-4.19h-4.76c.14-.62.93-.68.73-1.35-.11-.45.12-.68.49-.87a1.46 1.46 0 0 1 .86-.74c-1-1.23-3 .08-4.4-.46a2.57 2.57 0 0 1-.55 2.07c-.18.57.19 1.12 0 1.72a2.16 2.16 0 0 1-2.26-.49c-1-.07-.84 1.26-.61 1.84a3.3 3.3 0 0 0 1.47.5c-.33.43-.2 1-.36 1.48 1.06 1.69-2.22.54-1.35 2.46h1a.82.82 0 0 1 1-.12c.13.06-.09.34 0 .49s.37.19.5.37h1a1.37 1.37 0 0 1 .24-1l.49.37c-.43 1.31 1.51 1.82-.73 2.47a1.06 1.06 0 0 0 .36 1h2.44l.25-.49c.59.16.77.79 1.1 1.23-.53 1-.08 1.73 1 2l-.25 1c1 1.53-.21 1.62-1.47 1.48-.49-.55-1.27-.39-1.95-.38-.74.79 0 1.15-1.46 1l-.13.49c.66.83 1.58-.2 2.45.25 0 .51.06 1.2-.61 1-.7.45-.67 1.2-1.71 1a1.67 1.67 0 0 0 .24 1.48c1.28-.07 1.57-1 2.93 0 .73.17 2-.48 2.2.49-.42.91-1.6.66-2.44.74-.44.09-.57.41-.73.74a5.33 5.33 0 0 0-1.47.25 1.75 1.75 0 0 1-1.59 2.21c.22.07.25.37.49.37m-2.56-27.59c-.58.24-.81.84-1.46.86-.25.75-1.29 1.08-1.11 2l.5.24c.65-.14.79-.85 1.21-1.22.5 0 1.19.09 1-.63a2.49 2.49 0 0 0 .61-1.48c-.15 0-.58.22-.73.25m355.8-2.34c.79-.44 6.32-.4 7.32-.37 0-.83-.22-2.09.73-2.46a1.87 1.87 0 0 0 2.2.57c.58 0 .87.41 1.23.74a1.67 1.67 0 0 1 1 .49c.06.51-.45.61-.61 1 0 .54.15 1.06.77 1 .88-.1 3 .41 3.38-.73 1.12-2.05 1.39-.31 2.57.49a1.29 1.29 0 0 1 .24-1c.43 0 .66.35 1 .49H760c.16-.58-.43-.85-.49-1.42a5.1 5.1 0 0 1-1.46 0c0-.74-.21-1.86.73-2.15.48 0 .63-.06.86-.49a6.07 6.07 0 0 1 1.46-2 1.17 1.17 0 0 0 1.34-.86c4-5.71 3.92-1.18 6.22-3.45.63-.14.55.76 1 1s1.06 0 1.47.49a.93.93 0 0 0 .24 1.72 12.18 12.18 0 0 1 0 1.48l.74.13c.89-.44 1.31-1.52 2.44-1.6.72-.45 1.13-1.28 1.71-1.85a7.15 7.15 0 0 1 1.46-.13c.81-1 .64-2.27 1-3.44a3.84 3.84 0 0 0 2-.37h2.41v.73c-.62.69-2 .79-2.44 1.6-.58 1.23-.66 3.46-1.59 4.56-.5.16-1.08.32-1.59.5-.14.28-.12.67-.24 1-2 2-5.14 2.91-6.71 5.42-.24.61-.93.69-1.34 1.11-.1.33-.18.92-.62 1a6.09 6.09 0 0 0-3.17.87c-.59.38-1.6.11-1.83 1a1.89 1.89 0 0 1-.36 2.59c-.58.28-.64.93-1 1.48a3.08 3.08 0 0 1-.61 2.58c-.27 2.61.15 4.79.25 7.39.08.55 0 .95-.49 1.24l1.28 2.09v3.94c.51.26.63.33 1-.13.81-.19 1.43-.65 2.32-.49 0-.87-.32-1.81.36-2.46.35-.19.71-.33.86-.74.61-.5.62-1.78 1.46-2 2.88 1 2.27-1.25 2.33-3.2a6.65 6.65 0 0 1 1.34-1.36h3.54c0-.73.11-1.79-.49-2.34a1 1 0 0 1-.37-1c-.14-.89.87-1.29 1.1-2.09a.8.8 0 0 1 1.22-.38 1.11 1.11 0 0 0 .61.87h1l.12-1c-.59-.81-1.52-1.2-1.22-2.34a3.67 3.67 0 0 1-.37-2.09 8.46 8.46 0 0 0 1-.37 1.08 1.08 0 0 0-.36-1c-.16 0-.34-.06-.5 0s-.15.5-.39.5h-.94a4.51 4.51 0 0 1 1-3.08c.67-.34 1.44-.59 1.47-1.48.64-.92.16-2.08.6-3.08a1.45 1.45 0 0 1 2.32-.25c1.09 2.13 1.86-.09 2.93-.61.13.19.4.15.49.37a1.07 1.07 0 0 0 .37 1c1 .08 1.67-1 2.19-1.72.45-1.05 2-.35 2.84-.25h3.51c-.08.94-.09 2.52 1.22 2.34-.35-1.74 1-2 1.83-3.08s1.17-2.4 2.56-2.46c.84-.6 2 .14 2.81-.49.54-.25 1.08-.33 1.59-.62.26-.53.55-1.08 1.22-1.11 1.08-1.26 2.48-.76 3.79-1.47.53-.5.78-1.17 1.46-1.48 1.28-.06 2.62-.17 3.42 1a6.07 6.07 0 0 0 3 .13v-1.48a2.61 2.61 0 0 1-1.34-1.73 4 4 0 0 1-1-3c-2.11.63-1.08-1.95-2.59-1.85-.64-.19-3.26.53-3.15-.62a1 1 0 0 1 .86-.61c.21-.12.24-.44.48-.49s.71 0 1 0c.46.05.52.74 1 .74h3c1.07-.21 2.26.23 2.84-1 .41-.59 1.3-.58 1-1.48.1-.57.09-.84-.49-.86-.23-.28-.1-1.63-.13-2 2.8-.78 2 1.47 3.42 2.83 1.69.21 6.56-.94 5.61 2.22 1.11 0 3.15-.35 3.67 1 .82.4 2.29 1.86 3.05.87a3.76 3.76 0 0 1 0-2 6.62 6.62 0 0 0 1.34-.13c.32-1-.79-2.76.49-3.2 1.55 1.42 2.35 1.58 3.79 0 .17-.44.23-.56.73-.49.38-.39 1.16-.43 1.1-1.11-.2-.95-1.5-.92-2.2-1.11-.25-1.56-2.07-1.93-3.36-1.36a10.93 10.93 0 0 0-2.5-.24c-.45-.12-.6-.7-1-.86-.58 0-1.17-.13-1.58.36.24.71.85.35 1.34.74.21.2-.07.68 0 1 .21 1.31-1.6 1-1.95 0a20.81 20.81 0 0 1-.12-3.47c-.67-1.19-2.39-.92-3.55-1.21-.3-.25-.49-.62-1-.61-1.06-.44-2.45-.87-2.69-2.1a14.11 14.11 0 0 0-3.78-.49c.38-1.71-1.49-1.94-2.32-3-.79-.47-1.83 0-2.56-.49-.52 0-.75-.45-1.1-.74a1.52 1.52 0 0 1-1-.25 6.64 6.64 0 0 1-3.78-1.35h-2.2c-1.11.75-1.8 1.12-3.17.61a1.55 1.55 0 0 1-1.59-.61c-1.73.05-3.23-2-5-.86-.6.17-.46.4-.36.86-.4.47-.55 1.09-1.1 1.48 1.09.23 2 1 1.71 2.21-.23.34-.6.57-.73 1s-2.15.18-2.57.24v-1.78H791v-1.66a3.47 3.47 0 0 0 2.87-.74l-.12-.49c-.67-.42-3.47-.31-4.27-.31.18 1.57-.08 2.42-1.84 2.4-1.19-1.08-2.69-.77-4.21-.74h-2.74c-1.15.67-3 1.18-3.79-.25-.3-.21-1.1-.09-1.46-.12a22.26 22.26 0 0 0 0 2.83l-.73.13-.49-.25c.41-3.1-1.11-1.81-2.57-3.45-1-1 .62-2.12-.12-3.08a9.31 9.31 0 0 1-.61-1 1.88 1.88 0 0 1-1-.5c0-.66-.54-.62-1.09-.61a4.81 4.81 0 0 0-2.57-.5 3 3 0 0 0-2.56.38 1 1 0 0 1-1 .61c-1.67.54-4.1-.29-5.49.74-1.28.23-2.09-.63-3.05-1.23-1.35-.32-3.09 0-4.27-.87l.49-.49c-.69-.3-1.45-.61-1.71-1.35-.52-.27-1.49-.07-2.07-.13l-.13-.49c.27-.55.79-.73 1.34-1l-.24-.5c-.64-.37-6.31-.34-7.2-.31.1 1.42-1.56 3.14-2.81 1.91.54-.67.29-1.52.86-2.09.46-.15.58 0 .48-.61a2.39 2.39 0 0 1-2.07-.62c-.64.16-1-.32-1.59-.49a10.53 10.53 0 0 1-3.17 0c-1.5-.83-3.22-.57-4.88-1-1.23-.55-1 1-1.11 1.85a13.92 13.92 0 0 0-3.78.25 1.77 1.77 0 0 0 1.59 2c.46.82 1.25 1.21.86 2.34a7.8 7.8 0 0 1-2-.37 1.93 1.93 0 0 1-1.58-.49c-.72-.23-1.42.12-2.2-.07v.68c.9.37 1.94.89 1.22 2a4 4 0 0 1-2.07-1.36 1.11 1.11 0 0 1-.86-1.22 8.14 8.14 0 0 0-2.56-.13c0 1.4-2.33 1.8-3.3.74-.6 0-1.13-.14-1.71-.12a.94.94 0 0 0-1.34-.49c-.22.06-.12.49-.37.49-3.33-1.71-1.45 1.59-2.07 3.45h-2.56c.44-2.29-2.38-2.3-3.42-3.7-.91-.47-1.28-1.76-.24-2.09-.86-1.63.56-4.53-1.1-5.67-.67-.69-2.11-1.24-2.93-.61-.34.56-.23 1.35-1.16 1.1-.87.08-1.53-.24-1.53-1.1-.3-.3-.6-.73-.85-1-3.51.2-1.61-2.93-6.6.49.35 1.14 1.73 1.94 1.23 3.21h-3.15c-.7.15-1.26.64-2 .61a5 5 0 0 1-2.13-.74c-.63-.13-1.22-.14-1.59-.74-.71-.57-1.25 0-1.71.5-1.24 0-.78-1.55-.86-2.34-.66-.66-1.71-1.33-2.56-.75-.2.7-.66.46-1.22.38a1.79 1.79 0 0 1-1-.25h-2.43c-1 .47-1.87-.1-2.81 0-.08.67-.26.59-.94.49-.6.07-1.23-.19-1.81-.06.15-.69-.1-1.25 0-1.91l-.79-.12a.71.71 0 0 0-.73.61 1.5 1.5 0 0 1-2.44 0l.12-.49c.9 0 1.92.18 2.2-.86 1.31.08 2.1-2.21.36-1.85-2.17-.35-2.34 2-3.93 2.71-.38 0-3.28-.13-3.51.25 0 .66 1.11 1.5 0 1.72-.54 1.2-1.93.29-2.93.5-.45 0-.75.44-1.1.61-.54.06-1.38 0-1.95 0s-1.18.46-1.71.12c.93.09 1.35-.9 2-1.47s1.31-.15 1.95-.25c.26-.79 1.2-1 1.72-1.6.36-1.34 1.49-1.17 2.56-1.36 1 .27 1-.7 1.46-1.23 2.06-.74 4.08.38 4.27-2.71h2.44c.19-.59 0-1.22.37-1.72 1 .2.73-.85.49-1.48-.5-.14-.56 0-.49-.62-.2-.52-.26-.52-.73-.48.16-1.43-1.28-2-2.44-2.1a6.14 6.14 0 0 1-.06-1.48 27.41 27.41 0 0 1-5.68-.37c-.92-.25-1.06.82-1.83.86a2.44 2.44 0 0 0-2.81-1v1.48h-1.46l-.49-.37c.13-.51.31-.51.73-.62a1.27 1.27 0 0 0 .37-1.48 31.6 31.6 0 0 1-5.37-.37c.39-1.27 1.21-1.16 2.07-1.72v-1h-5.58c-1.38.84-3.16.58-4.43 1.6-.84 1 .24 2.15-1.7 2.59a1 1 0 0 0 .73.74l-.12.58h-4.88c.06 1.26-.49 1-1.35 1.26.12 1.65-2.46 1.66-3.54 1.12-1.06-1.17-1.53-1-3-1-1.05 0-2.48-1-3.18.37.81 2.12-2.58 1.51-3.75 1.6a15.93 15.93 0 0 0-3.93 1.85c-.53 0-.55-.26-.74-.62a4.5 4.5 0 0 0-3.54 1.48c-2.13.33-3.38-.22-4 2.34-1.1 0-4.2.16-2.56 1.85.53.59 2.3.26 2.07 1.35a1.05 1.05 0 0 1-.37 1 5.72 5.72 0 0 0-3.54-.13 1.42 1.42 0 0 1-2.44.37c-2 0-3.58.64-5.58.5-1.08-.47-1 .34-1.5 1-.86.09-3-.39-3.42.74.27.81 1.17 1.33 1.71 1.85 0 1.16-.13 3.06 1.59 2.59.84 0 1.8-.39 2.2.61.93.52.62 2.34-.62 2.22a3.31 3.31 0 0 1-1.21-.5c-.18-.43-.2-.56-.73-.49a14 14 0 0 0-1.6-.49c-.19-.47-.05-1.15-.73-1.23-1-.17-4 .59-4-1-1.31-.78-2.53.58-3.91.62l.12.49a7.14 7.14 0 0 0 2 .12 3.85 3.85 0 0 1 .73 1c0 .22-.25.28-.25.49-.76 0-1.58 0-2-.73a9.38 9.38 0 0 0-1.59 0 2.35 2.35 0 0 0-.36 1c-2 2 2.85 1.34 3.66 2.34.33.82 2.23.63 1.34 1.85-.24-.81-.73-.84-1.46-.86-.55-.68-1.4-.08-2-.75-1.31-.2-4 0-3.67-2 0-.57-.06-1.42 0-2a1.92 1.92 0 0 0 .25-2c-.09-.18-.4-.06-.49-.24a2.5 2.5 0 0 0-.49-1.48 1.35 1.35 0 0 1-1 .25 16.3 16.3 0 0 1 0 3.76c-.73-.14-1.36.1-2.07 0 .18.9-.12 1.6-1.1 1.65-1.79 1.25.57 2.6 1.34 3.58 0 .84.52 1.69-.12 2.46-.25.35-.73.47-.61 1 .27.68.7 1.45.24 2.1.09 2.16 2 1.72 3.54 1.72.6-.78 1.72-2.17 2.44-.74.57.59 1.42.56 2 1.11a4.75 4.75 0 0 0 1.83 2.22c.8.56 0 1.42-.36 2-.59.32-.57.29-.25.86a1.3 1.3 0 0 1 1.34.74c.61.31 1.3 0 1.95.25l-.36.49a3.33 3.33 0 0 1-2 .37c-.48-.29-.87-.82-1.46-.86-.53-.5-.21-1.79-.12-2.47 0-.91-1.44-.86-1.22-1.72-.89-1.25-3.59-1-4.88-.49-2.18.6.4 2.73-.62 4.19-.24 1.58-2.85 1.56-2.19 3.44-.79-.27-3.69 1.1-3.42 2-.64 1.22-2.49.08-3.33-.37-.38 0-3.14.14-3.38-.25.94-2.35 3.61.3 5.13-1.11 1.06-.38 1-1.6 1.95-2 .77-.37.73-1.34 1.46-1.61.73-.11.39-.7.62-1.22.24-1 1-2.05.72-3.05-2 .47-3.26-.79-2.44-2.74a19.92 19.92 0 0 1 .49-4.43 10.77 10.77 0 0 0-1.59-3.91v-3.06a10.53 10.53 0 0 0 1.59 0v-3c-1.09.21-1.36-.5-2.22-.74a14.19 14.19 0 0 1-2.69-.13c-.93-.09-1.46.52-2.2.87a7.48 7.48 0 0 0-2 .12c.38 2.05-.57 3.15-1.84 4.56-.23.49-.11 1.23-.48 1.6-.88.42-2.76-.46-2.68 1.11 0 .54 0 1 .6.86a2.06 2.06 0 0 1 .74 2.83c-1.32.13-1.2 1-1 2.1 1.78-.22 2.14.24 2.56 1.84a1.88 1.88 0 0 1 .86.74c.84.07 1.11 1 1.83 1.23a6.54 6.54 0 0 1 0 1c-.06.25-.34.31-.49.49s0 .4-.12.5c-1.56.18-3.82 0-3.54-2.22-.81-.23-1.73.07-2.44-.37a1.55 1.55 0 0 0-1.83-.86c-1.08-.19-1.9-.1-2.2-1.36a3.85 3.85 0 0 1-1.59-.61c-.27-.43-2.46-.2-2.89-.25s-.6-.41-.76-.74-2.61-.17-3-.24c-.89-.22-1.51-1.27-2.47-1.36-.15-.64-.79-.53-1.22-1-.06-.44-.08-.61-.61-.5-.67-.25-1.69-.11-1.95.62-.07 1.46 1.49 1 1.09 2.71a4.84 4.84 0 0 1 2.44.36 11.11 11.11 0 0 0 .37 1.11c.8.25 2.46.45 2 1.61-.1 1.38-1.39 1.44-2.45 1.35-.44.51-.23 1.56-1.09 1.73l-.56-.13c-.05-1 .5-2 0-2.95a1.84 1.84 0 0 0-2.13 1.48c-.67.25-1.7-.16-2.44-.13-.53-.12-.71 0-.86.5-.31.81-1.28.49-1.95.36a10.89 10.89 0 0 0-2.07.1v1.26h-1.47c-.58-.25-.54-1-1.22-1 .36-.64.22-1.35.73-2l-.12-.49c-.55 0-.5.23-.73.62a7 7 0 0 1-1 .24c-1.15-.21-1.44.81-2.44 1.11-.94.08-2.65-.4-2.8.86-.54.46-1.36.09-2 .37-1.13 0-1.77.84-2.56 1.48-.85.92-2.38-.22-3.05 1 1.41 1.85.54 1.69-1 2.7-.81.25-1.62 0-2.32.5-.58.08-.5-.74-1.22-.74a3 3 0 0 1-1-2.9h2.69v-1.53a1.4 1.4 0 0 0-1-.62c-.32-.46-.56-1.28-1.1-1.48-.73.15-1.24.55-1.7-.24-1.08-.4-2.4.06-3.42-.09v1.07c.53.09 1 0 1.4.37v2.92c-.11.73-1.11.57-.67 1.39-.27.91 1.18.49 1.34 1.35.29.25.58.45.49.87 0 .21-.43.09-.43.31a9.1 9.1 0 0 1 0 2.15c-3.53.09-.72-1.78-3.47-1.48-.66.73-1.74.16-2.57.5.34 1.57-1.65 1.36-2.69 1.72-.79.53-.93 1.59-2.19 1.35.54-.11.13.67.25 1a6.2 6.2 0 0 1 .36 1 1.23 1.23 0 0 1 1.1 1.84c.11-.51-.63-.2-1-.25-.86.15-1.61-.27-2.44-.24a7 7 0 0 1-2.56-.74c-.91.18-1.28-.8-1.59-1.47a1.63 1.63 0 0 0-.86.73.8.8 0 0 0-.73 1.36 1.9 1.9 0 0 0 1 .49 1.62 1.62 0 0 0 .24 1c.55.08 1.09-.22 1.59-.13.7.25 1.86 1 1 1.72h-2.44a.78.78 0 0 1-1.22.5c-.12-.36-.18-.72-.61-.86-2.35-1.16-3.4-.45-3.06-3.82h-1.55c-.38-1.77 1.45-5.28-1.62-4.93a4.49 4.49 0 0 0-.73-1c-.16-.34-.06-.76-.37-1s-.7 0-1.1-.12a3.86 3.86 0 0 0-1.46-1l.12-.49c.56.12 1.06.13 1.22.74a17.41 17.41 0 0 1 2.44 1.23c.77.11 1.44-.1 2.2 0 .35.44.73 1 1.37 1a24.73 24.73 0 0 1 3.88.12c.47 0 .56.26.73.61a2 2 0 0 0 1 .13 7.26 7.26 0 0 0 4.88-.74c.68 0 1.49.07 1.95-.5 1.52-.67 1.47-2.25 1.22-3.69.15-1.07-.77-1.73-1.46-2.34-1.64-.54-3.87.28-4.77-1.6-.63-.15-.62-.9-1.34-.74a1.58 1.58 0 0 1-.85-.74 3.65 3.65 0 0 1-1-.37c-1.15-1-2.87-.47-4.27-.37a6.08 6.08 0 0 1-1.95-1.48h-1.47c.35 1.48-.93 1.57-1.82.87 1.41-2.59-.69-.73-.62-3.08-.42 0-1.66-.14-1.95.24-.38.93-1.78.29-1.83-.49a5 5 0 0 1-2.69-.24v-.56c.56.13 1-.15 1.59 0l.12-1.05c-.71-2-2.81-.09-3.66-1.59-.21-.34-.39-.6-.85-.62l-.49.12v1.48a10.26 10.26 0 0 1-1.34.12c0-.38-.11-1.23.24-1.48s.6-.47.48-.92h-3.35a5 5 0 0 1 .06 1.54 1.37 1.37 0 0 0-.06 1.48l-.67-.13c.61-1.5-.06-2.5-1.71-2.21v2.52h-1.65c-.09-.76 0-1.44 0-2.15.51.09 1.37-.19 1.77 0v-1.58l-.58-.12a2.68 2.68 0 0 1-2.56.86c-.55.29-.32 1.11-.86 1.48a1.2 1.2 0 0 1-1.94-.24 1.47 1.47 0 0 1 .73-.87c-1.44-.07-3.29.06-4.4 1-.53 1.54 1.37 1.63 2.44 1.73v1.1a1.64 1.64 0 0 1-1.46-.37c-1.21.09-2.35-.28-3.54-.24-.07.88.39 2.29-.74 2.58.24-2.13-.41-1.26-1.58-2.09-.25-.33-.35-.6-.86-.49-.58-.6-1-.92-1.83-.62a6 6 0 0 0 .37 2.09c-.13.54-.53.93-.24 1.48-.41.46-1.36 1.05-2 .62.05-.54-.31-.92-.24-1.48-.16.16-.37.09-.49.25s.06.49-.12.61c-.47 0-.95.09-1.47.12l-.12.87c.1.8.79.27 1.22.74a2.13 2.13 0 0 1-.24 1.48c-.49 0-.65-.42-1-.62-.58-.09-1.19.14-1.71-.25.14-.67.49-1.36 0-2a6.28 6.28 0 0 1-.73.25v1.48c-.45.38-.73.14-1.23 0s-.75.27-1.21.49c0 1 1 .2.37 1.23-1 .07-2.67-.3-2.81 1a1.19 1.19 0 0 0-1.1 1.11c-.52-.07-.73.14-1 .61a1.63 1.63 0 0 0 1.83-.74 2.78 2.78 0 0 1 1.95-.24c.62-.2.5-1.08 1.23-.87a1 1 0 0 0 1-.37c.95-.2 2.29-.34 3.05.37l-.24.49a14.41 14.41 0 0 0-1.47 0c-.09.78-.45.63-1.09.49-.82.29-.44 1.42-1.34 1.6-.44.57 0 1.29-.25 2-1.15-.29-1.42.36-1.83 1.23-.81.23-1 1.06-1.71 1.35s-.48.79-.49 1.36-.83.56-1 1c.1.75-.24 1.26-.25 2l-.12-.5c-.38.43-1 .47-1.46.74a2.75 2.75 0 0 1-.86.87 2.32 2.32 0 0 0-1.71.61l.13.62c.54.21 1.33-.09 1.95 0a5.44 5.44 0 0 0-.12 1.1 7.11 7.11 0 0 1-2.2 1 2.6 2.6 0 0 1-1.46 1 1.66 1.66 0 0 0-.86 1.35c-.68 1.2-1.86-.39-2.93 0l-.12.86c.15.37.24.62.37 1-1.47.33-2.84.5-3.91 1.6-1-.15-1.07.4-1 1.23a1.82 1.82 0 0 1-1.95.86c-.25.18-.86.49-1 .74 0 .54.65 1 .12 1.48-.35.11-.7.13-.73.62.06.7.85 1.37.37 2.09-.09.12-.37-.09-.49 0s-.12.37-.24.49v1c.84.17 2.33-.57 2.56.61a1.8 1.8 0 0 1-.86.74v1c-.8.22-.82.55-.61 1.35.77 0 1.19 0 2 .06a2.78 2.78 0 0 1-.13 1.17c-.27.26-.7.41-.73.87a1.3 1.3 0 0 1 .24.86 14.05 14.05 0 0 1 1.59 0 11.17 11.17 0 0 0 .86 1c1.35-.63 2.86.93 3.78-.73 1.71.18 2.25-2 3.3-3 .51-.25 1 .18 1.46-.25v-1a1 1 0 0 1 1.22 1.23c.1.21.43.15.49.37.09.73-.25 1.62.61 2 1.34 1.32-.37.91.12 2 0 1 1.15.85 1.47 1.59.8.75-.07 2.29 1.22 2.83 1.15.92 1.38 1.25.61 2.59 0 .49.36.73.24 1.24h3.42c0-2 1.11-2.84 2.93-1.85.44 0 .6-.46.85-.75a2.25 2.25 0 0 1 1.1-.12v-1.48h1.95a1.85 1.85 0 0 0 0-1.23 5.37 5.37 0 0 0-1.46.12c-.54.06-.55.05-.49-.49-.09-.12-.36 0-.49-.12a5.49 5.49 0 0 0 1.22-3.94c.17-.63.85-.77 1.22-1.23.59-.06.88-.55 1.47-.62.69.18.76-.45.73-1 .94-1.37 1.77-.65 1.22-2.84-.84.12-1.63-.24-2.44 0 .18-2.06.1-1.63-1.46-2.43.09 0 .06-4.21.06-4.43 1.43-.92 1.43-2.09 2-3.33.6-.43 1.41-.12 1.95-.74.36-.5.86-.79 1.1-1.35.67-.35 1.66.3 2-.62 1.06-.57-.1-1.43 1.83-1.6 1.53.29 1.7-1.38.49-2a3 3 0 0 1 .36-2c.19-.41.41-.58.86-.49.92-.46 1-1.61 1.34-2.47.69-.38 1.68.07 2.44 0a15.36 15.36 0 0 1 1.1 1.48c.68 0 .65-.77 1.34-.74 1.29.52 1.63 2 1.47 3.33h-1.47c.14 1.48 0 3.32-1.71 3.69a2.14 2.14 0 0 0-3 1.73c-.84.2-1 1.23-1.71 1.47-1.39.49-.59 1.57-.49 2.59 0 .63-.59.94-.73 1.48a25.61 25.61 0 0 1 .37 3.82 2.9 2.9 0 0 1 2.92 1.47c1.12.21 1.79 1.37 2.94 1.36 1.26-.64 2-1.54 3.41-.74.61-.14 1.21 0 1.71-.37.08-.39.17-.63.61-.74h3.88c.4-.22.7-.57 1.25-.49.82-.08.41 1.17 1.22 1.23h2.44l.25.49c-.79 1.25-2.74-.21-3.67 1A4.26 4.26 0 0 0 463 226c-.25.47-.43 1.22-1.1 1a1.44 1.44 0 0 1-1.46-.62c-.54-.81-1.25-.34-2-.12a9.84 9.84 0 0 1-1.95-.13c-1.09.15-1.33 1.21-2.44.37-.48.22-1.16.34-1 1-.13.22-.34.31-.49.49s.06.49-.12.49c-.65-.15-1.67 0-1.47-1-.58-.05-1.64-.11-1.59.73.45.53 1 .23 1.47.75a5.48 5.48 0 0 0-3 .73c.18 1.61 2.22 1.35 3.41 1.36.62-.19.59-1.39 1.35-1.48 1 .19 2.05.74 1.83 1.86.45.3 1.07.42 1.46.85-.7 1.62-2.34.2-2.2 2.71-1 0-2.57.14-2.31-1.23-.54-1.11-1 .28-.86-1.48h-1a3.47 3.47 0 0 1-1.7 1.6 2.3 2.3 0 0 1-.61 2c.1.5-.25.78-.37 1.23a4.43 4.43 0 0 0 .49 1.73c-.25.6-1.07.84-1 1.6l.61.49-.24.5c-1 .06-1.66-.76-2.69-.5-2-.28-2.58 1-.85 2.1l-.12.49-.5.12c-2.74-1.27-2.25-3.47-5.24-1-.9 0-1.17.82-1.83 1.23-2-.11-6.11 2.39-5.49-1.36h-1c-.52.16-.61.73-1.21.62a7.73 7.73 0 0 0-2.63 0 7.62 7.62 0 0 1 0 1.51c-1.33.11-2.53 0-2.5-1.6a2.49 2.49 0 0 1-1.46.24c.1-.62-.3-1.35.12-1.84a8.4 8.4 0 0 1 2.93.24 2.15 2.15 0 0 0 2.22.49 3.23 3.23 0 0 0 0-2.21c.15-.93 1.06-1.41.61-2.47a2.6 2.6 0 0 0-1.47.25c-.36 0-.64-.12-1 0-.92.19-.78 1.93-2 1 0-.66.05-1.06.61-1.36a3 3 0 0 0 .12-1.23 2.68 2.68 0 0 1-1.46 0c.08-1 1-1.53.73-2.59-.53-.47-.57-1.82-1.46-1.35-1.5.52-.05 2.37-2.81 2.34-1.07.25.16 1.35-.37 2-2.61.22-1.91 2.87 0 3.57a2.72 2.72 0 0 1-.42 1c.38.67.06 1.4-.06 2.09.29 1 1.11 1.72.85 3-1.07-.05-2.1.34-3.18.24a7.83 7.83 0 0 0-3.05 0c-.19.34-.26.65-.73.74s-.79 0-1.1.25c-.15.8-1.08 2.54-1.95 1.47-.67-.09-1.33.2-2 0v.95l1 .49v1.6c-1.74-.16-2.87 1.42-4.15 2.34h-2.07v3a8.3 8.3 0 0 0-2.81.37V259c-.47 0-2 .1-2.32-.24a4 4 0 0 1-1.59-.13c.16-.83-.6-1.15-1.33-.87v1.49c.36.15.6.24 1 .36l-.48 1a1.78 1.78 0 0 1 .24 1.11 4.17 4.17 0 0 1-2.57-.25 1.24 1.24 0 0 1-1.83-.74c-.93.57-2.2.2-2.92 1.11-.31.51 0 1.19.6 1a2.35 2.35 0 0 0 2.44 1c1.4.08 2.22 1.58 3.3 2.35v2.58c1.32 1.57 2.93.73 1.83 3.57a10.86 10.86 0 0 1 .37 3.2c-.28.59-.89.65-1.35 1.11-.2 1-1.61 1.42-2.56 1.35a13.42 13.42 0 0 0-1.95-.61 2 2 0 0 1-2.2-.87 40.54 40.54 0 0 0-4.85-.11c-1-.12-1.85 0-2.59-.62-1-.14-.6.69-1 1.23h-2.44l-.25.49c2 1.51.13 2.56.61 4.44.11.4.49.66.61 1v2.9c.07.7-.72.75-.85 1.39-1.58 1.85.3 2.42.36 4.06a1.09 1.09 0 0 1-.36 1 4.37 4.37 0 0 0 0 2h1.43c.59 0 1.11-.49 1.62 0 .3.39.5.71 1.1.61s.73-.37 1.22-.37a7.06 7.06 0 0 0 2 1c.65.53.61 1.45 1.34 1.85l.24-.62-.48-.11c.86-.57 2.17.07 2.92-.87.89-.48 1.37-1.49 2.44-1.6.49 0 1.05.13 1.47-.24.72-.11 1-.67 1.34-1.24 1.17-1.72 3.26-1.21 5-1.47.47-3.12-1.68-2.09-1.1-3.82a20.57 20.57 0 0 0 1.72-3.08 7.2 7.2 0 0 0 1.46-.12c.51-.63.71-1.3 1.71-1.11.78-1.12 2.47-.57 3.78-.87.2-1.61-.47-3.47.12-4.92 1.52-.95 3.45-.31 4.89.49 1 .32 2-.06 2.92.1-.25-1 .36-1.55 1-2.19.62-.07 1.34.08 2 0a19.22 19.22 0 0 0 2-1.6c2.94.2 2.61 4.08 5 4.92a1.5 1.5 0 0 1 1.1 1.23c.39.29.75.42 1 .87 1 .41 1.55 1.42 2.57 1.72.68.47 1.43.18 2.08.62.52 1.39 1.65 1.93 2.92 2.46a4.69 4.69 0 0 0 1.59 1.72 4.22 4.22 0 0 1 .37 3c-1.12 0-2.2 0-2.81 1-1.84.31-3.58-.15-5.49 0l.12.58c3.69 1.9-.09 2.6 6.84 2.47v-1.85c1.05-.13 1.64-1.39 2.56-1.36.54-2.21.1-2 2.32-2.71.22-.49-.06-1 0-1.54a7.63 7.63 0 0 1-2.08 0 5.59 5.59 0 0 1 .12-1.29c.77 0 2.29-.15 2.94.37.72.17.69 1.11 1.46.49a3.59 3.59 0 0 1-.61-2.46 3.36 3.36 0 0 1-2.69-1.35c-.45 0-.67-.33-1-.62-.68.18-.86-.52-1-1-.77 0-1.92 0-2.2-.86a1 1 0 0 0-1-.37 1.48 1.48 0 0 0-1-.25c-.12-.47.19-.63.37-1 0-1.42-1.42-1.51-2.44-2-.16-.09-.1-.38-.25-.49s-.4.11-.49 0a3.48 3.48 0 0 1-.12-1.61 7.65 7.65 0 0 0-2.19-.06v-1.29c.2-.36.85-.59 1-.86.15-.66-.35-.84-.61-1.23 0-1.19 1.76-1.07 2.31-.38.15.53.1 1.32.86 1.11a1.87 1.87 0 0 1 1.34 1c.48.4 1.09.08 1.47.62.7.44.12 2 1.22 1.72 1.47.94 2 2.06 3.91 2.09.1 1.05 1.14 1.31 2 1.73.64.34.8 1 1.47 1.23s1.07.13 1.46.62c0 .4.33.66.49 1-.07.46-.43.61-.74.87a9.12 9.12 0 0 1-.12 1.23c-.24.89.82 1 1 1.6-.39 1 .28 1.67.73 2.46a5.24 5.24 0 0 1 2 .25v2h-1.23c.24-.75-.55-.7-1-.37.25 1.26 1.33 1.92 2.2 2.71.63-.3.46-.94 1.1-1.24a9.55 9.55 0 0 0 .24 1c.24.34.79.25 1 .61.15.73-.65 1.76.48 2.1a7.16 7.16 0 0 0 2.08-.12 1.91 1.91 0 0 1 .73-.86 2.34 2.34 0 0 0-.24-1.48 1.08 1.08 0 0 1 .85-.74c.51 0 .66.39 1 .61a4.66 4.66 0 0 0 1.58-.12c-.1-.66.14-1.25.06-1.85a3.91 3.91 0 0 0 1.53-.12c-.41-.68-1.08-1.66-1.95-1.48a2.66 2.66 0 0 1 0 1.48 2.06 2.06 0 0 1-1.1-.12c-.24-.1-.22-.4-.37-.62s-.42-.15-.48-.37a4 4 0 0 0-.49-2c-.52-.23-1.19.08-1.47-.61-.43-.23-.58-.37-.49-.87a1 1 0 0 1 .37-1c.88.38 1.37 1.27 2.44 1 .54 0 1.09.11 1.46-.37-.24-.37-.38-.57-.85-.61.6-1.43 2.29-1.08 3.54-.86.45.06.65.51 1 .74a1.92 1.92 0 0 1 1 .12c.2.27.07.7.13 1a2.1 2.1 0 0 1 1 .5l-.12.49c-1.12 0-1.24 1.21-.49 1.85.86.39 1.55.72 1.35 1.87-.22.24 0 .44 0 .71a2.51 2.51 0 0 0-.13.91 4.61 4.61 0 0 0 1.65 2.17c1.2.61-.28 1.36-.06 2.25-.2.76.81 2.09 1.16.83a7.79 7.79 0 0 0 .24-2.59c1.07-.08 1.91 1.27 2.57 2 .42.29 1 0 1.46.19a1.12 1.12 0 0 0 1.52-.06 7.06 7.06 0 0 0-.12-1.19c-.05-.41.32-.5.43-.85 1.72-1.29 2.77 1.35 4.15 1.85 0 .22 3.47.09 3.63.13a11 11 0 0 1 0-2.15c.66.25 1.44-.28 2.11.17a1.11 1.11 0 0 0 2 .13c.46 0 .23.59.67.68.44 1.27-.63 2.25-.61 3.49-.17.93.86 1.57.55 2.48-.36.36-.78.62-.61 1.23-.53.82-.79 1.85-1.77 2.22-1.06.81-.62 2.67-1.64 3.63-.28.17-.46.48-.74.62a2.42 2.42 0 0 0-1.28.18c-.26.11-.53 0-.79.12s-.55.54-1 .31-.43-.56-.79-.61a5.15 5.15 0 0 1-1-.06c-.72 0-1.53-.54-2.14-.06a6.2 6.2 0 0 0 2.63.73c0 .46-.12 1 .36 1.23.42.76 0 1.64.12 2.47.35.61 1.24 1.09 1.47 1.84.55.95 1.21 2.39 2.5 2.22 1.31.26.74-.89 1.53-1.35a11.7 11.7 0 0 0 2.93 3.57c.2.7 0 1.56.61 2.09 2.61 2.78.72 2.12 1.58 4.81 1 .66 2.4.66 2.69 2.09a8.23 8.23 0 0 1 2.44 5.17c-1.56 1.85 1.7 3.06 2.81 4.32a51 51 0 0 0 3.17 4.67c1.11 1.15 2.53 2.32 2.32 4.07-.21.85.73 1.27.86 2 .16 1.3-.7 5 1.22 5.51.77 1.12 2.28.79 3.42.62.59-.28.65-1.06 1.09-1.48.81-1.06 3.35-.68 4.48-.74.37.17.55.49 1 .37A3.71 3.71 0 0 1 513 351c.42-.48.88-.39 1.47-.38.31-.21.53-.49 1-.37 2.25 0 1.3-2.19 4.4-1.6 0-.73-.23-2.05.85-1.84 1.29-1.22 4.21-.75 5.86-.74a3.74 3.74 0 0 1 .73-2.71h2.45c.36-.82.45-2.67 1.7-2.34a5.27 5.27 0 0 0 1-.06c.43-1.11.5-3.3 2.08-3.27.27.27.35.65.85.62a12.59 12.59 0 0 1 .61-4.19c.63-.24 1.32 0 2-.49 0-1.85-1.06-1.37-2.19-2.1.17-2-1.26-2.28-2.81-2.7-.15-.71.65-1.29.24-2a2.77 2.77 0 0 0-2-.49 1.71 1.71 0 0 1-.73 2 6.42 6.42 0 0 1-.25-1.6 1.78 1.78 0 0 1-.85-.74v-2.5a2.59 2.59 0 0 0-.85-.86 1 1 0 0 1-.74.73c-1.66.53-.9 2.4-1.22 3.7-1-.29-2.23.16-3.17-.37-1.35-.79-2.3.6-3.18 1.35-1.08-.14-2.24-1.19-1.95-2.33.6-.1 1-.63 1.71-.62.41-.08.65.26 1 .37.67 0 1.5.17 2.07-.25.22-1.44-1.63-.62-2.44-.74a19.39 19.39 0 0 0-4.88-.73v-2.47c-.41-.72-.81-.43-1.35-1.11a6.56 6.56 0 0 1-2.19-.61 3.1 3.1 0 0 0-1.1-3.08c.06-1.09-.41-2.08-.24-3.2 1.5-3.35 5.9 1.75 6.59 3.69 1.41 1 3.82 2.8 4.88 3.45 1.43-.05 2.78.48 4.27.37a2.34 2.34 0 0 1 1.46-.25 2.55 2.55 0 0 1 2-.12c1.26.49 1.08 1.73 1.59 2.71.67.6 2.8.3 3.63.37.57-.16 1.19-.3 1.61.25.39 1.37 2.8.91 3.88 1 2.1.84 6 .26 8.21-.12h2.78a6.45 6.45 0 0 1 2.59 2.46c1 .63 2 .85 1.83 2.34.92-.18 1 .58 1.47 1.11a7.84 7.84 0 0 1 4 1 4.92 4.92 0 0 0-2.94.5c-.18.9.47 1.12 1.22 1.23.55.61.93 1.44 1.72 1.85 1.13.86 2 1.5 2.93 0 .6-.22 1.16-.09 1.33-.87.88-1.43 2.47.57 2.2 1.73-.08 1 .59 1.67.73 2.59v2.09c-.59 2 .54 3.87.37 5.91.32 1 1.47 1.57 1.95 2.46 0 1.54.89 2.8 1.22 4.19.41 1.09 1.76 1.65 1.59 3 0 1.11-.4 2.23.37 3.2a12.83 12.83 0 0 1 2.19 3.69c.78 1.22 1.11 3.86 3.06 3.21.93-.76 1.14-2.37 2-3.33.86.13 1.38-.46 1.95-1 .06-.72.67-1.2.85-1.84-.08-.7-.34-1.21.25-1.73 1-2.12.43-4.84.61-7.14-.35-4.5.44-2.6 3.3-3.45.44-1 .65-2.21 2.07-2.22.65-.4 1-1.2 1.83-1.22a23.8 23.8 0 0 1 2.08-3c1-.25 1.43-1.1 1.83-2 .66 0 1.64.12 1.46-.86 2.14-2.12 2.86 1.15 3.17-4.32h2.29a2.8 2.8 0 0 0 1.5.38c.32-.21.53-.48 1-.38.49-.67 1.5-.57 1.72-1.48h2.44v-1.47c.88.1 1.75 0 1.82 1.11.14.65.87.58 1 1.23.71 1-.26 2.8 1.22 3.32.23 1.18 1.94 1.41 2.32 2.59a16.17 16.17 0 0 0-.12 2.09c0-.3.69-.2 1-.24s.66.3 1 .37c.12 1.81-1.58 4.49.49 5.79.59.7 1.64.28 2.44.37.31-.83 1.49-.89 2.33-1.11 0-.55-.11-1.1.36-1.48 2.69.2 2 3.57 3.17 5.17.35.15.66.26.61.74 0 .74-.85 1-.85 1.72.39 1.46 2.14 2 2.44 3.45-.6 1.74 1.18 2.76-1.59 3.45-.63.85-.32 1.95-.37 3a5.86 5.86 0 0 0-.12 3.08c.48 1 1.81.69 2.2 1.85.64.94 1.79.87 2.2 2-.36 2.14 1.42 3.46 1.83 5.32 0 .39-.14 2.91.24 3.17.3 1.86 2.57 2.49 4 3.21.62.71.64 1.76 1.83 1.72.71.24 1.63.9 2.2.13-.46-.58-.56-1.54-1.34-1.61-1.08-1.05-.54-2.72-.74-4.06a2.28 2.28 0 0 0-.85-1.48c0-1.52-.2-3-.24-4.56-1.56.4-2.27-.95-3.3-1.72-1.07-.51-2.29-.27-2.81-1.6s.51-2.51-1.22-3c-.33-.53 0-1.4-.12-2-.41-.1-.9-.35-1.34-.49v-2.5c.27-1.09 1.42-1.85 1.7-3 .61-.8-.29-1.62.13-2.47a2.26 2.26 0 0 0 .85-1c.9 0 1.07 1 1.71 1.35.17 1.63 1.43 2 2.68 1.11 1.25.8 1.61 2.64 2.32 3.94.48.72.94 2 2 1.85.59.26 1.65.08 1.83.86a3.52 3.52 0 0 0 .12 4.07c.84-1.57 2.66-2.26 3.54-3.7.71-.65.36-2.51 1.83-1.84 1.59.38 2.16-1.28 3.3-2 .54-.07 1.1-.36 1.1-1a54.85 54.85 0 0 0 .12-6.28 6.69 6.69 0 0 1-1-3.82 2.37 2.37 0 0 1-2.8-2.34c-.1-.13-.37 0-.49-.13-1.14-1-3-1.63-2.94-3.32.11-.51-.1-.61-.48-.86-.12-.28 0-.5 0-.8-.3-1.28.58-1.94 1.58-2.4a5.94 5.94 0 0 1 .13-1.24c.55-2.89.88-1.5 2.92-2.58.57.12.57-.17.86-.5 1.19-.09 2.23.21 3.42 0-.07.72-.17 3-.12 3.78-.31.92-1.31.51-1.83 1.11-.28.39-.75.76-.86 1.24.14.63 0 1.43.74 1.6h3.9a11 11 0 0 1 .37-2.22c.62-.69.67-2-.55-2v-3c.67-.05 1.45.2 2-.24a3.58 3.58 0 0 1 3-1.24c1.11-.08 2.73.89 3.36-.49.15-.59.75-.41 1.22-.49a2.24 2.24 0 0 1 1.46-.25 3.7 3.7 0 0 1 1-.12c.35-.45.71-1 1.34-1 1.13-.51 1.44-1.78 2.56-2.33a2.1 2.1 0 0 0 2-.63c.18-.35.29-.63.73-.73 1.23-1 1.3-2.52 2.56-3.45a11.39 11.39 0 0 1 1.71-3c.46-.56 1.32-.64 1.59-1.35a20.92 20.92 0 0 0 .49-2.22c.07-.93 1.3-.92 1.58-1.85 1.32-1.48.33-2.94-1.52-2.71-.14-.7.1-1.29 0-2h.91c.1-.45-.14-.67-.36-1-.08-1.36.39-2.08-1-2.84a5 5 0 0 0-1.95-5c-.45-.61-1.18-.12-1.59-.75-.21-1.21.37-1.71 1.22-2.33.06-.56 0-1.39 0-2h1.34a2.7 2.7 0 0 0 1.1-1.35 22 22 0 0 1 3.42-.25 3.12 3.12 0 0 0 0-1.66h-2.44a7.72 7.72 0 0 0-1-1.41h-1.83c-.14.66 0 1.37-.36 1.91-.54.13-1-.15-1.53 0v-2.78h-3.08c-1.63-.26-.78-2.91.58-3 .71-.31 2.63.6 2.44-.62.59-1.32 2-1.42 3.3-1.35.75-.64 2-3.2 3.17-2.22l.12.49c-.47.64-1.13.94-1 1.85-.35.94-1.67 1.36-1.83 2.34l.12.49a1.46 1.46 0 0 0 .86-.74c4.18.38 2.5-.95 5.25-2.09 1.43.6 4.11.33 3.66 2.58-.09.64-.92.78-.73 1.48-.61.55-.5 1.11-.37 1.85a2.53 2.53 0 0 0 1.47-.24c2.3-1.53 2 2.77 3.17 3.72v2.65c-.07.5-.71.68-1 1a7.53 7.53 0 0 0-.24 2.47h2.66c1.48-.46 2.65-1.89 4.18-2.34.44-.6 1.17-.12 1.58-.74-.1-1.3.34-2.74.25-4.07-2.73.27-.72-2.21-2.08-2.7a14.44 14.44 0 0 0-1.83-1.48 3.55 3.55 0 0 1 .24-4.07c.08-1 2.32-.58 3.17-.86.21-1.19-.48-5 .62-5.79 3.15-.42 1.79-4.93 6.1-1.48 1.18.48 2-.74 2.81-1.35.15-.09.33.06.49 0s.15-.43.36-.49c.77 0 2.65-.12 2.44-1.24a20 20 0 0 0 3.78-3.69 2.65 2.65 0 0 0 1.35-1.85c.75-1.13.85-2.67 2.2-3.45a1.07 1.07 0 0 0 .73-.74c.15-.09.34.06.49 0 1.1-1 1.83-2.36 3.05-3.2 0-1 .17-1.94.12-3a2.7 2.7 0 0 0 .86-2.34c0-.74-.2-1.6-.13-2.33.54-.54.3-1.28.61-2a8.54 8.54 0 0 0 1.1-1.47c.47 0 .56.24.74.61.12.06.36 0 .48.13 1.45.65.46 1.49.37 2.58.65 1.79.34 3.67.37 5.54-.31.65-1.17.74-.86 1.6-.19 1.29.73 2.25.86 3.45.16.87-.66 1-1.1 1.48 0 .86.14 1.73.06 2.59h.92c.43-.1.55-.32.6-.74.22-.57.65-.92.86-1.48 1.28.32-.72 1.81 2.44 2a2.51 2.51 0 0 0-1.34-2.34c-.13-.43-.42-.59-.74-.86-.07-1.54-1.94-2.4-.12-3.57.56-.4.3-1.05.37-1.61.06-.18.39-.09.49-.24.16-.3.29-.83.61-1 1.05-.16 1.6 1.82 2.44.74-.11-1.2-.63-2.3-.73-3.57-.72-.66-.27-1.61-.37-2.46-.41-1-1.95-1.76-1.59-2.93a5.27 5.27 0 0 1 .12-2.12 1.41 1.41 0 0 1 0-1c-.1-.46-.35-.55-.73-.61a36.19 36.19 0 0 1-.49-4.07h-1v3.57a1.73 1.73 0 0 0-1.34.25c-.09 1.08.5 1.89.36 3-3.4.38.28-2.78-2.07-4.07-.42-.54-1.14-.2-1.59-.73-.16-.13-.09-.4-.24-.5-.88-.13-1.32-.85-2-1.48h-1.46V246h-2.08a4.37 4.37 0 0 0-1.22-2.59l-.61.12a3.51 3.51 0 0 1 0 2 1.63 1.63 0 0 1-1.1-.25c0-1.11.93-2.16-.49-2.84a1.91 1.91 0 0 1-2.56.5c-.11-2.06 1.51-1.94 2.93-2.59.81-1.22 1.82-2.35 3.42-2.09-.41-3 1.15-2 1.83-4.07a5 5 0 0 0 2.19-1.84c.5-.26 1.14.13 1.23-.62 1.59-4.33 1.71-1.9 4.27-3.58.56-.54.91-1.64 1.83-1.72a4.4 4.4 0 0 0 2.66.13c.45-.06.77.37 1.25.24.5.15.8-.24 1.21-.37.69 0 1.27.72 2 .74m-302-79.69c0 .09.21.07.24.13 0 1.14-2.59-.06-3.42.24-1.53 1.22-4.72-.59-4.15 2.59 1.52-.69 3 .41 4.52-.25.76-.4 2.24-1.81 2.68-.36-.18.11-.14.43-.36.49a1.17 1.17 0 0 0-1.35.61c-1.3.83-3.2-.29-4.63.62-.62 2 1.56 1.79 2.8 2 1.47.32 1.9 1.82 2.81 2.83l.49-.12c-.24-1.17 1.28-1.17 1.83-1.85.23-1.54.07-3.11 2.26-2.83v-2.48a2.06 2.06 0 0 0 1.89-.62c-.73-.66-.11-1.67-.31-2.52h3.48c.2.81-.61 1.38-.24 2.15 1.51-.23 2.55.54 2 2.09-.77.36-1.51 1.05-1.1 2 2 .71 4.37-3.68 4 .49h1.35c.64-.1.56-.77.85-1.23a14.43 14.43 0 0 0 3.79-.25l.12-.49c-.66-1.31-1.84-.79-3-.93a6.15 6.15 0 0 1 0-1.66h-3.31c.47-2.61-1.43-1.25-1.7-3.2-1.42-.57-1.9.26-2.57-1.6a2 2 0 0 0-2.26.37c-.65-.21-1.35-.09-1.8-.62v-1.48c.23.52-1.64.29-1.92 0 0-.82 1-1.11.85-2-2-.08-6.43-2.32-5.37 1.73 1.37 2.2-2.28 2.88-1.83.12-.17-.58-.11-1.24-.25-1.85l-1-.12c-1.08.23-1.26 1.35-2.23 1.72h-1.52v-.86c.12-.12.06-.4.24-.49a1.07 1.07 0 0 0 1-.37l-.12-.5a1.91 1.91 0 0 0-1.71 1.12c-1.4 0-4-.17-5.25.48a2.41 2.41 0 0 0 1 2c.68.15 1.29-.16 2 .12a2.11 2.11 0 0 1-.13 1c-.82.35-.51 1.12.13 1.47a1.88 1.88 0 0 1-.13 1.6c-.49-.28-1.1-.31-1.09-1a1.59 1.59 0 0 0-1.71-1.23 4 4 0 0 1 .61 2c.61.79 1.58 1.65 2.63 1.23a4.9 4.9 0 0 1 0-1.48c2.2-.32.24 2.18 3.84 1.73 1.1.31.59-1.09 1.22-1.48a1.59 1.59 0 0 0 1-.25 3.15 3.15 0 0 1-.13-1.23l1-.12c.76.32.44 1.14.61 1.84h1.83l1-.73.49.36a5.88 5.88 0 0 0 0 1.11m4.88-9.35c.25.27.79.25 1.09.49a4.81 4.81 0 0 1 1.72.36c1.08-.21 3-.84 3.29.74H444v1.11c.77.19 1.27.68 2 .87a18.08 18.08 0 0 0 3.15-.13c1-.24 1.14.71 1.95.86a4 4 0 0 0 4-1.1c1 .21 1.87.88 2.81.12.78-.12.42-.69.48-1.23.3-1.16 1.71-.43 2.32-1.24l.49-.24c-1-1.85-2.86-.51-4.39-.61.24-1.06-.75-1.34-1.22-2.1-1.07.18-2.06 2.76-3.42 1.48l1-1.11a2.35 2.35 0 0 0-.13-.74c-.51 0-.61.46-1 .62s-.5-.17-.77-.25h-1.43c-.21.92.11 2-.61 2.71l-.49-.12a1.8 1.8 0 0 0-1.74-2.22c-1.69.24-6.17-1.23-5.46 1.73M511.5 134a2.64 2.64 0 0 0-1.95.49 5 5 0 0 1-2.08-.49c-.43.46-.27 1.25-1 1.35a4.33 4.33 0 0 0-2.92-.74c-.31 2.7 2.4 1.63 3.78.86 1-.37 2 .26 2.93 0l.12.75c-.34.69-.93.5-1.59.49a1.82 1.82 0 0 0 1.35 2.21c2 1.28 3.63-.14 3.05-2.34 1-.28 2 .19 3-.12 1-.58 1.4-.83 1.22-2.09a4.69 4.69 0 0 0-1.34-.13v-1.48a2.53 2.53 0 0 0-1.95 0c-.13.1.09.34 0 .49s-.34.19-.49.38c-.43.9-1.4.41-2.2.37m9.76 3.32c.8-.1.27-.8.73-1.23.44-.17 1 .13 1.47-.13.42-.46.89-.38 1.46-.37.71-.79 2.34.06 2.69-1.1a6.64 6.64 0 0 0 3 .61c.12-.59-.31-.92-.37-1.47.21-1 1.58-.47 2.2-.25.37 1.24 1.78 1 2.81.86.21-.56 0-1.12 0-1.72-1-.13-2 .36-3 0 .35-.82 1.13-1.11 1.59-1.85l-.13-.49a21.11 21.11 0 0 0-3.17.49c-1 .26-.14 1.32-.49 2-.95.26-4.23-1-3.54.86-.63.28-.56.1-.24.74v.86c-2 .17-4.21.13-5.49 1.85zm7-.25v1.48h2.2c.18-.18.37-.25.48-.49s0-.58.37-.74c-.19 1.77.7 1.41 1.89 1.23a8.13 8.13 0 0 0 0-1.48h2.14a2.5 2.5 0 0 0-.12-1h-3.63c-1.26.17-2 1.24-3.33 1.35zm8.54.75a5.4 5.4 0 0 1-2 .37c-.22 1.85 1.82.65 2.81.49a1.08 1.08 0 0 0-.37-1l-.49.13m.86-4.44a8.17 8.17 0 0 1 0 1c-.62.19-1.54.5-1.71 1.22.65.32 1.15.9 2 .75.41-.31.67-.52 1.22-.38 1.22 0 2.5.47 3.67-.06-.42-.46-1-.87-.86-1.53a2.25 2.25 0 0 1-.61-2l-.73-.13a1 1 0 0 0-.85.62c-.31.53-1 .58-1.47.86zm6 0c.83 1.68 3 2.78 4.64 1.48.42-1.22 1.88-1.54 3-1.85l-.13-.49a5.51 5.51 0 0 0-3.41-.25c-.11.41 0 .63-.61.49a6.73 6.73 0 0 0-1.95.13c-.56.33-.92 1.06-1.59.49m17.45 39a22.57 22.57 0 0 1 2.69-.37 1 1 0 0 0 1-.37c.2-1-1-1.32-1.84-1.48-1 .21-1.62 1.24-2.44 1.85.22.13.34.37.61.37m-36.73-1.1a2.9 2.9 0 0 0-1.6 0v1.6a3.33 3.33 0 0 0-2.19.37c-.09.57.44.93.12 1.47-.68.36-.41.68-.61 1.36-.86 0-2-.23-1.83 1-1.11.34-.32 1.82-.55 2.7l1.28.13a.72.72 0 0 1 .61-.74c.7 0 .53.71 1 1.1a.88.88 0 0 0 .49-1c.73.58 2 1 2.32 1.85l-.86 1.11c-.05.29.15.49.24.74 2.86-.25 5.8.86 8.55.55a4.82 4.82 0 0 0-.12-1.54c-.68-.15-.55-.64-.49-1.23a1 1 0 0 1-1-.37c0-.5 0-.6-.49-.86-.43-.53-1.16-.87-1.23-1.61-.47-.07-.56-.08-.48-.61s-.28-1-.25-1.48c1.34-.5-.14-2.25 1.1-2.59a2.72 2.72 0 0 0 1-1.47c.3-.15.67-.11 1-.25.13-.09-.12-.39 0-.49.69-.12 1.46-.74 1.35-1.48a1.12 1.12 0 0 0 .73-.74c.79.12 1.22-.65 1.34-1.35s1.33-1 1.1-1.85c.8-.08 1.7.35 2.08-.49.65 0 1.37-.09 1.22-.87.8-.23 1.94 0 2.19-1.1.84-.34 1.17-.68.86-1.61 1-.27 2 .1 2.93-.24.32-.28.5-.84 1-1 .58.13.93-.33 1.49-.37h2.87c.75-.23 1-1.08 2-.85s1.23-.37 2-.75h2.37c1.36-.39 1.35-2.42 3.08-1.85.28-.49.35-.86-.12-1.24a8.36 8.36 0 0 1-.36-1c-.52-.2-1.17.16-1.71-.25-.83 0-1.64.15-2.44.12-1 0-1 .81-1.34 1.48-.78.88-2.19-.08-2.93 1-.78.55-1.82 0-2.69.37-.68.21-1.27.78-2 .73-2.59.19-6.1-1-7.2 2.1h-3.42c-.57.3-.83.91-1.22 1.35-1.75.35-2.52.24-2.2 2.35a5.65 5.65 0 0 0-2.68 0c1.21 1-1 1.51-.74 2.46v1.48c-1.47.15-5.26.09-4.27 2.46.74-.14 1.18-.72 2-.37-.28.5-.42 1.1.12 1.48-.37 0-1 .28-1.34.25m-9.41 17.85c-.74-.08-1.41-.36-1.21-1.23h-3.06a1.08 1.08 0 0 0 .13 1.11v2.34c1.06-.07 1.94.38 2.31-.86.73-.11 2.07-.3 1.83-1.36m95.21-57.76c-.71.54-1.06.22-1.83 0l-.37.49v1c.84-.11 1.09.89 1.84.86.58-.11 1.35-.28 1.34-1-.33-.52-.07-1.39-1-1.35m5 8a16.74 16.74 0 0 0-3.17-.87c-.31.33-.84.25-1.28.25a8.13 8.13 0 0 1 0 1.48c1.18.23 2.93-.4 3.24 1.11a2.52 2.52 0 0 0 2-.62 2.07 2.07 0 0 0-.25-1.48c-.18 0-.33.13-.49.13m1-1.12a2.21 2.21 0 0 0 2.93-.61c.84-.06 1.9.3 2.32-.62a29.18 29.18 0 0 0 2.93-.12c.25-.76-.11-2.27 1.1-2.09a1.65 1.65 0 0 1 .86-.74 3.72 3.72 0 0 1-.49-.25v-.12h-3.18c0-.68-.13-1.93-1-1.72-.48-.43-1-.17-1.47.12-.48 0-.59.29-.85.61a8.82 8.82 0 0 0-2.57.74 6.57 6.57 0 0 0-1.59.13c.22 1.2-.41 2.27-1.7 2-.45.37-1.28.12-1.22.87.25 1.2 1.42.51 2.2.49.43.16.49.7.85 1 .28.12.63.09.85.36m7.33-.48a2.48 2.48 0 0 0-1.34 1 26.67 26.67 0 0 1-2.94.24c-.42.21-.56.54-.85.87a1.59 1.59 0 0 0-1.83 1.48c1.89.44 1.33.77 1.58 2.34 1.48.26 5.7-.84 6.11 1.23 2-.61 7.47 1.39 7-2a1.58 1.58 0 0 1-1.22-.24c-.14-1.11.71-1.8 1.22-2.58-.3-1.07-.84-2.33-2.19-2-1.88-.28-.89 1.57-3.42 1.1a1.53 1.53 0 0 1 .74-.86l-.13-.58c-.91 0-1.78-.1-2.68 0m7.75 12.23c1-.07 1.46-1.19 2.2-1.72.54-.14 1.11-.4 1.58 0h2.66c1-1.09 2.54-.2 3.69-1 2.13.35 2.78 0 2.44-2.22h-2.07c.5-2.29-1.3-2.14-3-2.22-.34.62-.71 1.53-1.47.62.36-.51 1.16-.66 1-1.35-.33-.07-.66-.18-1-.25s-.3-.61-.74-.49a3.38 3.38 0 0 1-1.58.61c-.47.6-1.14 1-1.22 1.85-.09.48-.31.53-.73.49-.9.3-.3 1.18-.49 1.85-.7 1.52-2.64.41-2.2 3 .27.12.67.85 1 .85m-10.62 4.44c.81-.78 1.84.49 2.57 0-.11-.85.1-1.8-1.1-1.6a2.14 2.14 0 0 1-1.47 1zm28.44-5.78c-.12-.22-.4-.19-.49-.38 0-.45 0-.6-.49-.61a3.36 3.36 0 0 0-1.1-.13 1.7 1.7 0 0 0-2.07.13l.12.49c.83.1 1.41.22 1.83 1a4.32 4.32 0 0 0 2.2 0c0-.16.06-.34 0-.49M714 166.71c.22 1.06 1.28 1.71 1 2.9h2.19c-.07-.82-.84-.52-1.34-.93s-.67-1.44-1.21-2zm1.34-5.3a2.66 2.66 0 0 1 0-1.48c-.84 0-1.72-.72-1.58.74-.07.47 0 .71.49.86.41.56.72.38 1.09-.12m2.57 1a5.91 5.91 0 0 1 .61 1 5.86 5.86 0 0 1 2.07 1.11c.3 1.39 1.41 1.17 2.57 1 .17-.66 0-1.25.48-1.73a3.32 3.32 0 0 0 2.94.49c.64 0 1.2.11 1.22-.61a5.24 5.24 0 0 1 1 0c.25.29.36.64.86.61s1-.67 1.34-1.1a1.2 1.2 0 0 1 1.46.24 9 9 0 0 0 2.93.25c-.51-1.94 1.07-1.93 1.1-3.33-.66-.23-1 .15-1.22-.61a18.12 18.12 0 0 0-2 0c-.61-.15-1.62-.29-1.59.61-.71.46-.66 1.26-.61 2a5.1 5.1 0 0 0-1.46 0v-1.44c.32-.61 1.27-1.2.61-1.94-1 .11-2-.36-2.93 0v1.35c-.92-.37-2.34.39-2.81-.61-.26-.32-.43-.63-.86-.74-.12-.09.13-.4 0-.49-1.42-.1-2.89.27-4.39.12.51 1.57-1 2.66-1 4.19zm9.16 5.54c.43-.05.58-.34.6-.74a7.14 7.14 0 0 0-2.92-.61c-.61 1.31 1.42 1.59 2.32 1.35m-2.46 3.05a17.11 17.11 0 0 0 5.25 0c1 .37 2 1.07 3.17.86l.13-1c-.16-.62-.77-.73-1.22-1.11-.73.07-1.53-.21-1.59-1-1.12 0-2.76-.36-3.17 1-1.18-.22-1.54 1.12-2.57 1.25zm14.65-7.88a2.84 2.84 0 0 1 1 .37c1 2.07 3-1.09 4.39 1.23a6 6 0 0 0 2.93.37c.41-.14.54-.81.86-1h1.21c.1-.42-.18-1.31 0-1.6-1.28-.26-2.37.12-3.64.12a3 3 0 0 0-1.58 0v-1.32c-.77.05-2.14-.6-2.2.49a2 2 0 0 1-2.56-1.35l-.49.24v2.1c.18.09-.09.28.12.37M815.55 182c1.18 0 2.36.07 3.54 0 .88-.21 1.54-.87 2.53-.61.84-.09 1.79.27 2.59 0v-.78c-.42-1.39-2.17-.91-3.29-1.1-.46-.07-.66-.53-1-.74a10.27 10.27 0 0 0-1.11 0c-.21.09-.3.25-.49.37-.06.45-.08.61-.61.49-1.71-.27-3.44.5-2.19 2.34m21.6 30.18c.49.07 1-.08 1.47 0 .3.57.77.68 1.46.61a2.88 2.88 0 0 0 1.34-.24c1 0 1.67 1.06 2.69.61v-1c-2.31-.66-4.72-1.69-7.08-.87.18.13-.09.84.12.87m-56.42 17.18a4.26 4.26 0 0 0 1-.68c.7 0 .62-.54.61-1.1-.44-.39-1-.24-1.47-.13a1.47 1.47 0 0 0-1.71 1.91 6.26 6.26 0 0 0 1.56 0m6.38 13.36c-.39-.51-.22-1-.25-1.6a4.6 4.6 0 0 0-1.34-1.6c0 1.31.3 2.43.37 3.76h1.46c-.06-.19-.18-.37-.24-.56m3.29-.37a1 1 0 0 0-1.34-.74 3.15 3.15 0 0 0-.12 1.42h1.46c0-.28.12-.46 0-.68m-29.17 12.93c-.12.63-.72 1-.61 1.61-.21.43-.7.71-.85 1.22.77.2.76-.71 1.22-1.1.42-.17.59-.28.6-.74a1.34 1.34 0 0 0 .25-1l-.49-.12zm-12 13.18c-1-.08-1.56 1-2.44 1.36 1.5 1.05 1.9-.11 2.44-1.36m-4.52 2.34c-1.61-.26-1.25 1.48-2.32 1.85-.9 1.13-2.37.22-3.42.86-.71.05-1.51-.33-1.83.5-2.16 1.72-4.26-.43-5.73-2-.71-.8-1.93-.21-2.69-1-.62.94 0 2.05 0 3.08a3.7 3.7 0 0 0-.12 1 1.82 1.82 0 0 0-.73.87c-1 .29-1.08 1.28-1 2.21-.67.55-.94-.11-1.22-.74a3.6 3.6 0 0 0-.48 1.11A1.72 1.72 0 0 0 724 281c.3.23.84.33 1 .73-.21 1 .9 1.07 1.46.5v1.23h-1.83a5 5 0 0 0 0 2.22c-.87 1-.12 2.94-.37 4.19 0 .64-.58.8-1.09.73-.87.89-1.31 2.1-2.32 3-.25-.72.34-1.12 0-2-.7.1-.48 1.14-.61 1.72h-1.83v2l-.49.13c-.83-.19-.85-1-.61-1.73l-.49-.12c-.59.57-.32 1.33-.49 2.09a3.29 3.29 0 0 1-1.4.13v3h-1c-.51-.15-.5-.33-.61-.75a1.76 1.76 0 0 0-1-.49c-.46 1.86-2.31.72-3.66 1-.58-.13-.91.34-1.46.37-1.75-.43-2.3 1.51-2.08 2.89h-2.22a3.34 3.34 0 0 0 0 1.54c-1.78-.27-2.52 1.3-2.81 2.77a8.2 8.2 0 0 0 2.81.19c.06 0 0-.19 0-.19.15 1-.62 1.73-1.1 2.53-.61 1.43.81 2.22 2.07 2-.82-4.48 3.71-1.62 1.59-5.05v-1.42a6 6 0 0 1-1.59 0c-.22-1 1.31-1.14 2.08-1.05 1-.07 1.62-1.19 2.56-1.47 1.64-.15 3.24-.32 4.88-.5-.3.85-1.14.37-1.83.5s-1.13 1-2 1h-2.41v3.33a3.89 3.89 0 0 0 2.56-.74 2.88 2.88 0 0 1 1.22-1.36c.64-.33 1.56.34 1.71-.61 0-.49 0-.61.49-.74a1.14 1.14 0 0 1 .37 1 1.37 1.37 0 0 0 1.28.49c1-.32.78-1.62 2.26-1.23a1.44 1.44 0 0 1 .24-1 4.69 4.69 0 0 1-.37-1c-.17-.3 5.85-.1 6-.12 1.74-2.06 3.55 1.5 3.29-4.52 0-.87.62-1.37 1-2 .05-.74-.18-1.53-.12-2.28-.35-1 .51-1 1.09-1.41.27-.63 0-1.33.25-2 .4-1.19 1.28-2.25.73-3.57-1.15-.79-1.24-2.2-1.83-3.33.26-1.1-.89-1.19-1.71-1.36v-.74H728c.33-.06.48-.48.89-.37.6.16 1 .76 1.71.62.27 1 1.58.48 2.43.74a4.23 4.23 0 0 0 0-2h2.62c.34-.17.57-.46 1-.5 1.42-.05-.15-2.68 1.47-2.7.45-.39.94-.18 1.47-.25.91-.89 2.33-.57 3.41-1 .13-.28.15-.71.25-1 .78-.47 1.69-1.17 1.46-2.22m-62.21 55.11a6.27 6.27 0 0 1 .13-.71h-1.47a5.61 5.61 0 0 1-1.34 1.23c-.41.46-.46 1.1-1.1 1.11-.54 1-.34 4.56-.37 5.67h1.47a5.1 5.1 0 0 1 .24-2.09 1.32 1.32 0 0 0 .73-1.36c.66-.8 1.32-1.63 2-2.46 0-.48.08-1-.25-1.39m-2.39 15.55h-1.18a7.68 7.68 0 0 0 .22 2.28c.09.37-.3.48-.37.8-.18.6.09 1.09.12 1.66-.33.64-1.48.56-1.71 1.3-.15 1.23 1.4 2.23 2.38 2.58-1 1.59.53 2.32 2 2.1-.45-4.28.19-2.06 1.71-4.93a4.15 4.15 0 0 0-1-4.86c-.28-.24-.73-.05-1-.19s-.52-.74-1.11-.74m-1.88 14.41c-.21.7-.84 1-1.1 1.6a1.07 1.07 0 0 1-.37 1 1.55 1.55 0 0 1-.73.86 2.47 2.47 0 0 1-1 1.35c.22 1-.52 1.64-1 2.47-.28.21-.7 0-1 .24a1 1 0 0 1-.61.87c-1.11 0-1.48.49-1.7 1.6.91.28 2.48-.1 2.31-1.36a2.65 2.65 0 0 1 2.81-1.23 3.19 3.19 0 0 1 2-3.45c.22-1.24.23-2.63.36-3.94m4.64-2.22c.84.47 1.56 1.41 2.56 1.36.12.09-.09.37 0 .49a1.54 1.54 0 0 1 1.1 1.73c.61 1.35 3 1.51 2.69 3.38h2c0-1.3.29-2.93-1.28-3.51a2.65 2.65 0 0 0-2.08-2.09.94.94 0 0 1-.12-1v-1.44c-.77.21-1.67-.3-2.44.09-.3 1-1.59.71-2.44 1m-3.54.37c-.55 1.5.73 2.26 2.07 2-.32 1.45.82 2.52.37 3.94-.44 1.14 1.33 2 2.32 1.6-.48.45-.29 1-.61 1.48 0 .93 1.36 1.06 2.07 1 .16-.06-.09-.37 0-.49a2.36 2.36 0 0 1 1.35-.13c.09-2.1.06-1.87-1.59-2.83-.09-1.22-.4-1.42-1.59-1.72-.73-.71-.15-1.81-.85-2.47A3.87 3.87 0 0 0 681 355a1.84 1.84 0 0 0-1.71-1m7.2 11.46a4.77 4.77 0 0 0-1.47.24c0 .42 0 .62-.48.74-2.38-.45-2.13 2.13-2.08 3.7l.49.37c.47-.39.37-.93.37-1.48s0-.57.49-.61c.78-.83 2-.42 3-.37 0 1-.41 3 1.22 2.71a2.35 2.35 0 0 0 1.71.73 1.16 1.16 0 0 1 .36 1 1.24 1.24 0 0 1 1 .36l.48-.12c0-.66.18-1.55-.6-1.72a6.35 6.35 0 0 0-.24-1.48c.57-.8 1.27.21 2.07 0l.36-.49c-.69-.6-.45-3.84-.48-4.65s-1.19-2.44-1.71-1.14c-.31.7-.41 1.42-1.35 1.48a.74.74 0 0 0-1 .25c-.42.14-.49.63-.61 1-.38.34-1 .25-1.47.25-.21 0 .06-.62-.12-.74m-63.1 8.5c-.63.15-.87-.46-1.47-.5-.63-.4-1.19-1.33-2-.74 0 1.52 1.53 2.54 2.44 3.58 1.64.43 2.44 1.94 2.93 3.45s2.89-.47 2.81 3.57c-.12.85.73 1.39 1.34 1.84a12 12 0 0 1 3.54 4.19c.07 2.93 2.95 4.47 4.64 6.53.8 1.45 2.69 2.17 3.3 3.57 2.51-1.16 4.18 1.06 3.9-3.32.33-1.46.07-3.91 2.32-2.59.24 0 .28-.31.49-.37.14-1.22-.93-1.58-1.84-1.85a.89.89 0 0 1 .49-1c-.44-1.27-3.32-1.47-3.17.25h-1.34a4.72 4.72 0 0 1 0-2c-.42-.7-1.31-.22-2-.37a6.62 6.62 0 0 0-1.58-1c-.27-.34-.06-2.65-.12-3.08-1.21.18-2.64 0-2.94-1.36-.49-.61.06-1.43-.6-2-1.06.65-3 .07-3.18-1.24-.87-.19-1.33-1.41-2.2-2a1.41 1.41 0 0 1-.85-.87 8.42 8.42 0 0 0-1.47-.48 2.37 2.37 0 0 1-.12-1c-.82-.13-1.23-1.07-1.58-1.85-.58 0-1.25.56-1.83.5m-.86 5.63c0-.38-.35-.65-.61-.83-.26.56.14.91.25 1.48 0 .72.51.62 1.09.62l.13-.5c-.34-.24-.86-.34-.86-.77m1.83 3.23c.45 1.25 2 1.46 2.32 2.72a1.65 1.65 0 0 0-.61-2.1c-.38-.47-.66-1.09-1.34-1.11a1.38 1.38 0 0 0-.25 1zm3.91 5.42c-.26 1.23.65 2 1.34 3 .6.58.89 1.44 1.71 1.6.56.43.39 1.74 1.34 1.48v-2c-.62-.2-.78-.85-1.46-.87-.89.18-1.42-.68-1.59-1.47 0-1 .32-2.32-1.1-2.47l-.24.5c.06.18 0 0 0 .24m25.94-7.14a2.5 2.5 0 0 0-1 .12 3.5 3.5 0 0 1-.24 2c-.77.36-.66 1.21-.61 2-.31 1.36.41 2.05 1.59 2.46a4.13 4.13 0 0 0 .85.87c.12.21-.12.46-.12.74a1.25 1.25 0 0 1 .12.73 2.26 2.26 0 0 0 .37 2.47c.9.7 2.09.08 3.05.49.18 1.51 1.78 1.27 2.93 1.23.66-.23 1.2-.95 2-.49.43.2.59.64.86.86.3 0 .43-.37.73-.37.82 0 1.13.87 1.71 1.23a3.83 3.83 0 0 0 2.2 0c-.49-2.41 2-1.24 1.34-3.45-.75-.84-.8-1.38.24-2a6.23 6.23 0 0 0 1-2.59h1.46v-2.58c1.14 0 2.56.31 2.93-1.11-.4-.92-1.6-.29-2.44-.61a1 1 0 0 1 0-1.24c0-.43.06-1.07 0-1.47-.73-.89-.64-2.92-.61-4a6.3 6.3 0 0 0 1.84 0c-.06-.67-.11-1.74.84-1.54a2.57 2.57 0 0 1 1.47-.86c0-2.12-2.49-.57-3.42-1.6-.75-.1-.42-.72-.48-1.23-.61-.29-.6-.9-1-1.35a9.35 9.35 0 0 0-1-.25c0 .64-.62 1-1 1.48a2.72 2.72 0 0 0-2 1.23 11.12 11.12 0 0 1-1.59 2.46c-.41 1-1.59.77-2.44 1a3.31 3.31 0 0 0-1.47 2c-1.39.65-2.11 2.25-3.91 1.85V382c-1-.26-1.77.33-2.8.12-.61-.12-.73-.94-1.4-1.12zm-17.33 16.75a1.06 1.06 0 0 0-.37 1l.49.37c.06-.44-.18-.91-.12-1.35zm7.44 3.57v.68h1.47v1.11c2.66-.44 1.76 1.3 3.54 1.36a5 5 0 0 1 2.69-.49c2.84-.6 1.48.56 3.29.86a3.07 3.07 0 0 1 3.17.74c.59.61 1.41.32 2.2.49a1.38 1.38 0 0 1 .25-1c.44-.1.66.16 1 .37a3.67 3.67 0 0 0 1.71-.24c.69.13 1.37.22 1.71.86a2.69 2.69 0 0 0 3.06.49c-.33-.53-.41-1.19-1-1.48-.66.13-1-.36-1.34-.92h-3.78c-.33-1.86 1.84-.7 2.68-1.66a22.12 22.12 0 0 0-4.63-.62c-1.35.23-2.25-.75-3.55-.86zm26.49 4.19c-.71 0-1 .59-.36 1 .53.56 1.7.19 2.44.25.44-.09.61-.46.85-.74.87 0 1.83.34 2.69 0-.44.08-.2-.29-.25-.62-1.24.22-2.29-.78-3.54-.37-.37.1-.58.43-.85.62-.37 0-.61-.18-1-.12m6.1 2.09a6.3 6.3 0 0 0-1 .49c1.43 2.42 1.83 2.07 4.51 1.91l-.12-.55c-.57-.14-1.22-.19-1.21-.86-.52-.14-1.11-.15-1.35-.74-.18 0-.7-.28-.86-.25m.86-1.6c.86 1.27 2.31.66 3.6.74a22.61 22.61 0 0 0 3.6-.12 2.42 2.42 0 0 0 1.47-.86c.84-.14 1.93.35 2.56-.38l-.24-.49c-.45-.09-.66.14-1 .38a7.67 7.67 0 0 0-2.57.24c-1-.12-1.95.58-2.92.25a3.49 3.49 0 0 0-3.06-.62c-.64.14-1.1.79-1.83.62zm7.69 5.05c-.36.15-.61.31-1 .49a4.29 4.29 0 0 1 .25.74H686a2.23 2.23 0 0 0-.24-1.35 2.19 2.19 0 0 0-.49.12m1-2.09c-.55 1.08 1 1.14 1.7 1.35.43 0 .49-.52.74-.86.48-.51 1.09-1 1.58-1.48a8.22 8.22 0 0 1 1.47-.25c.65-.35 1-1.2 2-1.1.66-.1 1.57.37 1.71-.5a2.89 2.89 0 0 0-2.93-.74 2 2 0 0 1-1.46.74c-.45.46-1 .44-1.59.62 0 .95-1.06.48-1.71.62-.41.72-2 1.23-1.1 2.21zm2.56-26.48c-.15.06 0 .33-.12.49h-8.15c-.52 0-.52.67-1 .86-1.51.07-3.6.44-2.93 2.46a13.57 13.57 0 0 0 2.82-1.6c.52-.4 1.13-.06 1.46-.74 1 .48 3.53 0 4.51.37 1 .73 2 1.18 2.81-.12 1 .14 1.63-.93 1.83-1.85a2.65 2.65 0 0 0-1.22.13M674.69 393c.1 1.12 1.54 1.29 2.44 1.23.32.78-.17 1.42-.49 2.1-.16 1 .4 1.79.74 2.71 1.27-.52 1.12-1.65 1.09-2.83.38-.29.22-3.37.25-3.82h1.46c0 .38.05 1.29-.24 1.6l.12.49a21.08 21.08 0 0 0 2.44.49 4.35 4.35 0 0 1-.36 2c-.39 1.92 1.32 1.75 2.68 1.72a5.12 5.12 0 0 0 0-2.46c-.62-.44-1.67-.92-1.7-1.85a3.77 3.77 0 0 0 .24-1.72c-.51-.35-.8-.91-1.35-1.24-.48-.07-.7 0-.73-.61l.12-.87c.8 0 1.49.28 2.08-.37a10.46 10.46 0 0 1 2.44-.12c1.35-.71-1.45-2.72-2.2-2.58-2.43.39-1.41 2.91-5.25 1.11-1.66-1.25-2.25 2.41-2.19 3.44a1 1 0 0 1-1 .37 1.89 1.89 0 0 0-.61 1.23m22.95-13.17a8.45 8.45 0 0 1-1.84 1.84c-.42-.05-.63 0-.6.49a10.93 10.93 0 0 1 .12 3c-.83.82-.6 1.9-.67 3 .75 0 1.26.44 2 0a7.76 7.76 0 0 0 0-2.59 4.59 4.59 0 0 1 2.44 0c.27-.88.08-1.52-.73-1.85a3.35 3.35 0 0 0 .12-1.1 2.5 2.5 0 0 0-1.46 0 3.2 3.2 0 0 1 .12-1.24 1.07 1.07 0 0 0 .49-1.47m-3 13.42c-.63-.25-1.31-.29-2-.49l-.12 1c.39.87 1.49.91 2.32.86v-.86c-.12-.15-.06-.4-.24-.49m1.95-.37a.92.92 0 0 0 .12 1 32.51 32.51 0 0 1 3.42 0c1.14.08 1.9 1 3 .73a6 6 0 0 1-.06-1.47 29.25 29.25 0 0 1-4.21-.62c-1.23-.34-2-.61-2.32.86zm4.39-2.83a5.59 5.59 0 0 0 .13 1.29 8.57 8.57 0 0 1 1.52 0v-1.54h-1.4v.74zm2.45-3.08c1.55-1.17.23-2.4-1.23-2.09a6.79 6.79 0 0 1-.6 1.47 2.12 2.12 0 0 0 1.83.62m.6.86a2.29 2.29 0 0 0-1.58.49l.12.5a5 5 0 0 1 1.46.61c.59 0 1.18-.17 1.59.37.19.48.16 1.35 1 1.11a2.21 2.21 0 0 0 1.46-.37c.93.2 2.27.63 3-.12-.09-.16 0-.37-.12-.5-1.45-.34.52-2.86-1.34-2.95a2.39 2.39 0 0 0-2.69.36c-1.14.3-2.83-.26-3.29 1.24zm10.26-.18a4.79 4.79 0 0 1 .24 2.65h2.44v-.63h-1c.16-.72-.12-1.33 0-2a8.27 8.27 0 0 0-1.65 0M689 389.51c-.46-.05-.62 0-.73.5a1 1 0 0 0 1 .37 8.25 8.25 0 0 0 2.43 0c-.51.1-.19-.69-.24-1.05-.59 0-2.07-.34-2.44.18m19.41 5.3c.12-.06.33.06.49 0s.12-.49.36-.49a2.44 2.44 0 0 0 1.47.24c1.83 0 2.65 2.15 4.39 2.1a6.09 6.09 0 0 1 5.37 2.71c.73 1.3 1.5 1.44 1.1 3.08-.2.9-1 .83-1.71 1a2.49 2.49 0 0 0-1.22 1.35c0 1.66 1.88 1.64 2.81.61.09-1.15 1.27-1.2 2.07-.61 1.35 1.8 9.21 5.14 8.67.74 1.59.4 2.09-1.52 3.3-1.85 1.59.41 3.48 1.09 4 2.83 1.3.75 1.83 2.2 2.69 3.32a17.83 17.83 0 0 0 3.48-.24c1.35.26 2.05 2.43 3.72 1.73.08-1.52.13-2.27-1.59-2.47a1.85 1.85 0 0 0-2.19-1.35 3.23 3.23 0 0 0-2.44-.62v-3.14a17 17 0 0 0-2.14 0v-2.35a13.25 13.25 0 0 1 1.89 0v-.8c-.6-.17-.8-.81-1.34-1.11h-2.44a3.2 3.2 0 0 0-.86-.86c-.21-.44-.18-1-.36-1.48-1.71-.65-2.45-3.16-4.52-2.71a1.52 1.52 0 0 1-1.1-.49c-.15-.42-.25-.59-.73-.5-1.19-.08-2.06-.88-3.05-1.35h-2.08a6.3 6.3 0 0 1-4-1.47c-1.09-.1-2.31-1.73-3.06-.25-.56.6-1.32.47-2.07.49-1.58.18-.35 2.16-1.71 2.46-4.72.68-2.43-1.63-4.39-1.6-.65-.18-.87.53-1.5.49h-3v1c1.12.27 1.05 1.12 1 2.09h.73c.06-.15-.12-.43 0-.49m3.42 3.94a7 7 0 0 0-1 .74 4.12 4.12 0 0 1-.49 2c.23.35 1.45.19 1.71-.26.11-.87 1.49-2.26.24-2.83-.18.13-.3.25-.48.37m-20.63 4.93a1.33 1.33 0 0 0 .24 1c.47.12.63-.16 1-.36.54.18 1.07.47 1.46-.12l-.36-.5zm12.57 1.48a2.92 2.92 0 0 0 .12.49h1.47c1.16-.52 1-2 .24-2.84a6.28 6.28 0 0 0-1.71 1 10.26 10.26 0 0 0-.12 1.35m40.82-6.19c0 .44.21.81.06 1.23 2-.43 4.54 1.23 6-.49 1.49.25 2-1.39 2.08-2.59.37-.44.69-1 .24-1.48a4.23 4.23 0 0 0-1.95.62c-.18.3.09.65 0 1a2.27 2.27 0 0 0-.49 1 39.24 39.24 0 0 1-5.74-.12c0 .18-.24.68-.24.86m14 1.47c.23.65.85.8 1.34 1.24.27.66 1 1.6 1.71 1a2 2 0 0 0-.49-1 1 1 0 0 0-.37-1c-.67-.83-1.79-.59-1.46-2a2.31 2.31 0 0 0-1 .13 1.79 1.79 0 0 1 .25 1.59m12 8.26a1.48 1.48 0 0 0 2.32.37 3.51 3.51 0 0 1-.37-1 3 3 0 0 0-2.07-.24 7.43 7.43 0 0 0 .12.86m-41 4.8c0 1.08-1.23 2-1.71 3a2 2 0 0 0 .24 2c.08.54 0 1.39 0 2a3.18 3.18 0 0 1-.73 1.88c-.11.47.24 4.47-.24 4.77s-.92 1-1.71.86c-1-.15-2-.17-2.69-1 .07-.47-.08-.62-.49-.85-1.11-1.59-3.56-1.2-4.27-3.08-.13-.46-.27-.58-.73-.49-.67-.21-2.42-.08-2-1.2-.3-.69.16-1.28.13-2-.13-.35-.38-.61-.49-1 .06-.67.89-.54.85-1.23.41-1 1.62-1.47 1.83-2.47a20.46 20.46 0 0 0-4.63-.49 3.67 3.67 0 0 0-2.08-.49c-.6-.82-1.55-.76-2.44-1.12-.84-.92-1.89-.48-2.93-.55v.93c0 .91 1.06.49 1.59 1 .45.05.61.14.49.62-.89.67-2.17-.18-3.06.49-1 1.07-2.65 1.55-3.41 2.71.47 2.81-.18 4.21-3.18 3-.22-.88-1.19-.41-1.94-.5-.07-.36-.22-.74-.26-1.1a5.13 5.13 0 0 0-1.95.24 2.32 2.32 0 0 0-2 .5 7.38 7.38 0 0 1-1.09 1.47c-.34.06-.65-.12-1 0-1.52.94-.16 3-2.93 2.47a1.55 1.55 0 0 0 .73 1.72c.35.28.22 1.08.24 1.47h-2.13c.15-.48-.19-1.05 0-1.6-3-.32-2.93 1-2.87 3.45-.15.89-1.07 1.32-1.47 2.1 0 .41-.15.62-.61.74-.88.95-1.55 2.3-3 2.21-1.81.31-3.74-.18-5.25 1.12-.79.06-1.53-.29-2.07.49-2.57 1.59-3.87.66-4.27 4.06a9.61 9.61 0 0 1-1.95-.49 1.19 1.19 0 0 0-.37-1c-.16.61-.27 1-.86 1.23-.05 1 .25 2 .13 3.08-.14.43-.65.63-.86 1a2.33 2.33 0 0 0 .49 2c.95.65.94 2 1.83 2.83l-.12.5a1.12 1.12 0 0 0-1.1-.37c-.43-.39-1-.7-1.46-.25-.32 2 2.15 2.76 2.8 4.31-.31 1.58.87 2.59 1.1 4.07 0 1.64.94 2.71 1.71 4.06.55.78.34 1.69.37 2.58a8.92 8.92 0 0 1 .73 4.32 3.24 3.24 0 0 0-2.93 1.48l.12.49c1.62-.4 1.49 1 2.56 1.48 1.95 1.12 4.66 2.14 6.6.61.93-.18.72-1.28 1.46-1.6.51-1.19 2.19-.09 2.81-1.23 2.54-1 5.57 2.67 7.44-.12 1.24-2.12 3.39-4 5.86-4a3.76 3.76 0 0 0 2.93.62 13.57 13.57 0 0 0 2.93-2.71c1.75-.17 3.71-.48 5.37.24.93.37 1.5 1.5 2.59.93 2.83.12 4.75-.38 4.49 3.39 4.32-1 .78 7.26 5 3.57 0-.72.6-.8 1.1-1.23a1.66 1.66 0 0 1 .73-.86c.55-.55.61-1.31 1-2 3.27.8-.87 1.92.24 4.44.62-.05.47-.2.61-.62.47-.71.82 0 1.47-.12a24.08 24.08 0 0 1-.49 4.06c.87.28.95-.92 1.59-1.11 1.64 0-.14 1.66 2.32 2.47.48 1.17-.77 3 .73 3.82 1.19 1.2 2.54 1 4 1.22 1.3 1.87 5.89 2.42 5.49-1 1-.15 2.38.21 2.2 1.48.24 1.71 2.22 1.67 3 .37 1.07-.7 2-1.78 3.33-1.85 1.13.1 4.36.56 4.36-1 1-1.11-.26-2.75 1.59-3.08a1 1 0 0 0 .48-.74 4.85 4.85 0 0 1 .13-4.06c.15-1.77 2.23-2.15 2.69-3.7a1.74 1.74 0 0 1 .48-1.48c.29-.62 1.05-.69 1.59-.86a19.79 19.79 0 0 0 .24-2.71c1.53-2.22 2.88-5.82 1.35-8.25-1.83-1.28-.17-2.34-.37-3.94l-.24-.13v-2c-.32-.59-.93-1-1.23-1.6-.6-.69-.35-1.88-1.34-2.34-2.09-2.27-2.55-.63-2.32-4.43-3-.14-4.68-.09-4.39-3.7-1.91.19-.19-1.29-1.47-1.35-1.62-.45-2-1.7-3.17-2.47-.81-.46-2.08-.33-2.57-1.23a2.42 2.42 0 0 0-.6-2 29.45 29.45 0 0 1-.49-4.06c-.79-1.26-2-1.23-1.23-3.08-.06-1.33-1.6-.73-2.31-1.23-.6-.16-1.83-.09-1.59-1a1.58 1.58 0 0 0-.24-1c0-.7.11-1.32 0-2-.25-.34-.61-.51-.61-1-1.08-.77 0-3.47-2.08-3.33-.14.5-.12 1-.24 1.48M702 412.3c-1.06-.07-1.42 1.63-.24 1.6.87-.51 1.94-.3 2.93-.49v-1c-1-.45-2.09.17-3.17 0zm78.73 21.92a4.4 4.4 0 0 1 .61 1c.28.23.85.31 1 .74s-.18 1.09.36 1.48c.75 1.11 2.32 1.26 3.42 2a3.07 3.07 0 0 0 2.07.49c.11-1.15-1-1.61-2-1.85-.36-.32-.55-.71-1.09-.73a.85.85 0 0 1-.49-1c-.77-1.26-2.27-2.63-3.85-2.13zm24.17 43.7c0 .63.49 1.05.73 1.54v3.11h-2.45a8 8 0 0 0 0 2.34h3.15V489h2.11c-.21-1.38.81-1.82 1.7-2.53.23-1.05 1.11-1.8.86-2.95h1.71a1.9 1.9 0 0 1 .61-1.6 1 1 0 0 1 .36-1c.73.1.84-.38.62-1a1 1 0 0 0-1.59-.86c.06.61-.12.69-.8.61-1 .05-2-.44-2.86 0a3.44 3.44 0 0 1 .24-2.06c0-.44-.46-.56-.73-.86s-.45-.75-1-.62c-.51.45-.21 1-.73 1.48-1.62-.5-.74-2.11-1-3.2-.07-.13-.37.09-.49 0s-.13-.37-.25-.5a1.51 1.51 0 0 1-.73-.86c-.79-.65-1.84-3.44-2.93-1.72a6.21 6.21 0 0 0 2.32 3.57c1 .34 1.31 2.11 1.1 3.05m-15.5 27.49c-.27 1-.8 0-.86.93h1.95a2.83 2.83 0 0 0-.12-1c-.15.16-.82 0-1 .12m3.05-1.23c.33-.33.85-.46 1-1a2.83 2.83 0 0 1 2-.37c-.29-1.57 1.09-2.14 2-3.08.73-3.71 1.19-3.78 4.76-3.95-.62-1-1.1-1.3-.12-2.34.41-.75 1.5-.58 1.83-1.34.63-.3.49-.89.49-1.48.33-.31.24-1.55.24-2a7.16 7.16 0 0 1-2.32-.12c-.15-1.43-1.54-1.82-2.81-1.48v2.34c-3.92 1.4-.44 2.35-2.56 4.06a4.5 4.5 0 0 1-2.07 1.36 4.42 4.42 0 0 1-2 1.11c-.36.53-.86.85-1.22 1.36a7.27 7.27 0 0 0-1.58.49 3.57 3.57 0 0 1-3.18 2.59 1.8 1.8 0 0 1-.49 1.47c.2 1.24 1.69 1.25 2.69 1.11 1.47-.23 1.83 1.68 3.42 1.23M734 484c-1.25.31-.6 1.54 0 2.21l.49-.12v-2c-.18 0-.34-.19-.49-.12m8.91.61c-.11.84 0 1.47 1 1.36a6.37 6.37 0 0 1 .24 1h.85c0-.64.2-1.57-.61-1.73a2.12 2.12 0 0 1-.49-1c-.4-.13-.68.15-1 .37m-7.57 3.57a2.78 2.78 0 0 1 .49 2c.23 1.09 1.61 1.13 2.08 2.1s1.31 1.82 1.71 3c.22.27 1.31.05 1.64.12a5.28 5.28 0 0 0 0-1.73h2a4.27 4.27 0 0 0-.37-2.22c0-.42.36-.59.73-.61 1-.49.2-1.64.43-2.47h-2.84a1.79 1.79 0 0 1-1.13.25.82.82 0 0 1-1 .12c-.61-.53-1.11-1.49-1.83-1.85-.62.12-1.61-.08-1.59.75 0 .18-.39.46-.37.61M585 363c-.93.35-.36 1.19-.61 1.85.39.55 0 1 .24 1.6-1.65 2.76.36 5.55 3.6 4.68a27.53 27.53 0 0 0-.18-4.06c-.69-1.41-2.44-2.21-2.32-3.94zM216.12 173.61l1.71-1.24 2.93-.74-2.93-2c-1.89-.12-6-.3-7.81-.24a15.81 15.81 0 0 0 1.22 3.94zm-12.7 43.1a3.71 3.71 0 0 0 3.18-2l-.25-1c-1.19 1-2.88 1.21-4.15 2.22.43.24.67.73 1.22.73m6.35-.49l1.95-1 2 .25a14.45 14.45 0 0 1 .24 2.71c-.6.62-2.64.51-3.42.5z" transform="translate(-6.3 -117.86)"/></svg>