<svg id="Layer_1" xmlns="http://www.w3.org/2000/svg" xmlns:xlink="http://www.w3.org/1999/xlink" width="47" height="43" viewBox="0 0 47 43"><style>.st0{clip-path:url(#SVGID_2_);fill:#3d504e}</style><defs><path id="SVGID_1_" d="M.5.4h46v42.2H.5z"/></defs><clipPath id="SVGID_2_"><use xlink:href="#SVGID_1_" overflow="visible"/></clipPath><path class="st0" d="M16.6 28c1.4 3.3 5 5.1 8.4 4.3l-1.6-2.1c-2 0-3.9-1.2-4.7-3.1-.4-1-.5-2.2-.3-3.2l-1.6-2c-.9 1.9-1 4.1-.2 6.1"/><path class="st0" d="M44.2 37c0 3.4-3.4 3.4-3.4 3.4H6.2c-3.4 0-3.4-3.4-3.4-3.4V14.5C2.8 11 6.2 11 6.2 11h6.5l1.1-5.2c.7-3.4 4.2-3.4 4.2-3.4h11.1s3.4 0 4.2 3.4l1.1 5.2h6.4c3.4 0 3.4 3.4 3.4 3.4V37zm2.3.4V14.1s0-5.2-5.2-5.2h-5.4l-.7-3.4C34.1.4 29 .4 29 .4H18s-5.2 0-6.3 5.2L11 9H5.7S.5 9 .5 14.2v23.3s0 5.2 5.2 5.2h35.7c-.1-.1 5.1-.1 5.1-5.3"/><path class="st0" d="M33.2 25.2c0 5.4-4.4 9.7-9.7 9.7-5.4 0-9.7-4.4-9.7-9.7s4.4-9.7 9.7-9.7c5.4 0 9.7 4.3 9.7 9.7m2.2 0c0-6.6-5.3-11.9-11.9-11.9-6.6 0-11.9 5.3-11.9 11.9s5.3 11.9 11.9 11.9c6.6 0 11.9-5.3 11.9-11.9m4.5-7.7c1.2 0 2.1-.9 2.1-2.1 0-1.2-.9-2.1-2.1-2.1s-2.1.9-2.1 2.1c-.1 1.2.9 2.1 2.1 2.1"/></svg>