<?xml version="1.0" encoding="utf-8"?>
<!-- Generator: Adobe Illustrator 21.1.0, SVG Export Plug-In . SVG Version: 6.00 Build 0)  -->
<svg version="1.1" id="Layer_1" xmlns="http://www.w3.org/2000/svg" xmlns:xlink="http://www.w3.org/1999/xlink" x="0px" y="0px"
	 width="68px" height="68px" viewBox="0 0 68 68" style="enable-background:new 0 0 68 68;" xml:space="preserve">
<style type="text/css">
	.st0{fill:#FFFFFF;}
	.st1{clip-path:url(#SVGID_2_);fill:#FFFFFF;}
</style>
<g>
	<path class="st0" d="M54.7,32l-0.8,5.4l-10.5,0v-1.9L54.7,32z M50.2,26.1H34h0H17.8l4.9-6.3H34h0h11.3L50.2,26.1z M13.3,32
		l11.3,3.4v1.9l-10.5,0L13.3,32z M26.2,35L15,29l14.4,6L26.2,35z M38.6,35L54,30l-12.2,5L38.6,35z M19.1,39.7H34h0h14.9L43,43.7h-9
		h0H24L19.1,39.7z M57.8,28l3.4-1.7v-1.9h-5.8v2.6l-7.8-9.2H34h0H20.4l-7.8,9.2v-2.6H6.8v1.9l3.4,1.7l1.7,0l-1.6,1.9v3.7H9v16.6h8.3
		v-3.6h1.8v0.7h2.3v-0.7H34h0h12.5v0.7h2.3v-0.7h1.8v3.6H59V33.5h-1.2v-3.7l-1.6-1.9L57.8,28z"/>
	<g>
		<defs>
			<rect id="SVGID_1_" x="0.1" y="0.4" width="67.8" height="67.3"/>
		</defs>
		<clipPath id="SVGID_2_">
			<use xlink:href="#SVGID_1_"  style="overflow:visible;"/>
		</clipPath>
		<path class="st1" d="M66.1,34c0,17.6-14.4,31.9-32.1,31.9S1.9,51.6,1.9,34C1.9,16.4,16.3,2.1,34,2.1S66.1,16.4,66.1,34 M67.9,34
			C67.9,15.4,52.7,0.4,34,0.4C15.3,0.4,0.1,15.4,0.1,34S15.3,67.6,34,67.6C52.7,67.6,67.9,52.6,67.9,34"/>
	</g>
</g>
</svg>
