<?xml version="1.0" encoding="utf-8"?>
<!-- Generator: Adobe Illustrator 21.1.0, SVG Export Plug-In . SVG Version: 6.00 Build 0)  -->
<svg version="1.1" id="Layer_1" xmlns="http://www.w3.org/2000/svg" xmlns:xlink="http://www.w3.org/1999/xlink" x="0px" y="0px"
	 width="140px" height="80px" viewBox="0 0 140 80" style="enable-background:new 0 0 140 80;" xml:space="preserve">
<style type="text/css">
	.st0{clip-path:url(#SVGID_2_);fill:#3D504E;}
	.st1{fill:#3D504E;}
	.st2{clip-path:url(#SVGID_4_);fill:#3D504E;}
</style>
<g>
	<g>
		<defs>
			<rect id="SVGID_1_" x="0.1" y="1.2" width="139.8" height="78.8"/>
		</defs>
		<clipPath id="SVGID_2_">
			<use xlink:href="#SVGID_1_"  style="overflow:visible;"/>
		</clipPath>
		<path class="st0" d="M105,73.2c1.3,0,2.3-1,2.3-2.3c0-1.3-1-2.3-2.3-2.3s-2.3,1-2.3,2.3C102.7,72.1,103.7,73.2,105,73.2"/>
		<path class="st0" d="M110.7,70.9c0,3.2-2.6,5.8-5.8,5.8c-3.2,0-5.8-2.6-5.8-5.8c0-3.2,2.6-5.8,5.8-5.8
			C108.1,65.1,110.7,67.7,110.7,70.9 M114.1,70.9c0-5-4.1-9.1-9.1-9.1c-5,0-9.1,4.1-9.1,9.1S99.9,80,105,80
			C110,80,114.1,75.9,114.1,70.9"/>
		<path class="st0" d="M126.3,73.2c1.3,0,2.3-1,2.3-2.3c0-1.3-1-2.3-2.3-2.3c-1.3,0-2.3,1-2.3,2.3C124,72.1,125,73.2,126.3,73.2"/>
		<path class="st0" d="M132.1,70.9c0,3.2-2.6,5.8-5.8,5.8s-5.8-2.6-5.8-5.8c0-3.2,2.6-5.8,5.8-5.8S132.1,67.7,132.1,70.9
			 M135.4,70.9c0-5-4.1-9.1-9.1-9.1c-5,0-9.1,4.1-9.1,9.1s4.1,9.1,9.1,9.1C131.3,80,135.4,75.9,135.4,70.9"/>
		<path class="st0" d="M20.3,73.2c1.3,0,2.3-1,2.3-2.3c0-1.3-1-2.3-2.3-2.3c-1.3,0-2.3,1-2.3,2.3C18,72.1,19,73.2,20.3,73.2"/>
		<path class="st0" d="M26,70.9c0,3.2-2.6,5.8-5.8,5.8s-5.8-2.6-5.8-5.8c0-3.2,2.6-5.8,5.8-5.8S26,67.7,26,70.9 M29.4,70.9
			c0-5-4.1-9.1-9.1-9.1s-9.1,4.1-9.1,9.1s4.1,9.1,9.1,9.1S29.4,75.9,29.4,70.9"/>
	</g>
	<polygon class="st1" points="70,1.2 66.8,6 66.8,6 66.8,12.2 70.6,10.5 70.6,7.2 73.2,3.3 	"/>
	<g>
		<defs>
			<rect id="SVGID_3_" x="0.1" y="1.2" width="139.8" height="78.8"/>
		</defs>
		<clipPath id="SVGID_4_">
			<use xlink:href="#SVGID_3_"  style="overflow:visible;"/>
		</clipPath>
		<path class="st2" d="M54.2,35.7l-5.5,8.4H36l5.5-8.4H54.2z M9.5,57.2l-6.8,8.9l2.6-12.5l4.2,0V57.2z M122.3,56.4v-1.5h1.5v-2.3
			h-1.5h-9.4h-1.5v2.3h1.5v1.5H89.2V10.1H73.8L73,10.4V58h-3.8V12.1l-20.8,9.2L31.9,43.8l-21.8,2.4L2.8,53L0.1,68.3L1,72.6h7.7
			c-0.1-0.6-0.1-1.2-0.1-1.8c0-6.5,5.2-11.7,11.7-11.7S32,64.4,32,70.9c0,0.6-0.1,1.2-0.1,1.8h36.1l21.3-3.1v-3.6h5.5
			c1.8-3.8,5.7-6.4,10.2-6.4s8.4,2.6,10.2,6.4h0.9c1.8-3.8,5.7-6.4,10.2-6.4c4.5,0,8.4,2.6,10.2,6.4h3.3v-9.5H122.3z"/>
	</g>
</g>
</svg>
