<?xml version="1.0" encoding="utf-8"?>
<!-- Generator: Adobe Illustrator 21.1.0, SVG Export Plug-In . SVG Version: 6.00 Build 0)  -->
<svg version="1.1" id="Layer_1" xmlns="http://www.w3.org/2000/svg" xmlns:xlink="http://www.w3.org/1999/xlink" x="0px" y="0px"
	 width="140px" height="80px" viewBox="0 0 140 80" style="enable-background:new 0 0 140 80;" xml:space="preserve">
<style type="text/css">
	.st0{clip-path:url(#SVGID_2_);fill:#3D504E;}
	.st1{fill:#3D504E;}
</style>
<g>
	<g>
		<defs>
			<rect id="SVGID_1_" x="14.3" y="43.2" width="111.3" height="36.8"/>
		</defs>
		<clipPath id="SVGID_2_">
			<use xlink:href="#SVGID_1_"  style="overflow:visible;"/>
		</clipPath>
		<path class="st0" d="M32.2,72.9c1.1,0,2-0.9,2-2c0-1.1-0.9-2-2-2c-1.1,0-2,0.9-2,2C30.1,72,31,72.9,32.2,72.9"/>
		<path class="st0" d="M37.6,71.2c0,3-2.5,5.5-5.5,5.5s-5.5-2.5-5.5-5.5s2.5-5.5,5.5-5.5S37.6,68.2,37.6,71.2 M40.9,71.2
			c0-4.8-3.9-8.8-8.7-8.8s-8.7,3.9-8.7,8.8s3.9,8.8,8.7,8.8S40.9,76.1,40.9,71.2"/>
		<path class="st0" d="M102.5,50.4l-0.1,1.8l-10.9,2.6h-7.8l1.5-8.9l8,0l6.9,2.6L102.5,50.4z M82.4,45.8l-3.3,8.9H52.6l12.2-7.1
			l9.5-1.8L82.4,45.8z M26.5,58.8l-7.6,5.3l-2.4,0l0-2.1l2.6-1.6L26.5,58.8z M125.9,69.5l-0.7-7.6l-0.7-3.3l-4.4-4.4l-3.1-2
			l-0.7-0.3l-22.6-8.5H73.8l-10.3,2.1l-15.1,8.2l-7.8,0.6l-22.3,4.2l-3.8,2.1v7l0.8,1.3l-0.8,0.6v2.2l2.5,1.9H22
			c-0.2-0.8-0.3-1.7-0.3-2.5c0-5.8,4.7-10.5,10.4-10.5c5.8,0,10.4,4.7,10.4,10.5c0,0.9-0.1,1.7-0.3,2.5h50.9
			c-0.2-0.8-0.3-1.7-0.3-2.5c0-5.8,4.7-10.5,10.4-10.5c5.8,0,10.4,4.7,10.4,10.5c0,0.3,0,0.5,0,0.8l6.6-0.1L125.9,69.5z"/>
	</g>
	<g>
		<path class="st1" d="M103.2,72.7c1.1,0,2-0.9,2-2c0-1.1-0.9-2-2-2c-1.1,0-2,0.9-2,2C101.2,71.8,102.1,72.7,103.2,72.7"/>
		<path class="st1" d="M108.7,71.2c0,3-2.5,5.5-5.5,5.5c-3,0-5.5-2.5-5.5-5.5s2.5-5.5,5.5-5.5C106.2,65.7,108.7,68.2,108.7,71.2
			 M111.9,71.2c0-4.8-3.9-8.8-8.7-8.8c-4.8,0-8.7,3.9-8.7,8.8s3.9,8.8,8.7,8.8C108,80,111.9,76.1,111.9,71.2"/>
	</g>
</g>
</svg>
