<?xml version="1.0" encoding="utf-8"?>
<!-- Generator: Adobe Illustrator 21.1.0, SVG Export Plug-In . SVG Version: 6.00 Build 0)  -->
<svg version="1.1" id="Layer_1" xmlns="http://www.w3.org/2000/svg" xmlns:xlink="http://www.w3.org/1999/xlink" x="0px" y="0px"
	 width="800px" height="80px" viewBox="0 0 800 80" style="enable-background:new 0 0 800 80;" xml:space="preserve">
<style type="text/css">
	.st0{clip-path:url(#SVGID_2_);fill:#3D504E;}
	.st1{fill:#3D504E;}
	.st2{clip-path:url(#SVGID_4_);fill:#3D504E;}
	.st3{clip-path:url(#SVGID_6_);fill:#3D504E;}
	.st4{clip-path:url(#SVGID_8_);fill:#3D504E;}
	.st5{clip-path:url(#SVGID_10_);fill:#3D504E;}
</style>
<g>
	<defs>
		<rect id="SVGID_1_" x="52.1" y="23.9" width="695.8" height="56.1"/>
	</defs>
	<clipPath id="SVGID_2_">
		<use xlink:href="#SVGID_1_"  style="overflow:visible;"/>
	</clipPath>
	<path class="st0" d="M135.8,75.5c0.8,0,1.5-0.7,1.5-1.5c0-0.8-0.7-1.5-1.5-1.5c-0.8,0-1.5,0.7-1.5,1.5
		C134.2,74.8,134.9,75.5,135.8,75.5"/>
	<path class="st0" d="M135.8,75.5c0.8,0,1.5-0.7,1.5-1.5c0-0.8-0.7-1.5-1.5-1.5c-0.8,0-1.5,0.7-1.5,1.5
		C134.2,74.8,134.9,75.5,135.8,75.5"/>
	<path class="st0" d="M95.1,75.5c0.8,0,1.5-0.7,1.5-1.5c0-0.8-0.7-1.5-1.5-1.5c-0.8,0-1.5,0.7-1.5,1.5
		C93.6,74.8,94.3,75.5,95.1,75.5"/>
	<path class="st0" d="M80.4,75.5c0.8,0,1.5-0.7,1.5-1.5c0-0.8-0.7-1.5-1.5-1.5s-1.5,0.7-1.5,1.5C78.9,74.8,79.6,75.5,80.4,75.5"/>
	<path class="st0" d="M139.6,73.9c0,2.1-1.7,3.8-3.8,3.8c-2.1,0-3.8-1.7-3.8-3.8s1.7-3.8,3.8-3.8C137.9,70.1,139.6,71.8,139.6,73.9
		 M141.8,73.9c0-3.4-2.7-6.1-6.1-6.1c-3.4,0-6.1,2.7-6.1,6.1c0,3.4,2.7,6.1,6.1,6.1C139.1,80,141.8,77.3,141.8,73.9"/>
	<path class="st0" d="M139.6,73.9c0,2.1-1.7,3.8-3.8,3.8c-2.1,0-3.8-1.7-3.8-3.8s1.7-3.8,3.8-3.8C137.9,70.1,139.6,71.8,139.6,73.9
		 M141.8,73.9c0-3.4-2.7-6.1-6.1-6.1c-3.4,0-6.1,2.7-6.1,6.1c0,3.4,2.7,6.1,6.1,6.1C139.1,80,141.8,77.3,141.8,73.9"/>
	<path class="st0" d="M99,73.9c0,2.1-1.7,3.8-3.8,3.8c-2.1,0-3.8-1.7-3.8-3.8s1.7-3.8,3.8-3.8C97.3,70.1,99,71.8,99,73.9
		 M101.2,73.9c0-3.4-2.7-6.1-6.1-6.1c-3.4,0-6.1,2.7-6.1,6.1c0,3.4,2.7,6.1,6.1,6.1C98.5,80,101.2,77.3,101.2,73.9"/>
	<path class="st0" d="M84.2,73.9c0,2.1-1.7,3.8-3.8,3.8c-2.1,0-3.8-1.7-3.8-3.8s1.7-3.8,3.8-3.8C82.5,70.1,84.2,71.8,84.2,73.9
		 M86.5,73.9c0-3.4-2.7-6.1-6.1-6.1c-3.4,0-6.1,2.7-6.1,6.1c0,3.4,2.7,6.1,6.1,6.1C83.8,80,86.5,77.3,86.5,73.9"/>
	<path class="st0" d="M122.8,68.8h-12v3.5h12V68.8z M150.7,66.9l-2.5,0l-1.3-7.3l3.8,4.6V66.9z M129.7,50.1H118v-8.4h7.7L129.7,50.1
		z M118,51.7h2.3v8.4H118V51.7z M153.4,71.6l-0.1-11l-3.8-5.8l-17.2-5.8L126.1,38h-13.3v23.9h12.5v1.6H83.5v3.5h41.8v5.2h2.3
		c0.7-3.9,4.1-6.8,8.2-6.8s7.5,2.9,8.2,6.8h2.6L153.4,71.6z"/>
	<path class="st0" d="M100.8,43.2c0,0.6-0.5,1.1-1.1,1.1c-0.6,0-1.1-0.5-1.1-1.1c0-0.6,0.5-1.1,1.1-1.1
		C100.3,42.1,100.8,42.6,100.8,43.2 M102.6,58.4V39.7h-1.2l-21-15.8L78.7,26l2.7,2l-7,16.5c-0.2,0-0.3,0-0.5,0
		c-1.5,0-2.8,1.3-2.8,2.8c0,1.5,1.3,2.8,2.8,2.8s2.8-1.3,2.8-2.8c0-0.8-0.4-1.6-1-2.1L82.6,29l14.3,10.8h-0.2v18.7h-1.5v3.4h8.8
		v-3.4H102.6z"/>
	<path class="st0" d="M81,55.6l-9.6,4.7l-2.2-4.4l3.6-1.8l7.4,0L81,55.6z M94.7,53.8l-2.2-3L87.1,51l-3.6,1.4l-1,0.2l-10.1-0.1
		l-12.2,6L56.1,65l0.1,0.1l-4,1.9c0,0,0.5,5.4,0.6,5.5c0.1,0.1,1.7,3.5,1.7,3.5l3.5,0l1-0.5c-0.7-0.9-1.1-2-1.1-3.3
		c0-2.9,2.4-5.3,5.3-5.3c2.5,0,4.5,1.7,5.1,4l16.1-7.9c-0.8-0.9-1.3-2.1-1.3-3.4c0-2.9,2.4-5.3,5.3-5.3c2.6,0,4.7,1.8,5.2,4.2
		L94.7,53.8z"/>
	<path class="st0" d="M91,59.6c0,1.4-1.1,2.5-2.5,2.5c-1.4,0-2.5-1.1-2.5-2.5c0-1.4,1.1-2.5,2.5-2.5C89.8,57.1,91,58.2,91,59.6
		 M92.4,59.6c0-2.2-1.8-4-4-4c-2.2,0-4,1.8-4,4s1.8,4,4,4C90.7,63.6,92.4,61.8,92.4,59.6"/>
	<path class="st0" d="M65.7,72.3c0,1.4-1.1,2.5-2.5,2.5c-1.4,0-2.5-1.1-2.5-2.5s1.1-2.5,2.5-2.5C64.6,69.8,65.7,70.9,65.7,72.3
		 M67.2,72.3c0-2.2-1.8-4-4-4c-2.2,0-4,1.8-4,4s1.8,4,4,4C65.4,76.3,67.2,74.5,67.2,72.3"/>
	<path class="st0" d="M280.9,75c-0.9,0-1.6-0.7-1.6-1.6c0-0.9,0.7-1.6,1.6-1.6c0.9,0,1.6,0.7,1.6,1.6C282.5,74.3,281.7,75,280.9,75"
		/>
	<path class="st0" d="M276.8,73.4c0,2.2,1.8,4,4,4c2.2,0,4-1.8,4-4s-1.8-4-4-4C278.6,69.4,276.8,71.2,276.8,73.4 M274.5,73.4
		c0-3.5,2.9-6.4,6.4-6.4c3.5,0,6.4,2.9,6.4,6.4s-2.9,6.4-6.4,6.4C277.3,79.8,274.5,76.9,274.5,73.4"/>
	<path class="st0" d="M261.7,75c-0.9,0-1.6-0.7-1.6-1.6c0-0.9,0.7-1.6,1.6-1.6s1.6,0.7,1.6,1.6C263.3,74.3,262.6,75,261.7,75"/>
	<path class="st0" d="M257.7,73.4c0,2.2,1.8,4,4,4c2.2,0,4-1.8,4-4s-1.8-4-4-4C259.5,69.4,257.7,71.2,257.7,73.4 M255.3,73.4
		c0-3.5,2.9-6.4,6.4-6.4c3.5,0,6.4,2.9,6.4,6.4s-2.9,6.4-6.4,6.4C258.2,79.8,255.3,76.9,255.3,73.4"/>
	<path class="st0" d="M331.5,75c-0.9,0-1.6-0.7-1.6-1.6c0-0.9,0.7-1.6,1.6-1.6s1.6,0.7,1.6,1.6C333.1,74.3,332.4,75,331.5,75"/>
	<path class="st0" d="M327.5,73.4c0,2.2,1.8,4,4,4c2.2,0,4-1.8,4-4s-1.8-4-4-4C329.3,69.4,327.5,71.2,327.5,73.4 M325.1,73.4
		c0-3.5,2.9-6.4,6.4-6.4c3.5,0,6.4,2.9,6.4,6.4s-2.9,6.4-6.4,6.4C328,79.8,325.1,76.9,325.1,73.4"/>
	<path class="st0" d="M314,54.3l11.6,0l-6.1-8.4H314V54.3z M339.1,63.8l4.8,6.3l-1.8-8.7l-2.9,0V63.8z M289.4,73.4
		c0-2.4-1-4.5-2.5-6.1h24.4V43.2l9.6,0l8.1,11.2l9.8,1.7l5.1,4.7l1.9,10.7l-0.6,3h-5.4c0.1-0.4,0.1-0.8,0.1-1.2
		c0-4.5-3.7-8.2-8.2-8.2c-4.5,0-8.2,3.7-8.2,8.2c0,0.4,0,0.8,0.1,1.2h-12.2v-0.1h-21.9C289.4,74.2,289.4,73.8,289.4,73.4
		 M274.9,67.3c-1.6,1.5-2.5,3.7-2.5,6.1c0,0.4,0,0.8,0.1,1.2h-2.3c0.1-0.4,0.1-0.8,0.1-1.2c0-2.4-1-4.5-2.5-6.1H274.9z"/>
	<path class="st0" d="M250.8,70.9V65v-2.5h10.8h47V65h-45.6c-0.5-0.1-0.9-0.1-1.4-0.1c-3.8,0-7.1,2.5-8.2,6H250.8z"/>
</g>
<path class="st1" d="M272.1,50.2l7.6,7.6l7.6-7.6l-7.6-7.6L272.1,50.2z M250.8,56.2v-12l2.4-5.3h11.4v-1.3h-0.9v-1.8h0.9h6.5h0.9
	v1.8h-0.9v1.3h24.4v-1.3h-1v-1.8h1h3.8h1v1.8h-1v1.3h6.5l2.5,5.6l-0.1,11.6l-2.4,4.6h-52.6L250.8,56.2z"/>
<g>
	<defs>
		<rect id="SVGID_3_" x="52.1" y="23.9" width="695.8" height="56.1"/>
	</defs>
	<clipPath id="SVGID_4_">
		<use xlink:href="#SVGID_3_"  style="overflow:visible;"/>
	</clipPath>
	<path class="st2" d="M508.2,74.7c0.8,0,1.5-0.7,1.5-1.5c0-0.8-0.7-1.5-1.5-1.5s-1.5,0.7-1.5,1.5C506.7,74,507.4,74.7,508.2,74.7"/>
	<path class="st2" d="M511.9,73.2c0,2.1-1.7,3.8-3.7,3.8c-2,0-3.7-1.7-3.7-3.8s1.7-3.8,3.7-3.8C510.2,69.4,511.9,71.1,511.9,73.2
		 M514.1,73.2c0-3.3-2.6-6-5.9-6c-3.3,0-5.9,2.7-5.9,6s2.6,6,5.9,6C511.4,79.2,514.1,76.5,514.1,73.2"/>
	<path class="st2" d="M451.6,75.2c0.9,0,1.6-0.7,1.6-1.6c0-0.9-0.7-1.6-1.6-1.6c-0.9,0-1.6,0.7-1.6,1.6
		C450,74.4,450.7,75.2,451.6,75.2"/>
	<path class="st2" d="M455.6,73.5c0,2.2-1.8,4.1-4,4.1c-2.2,0-4-1.8-4-4.1c0-2.2,1.8-4.1,4-4.1C453.8,69.5,455.6,71.3,455.6,73.5
		 M457.9,73.5c0-3.6-2.8-6.5-6.4-6.5c-3.5,0-6.4,2.9-6.4,6.5c0,3.6,2.8,6.5,6.4,6.5C455.1,80,457.9,77.1,457.9,73.5"/>
	<path class="st2" d="M519.8,62.6h-36.7V46.3h36.7V62.6z M473.2,54.3l-11,0l5.2-8.5h5.7V54.3z M444,63.9l-4.7,6.3l1.8-8.8l2.9,0
		V63.9z M536,74.8v-2.9h-2.5v-6.1h-6.7v-21h1.9V37h-0.3l0.1-0.1l-50.3-4.2c-0.6-0.5-5.4-1.1-5.4-1.1l-2.5,6.7l5.8,3.4l-1.4-5
		l3.1-1.9l42.1,6.7v1.3H500v-2.5h-2.8v2.5h-2.3v-2.5h-10.5v2.5h-5.2v27.3h-1.4v-27h-11.7l-8.1,11.3l-13.6,1.7l-5.1,4.8l-1.9,10.8
		l0.6,3.1h5.4c-0.1-0.4-0.1-0.8-0.1-1.2c0-4.6,3.6-8.3,8.2-8.3c4.5,0,8.2,3.7,8.2,8.3c0,0.4,0,0.8-0.1,1.2l40.7,0
		c-0.1-0.5-0.2-1.1-0.2-1.6c0-4.5,3.6-8.2,8.1-8.2c4.4,0,8.1,3.7,8.1,8.2c0,0.5-0.1,1.1-0.2,1.6h10.7h6.7H536z"/>
</g>
<rect x="484.9" y="48.1" class="st1" width="33.1" height="12.6"/>
<g>
	<defs>
		<rect id="SVGID_5_" x="52.1" y="23.9" width="695.8" height="56.1"/>
	</defs>
	<clipPath id="SVGID_6_">
		<use xlink:href="#SVGID_5_"  style="overflow:visible;"/>
	</clipPath>
	<path class="st3" d="M708.8,74.6c1,0,1.8-0.8,1.8-1.8s-0.8-1.8-1.8-1.8c-1,0-1.8,0.8-1.8,1.8S707.8,74.6,708.8,74.6"/>
	<path class="st3" d="M713.4,72.8c0,2.5-2,4.5-4.5,4.5c-2.5,0-4.5-2-4.5-4.5s2-4.5,4.5-4.5C711.3,68.3,713.4,70.3,713.4,72.8
		 M716,72.8c0-4-3.2-7.2-7.2-7.2s-7.2,3.2-7.2,7.2c0,4,3.2,7.2,7.2,7.2S716,76.8,716,72.8"/>
	<path class="st3" d="M730.3,74.6c1,0,1.8-0.8,1.8-1.8s-0.8-1.8-1.8-1.8c-1,0-1.8,0.8-1.8,1.8S729.3,74.6,730.3,74.6"/>
	<path class="st3" d="M734.8,72.8c0,2.5-2,4.5-4.5,4.5c-2.5,0-4.5-2-4.5-4.5s2-4.5,4.5-4.5C732.8,68.3,734.8,70.3,734.8,72.8
		 M737.5,72.8c0-4-3.2-7.2-7.2-7.2s-7.2,3.2-7.2,7.2c0,4,3.2,7.2,7.2,7.2S737.5,76.8,737.5,72.8"/>
	<path class="st3" d="M629.7,74.6c1,0,1.8-0.8,1.8-1.8s-0.8-1.8-1.8-1.8c-1,0-1.8,0.8-1.8,1.8S628.7,74.6,629.7,74.6"/>
	<path class="st3" d="M634.2,72.8c0,2.5-2,4.5-4.5,4.5s-4.5-2-4.5-4.5s2-4.5,4.5-4.5S634.2,70.3,634.2,72.8 M636.9,72.8
		c0-4-3.2-7.2-7.2-7.2c-4,0-7.2,3.2-7.2,7.2c0,4,3.2,7.2,7.2,7.2C633.7,80,636.9,76.8,636.9,72.8"/>
	<path class="st3" d="M715.6,66c1.8,1.7,2.8,4.1,2.8,6.8c0,0.4,0,0.9-0.1,1.3h2.5c-0.1-0.4-0.1-0.9-0.1-1.3c0-2.7,1.1-5.1,2.8-6.8
		H715.6z"/>
	<path class="st3" d="M659.1,44.6c2.4,0,4.3-1.9,4.3-4.3s-1.9-4.3-4.3-4.3c-2.4,0-4.3,1.9-4.3,4.3S656.7,44.6,659.1,44.6"/>
	<path class="st3" d="M659.1,54.4c2.4,0,4.3-1.9,4.3-4.3c0-2.4-1.9-4.3-4.3-4.3c-2.4,0-4.3,1.9-4.3,4.3
		C654.7,52.5,656.7,54.4,659.1,54.4"/>
	<path class="st3" d="M682.9,74.3c1.9,0,3.4-1.5,3.4-3.4c0-1.9-1.5-3.4-3.4-3.4c-1.9,0-3.4,1.5-3.4,3.4
		C679.5,72.7,681,74.3,682.9,74.3"/>
	<path class="st3" d="M673.7,74.3c1.9,0,3.4-1.5,3.4-3.4c0-1.9-1.5-3.4-3.4-3.4c-1.9,0-3.4,1.5-3.4,3.4
		C670.3,72.7,671.8,74.3,673.7,74.3"/>
</g>
<polygon class="st1" points="668,34.6 668,59.5 670.1,66.5 676.8,66.5 679.3,59.6 679.3,34.9 678,33.5 669.6,33.5 "/>
<rect x="656" y="55.4" class="st1" width="6.1" height="7.6"/>
<g>
	<defs>
		<rect id="SVGID_7_" x="52.1" y="23.9" width="695.8" height="56.1"/>
	</defs>
	<clipPath id="SVGID_8_">
		<use xlink:href="#SVGID_7_"  style="overflow:visible;"/>
	</clipPath>
	<path class="st4" d="M650.4,51.4l-11.6,0l5.9-8h5.8V51.4z M622.7,62.1l-5.3,7l2-9.8l3.3,0V62.1z M653.9,66v-1h12.3V64v-0.2v-0.5h1
		v-18h-1V33.8l0.8-1.3l-1.1-0.7l-1,1.9v11.5h-1v18h1v0.5h-11V40.5h-10.7l-9.1,11.1l-12.4,1.9l-5.7,5.3l-2.1,12l0.7,3.4h6.1
		c-0.1-0.5-0.1-0.9-0.1-1.4c0-5.1,4.1-9.2,9.2-9.2c5.1,0,9.2,4.1,9.2,9.2c0,0.5,0,0.9-0.1,1.4h15.1v-0.1h14.2V66H653.9z"/>
</g>
<rect x="687.4" y="66" class="st1" width="12.6" height="8.2"/>
<g>
	<defs>
		<rect id="SVGID_9_" x="52.1" y="23.9" width="695.8" height="56.1"/>
	</defs>
	<clipPath id="SVGID_10_">
		<use xlink:href="#SVGID_9_"  style="overflow:visible;"/>
	</clipPath>
	<path class="st5" d="M742.5,60.5h-0.1l2.1-4.1V43l-2.7-5.9h-10.9v-1.4h1v-2h-1.6l-5.6-5.1l-1.7,0h-31.5l-0.6,0.4l-8.4,5.5l-1.3,8.4
		h-0.1l-0.8,0.6v12.3l1,3.4H681l-0.8,0.3l0,5.6l1,1.6l3.3,0l1.2-1.6l0-5.6l-0.6-0.3l-0.6,0l1.2-3.3V43.5l-0.6-0.7h-0.9l1.1-6.7
		l7.1-4.5h28.8l2,2h-0.5v2h1v1.4h-34.3l-2.8,6.3l0.1,13l2.6,4.9l0,2h39.6c0.5-0.1,1-0.1,1.5-0.1c4.3,0,8,2.9,9.2,6.8h2.4h0.6h5.4
		v-6.8h-5.4V60.5z"/>
</g>
</svg>
