<?xml version="1.0" encoding="utf-8"?>
<!-- Generator: Adobe Illustrator 21.1.0, SVG Export Plug-In . SVG Version: 6.00 Build 0)  -->
<svg version="1.1" id="Layer_1" xmlns="http://www.w3.org/2000/svg" xmlns:xlink="http://www.w3.org/1999/xlink" x="0px" y="0px"
	 width="140px" height="80px" viewBox="0 0 140 80" style="enable-background:new 0 0 140 80;" xml:space="preserve">
<style type="text/css">
	.st0{clip-path:url(#SVGID_2_);fill:#3D504E;}
</style>
<g>
	<defs>
		<rect id="SVGID_1_" x="0" y="29" width="140" height="51"/>
	</defs>
	<clipPath id="SVGID_2_">
		<use xlink:href="#SVGID_1_"  style="overflow:visible;"/>
	</clipPath>
	<path class="st0" d="M105.1,74.8c1,0,1.7-0.8,1.7-1.7c0-1-0.8-1.7-1.7-1.7c-1,0-1.7,0.8-1.7,1.7C103.3,74.1,104.1,74.8,105.1,74.8"
		/>
	<path class="st0" d="M32.1,74.8c1,0,1.7-0.8,1.7-1.7c0-1-0.8-1.7-1.7-1.7c-1,0-1.7,0.8-1.7,1.7C30.4,74.1,31.1,74.8,32.1,74.8"/>
	<path class="st0" d="M109.4,73.1c0,2.4-1.9,4.4-4.4,4.4c-2.4,0-4.4-1.9-4.4-4.4c0-2.4,1.9-4.4,4.4-4.4
		C107.5,68.7,109.4,70.7,109.4,73.1 M112,73.1c0-3.8-3.1-6.9-6.9-6.9c-3.8,0-6.9,3.1-6.9,6.9c0,3.8,3.1,6.9,6.9,6.9
		C108.9,80,112,76.9,112,73.1"/>
	<path class="st0" d="M36.5,73.1c0,2.4-1.9,4.4-4.4,4.4c-2.4,0-4.4-1.9-4.4-4.4c0-2.4,1.9-4.4,4.4-4.4
		C34.5,68.7,36.5,70.7,36.5,73.1 M39,73.1c0-3.8-3.1-6.9-6.9-6.9c-3.8,0-6.9,3.1-6.9,6.9c0,3.8,3.1,6.9,6.9,6.9
		C35.9,80,39,76.9,39,73.1"/>
	<path class="st0" d="M138.4,69.8l-2.8-3.5v-2.8l2.8,0L138.4,69.8z M132.8,31.4l-10.2,20.2h-8.1l10.2-20.2H132.8z M122.4,31.4
		L112,51.6H92.7l10.5-20.2H122.4z M100.1,31.4L89.6,51.6H70.3l10.5-20.2H100.1z M78.4,31.4L67.9,51.6H48.6l10.5-20.2H78.4z
		 M56.4,31.4L45.9,51.6H26.6l10.5-20.2H56.4z M32.5,31.4L23,48.8L12,60.7l-4.5,4L11,36.7L32.5,31.4z M7,67.7l6.7-5.8l-4.4,8.7
		l-2.7,0L7,67.7z M140,64l-4.9-35H33.8L9.1,34.8l-0.2,1.4l-6.1,2.4l-2.7,5L2.6,45l2.7-5l0,0l3.3-1.6L4.7,72l2.9,2.6h16.1
		c-0.1-0.5-0.1-1-0.1-1.6c0-4.7,3.8-8.5,8.5-8.5c4.7,0,8.5,3.8,8.5,8.5c0,0.5-0.1,1-0.1,1.6h56.2c-0.1-0.5-0.1-1-0.1-1.6
		c0-4.7,3.8-8.5,8.5-8.5c4.7,0,8.5,3.8,8.5,8.5c0,0.5-0.1,1-0.1,1.6h11.2l15.3-3.1V64z"/>
</g>
</svg>
