<?xml version="1.0" encoding="utf-8"?>
<!-- Generator: Adobe Illustrator 21.1.0, SVG Export Plug-In . SVG Version: 6.00 Build 0)  -->
<svg version="1.1" id="Layer_1" xmlns="http://www.w3.org/2000/svg" xmlns:xlink="http://www.w3.org/1999/xlink" x="0px" y="0px"
	 width="24.6px" height="24.5px" viewBox="0 0 24.6 24.5" style="enable-background:new 0 0 24.6 24.5;" xml:space="preserve">
<style type="text/css">
	.st0{fill:#FFFFFF;}
</style>
<title>Ресурс 2</title>
<g id="Слой_2">
	<g id="Слой_1-2">
		<path class="st0" d="M12.3,16.4h-2l0.1,0.5h3.9l0.1-0.5H12.3z M12.3,15.4H10l0.1,0.5h4.3l0.1-0.5H12.3z M12.3,14.4H9.8l0.1,0.5
			h4.8l0.1-0.5H12.3z M12.3,13.4H9.6l0.1,0.5H15l0.1-0.5H12.3z M15.2,12.9l0.1-0.5h-6l0.1,0.5H15.2L15.2,12.9z M19,4.7l-3.6-2h1
			L19,4.7z M9.4,2.7l-3.7,2l2.8-2H9.4z M19.4,5.4l0.4-0.8l-2.9-2.3h-9L5,4.7l0.4,0.8L19.4,5.4L19.4,5.4z M24,12.2
			c0,3.3-1.5,6.5-4,8.7v-1.4l0.4-0.3v-1.5L20,17.4v-1.8l-1-0.4l0.9-0.5V11l1-0.4V9.8l0.4-0.2v-3l-0.4-0.3V5.8h-4.7l-3.1-0.1h-1.6
			L8.5,5.8H3.7v0.5L3.4,6.6v3l0.4,0.2v0.7l1,0.4v3.8l0.9,0.5l-1,0.4v1.8l-0.4,0.3v1.5l0.4,0.3v1.4C-0.2,16.7-0.7,9.4,3.6,4.6
			c2.2-2.5,5.4-4,8.8-3.9C18.7,0.6,24,5.8,24,12.2C24,12.2,24,12.2,24,12.2 M19.4,16.1l-0.3,1.6h-3.4v-0.6L19.4,16.1z M18.6,11.6
			l-2.2,4.5l-0.7,0.3L18.6,11.6z M8.2,16.1L6,11.6l2.8,4.8L8.2,16.1z M8.9,17.1v0.6H5.5L5.3,16L8.9,17.1z M18.7,10.7l-2.6,1.2
			l-1.4,5.9H9.9l-1.4-5.9l-2.6-1.1l4,0.4h2.4h2.4L18.7,10.7z M18.8,9l-0.4,0.4H6.2L5.8,9V6.4l6.5-0.2l6.5,0.2V9z M20.1,6.6v3
			l0.4,0.2v0.4l-0.9,0.4l-1-0.4H6l-1,0.4l-0.9-0.4V9.8l0.3-0.2v-3L4.1,6.3V6.2h1.1v3.2l0.6,0.5h13.1l0.6-0.5V6.2h1.1v0.1L20.1,6.6z
			 M12.3,23.8c-2.7,0-5.2-0.9-7.3-2.6h2.3v-1.7h10v1.7h2.3C17.6,22.9,15,23.8,12.3,23.8 M24.7,12.2c0-6.8-5.4-12.4-12.2-12.4
			S0.1,5.3,0,12.1s5.4,12.4,12.2,12.4c0,0,0,0,0,0C19.1,24.5,24.6,19,24.7,12.2C24.6,12.2,24.6,12.2,24.7,12.2"/>
	</g>
</g>
</svg>
