<?xml version="1.0" encoding="utf-8"?>
<!-- Generator: Adobe Illustrator 26.5.0, SVG Export Plug-In . SVG Version: 6.00 Build 0)  -->
<svg version="1.1" id="Layer_1" xmlns="http://www.w3.org/2000/svg" xmlns:xlink="http://www.w3.org/1999/xlink" x="0px" y="0px"
	 viewBox="0 0 80 80" style="enable-background:new 0 0 80 80;" xml:space="preserve">
<style type="text/css">
	.st0{clip-path:url(#SVGID_00000098222072294035673180000008096161377503447683_);fill:#FFFFFF;}
	.st1{clip-path:url(#SVGID_00000137849823547699195310000007807588828176745363_);fill:#FFFFFF;}
</style>
<g>
	<g>
		<g>
			<g>
				<defs>
					<rect id="SVGID_1_" x="0.1" y="0.4" width="79.8" height="79.2"/>
				</defs>
				<clipPath id="SVGID_00000025412695558309863860000015212747979064797098_">
					<use xlink:href="#SVGID_1_"  style="overflow:visible;"/>
				</clipPath>
				<path style="clip-path:url(#SVGID_00000025412695558309863860000015212747979064797098_);fill:#FFFFFF;" d="M77.8,40
					c0,20.7-16.9,37.5-37.8,37.5S2.2,60.7,2.2,40S19.1,2.5,40,2.5S77.8,19.3,77.8,40 M79.9,40C79.9,18.1,62,0.4,40,0.4
					S0.1,18.1,0.1,40S18,79.6,40,79.6S79.9,61.9,79.9,40"/>
			</g>
		</g>
	</g>
</g>
<g>
	<g>
		<defs>
			<rect id="SVGID_00000113320150402792521560000018105152332422365872_" x="9.4" y="9.4" width="62.2" height="56.9"/>
		</defs>
		<clipPath id="SVGID_00000152945975984991152760000003880719976985096104_">
			<use xlink:href="#SVGID_00000113320150402792521560000018105152332422365872_"  style="overflow:visible;"/>
		</clipPath>
		<path style="clip-path:url(#SVGID_00000152945975984991152760000003880719976985096104_);fill:#FFFFFF;" d="M20.4,60.5
			c0,0.5-0.5,1-1.1,1s-1.1-0.4-1.1-1c0-0.5,0.5-1,1.1-1S20.4,59.9,20.4,60.5 M22.9,60.5c0-1.9-1.6-3.4-3.6-3.4s-3.6,1.5-3.6,3.4
			s1.6,3.4,3.6,3.4S22.9,62.3,22.9,60.5 M25,60.5c0,3-2.6,5.4-5.7,5.4s-5.7-2.4-5.7-5.4s2.6-5.4,5.7-5.4S25,57.5,25,60.5 M45.2,60.5
			c0,0.5-0.5,1-1.1,1s-1.1-0.4-1.1-1c0-0.5,0.5-1,1.1-1S45.2,59.9,45.2,60.5 M47.7,60.5c0-1.9-1.6-3.4-3.6-3.4s-3.6,1.5-3.6,3.4
			s1.6,3.4,3.6,3.4C46.1,63.9,47.7,62.3,47.7,60.5 M49.8,60.5c0,3-2.6,5.4-5.7,5.4s-5.7-2.4-5.7-5.4s2.6-5.4,5.7-5.4
			S49.8,57.5,49.8,60.5 M28.3,50.6L28,44.5c0,0,0.3,0.1,0.9,0.7c0.5,0.4,1.2,5.4,1.2,5.4s2.2,0,3.7,0.3s1.2,2,1.2,2l-5.2-0.2
			L28.3,50.6z M26.6,49.5 M26.6,49.5c0.9,1.3,2.9,4.1,2.9,4.1h4.6c0,0,0.9,0.3,1.8,1.5c0.2,0.3,0.3,0.6,0.4,0.8
			c1.1-0.6,1.8-1.2,2.4-1.9l-1.5-3.8l0.3-0.5l-1.2-0.9l-0.8,1.3l-1.1-0.6l2.4-3.7l1.1,0.6L37,47.8l1.3,0.9l0.5-0.4c0,0,2,1,2.8,1.4
			c0.1-1.4-0.2-2.8-0.2-2.8l-3-5.9l-9.2-0.1 M28.2,39.3L39,39.4l4,7.3l0.2,4c0,0-0.4,0.7-0.5,1l3.7,0.3l0.5,0.9l5.5,1.5v1.1l2.8,1.8
			h0.4v-0.8h2.6v0.8h1v2.6h-1v2.5h-0.6v1.3h0.6V65h2.3v1.3h-2.3h-2.6h-2.3V65h2.3v-1.3h0.6v-1.3h-0.6v-2.5L55,59.8L52.3,58v2.7h-1.6
			c0-0.1,0-0.2,0-0.2c0-3.5-3-6.3-6.6-6.3s-6.6,2.8-6.6,6.3c0,0.4,0.1,0.9,0.1,1.3H25.8c0.1-0.4,0.1-0.8,0.1-1.3
			c0-3.5-3-6.3-6.6-6.3s-6.4,2.7-6.6,6H9.4v-9v-0.8v-5.9h1.7l21.1-17.7l1,1.1l2-1.7l-1-1.1l2.5-2.1l1,1.1l6.5-5.5l-0.9-1.1l4-3.3
			l4,4.8h1.2V9.4h2v15.8l16.9-3l0.2,0.9l-17.1,4.2l-2,0.1l-5.1-4.8l-0.9-1.1L40,27l0.9,1l-2.5,2.1l-0.9-1l-2,1.7l0.9,1L16.8,48.1
			l1.8,2.3h5.5h0.8"/>
	</g>
</g>
</svg>
