<?xml version="1.0" encoding="utf-8"?>
<!-- Generator: Adobe Illustrator 21.1.0, SVG Export Plug-In . SVG Version: 6.00 Build 0)  -->
<svg version="1.1" id="Layer_1" xmlns="http://www.w3.org/2000/svg" xmlns:xlink="http://www.w3.org/1999/xlink" x="0px" y="0px"
	 width="140px" height="80px" viewBox="0 0 140 80" style="enable-background:new 0 0 140 80;" xml:space="preserve">
<style type="text/css">
	.st0{fill:#3D504E;}
</style>
<path class="st0" d="M65,73h5h0h5v2.7h-5h0h-5V73z M52.6,68.2H63v1.9H52.6V68.2z M65.4,68.2H70h0h4.5v0.9H70h0h-4.5V68.2z
	 M77.1,68.2h10.4v1.9H77.1V68.2z M38.6,67.7h5.7v2.2h-2.9L38.6,67.7z M95.7,67.7h5.7l-2.9,2.2h-2.9V67.7z M36,63.3v-7.5l1.9-1.7
	h17.3l-2.4,2.7l-1.6,9.1H37.4L36,63.3z M87.2,56.8l-2.4-2.7h17.3l1.9,1.7v7.5l-1.4,2.5H88.8L87.2,56.8z M70,54.1L70,54.1l11.1,0
	l2.9,3.4l1.5,8.4H70h0H54.4l1.5-8.4l2.9-3.4L70,54.1L70,54.1z M82.2,51L70,51l-12.2,0l-1,1.1H36.6l-2.9,3v8.5l1.2,2.2h-2.3v5.7
	l16.9,6.1V80h7.3v-2H70h0h13.1v2h7.3v-2.4l16.9-6.1v-5.7h-2.3l1.2-2.2v-8.5l-2.9-3H83.2L82.2,51z"/>
</svg>
