<?xml version="1.0" encoding="utf-8"?>
<!-- Generator: Adobe Illustrator 21.1.0, SVG Export Plug-In . SVG Version: 6.00 Build 0)  -->
<svg version="1.1" id="Layer_1" xmlns="http://www.w3.org/2000/svg" xmlns:xlink="http://www.w3.org/1999/xlink" x="0px" y="0px"
	 width="140px" height="80px" viewBox="0 0 140 80" style="enable-background:new 0 0 140 80;" xml:space="preserve">
<style type="text/css">
	.st0{clip-path:url(#SVGID_2_);fill:#3D504E;}
</style>
<g>
	<defs>
		<rect id="SVGID_1_" x="13.5" y="36.9" width="113" height="43.1"/>
	</defs>
	<clipPath id="SVGID_2_">
		<use xlink:href="#SVGID_1_"  style="overflow:visible;"/>
	</clipPath>
	<path class="st0" d="M124.2,63.9l-2.9-4v-3.2l2.9,0L124.2,63.9z M122.7,50H98.5l-4.9-10.5h19.2L122.7,50z M89.5,39.4L94.4,50H77.1
		V39.4H89.5z M73.1,50H47.2l17-10.5h8.9V50z M24.8,54.9l-5.4,10.5l-3.3,0v-3.4L24.8,54.9z M126.5,66.1V48.9l-11.9-12h-8l-43.8-0.1
		L43.2,48.7l-20.8,3.8l-9,7.5v8.5l6,5H22c-0.4-1.2-0.6-2.5-0.6-3.9c0-7.1,5.8-12.9,12.9-12.9c7.1,0,12.9,5.8,12.9,12.9
		c0,1.3-0.2,2.6-0.6,3.9h43.7c-0.4-1.2-0.6-2.5-0.6-3.9c0-7.1,5.8-12.9,12.9-12.9s12.9,5.8,12.9,12.9c0,1.1-0.1,2.1-0.4,3.1
		L126.5,66.1z"/>
	<path class="st0" d="M102.5,72.9c1.3,0,2.3-1,2.3-2.3c0-1.3-1-2.3-2.3-2.3c-1.3,0-2.3,1-2.3,2.3C100.3,71.9,101.3,72.9,102.5,72.9"
		/>
	<path class="st0" d="M34.3,72.9c1.3,0,2.3-1,2.3-2.3c0-1.3-1-2.3-2.3-2.3s-2.3,1-2.3,2.3C32,71.9,33,72.9,34.3,72.9"/>
	<path class="st0" d="M108.7,70.2c0,3.4-2.8,6.2-6.2,6.2c-3.4,0-6.2-2.8-6.2-6.2s2.8-6.2,6.2-6.2C105.9,63.9,108.7,66.7,108.7,70.2
		 M112.4,70.2c0-5.4-4.4-9.8-9.8-9.8s-9.8,4.4-9.8,9.8c0,5.4,4.4,9.8,9.8,9.8S112.4,75.6,112.4,70.2"/>
	<path class="st0" d="M40.5,70.2c0,3.4-2.8,6.2-6.2,6.2c-3.4,0-6.2-2.8-6.2-6.2s2.8-6.2,6.2-6.2C37.7,63.9,40.5,66.7,40.5,70.2
		 M44.1,70.2c0-5.4-4.4-9.8-9.8-9.8c-5.4,0-9.8,4.4-9.8,9.8c0,5.4,4.4,9.8,9.8,9.8C39.7,80,44.1,75.6,44.1,70.2"/>
</g>
</svg>
