<svg id="Layer_1" xmlns="http://www.w3.org/2000/svg" xmlns:xlink="http://www.w3.org/1999/xlink" width="33" height="21" viewBox="0 0 33 21"><style>.st0,.st1{fill:#fff}.st1{clip-path:url(#SVGID_2_)}</style><path class="st0" d="M.2.9v1.9h11.5l.5-1.9zm0 17v1.9h12l-.5-1.9zm0-12.7V7h10.7l.3-1.8zm0 8.5v1.8h11l-.3-1.8zm0-4.3h10.5v1.9H.2z"/><defs><path id="SVGID_1_" d="M.2.1h32.7v20.7H.2z"/></defs><clipPath id="SVGID_2_"><use xlink:href="#SVGID_1_" overflow="visible"/></clipPath><path class="st1" d="M30.8 12.4c-.3 1.2-.8 2.3-3.2 4.2-2.5 2-6.7 2.2-6.7 2.2s-3.5.4-4.2 0c-.7-.3-.9-1.2-1.2-2-.3-1-.6-2.3-.7-3.9-.1-1.6-.1-3.2 0-4.9.1-1.6.4-2.9.7-3.9.2-.8.4-1.7 1.2-2 .7-.3 4.2 0 4.2 0s4.2.2 6.7 2.2c2.4 1.9 2.9 3 3.2 4.2.2 1.2.2 2.8 0 3.9m1.8-4.2c-.3-1.4-.9-2.8-3.9-5.1C25.6.6 20.5.4 20.5.4s-3.8-.4-4.7 0c-.9.4-1.3 1.2-1.7 2.1-.5.9-1 3.1-1.1 5.1-.1 1.5-.1 3.9 0 5.9s.6 4.2 1.1 5.1c.5.9.8 1.7 1.7 2.1.9.4 4.7 0 4.7 0s5.1-.3 8.2-2.7c2.9-2.3 3.6-3.7 3.9-5.1.3-1.5.3-3.3 0-4.7"/></svg>