<?xml version="1.0" encoding="utf-8"?>
<!-- Generator: Adobe Illustrator 22.0.1, SVG Export Plug-In . SVG Version: 6.00 Build 0)  -->
<svg version="1.1" baseProfile="basic" id="Слой_1"
	 xmlns="http://www.w3.org/2000/svg" xmlns:xlink="http://www.w3.org/1999/xlink" x="0px" y="0px" viewBox="0 0 24.8 24.6"
	 xml:space="preserve">
<style type="text/css">
	.st0{fill:#fff;}
</style>
<path class="st0" d="M12.2,11.1c0.7,0,1.2,0.6,1.2,1.2c0,0.7-0.5,1.2-1.2,1.2c-0.7,0-1.2-0.6-1.2-1.2C11,11.7,11.6,11.1,12.2,11.1
	 M12.6,14.6c0.1,0,0.2-0.1,0.4-0.1l1.6,2.8c-0.6,0.3-1.3,0.5-2,0.5V14.6z M15.3,16.9l-1.6-2.8c0.1-0.1,0.2-0.1,0.2-0.2l2.8,1.6
	C16.3,16,15.9,16.5,15.3,16.9 M17.1,14.7l-2.8-1.6c0-0.1,0.1-0.2,0.1-0.3h3.2C17.5,13.5,17.4,14.1,17.1,14.7 M17.6,11.9h-3.2
	c0-0.1-0.1-0.2-0.1-0.3l2.8-1.6C17.3,10.6,17.5,11.2,17.6,11.9 M16.6,9.2l-2.8,1.6c-0.1-0.1-0.1-0.1-0.2-0.2l1.6-2.8
	C15.8,8.2,16.3,8.7,16.6,9.2 M14.6,7.4L13,10.3c-0.1,0-0.2-0.1-0.3-0.1V6.9C13.3,6.9,14,7.1,14.6,7.4 M12.2,6.2
	c-0.6,0-1.1,0.1-1.6,0.2v0.7C11,7,11.4,6.9,11.8,6.9v3.3c-0.1,0-0.2,0-0.3,0.1l-0.9-1.7v1.7l0.2,0.4c-0.1,0.1-0.1,0.1-0.2,0.2v3.1
	c0.1,0.1,0.1,0.1,0.2,0.2l-0.2,0.3v1.7l0.9-1.6c0.1,0,0.2,0.1,0.3,0.1v3.3c-0.4,0-0.8-0.1-1.2-0.2v0.7c0.5,0.1,1.1,0.2,1.6,0.2
	c3.3,0,6-2.8,6-6.2C18.2,9,15.5,6.2,12.2,6.2 M21.1,12.4c0-5-3.9-9-8.8-9c-0.6,0-1.2,0.1-1.7,0.2v2.2c0.6-0.2,1.1-0.2,1.7-0.2
	c3.7,0,6.7,3.1,6.7,6.9c0,3.8-3,6.9-6.7,6.9c-0.6,0-1.2-0.1-1.7-0.2v2.2c0.6,0.1,1.1,0.2,1.7,0.2C17.2,21.4,21.1,17.4,21.1,12.4
	 M24,12.3c0,6.4-5.2,11.6-11.7,11.6c-2.7,0-5.2-0.9-7.2-2.5l3.9,0l1-1V4.2l-1-1H5.2c2-1.5,4.5-2.5,7.2-2.5C18.8,0.7,24,5.9,24,12.3
	 M3.7,4.5v15.6c-1.9-2.1-3-4.8-3-7.8C0.7,9.3,1.9,6.6,3.7,4.5 M4.9,3.6h0.6L4.5,4.2V4.1L4.9,3.6z M8.2,3.6h0.6l0.5,0.5v0.1L8.2,3.6z
	 M6.6,20.6V19l-2.1,1.1v-1.4l2.1-1.2v-2.2l-2.1,1.2v-1.9l2.1-1.1v-3l-2.1,1.1V9.6l2.1-1.2V6.2L4.5,7.3V6l2.1-1.1l0-1.2h0.6l0,1.2
	L9.3,6v1.3L7.2,6.2v2.3l2.1,1.2v1.9l-2.1-1.1v3l2.1,1.1v1.9l-2.1-1.2v2.2l2.1,1.2v1.4L7.2,19v1.6L7.8,21l-1.9,0L6.6,20.6z
	 M24.7,12.3c0-6.8-5.5-12.2-12.3-12.2C5.6,0.1,0.1,5.5,0.1,12.3c0,6.8,5.5,12.2,12.3,12.2C19.2,24.5,24.7,19.1,24.7,12.3"/>
</svg>
