<?xml version="1.0" encoding="utf-8"?>
<!-- Generator: Adobe Illustrator 21.1.0, SVG Export Plug-In . SVG Version: 6.00 Build 0)  -->
<svg version="1.1" id="Layer_1" xmlns="http://www.w3.org/2000/svg" xmlns:xlink="http://www.w3.org/1999/xlink" x="0px" y="0px"
	 width="68px" height="68px" viewBox="0 0 68 68" style="enable-background:new 0 0 68 68;" xml:space="preserve">
<style type="text/css">
	.st0{clip-path:url(#SVGID_2_);fill:#FFFFFF;}
</style>
<g>
	<g>
		<defs>
			<rect id="SVGID_1_" x="0.1" y="0.4" width="67.8" height="67.3"/>
		</defs>
		<clipPath id="SVGID_2_">
			<use xlink:href="#SVGID_1_"  style="overflow:visible;"/>
		</clipPath>
		<path class="st0" d="M66.1,34c0,17.6-14.4,31.9-32.1,31.9S1.9,51.6,1.9,34C1.9,16.4,16.3,2.1,34,2.1S66.1,16.4,66.1,34 M67.9,34
			C67.9,15.4,52.7,0.4,34,0.4C15.3,0.4,0.1,15.4,0.1,34S15.3,67.6,34,67.6C52.7,67.6,67.9,52.6,67.9,34"/>
		<path class="st0" d="M51.7,42.6l-0.6,4.3l-8.4,0v-1.5L51.7,42.6z M50.8,36.1c0,2.4-7.4,4.1-16.9,4.1s-16.8-1.6-16.8-4.1v-17
			c0-2.4,7-4.1,16.8-4.1c9.8,0,16.8,1.6,16.8,4.1V36.1z M16.3,42.6l9.1,2.7v1.5l-8.4,0L16.3,42.6z M28.1,43.2h5.8H34h0.1h5.8
			l-0.3,1.3h-5.6H34h-0.1h-5.6L28.1,43.2z M28.6,45.6h5.3H34h0.1h5.3l-0.3,1.3h-5H34h-0.1h-5L28.6,45.6z M29.2,47.9h4.7H34h0.1h4.7
			l-0.3,1.3h-4.5H34h-0.1h-4.5L29.2,47.9z M58.7,31.4V22l-1.1-0.9v-0.7l0-0.9l-3.6,0v-3.2c0-2.2-3.8-5.6-20.4-5.6S14,14.4,14,16.4
			v3.2l-3.6,0l0,0.9v0.7L9.3,22v9.3l1.1,0.8l0,0.1h1.3v-0.1l1.1-0.7V22l-1.1-0.9v-0.3H14v30.5c0,0,0,2,2,2h0.2l0,3.9h6.3l0-3.9h23
			l0,3.9h6.3l0-3.9H52c0,0,2,0,2-2V20.8h2.3v0.3L55.2,22v9.3l1.1,0.7v0.1h1.3v-0.1L58.7,31.4z"/>
	</g>
</g>
</svg>
