<?xml version="1.0" encoding="utf-8"?>
<!-- Generator: Adobe Illustrator 21.1.0, SVG Export Plug-In . SVG Version: 6.00 Build 0)  -->
<svg version="1.1" id="Layer_1" xmlns="http://www.w3.org/2000/svg" xmlns:xlink="http://www.w3.org/1999/xlink" x="0px" y="0px"
	 width="68px" height="68px" viewBox="0 0 68 68" style="enable-background:new 0 0 68 68;" xml:space="preserve">
<style type="text/css">
	.st0{clip-path:url(#SVGID_2_);fill:#FFFFFF;}
	.st1{fill:#FFFFFF;}
</style>
<g>
	<g>
		<defs>
			<rect id="SVGID_1_" x="0.3" y="0.5" width="67.5" height="66.9"/>
		</defs>
		<clipPath id="SVGID_2_">
			<use xlink:href="#SVGID_1_"  style="overflow:visible;"/>
		</clipPath>
		<path class="st0" d="M66,34c0,17.5-14.3,31.7-32,31.7S2,51.5,2,34C2,16.5,16.3,2.3,34,2.3S66,16.5,66,34 M67.7,34
			C67.7,15.5,52.6,0.5,34,0.5C15.4,0.5,0.3,15.5,0.3,34S15.4,67.5,34,67.5C52.6,67.5,67.7,52.5,67.7,34"/>
		<path class="st0" d="M45.4,41c0.5,0,0.9-0.4,0.9-0.9c0-0.5-0.4-0.9-0.9-0.9c-0.5,0-0.9,0.4-0.9,0.9C44.6,40.6,44.9,41,45.4,41"/>
		<path class="st0" d="M47.7,40.1c0,1.2-1,2.2-2.2,2.2c-1.2,0-2.2-1-2.2-2.2c0-1.2,1-2.2,2.2-2.2C46.7,37.9,47.7,38.9,47.7,40.1
			 M49,40.1c0-2-1.6-3.6-3.6-3.6c-2,0-3.6,1.6-3.6,3.6c0,2,1.6,3.6,3.6,3.6C47.4,43.7,49,42.1,49,40.1"/>
		<path class="st0" d="M13.1,41.2c0.5,0,0.9-0.4,0.9-0.9c0-0.5-0.4-0.9-0.9-0.9s-0.9,0.4-0.9,0.9C12.1,40.8,12.6,41.2,13.1,41.2"/>
		<path class="st0" d="M15.5,40.3c0,1.3-1.1,2.4-2.4,2.4c-1.3,0-2.4-1.1-2.4-2.4s1.1-2.4,2.4-2.4C14.4,37.9,15.5,39,15.5,40.3
			 M16.9,40.3c0-2.1-1.7-3.8-3.9-3.8s-3.9,1.7-3.9,3.8c0,2.1,1.7,3.8,3.9,3.8S16.9,42.4,16.9,40.3"/>
		<path class="st0" d="M52.6,33.7H30v-5.5h22.5V33.7z M23.9,28.7l-6.7,0l3.2-5.1h3.5V28.7z M8.5,34.5l-2.9,3.8L6.7,33l1.8,0V34.5z
			 M63.5,41.1v-1.7h-2.6v-3.7h-4.1v-8.4h1.1v-4.7h-0.2l0,0l-30.6-4.4c-0.4-0.3-0.9-0.7-0.9-0.7l-3.5,1.4l2.8,3.2l-0.1-1.8l1.3-0.7
			l25.7,5.8v0.8H40.4v-2.6h-1.7v2.6h-1.4v-2.6h-6.4v2.6h-3.2v12.1h-0.8V22h-7.2l-4.9,6.8l-6,1l-3.1,2.9l-1.2,6.5l0.4,1.8h3.3
			c0-0.2-0.1-0.5-0.1-0.8c0-2.8,2.2-5,5-5c2.8,0,5,2.2,5,5c0,0.3,0,0.5-0.1,0.8h7.5v0h2.4v0h12.7c-0.1-0.3-0.1-0.6-0.1-1
			c0-2.7,2.2-4.9,4.9-4.9c2.7,0,4.9,2.2,4.9,4.9c0,0.3,0,0.7-0.1,1h6.5h4.1H63.5z"/>
	</g>
	<rect x="31.1" y="29.3" class="st1" width="20.3" height="3.3"/>
</g>
</svg>
